M48
METRIC,LZ,000.000
;FILE_FORMAT=3:3
;TYPE=PLATED
;Layer: PTH_Through_Via
;EasyEDA v6.5.23, 2023-06-23 22:07:44
;588d00b09ced4095aabd395724b38ff5,e63460ceaba84a3bb957dccbc2ed3a87,10
;Gerber Generator version 0.2
;Holesize 1 = 0.501 mm
T01C0.501
%
G05
G90
T01
X010668Y074549
X028321Y075692
X009525Y084709
X019558Y090170
X010922Y104394
X031115Y101727
X047117Y101981
X038227Y090551
X070866Y101854
X063500Y087376
X053594Y066802
X063627Y077978
X040767Y077851
X053467Y091059
X063627Y066548
X071374Y087884
X044831Y080137
X019431Y054102
X036449Y046990
X039116Y050165
M30
