M48
METRIC,LZ,000.000
;FILE_FORMAT=3:3
;TYPE=PLATED
;Layer: PTH_Through
;EasyEDA v6.5.23, 2023-06-23 22:07:44
;588d00b09ced4095aabd395724b38ff5,e63460ceaba84a3bb957dccbc2ed3a87,10
;Gerber Generator version 0.2
;Holesize 1 = 0.701 mm
T01C0.701
;Holesize 2 = 0.801 mm
T02C0.801
;Holesize 3 = 0.889 mm
T03C0.889
;Holesize 4 = 0.900 mm
T04C0.900
;Holesize 5 = 0.901 mm
T05C0.901
;Holesize 6 = 0.915 mm
T06C0.915
;Holesize 7 = 1.400 mm
T07C1.400
%
G05
G90
T01
X047244Y048779
X047244Y050281
T02
X028067Y061846G85X028067Y061852
X030607Y061846G85X030607Y061852
X033147Y061846G85X033147Y061852
X035687Y061846G85X035687Y061852
X038227Y061846G85X038227Y061852
X040767Y061846G85X040767Y061852
X043307Y061846G85X043307Y061852
X045847Y061846G85X045847Y061852
X048387Y061846G85X048387Y061852
X050927Y061846G85X050927Y061852
X053467Y061846G85X053467Y061852
X056007Y061846G85X056007Y061852
X058547Y061846G85X058547Y061852
X061087Y061846G85X061087Y061852
X063627Y061846G85X063627Y061852
X028067Y084706G85X028067Y084712
X030607Y084706G85X030607Y084712
X033147Y084706G85X033147Y084712
X035687Y084706G85X035687Y084712
X038227Y084706G85X038227Y084712
X040767Y084706G85X040767Y084712
X043307Y084706G85X043307Y084712
X045847Y084706G85X045847Y084712
X048387Y084706G85X048387Y084712
X050927Y084706G85X050927Y084712
X053467Y084706G85X053467Y084712
X056007Y084706G85X056007Y084712
X058547Y084706G85X058547Y084712
X061087Y084706G85X061087Y084712
X063627Y084706G85X063627Y084712
T03
X040418Y104381
X037878Y104381
X065786Y104356
X068326Y104356
X056483Y104356
X059023Y104356
X074168Y078105
X074168Y075565
X074168Y073025
X074168Y070485
X031115Y104369
X028575Y104369
X026035Y104369
X023495Y104369
X052261Y104356
X049721Y104356
X047181Y104356
X044641Y104356
X013462Y104369
X016002Y104369
T04
X010668Y064567
X010668Y071069
T05
X014009Y045555G85X015709Y045555
X011859Y051304G85X011859Y049104
X017860Y049104G85X017860Y051304
X009525Y082677
X009525Y080137
T06
X035338Y104381
X070866Y104356
X061563Y104356
T07
X033909Y050165
X031369Y050165
X036449Y050165
M30
