G04 Layer: TopSilkscreenLayer*
G04 EasyEDA v6.5.23, 2023-06-23 22:07:44*
G04 588d00b09ced4095aabd395724b38ff5,e63460ceaba84a3bb957dccbc2ed3a87,10*
G04 Gerber Generator version 0.2*
G04 Scale: 100 percent, Rotated: No, Reflected: No *
G04 Dimensions in millimeters *
G04 leading zeros omitted , absolute positions ,4 integer and 5 decimal *
%FSLAX45Y45*%
%MOMM*%

%ADD10C,0.1524*%
%ADD11C,0.2540*%
%ADD12C,0.2032*%
%ADD13C,0.2030*%

%LPD*%
G36*
X5676392Y5244795D02*
G01*
X5536844Y5243880D01*
X5501436Y5243017D01*
X5467959Y5241442D01*
X5437987Y5239308D01*
X5424779Y5238038D01*
X5413044Y5236667D01*
X5402935Y5235244D01*
X5394655Y5233720D01*
X5388457Y5232146D01*
X5383022Y5229961D01*
X5376672Y5226659D01*
X5370271Y5222494D01*
X5363768Y5217515D01*
X5357114Y5211622D01*
X5350408Y5204866D01*
X5343499Y5197144D01*
X5336387Y5188458D01*
X5329072Y5178755D01*
X5321554Y5167985D01*
X5313730Y5156149D01*
X5305653Y5143246D01*
X5297271Y5129174D01*
X5279491Y5097475D01*
X5253532Y5048859D01*
X5238648Y5023154D01*
X5231942Y5012385D01*
X5225948Y5003444D01*
X5220919Y4996637D01*
X5217058Y4992319D01*
X5211572Y4988001D01*
X5208371Y4984038D01*
X5207101Y4981752D01*
X5205222Y4976469D01*
X5204612Y4973523D01*
X5204104Y4966970D01*
X5204460Y4959451D01*
X5205780Y4950917D01*
X5207965Y4941417D01*
X5211114Y4930851D01*
X5215229Y4919218D01*
X5220258Y4906467D01*
X5226304Y4892548D01*
X5233263Y4877460D01*
X5241239Y4861153D01*
X5250180Y4843576D01*
X5272278Y4802174D01*
X5293614Y4763719D01*
X5303012Y4747615D01*
X5311648Y4733391D01*
X5319522Y4721047D01*
X5326786Y4710430D01*
X5333492Y4701540D01*
X5339689Y4694224D01*
X5345480Y4688382D01*
X5350916Y4684014D01*
X5353507Y4682286D01*
X5358485Y4679848D01*
X5363311Y4678578D01*
X5368036Y4678426D01*
X5372709Y4679289D01*
X5376468Y4680813D01*
X5380075Y4683709D01*
X5384596Y4688332D01*
X5389930Y4694529D01*
X5395976Y4702251D01*
X5409946Y4721504D01*
X5425592Y4745075D01*
X5442254Y4771745D01*
X5467858Y4814874D01*
X5476798Y4829098D01*
X5485841Y4842865D01*
X5494883Y4856124D01*
X5503773Y4868621D01*
X5512460Y4880254D01*
X5520740Y4890871D01*
X5528564Y4900269D01*
X5535777Y4908346D01*
X5542280Y4914950D01*
X5547969Y4919827D01*
X5550509Y4921656D01*
X5585002Y4944262D01*
X5831890Y4944262D01*
X5831890Y4973320D01*
X5831382Y4978400D01*
X5829858Y4984953D01*
X5827369Y4992979D01*
X5824118Y5002225D01*
X5820054Y5012537D01*
X5809894Y5036007D01*
X5797600Y5062118D01*
X5790844Y5075834D01*
X5772708Y5110886D01*
X5757570Y5138470D01*
X5742533Y5164480D01*
X5728258Y5187696D01*
X5715304Y5206949D01*
X5709462Y5214721D01*
X5704230Y5221122D01*
X5699658Y5225948D01*
G37*
G36*
X6829145Y5000701D02*
G01*
X6829145Y4875987D01*
X6774484Y4875987D01*
X6774484Y4807661D01*
X6826148Y4807661D01*
X6836664Y4600041D01*
X6862825Y4580890D01*
X6866788Y4578299D01*
X6871411Y4575810D01*
X6876592Y4573473D01*
X6882231Y4571238D01*
X6888276Y4569206D01*
X6901180Y4565751D01*
X6914591Y4563262D01*
X6921296Y4562449D01*
X6927850Y4561941D01*
X6934200Y4561738D01*
X6979412Y4561738D01*
X6979412Y4630064D01*
X6952792Y4630064D01*
X6948170Y4630216D01*
X6943852Y4630674D01*
X6939838Y4631436D01*
X6936028Y4632553D01*
X6932523Y4633976D01*
X6929221Y4635804D01*
X6926224Y4637938D01*
X6923430Y4640478D01*
X6920890Y4643374D01*
X6918604Y4646676D01*
X6916521Y4650384D01*
X6914692Y4654499D01*
X6913067Y4659020D01*
X6911695Y4663998D01*
X6910527Y4669383D01*
X6909562Y4675225D01*
X6908800Y4681575D01*
X6907936Y4695647D01*
X6907834Y4711700D01*
X6908495Y4729835D01*
X6913930Y4810302D01*
X6979412Y4797806D01*
X6979412Y4875987D01*
X6912711Y4875987D01*
X6904278Y4992065D01*
G37*
G36*
X6676796Y4998923D02*
G01*
X6631431Y4953406D01*
X6621322Y4941773D01*
X6612483Y4930089D01*
X6608622Y4924450D01*
X6605270Y4919014D01*
X6602374Y4913833D01*
X6600088Y4909007D01*
X6598361Y4904638D01*
X6597294Y4900777D01*
X6596888Y4897526D01*
X6595313Y4889144D01*
X6590893Y4882286D01*
X6584391Y4877663D01*
X6576415Y4875987D01*
X6555943Y4875987D01*
X6555943Y4794859D01*
X6596888Y4810556D01*
X6596888Y4559960D01*
X6672072Y4568596D01*
X6679946Y4807661D01*
X6747205Y4807661D01*
X6747205Y4875987D01*
X6676593Y4875987D01*
X6682231Y4893056D01*
X6683959Y4896561D01*
X6686753Y4900015D01*
X6690461Y4903317D01*
X6694931Y4906365D01*
X6700012Y4909108D01*
X6705549Y4911445D01*
X6711442Y4913274D01*
X6717538Y4914493D01*
X6747205Y4918862D01*
X6747205Y4998923D01*
G37*
G36*
X7006742Y4998923D02*
G01*
X7006742Y4561738D01*
X7088733Y4561738D01*
X7088733Y4998923D01*
G37*
G36*
X7102398Y4998923D02*
G01*
X7102398Y4916932D01*
X7170674Y4916932D01*
X7170674Y4561738D01*
X7239000Y4561738D01*
X7239203Y4639564D01*
X7240727Y4685284D01*
X7244029Y4747768D01*
X7246874Y4790084D01*
X7256576Y4915560D01*
X7314133Y4923790D01*
X7322769Y4998923D01*
G37*
G36*
X7474153Y4882743D02*
G01*
X7468819Y4882591D01*
X7462113Y4881880D01*
X7454290Y4880559D01*
X7445603Y4878781D01*
X7436307Y4876546D01*
X7426655Y4873904D01*
X7369708Y4855464D01*
X7307275Y4762652D01*
X7307275Y4675276D01*
X7389266Y4675276D01*
X7389266Y4716475D01*
X7389469Y4722266D01*
X7390079Y4728311D01*
X7391044Y4734458D01*
X7392365Y4740656D01*
X7393990Y4746853D01*
X7395921Y4752949D01*
X7398054Y4758791D01*
X7400493Y4764430D01*
X7403084Y4769713D01*
X7405878Y4774590D01*
X7408824Y4778908D01*
X7411872Y4782667D01*
X7415530Y4786325D01*
X7419695Y4789728D01*
X7424318Y4792827D01*
X7429296Y4795672D01*
X7434580Y4798212D01*
X7440168Y4800447D01*
X7445959Y4802378D01*
X7451953Y4804003D01*
X7458100Y4805324D01*
X7464348Y4806340D01*
X7470597Y4807000D01*
X7476845Y4807356D01*
X7482992Y4807356D01*
X7489088Y4807000D01*
X7494981Y4806289D01*
X7500670Y4805222D01*
X7506106Y4803749D01*
X7511288Y4801971D01*
X7516063Y4799787D01*
X7520431Y4797196D01*
X7523734Y4794605D01*
X7527493Y4790998D01*
X7531455Y4786579D01*
X7535570Y4781499D01*
X7539685Y4775911D01*
X7547508Y4763871D01*
X7550912Y4757775D01*
X7566355Y4728362D01*
X7537145Y4644491D01*
X7442809Y4626813D01*
X7389266Y4675276D01*
X7307275Y4675276D01*
X7369759Y4582261D01*
X7468768Y4549597D01*
X7520330Y4563973D01*
X7530744Y4567885D01*
X7541615Y4572914D01*
X7552639Y4578756D01*
X7563459Y4585309D01*
X7573772Y4592320D01*
X7583271Y4599584D01*
X7591552Y4607001D01*
X7595209Y4610658D01*
X7628331Y4645914D01*
X7628331Y4805375D01*
X7590231Y4838192D01*
X7579410Y4846015D01*
X7567472Y4853381D01*
X7555128Y4859985D01*
X7548981Y4862880D01*
X7537246Y4867605D01*
X7531811Y4869332D01*
X7526781Y4870653D01*
X7497927Y4877206D01*
X7477912Y4882235D01*
G37*
G36*
X6432753Y4877663D02*
G01*
X6341211Y4872990D01*
X6330899Y4872228D01*
X6312306Y4870196D01*
X6304178Y4869027D01*
X6290716Y4866386D01*
X6285636Y4864963D01*
X6281674Y4863541D01*
X6278981Y4862068D01*
X6277711Y4860594D01*
X6277813Y4859121D01*
X6279235Y4855057D01*
X6278270Y4851704D01*
X6275171Y4849469D01*
X6270193Y4848656D01*
X6266992Y4848352D01*
X6263843Y4847590D01*
X6260795Y4846320D01*
X6257798Y4844592D01*
X6254851Y4842357D01*
X6252006Y4839716D01*
X6249212Y4836668D01*
X6246520Y4833264D01*
X6243929Y4829454D01*
X6239002Y4820818D01*
X6234480Y4810912D01*
X6230416Y4799939D01*
X6226810Y4788103D01*
X6223660Y4775504D01*
X6221069Y4762296D01*
X6219088Y4748733D01*
X6217615Y4734864D01*
X6216853Y4720945D01*
X6216700Y4712512D01*
X6282690Y4712512D01*
X6282893Y4716576D01*
X6283502Y4721098D01*
X6285738Y4731105D01*
X6289192Y4742027D01*
X6293662Y4753203D01*
X6298895Y4764074D01*
X6304788Y4773980D01*
X6326835Y4807661D01*
X6363665Y4807661D01*
X6368897Y4807407D01*
X6374485Y4806645D01*
X6380327Y4805476D01*
X6386322Y4803851D01*
X6392367Y4801819D01*
X6398463Y4799482D01*
X6404457Y4796790D01*
X6410299Y4793843D01*
X6415887Y4790592D01*
X6421170Y4787188D01*
X6425996Y4783582D01*
X6430416Y4779822D01*
X6434429Y4775708D01*
X6438341Y4771237D01*
X6441998Y4766360D01*
X6445453Y4761230D01*
X6448653Y4755896D01*
X6451498Y4750409D01*
X6454038Y4744872D01*
X6456222Y4739335D01*
X6457950Y4733899D01*
X6459220Y4728616D01*
X6460032Y4723587D01*
X6460286Y4718862D01*
X6460032Y4713681D01*
X6459321Y4708499D01*
X6458102Y4703267D01*
X6456476Y4698034D01*
X6454394Y4692853D01*
X6451955Y4687671D01*
X6449161Y4682591D01*
X6446012Y4677613D01*
X6442506Y4672736D01*
X6438747Y4668012D01*
X6434734Y4663440D01*
X6425946Y4654905D01*
X6421272Y4650994D01*
X6416395Y4647336D01*
X6411366Y4643983D01*
X6406235Y4640884D01*
X6401003Y4638141D01*
X6395720Y4635804D01*
X6390335Y4633772D01*
X6384950Y4632198D01*
X6379565Y4631029D01*
X6374231Y4630318D01*
X6368948Y4630064D01*
X6364020Y4630267D01*
X6359042Y4630978D01*
X6354013Y4632096D01*
X6348984Y4633569D01*
X6343954Y4635449D01*
X6338976Y4637684D01*
X6334048Y4640275D01*
X6329222Y4643120D01*
X6319875Y4649724D01*
X6315456Y4653381D01*
X6307124Y4661357D01*
X6303264Y4665624D01*
X6299708Y4670044D01*
X6296406Y4674565D01*
X6293358Y4679188D01*
X6290665Y4683861D01*
X6288328Y4688636D01*
X6286398Y4693462D01*
X6284823Y4698238D01*
X6283655Y4703064D01*
X6282944Y4707788D01*
X6282690Y4712512D01*
X6216700Y4712512D01*
X6216904Y4700270D01*
X6217818Y4686858D01*
X6218529Y4680305D01*
X6220612Y4667707D01*
X6221882Y4661662D01*
X6223406Y4655820D01*
X6225133Y4650232D01*
X6227064Y4644898D01*
X6229248Y4639767D01*
X6231382Y4635398D01*
X6236716Y4626762D01*
X6243269Y4618278D01*
X6246926Y4614113D01*
X6255004Y4606086D01*
X6263995Y4598416D01*
X6273749Y4591151D01*
X6284112Y4584496D01*
X6295034Y4578400D01*
X6306261Y4572965D01*
X6312001Y4570526D01*
X6323634Y4566310D01*
X6335318Y4562906D01*
X6346952Y4560468D01*
X6358382Y4559096D01*
X6363970Y4558792D01*
X6376111Y4559046D01*
X6389166Y4560468D01*
X6402781Y4562856D01*
X6416598Y4566107D01*
X6430162Y4570018D01*
X6443116Y4574489D01*
X6455156Y4579416D01*
X6460693Y4581956D01*
X6470548Y4587240D01*
X6474815Y4589881D01*
X6478524Y4592574D01*
X6481673Y4595164D01*
X6484213Y4597806D01*
X6486093Y4600346D01*
X6487210Y4602835D01*
X6487617Y4605223D01*
X6488734Y4609490D01*
X6491732Y4611725D01*
X6496202Y4611725D01*
X6501638Y4609338D01*
X6515607Y4600702D01*
X6511848Y4618786D01*
X6511493Y4625644D01*
X6513220Y4630928D01*
X6516776Y4634077D01*
X6521754Y4634636D01*
X6524091Y4634687D01*
X6526225Y4635449D01*
X6528206Y4637024D01*
X6530035Y4639310D01*
X6531660Y4642307D01*
X6533083Y4645863D01*
X6534353Y4650079D01*
X6535420Y4654804D01*
X6536334Y4660087D01*
X6537553Y4672025D01*
X6538061Y4685588D01*
X6537807Y4700422D01*
X6536791Y4716221D01*
X6534962Y4732680D01*
X6532372Y4749495D01*
X6528968Y4766310D01*
X6512661Y4830419D01*
G37*
G36*
X5586679Y4875987D02*
G01*
X5524957Y4763516D01*
X5508701Y4734966D01*
X5492546Y4707839D01*
X5477256Y4683506D01*
X5463743Y4663135D01*
X5457901Y4654854D01*
X5452770Y4648047D01*
X5448452Y4642916D01*
X5422036Y4616399D01*
X5163464Y4616399D01*
X5135676Y4564481D01*
X5204104Y4442612D01*
X5221478Y4412488D01*
X5237937Y4385005D01*
X5252618Y4361434D01*
X5264861Y4342892D01*
X5269788Y4335932D01*
X5273852Y4330649D01*
X5276900Y4327245D01*
X5279136Y4325721D01*
X5282793Y4324553D01*
X5288381Y4323435D01*
X5304688Y4321403D01*
X5327040Y4319574D01*
X5354320Y4318050D01*
X5385562Y4316933D01*
X5437530Y4316069D01*
X5600954Y4315866D01*
X5635345Y4353052D01*
X5639765Y4358436D01*
X5650179Y4372660D01*
X5662269Y4390745D01*
X5675426Y4411878D01*
X5689244Y4435144D01*
X5709869Y4472127D01*
X5719673Y4490821D01*
X5773623Y4595926D01*
X5762447Y4633112D01*
X5759602Y4640732D01*
X5755640Y4650079D01*
X5745073Y4672888D01*
X5735269Y4692650D01*
X5720435Y4720945D01*
X5694883Y4766767D01*
X5686196Y4782769D01*
X5678627Y4797247D01*
X5672378Y4809896D01*
X5667552Y4820361D01*
X5664352Y4828235D01*
X5662980Y4833213D01*
X5662980Y4834534D01*
X5665216Y4836617D01*
X5663996Y4840986D01*
X5660288Y4847488D01*
X5654294Y4855464D01*
X5650382Y4859578D01*
X5645708Y4863439D01*
X5640476Y4866894D01*
X5634837Y4869942D01*
X5628995Y4872431D01*
X5623153Y4874361D01*
X5617413Y4875530D01*
X5611977Y4875987D01*
G37*
G36*
X6112713Y4875987D02*
G01*
X6050076Y4874666D01*
X6034887Y4873904D01*
X6020358Y4872736D01*
X6007150Y4871212D01*
X5996025Y4869484D01*
X5987643Y4867605D01*
X5984697Y4866640D01*
X5980887Y4864709D01*
X5977178Y4862169D01*
X5973622Y4858969D01*
X5970219Y4855210D01*
X5966968Y4850942D01*
X5963920Y4846167D01*
X5961024Y4841036D01*
X5958382Y4835499D01*
X5955944Y4829657D01*
X5953760Y4823510D01*
X5951880Y4817211D01*
X5950254Y4810760D01*
X5948883Y4804156D01*
X5947867Y4797501D01*
X5947206Y4790846D01*
X5946851Y4784242D01*
X5946902Y4777740D01*
X5947308Y4771390D01*
X5948121Y4765243D01*
X5949340Y4759350D01*
X5957570Y4726584D01*
X6098286Y4674158D01*
X6107125Y4630064D01*
X6067856Y4630064D01*
X6059678Y4630369D01*
X6051448Y4631232D01*
X6043371Y4632655D01*
X6035751Y4634484D01*
X6028690Y4636719D01*
X6022543Y4639259D01*
X6017412Y4642053D01*
X6013602Y4645101D01*
X5998565Y4660087D01*
X5969863Y4650994D01*
X5964529Y4649063D01*
X5959805Y4646879D01*
X5955588Y4644440D01*
X5951982Y4641799D01*
X5948934Y4638954D01*
X5946495Y4635906D01*
X5944616Y4632655D01*
X5943295Y4629302D01*
X5942533Y4625746D01*
X5942380Y4622139D01*
X5942787Y4618431D01*
X5943752Y4614621D01*
X5945276Y4610709D01*
X5947359Y4606798D01*
X5950051Y4602886D01*
X5953302Y4598924D01*
X5957112Y4595012D01*
X5961481Y4591100D01*
X5966409Y4587240D01*
X5971895Y4583430D01*
X5982919Y4577029D01*
X5988608Y4574133D01*
X5994450Y4571492D01*
X6006490Y4566920D01*
X6018834Y4563262D01*
X6025134Y4561789D01*
X6037884Y4559503D01*
X6050737Y4558182D01*
X6063538Y4557725D01*
X6076289Y4558233D01*
X6082588Y4558792D01*
X6094933Y4560620D01*
X6101029Y4561840D01*
X6106972Y4563313D01*
X6118504Y4566970D01*
X6124092Y4569104D01*
X6134709Y4574082D01*
X6139789Y4576876D01*
X6144666Y4579924D01*
X6153759Y4586630D01*
X6157976Y4590338D01*
X6188608Y4618888D01*
X6180226Y4705197D01*
X6091936Y4747310D01*
X6074562Y4756099D01*
X6059830Y4764074D01*
X6047740Y4771339D01*
X6038291Y4777943D01*
X6034481Y4781042D01*
X6031331Y4783988D01*
X6028791Y4786782D01*
X6026912Y4789474D01*
X6025591Y4792065D01*
X6024880Y4794504D01*
X6024778Y4796840D01*
X6025286Y4799126D01*
X6026353Y4801311D01*
X6028029Y4803394D01*
X6030264Y4805426D01*
X6033058Y4807407D01*
X6036411Y4809337D01*
X6040272Y4811217D01*
X6051397Y4815586D01*
X6061710Y4819091D01*
X6065774Y4820005D01*
X6069380Y4820259D01*
X6072632Y4819802D01*
X6075832Y4818634D01*
X6079134Y4816703D01*
X6082690Y4813909D01*
X6091428Y4805730D01*
X6118148Y4779010D01*
X6152032Y4797348D01*
X6157417Y4800803D01*
X6161989Y4804257D01*
X6165646Y4807661D01*
X6168491Y4811064D01*
X6170472Y4814519D01*
X6171590Y4817973D01*
X6171895Y4821529D01*
X6171285Y4825136D01*
X6169863Y4828895D01*
X6167526Y4832756D01*
X6164376Y4836718D01*
X6160312Y4840935D01*
X6155436Y4845304D01*
X6149695Y4849876D01*
G37*
G36*
X4846624Y9883902D02*
G01*
X4578756Y9345523D01*
X4509617Y9205366D01*
X4453991Y9091269D01*
X4410557Y9000794D01*
X4394301Y8966403D01*
X4382262Y8940190D01*
X4374743Y8923020D01*
X4372813Y8918092D01*
X4372152Y8915654D01*
X4372152Y8900718D01*
X5333136Y8900718D01*
X5333136Y8912402D01*
X5332882Y8914485D01*
X5331053Y8921242D01*
X5327599Y8930944D01*
X5322824Y8942882D01*
X5316982Y8956446D01*
X5310276Y8971026D01*
X5280304Y9032849D01*
X4828692Y9033052D01*
X4756658Y9033510D01*
X4693818Y9034170D01*
X4642256Y9035034D01*
X4604156Y9035999D01*
X4581702Y9037116D01*
X4576978Y9037675D01*
X4576368Y9037980D01*
X4581448Y9049207D01*
X4595418Y9077909D01*
X4643374Y9174175D01*
X4714595Y9315653D01*
X4781651Y9447784D01*
X4829302Y9540697D01*
X4843119Y9567011D01*
X4846777Y9573615D01*
X4855514Y9587738D01*
X4943043Y9412935D01*
X4971796Y9354312D01*
X4995265Y9305290D01*
X5004104Y9286138D01*
X5012893Y9266224D01*
X5014417Y9262262D01*
X5022443Y9237065D01*
X4953558Y9237065D01*
X4901895Y9342932D01*
X4883607Y9378899D01*
X4868113Y9407245D01*
X4861966Y9417608D01*
X4857191Y9424924D01*
X4853990Y9428784D01*
X4853025Y9429242D01*
X4852466Y9428988D01*
X4850536Y9426803D01*
X4847640Y9422587D01*
X4839360Y9408718D01*
X4828235Y9388652D01*
X4814824Y9363557D01*
X4799838Y9334804D01*
X4783886Y9303562D01*
X4763516Y9262973D01*
X4732883Y9200337D01*
X4719777Y9172651D01*
X4709058Y9149181D01*
X4701235Y9131096D01*
X4698644Y9124442D01*
X4697069Y9119666D01*
X4696510Y9116822D01*
X4696510Y9104934D01*
X5006594Y9105036D01*
X5080457Y9105696D01*
X5143855Y9106966D01*
X5193334Y9108694D01*
X5211826Y9109710D01*
X5225542Y9110776D01*
X5234076Y9111945D01*
X5236870Y9112859D01*
X5236972Y9113570D01*
X5235549Y9117533D01*
X5227269Y9135973D01*
X5212689Y9166860D01*
X5168087Y9258706D01*
X5109210Y9378035D01*
X5039309Y9518243D01*
X4970627Y9654743D01*
X4915204Y9763810D01*
X4893157Y9806482D01*
X4876190Y9838791D01*
X4865217Y9858857D01*
X4862271Y9863683D01*
G37*
G36*
X2297531Y9849662D02*
G01*
X2287676Y9758375D01*
X2283764Y9727793D01*
X2279650Y9699447D01*
X2275840Y9676841D01*
X2267051Y9633458D01*
X2512974Y9633458D01*
X2504236Y9582810D01*
X2501341Y9562185D01*
X2498242Y9537496D01*
X2494330Y9503918D01*
X2489911Y9462312D01*
X2484780Y9421063D01*
X2477617Y9368536D01*
X2467965Y9301429D01*
X2446172Y9158325D01*
X2437485Y9095130D01*
X2433828Y9066580D01*
X2430830Y9040876D01*
X2428494Y9018778D01*
X2426970Y9000896D01*
X2426258Y8987891D01*
X2426208Y8936786D01*
X2663139Y8936786D01*
X2673604Y9019794D01*
X2687472Y9121851D01*
X2727350Y9408718D01*
X2738577Y9491624D01*
X2746705Y9549028D01*
X2750921Y9575596D01*
X2754579Y9596678D01*
X2757474Y9610394D01*
X2764180Y9633458D01*
X3000197Y9633458D01*
X3007614Y9664700D01*
X3009798Y9675723D01*
X3014827Y9705289D01*
X3019856Y9739223D01*
X3023260Y9764268D01*
X3028238Y9796170D01*
X3032810Y9820910D01*
X3034639Y9828682D01*
X3040481Y9849662D01*
G37*
G36*
X3233623Y9849662D02*
G01*
X3226714Y9820808D01*
X3224479Y9809073D01*
X3217824Y9767773D01*
X3209290Y9709607D01*
X3194659Y9602520D01*
X3178251Y9484817D01*
X3144418Y9248343D01*
X3133090Y9165132D01*
X3125927Y9109659D01*
X3120136Y9062516D01*
X3116326Y9027261D01*
X3107791Y8936786D01*
X3351174Y8936786D01*
X3351276Y8972245D01*
X3352190Y8984132D01*
X3356559Y9023451D01*
X3363620Y9079128D01*
X3372764Y9145778D01*
X3402126Y9346895D01*
X3425748Y9510674D01*
X3444646Y9643414D01*
X3458870Y9745218D01*
X3468268Y9814356D01*
X3470706Y9833610D01*
X3471367Y9840671D01*
X3470960Y9841433D01*
X3469792Y9842144D01*
X3465271Y9843516D01*
X3458006Y9844786D01*
X3448304Y9846005D01*
X3422548Y9847935D01*
X3406952Y9848697D01*
X3371646Y9849561D01*
G37*
G36*
X3558438Y9849662D02*
G01*
X3549091Y9766808D01*
X3544112Y9727031D01*
X3540048Y9697821D01*
X3536442Y9674656D01*
X3528314Y9633458D01*
X3774236Y9633458D01*
X3765600Y9584385D01*
X3759454Y9541662D01*
X3751986Y9484868D01*
X3744976Y9427768D01*
X3738879Y9380220D01*
X3731514Y9325051D01*
X3717442Y9223603D01*
X3705758Y9142679D01*
X3697071Y9080703D01*
X3689959Y9027617D01*
X3685387Y8990126D01*
X3680206Y8935974D01*
X3920693Y8942781D01*
X3960672Y9212122D01*
X3977589Y9330893D01*
X3992727Y9439960D01*
X4017822Y9627463D01*
X4261662Y9634270D01*
X4268927Y9665055D01*
X4271111Y9675977D01*
X4276090Y9705390D01*
X4278680Y9722154D01*
X4285742Y9772548D01*
X4290720Y9803282D01*
X4295038Y9825278D01*
X4301744Y9849662D01*
G37*
G36*
X5537809Y9849662D02*
G01*
X5530596Y9816490D01*
X5525211Y9782505D01*
X5517388Y9728454D01*
X5508091Y9661194D01*
X5463641Y9327946D01*
X5445760Y9196628D01*
X5431434Y9094114D01*
X5420664Y9020098D01*
X5413400Y8974378D01*
X5411012Y8961983D01*
X5410149Y8958427D01*
X5403596Y8936786D01*
X5654751Y8936786D01*
X5670854Y9079433D01*
X5678373Y9141155D01*
X5686044Y9200438D01*
X5694934Y9262414D01*
X5696610Y9275470D01*
X5698032Y9289288D01*
X5699150Y9303562D01*
X5700623Y9332366D01*
X5700877Y9359696D01*
X5700522Y9372092D01*
X5699861Y9383318D01*
X5693206Y9447276D01*
X5733999Y9332925D01*
X5740958Y9314281D01*
X5757976Y9270796D01*
X5780532Y9215374D01*
X5810402Y9144711D01*
X5823915Y9113570D01*
X5902909Y8936786D01*
X6146546Y8936786D01*
X6171895Y9131808D01*
X6187287Y9244431D01*
X6203543Y9360103D01*
X6223203Y9495231D01*
X6240221Y9616186D01*
X6246672Y9664700D01*
X6251041Y9699498D01*
X6253276Y9719614D01*
X6257848Y9756444D01*
X6261658Y9784080D01*
X6265062Y9806330D01*
X6272733Y9849662D01*
X6030925Y9849662D01*
X6021171Y9784791D01*
X6007455Y9687712D01*
X5988761Y9552127D01*
X5974791Y9448139D01*
X5962396Y9351162D01*
X5945276Y9409074D01*
X5940145Y9427464D01*
X5936284Y9442653D01*
X5934100Y9452813D01*
X5933592Y9456724D01*
X5932119Y9461550D01*
X5925362Y9479432D01*
X5914542Y9505594D01*
X5900826Y9537141D01*
X5872734Y9600539D01*
X5851702Y9648647D01*
X5814517Y9736429D01*
X5766917Y9849662D01*
G37*
D10*
X1131811Y5636221D02*
G01*
X1131811Y5527255D01*
X1131811Y5636221D02*
G01*
X1168133Y5636221D01*
X1183881Y5631141D01*
X1194041Y5620727D01*
X1199375Y5610313D01*
X1204455Y5594565D01*
X1204455Y5568657D01*
X1199375Y5553163D01*
X1194041Y5542749D01*
X1183881Y5532335D01*
X1168133Y5527255D01*
X1131811Y5527255D01*
X1316723Y5610313D02*
G01*
X1311643Y5620727D01*
X1301229Y5631141D01*
X1290815Y5636221D01*
X1269987Y5636221D01*
X1259573Y5631141D01*
X1249159Y5620727D01*
X1244079Y5610313D01*
X1238745Y5594565D01*
X1238745Y5568657D01*
X1244079Y5553163D01*
X1249159Y5542749D01*
X1259573Y5532335D01*
X1269987Y5527255D01*
X1290815Y5527255D01*
X1301229Y5532335D01*
X1311643Y5542749D01*
X1316723Y5553163D01*
X1351013Y5615393D02*
G01*
X1361427Y5620727D01*
X1376921Y5636221D01*
X1376921Y5527255D01*
X3645027Y10757915D02*
G01*
X3645027Y10648950D01*
X3645027Y10757915D02*
G01*
X3681349Y10757915D01*
X3696843Y10752836D01*
X3707256Y10742421D01*
X3712336Y10732008D01*
X3717670Y10716260D01*
X3717670Y10690352D01*
X3712336Y10674858D01*
X3707256Y10664444D01*
X3696843Y10654029D01*
X3681349Y10648950D01*
X3645027Y10648950D01*
X3751961Y10757915D02*
G01*
X3751961Y10648950D01*
X3824604Y10757915D02*
G01*
X3824604Y10648950D01*
X3751961Y10706100D02*
G01*
X3824604Y10706100D01*
X3895216Y10757915D02*
G01*
X3895216Y10648950D01*
X3858895Y10757915D02*
G01*
X3931793Y10757915D01*
X3966083Y10737087D02*
G01*
X3976497Y10742421D01*
X3991990Y10757915D01*
X3991990Y10648950D01*
X4026281Y10737087D02*
G01*
X4036695Y10742421D01*
X4052188Y10757915D01*
X4052188Y10648950D01*
X6549643Y10691621D02*
G01*
X6539229Y10702036D01*
X6523736Y10707115D01*
X6502908Y10707115D01*
X6487413Y10702036D01*
X6477000Y10691621D01*
X6477000Y10681208D01*
X6482079Y10670794D01*
X6487413Y10665460D01*
X6497827Y10660379D01*
X6529070Y10649965D01*
X6539229Y10644886D01*
X6544563Y10639552D01*
X6549643Y10629137D01*
X6549643Y10613644D01*
X6539229Y10603229D01*
X6523736Y10598150D01*
X6502908Y10598150D01*
X6487413Y10603229D01*
X6477000Y10613644D01*
X6583934Y10707115D02*
G01*
X6610095Y10598150D01*
X6636004Y10707115D02*
G01*
X6610095Y10598150D01*
X6636004Y10707115D02*
G01*
X6661911Y10598150D01*
X6687820Y10707115D02*
G01*
X6661911Y10598150D01*
X6722109Y10707115D02*
G01*
X6722109Y10598150D01*
X6792975Y10707115D02*
G01*
X6792975Y10598150D01*
X6756400Y10707115D02*
G01*
X6829297Y10707115D01*
X6941565Y10681208D02*
G01*
X6936231Y10691621D01*
X6925818Y10702036D01*
X6915404Y10707115D01*
X6894829Y10707115D01*
X6884415Y10702036D01*
X6874002Y10691621D01*
X6868668Y10681208D01*
X6863588Y10665460D01*
X6863588Y10639552D01*
X6868668Y10624058D01*
X6874002Y10613644D01*
X6884415Y10603229D01*
X6894829Y10598150D01*
X6915404Y10598150D01*
X6925818Y10603229D01*
X6936231Y10613644D01*
X6941565Y10624058D01*
X6975856Y10707115D02*
G01*
X6975856Y10598150D01*
X7048500Y10707115D02*
G01*
X7048500Y10598150D01*
X6975856Y10655300D02*
G01*
X7048500Y10655300D01*
X5727700Y10707115D02*
G01*
X5727700Y10598150D01*
X5727700Y10707115D02*
G01*
X5774436Y10707115D01*
X5789929Y10702036D01*
X5795263Y10696702D01*
X5800343Y10686287D01*
X5800343Y10675874D01*
X5795263Y10665460D01*
X5789929Y10660379D01*
X5774436Y10655300D01*
X5727700Y10655300D01*
X5764022Y10655300D02*
G01*
X5800343Y10598150D01*
X5865875Y10707115D02*
G01*
X5855461Y10702036D01*
X5845047Y10691621D01*
X5839968Y10681208D01*
X5834634Y10665460D01*
X5834634Y10639552D01*
X5839968Y10624058D01*
X5845047Y10613644D01*
X5855461Y10603229D01*
X5865875Y10598150D01*
X5886704Y10598150D01*
X5897118Y10603229D01*
X5907531Y10613644D01*
X5912611Y10624058D01*
X5917945Y10639552D01*
X5917945Y10665460D01*
X5912611Y10681208D01*
X5907531Y10691621D01*
X5897118Y10702036D01*
X5886704Y10707115D01*
X5865875Y10707115D01*
X5952236Y10707115D02*
G01*
X5952236Y10598150D01*
X5952236Y10598150D02*
G01*
X6014465Y10598150D01*
X6048756Y10707115D02*
G01*
X6048756Y10598150D01*
X6048756Y10707115D02*
G01*
X6116320Y10707115D01*
X6048756Y10655300D02*
G01*
X6090411Y10655300D01*
X6048756Y10598150D02*
G01*
X6116320Y10598150D01*
X7697215Y7723378D02*
G01*
X7588250Y7723378D01*
X7697215Y7759700D02*
G01*
X7697215Y7687055D01*
X7697215Y7621523D02*
G01*
X7692136Y7631937D01*
X7681722Y7642352D01*
X7671308Y7647431D01*
X7655559Y7652765D01*
X7629652Y7652765D01*
X7614158Y7647431D01*
X7603743Y7642352D01*
X7593329Y7631937D01*
X7588250Y7621523D01*
X7588250Y7600695D01*
X7593329Y7590281D01*
X7603743Y7579868D01*
X7614158Y7574787D01*
X7629652Y7569454D01*
X7655559Y7569454D01*
X7671308Y7574787D01*
X7681722Y7579868D01*
X7692136Y7590281D01*
X7697215Y7600695D01*
X7697215Y7621523D01*
X7697215Y7535163D02*
G01*
X7588250Y7535163D01*
X7697215Y7535163D02*
G01*
X7697215Y7488428D01*
X7692136Y7472934D01*
X7686802Y7467600D01*
X7676388Y7462520D01*
X7660893Y7462520D01*
X7650479Y7467600D01*
X7645400Y7472934D01*
X7640065Y7488428D01*
X7640065Y7535163D01*
X7697215Y7428229D02*
G01*
X7588250Y7428229D01*
X7697215Y7428229D02*
G01*
X7697215Y7381494D01*
X7692136Y7366000D01*
X7686802Y7360665D01*
X7676388Y7355586D01*
X7665974Y7355586D01*
X7655559Y7360665D01*
X7650479Y7366000D01*
X7645400Y7381494D01*
X7645400Y7428229D01*
X7645400Y7391908D02*
G01*
X7588250Y7355586D01*
X7697215Y7279639D02*
G01*
X7588250Y7321295D01*
X7697215Y7279639D02*
G01*
X7588250Y7237984D01*
X7624572Y7305547D02*
G01*
X7624572Y7253731D01*
X7697215Y7203694D02*
G01*
X7588250Y7203694D01*
X7697215Y7131050D02*
G01*
X7624572Y7203694D01*
X7650479Y7177786D02*
G01*
X7588250Y7131050D01*
X2614168Y10722610D02*
G01*
X2614168Y10613644D01*
X2614168Y10613644D02*
G01*
X2676397Y10613644D01*
X2788665Y10696702D02*
G01*
X2783586Y10707115D01*
X2773172Y10717529D01*
X2762758Y10722610D01*
X2741929Y10722610D01*
X2731515Y10717529D01*
X2721102Y10707115D01*
X2716022Y10696702D01*
X2710688Y10680954D01*
X2710688Y10655045D01*
X2716022Y10639552D01*
X2721102Y10629137D01*
X2731515Y10618724D01*
X2741929Y10613644D01*
X2762758Y10613644D01*
X2773172Y10618724D01*
X2783586Y10629137D01*
X2788665Y10639552D01*
X2822956Y10722610D02*
G01*
X2822956Y10613644D01*
X2822956Y10722610D02*
G01*
X2859277Y10722610D01*
X2875025Y10717529D01*
X2885440Y10707115D01*
X2890520Y10696702D01*
X2895854Y10680954D01*
X2895854Y10655045D01*
X2890520Y10639552D01*
X2885440Y10629137D01*
X2875025Y10618724D01*
X2859277Y10613644D01*
X2822956Y10613644D01*
X4792979Y10686542D02*
G01*
X4787645Y10696955D01*
X4777231Y10707370D01*
X4767072Y10712450D01*
X4746243Y10712450D01*
X4735829Y10707370D01*
X4725415Y10696955D01*
X4720081Y10686542D01*
X4715002Y10670794D01*
X4715002Y10644886D01*
X4720081Y10629392D01*
X4725415Y10618978D01*
X4735829Y10608563D01*
X4746243Y10603484D01*
X4767072Y10603484D01*
X4777231Y10608563D01*
X4787645Y10618978D01*
X4792979Y10629392D01*
X4792979Y10644886D01*
X4767072Y10644886D02*
G01*
X4792979Y10644886D01*
X4868672Y10712450D02*
G01*
X4827270Y10603484D01*
X4868672Y10712450D02*
G01*
X4910327Y10603484D01*
X4842763Y10639805D02*
G01*
X4894834Y10639805D01*
X5017261Y10712450D02*
G01*
X4944618Y10603484D01*
X4944618Y10712450D02*
G01*
X5017261Y10712450D01*
X4944618Y10603484D02*
G01*
X5017261Y10603484D01*
X1358900Y10732515D02*
G01*
X1358900Y10623550D01*
X1358900Y10732515D02*
G01*
X1426463Y10732515D01*
X1358900Y10680700D02*
G01*
X1400555Y10680700D01*
X1502410Y10732515D02*
G01*
X1460754Y10623550D01*
X1502410Y10732515D02*
G01*
X1543812Y10623550D01*
X1476247Y10659871D02*
G01*
X1528318Y10659871D01*
X1578102Y10732515D02*
G01*
X1578102Y10623550D01*
X1578102Y10732515D02*
G01*
X1651000Y10623550D01*
X1651000Y10732515D02*
G01*
X1651000Y10623550D01*
X608584Y7988300D02*
G01*
X717550Y7988300D01*
X717550Y7988300D02*
G01*
X717550Y8050529D01*
X608584Y8084820D02*
G01*
X717550Y8084820D01*
X608584Y8084820D02*
G01*
X608584Y8152384D01*
X660400Y8084820D02*
G01*
X660400Y8126476D01*
X717550Y8084820D02*
G01*
X717550Y8152384D01*
X608584Y8186673D02*
G01*
X717550Y8186673D01*
X608584Y8186673D02*
G01*
X608584Y8223250D01*
X613663Y8238744D01*
X624078Y8249158D01*
X634492Y8254237D01*
X650239Y8259571D01*
X676147Y8259571D01*
X691642Y8254237D01*
X702055Y8249158D01*
X712470Y8238744D01*
X717550Y8223250D01*
X717550Y8186673D01*
X629412Y8293862D02*
G01*
X624078Y8304276D01*
X608584Y8319770D01*
X717550Y8319770D01*
X1114932Y9707245D02*
G01*
X1120012Y9696830D01*
X1130427Y9686417D01*
X1140840Y9681083D01*
X1156588Y9676003D01*
X1182496Y9676003D01*
X1197990Y9681083D01*
X1208404Y9686417D01*
X1218819Y9696830D01*
X1223898Y9707245D01*
X1223898Y9728072D01*
X1218819Y9738233D01*
X1208404Y9748646D01*
X1197990Y9753980D01*
X1182496Y9759061D01*
X1156588Y9759061D01*
X1140840Y9753980D01*
X1130427Y9748646D01*
X1120012Y9738233D01*
X1114932Y9728072D01*
X1114932Y9707245D01*
X1203325Y9722738D02*
G01*
X1234312Y9753980D01*
X1140840Y9798685D02*
G01*
X1135761Y9798685D01*
X1125346Y9803764D01*
X1120012Y9809099D01*
X1114932Y9819512D01*
X1114932Y9840087D01*
X1120012Y9850501D01*
X1125346Y9855835D01*
X1135761Y9860914D01*
X1146175Y9860914D01*
X1156588Y9855835D01*
X1172082Y9845420D01*
X1223898Y9793351D01*
X1223898Y9866249D01*
X1485900Y8891015D02*
G01*
X1485900Y8782050D01*
X1485900Y8891015D02*
G01*
X1532636Y8891015D01*
X1548129Y8885936D01*
X1553463Y8880602D01*
X1558544Y8870187D01*
X1558544Y8859774D01*
X1553463Y8849360D01*
X1548129Y8844279D01*
X1532636Y8839200D01*
X1485900Y8839200D01*
X1522221Y8839200D02*
G01*
X1558544Y8782050D01*
X1592834Y8870187D02*
G01*
X1603247Y8875521D01*
X1618995Y8891015D01*
X1618995Y8782050D01*
X1841500Y10008615D02*
G01*
X1841500Y9899650D01*
X1841500Y10008615D02*
G01*
X1888236Y10008615D01*
X1903729Y10003536D01*
X1909063Y9998202D01*
X1914144Y9987787D01*
X1914144Y9977374D01*
X1909063Y9966960D01*
X1903729Y9961879D01*
X1888236Y9956800D01*
X1841500Y9956800D01*
X1877821Y9956800D02*
G01*
X1914144Y9899650D01*
X1953768Y9982708D02*
G01*
X1953768Y9987787D01*
X1958847Y9998202D01*
X1964181Y10003536D01*
X1974595Y10008615D01*
X1995170Y10008615D01*
X2005584Y10003536D01*
X2010918Y9998202D01*
X2015997Y9987787D01*
X2015997Y9977374D01*
X2010918Y9966960D01*
X2000504Y9951465D01*
X1948434Y9899650D01*
X2021331Y9899650D01*
X1660017Y8562467D02*
G01*
X1660017Y8453501D01*
X1660017Y8562467D02*
G01*
X1706753Y8562467D01*
X1722246Y8557387D01*
X1727580Y8552053D01*
X1732661Y8541638D01*
X1732661Y8531225D01*
X1727580Y8520811D01*
X1722246Y8515730D01*
X1706753Y8510651D01*
X1660017Y8510651D01*
X1696338Y8510651D02*
G01*
X1732661Y8453501D01*
X1777364Y8562467D02*
G01*
X1834514Y8562467D01*
X1803527Y8520811D01*
X1819020Y8520811D01*
X1829435Y8515730D01*
X1834514Y8510651D01*
X1839848Y8494903D01*
X1839848Y8484488D01*
X1834514Y8468995D01*
X1824101Y8458580D01*
X1808606Y8453501D01*
X1793112Y8453501D01*
X1777364Y8458580D01*
X1772285Y8463661D01*
X1766951Y8474075D01*
X6985000Y9970515D02*
G01*
X6985000Y9861550D01*
X6985000Y9970515D02*
G01*
X7031736Y9970515D01*
X7047229Y9965436D01*
X7052563Y9960102D01*
X7057643Y9949687D01*
X7057643Y9939274D01*
X7052563Y9928860D01*
X7047229Y9923779D01*
X7031736Y9918700D01*
X6985000Y9918700D01*
X7021322Y9918700D02*
G01*
X7057643Y9861550D01*
X7144004Y9970515D02*
G01*
X7091934Y9897871D01*
X7169911Y9897871D01*
X7144004Y9970515D02*
G01*
X7144004Y9861550D01*
X1574800Y7811515D02*
G01*
X1574800Y7702550D01*
X1574800Y7811515D02*
G01*
X1621536Y7811515D01*
X1637029Y7806436D01*
X1642363Y7801102D01*
X1647444Y7790687D01*
X1647444Y7780273D01*
X1642363Y7769860D01*
X1637029Y7764779D01*
X1621536Y7759700D01*
X1574800Y7759700D01*
X1611121Y7759700D02*
G01*
X1647444Y7702550D01*
X1744218Y7811515D02*
G01*
X1692147Y7811515D01*
X1687068Y7764779D01*
X1692147Y7769860D01*
X1707895Y7775194D01*
X1723389Y7775194D01*
X1738884Y7769860D01*
X1749297Y7759700D01*
X1754631Y7743952D01*
X1754631Y7733537D01*
X1749297Y7718044D01*
X1738884Y7707629D01*
X1723389Y7702550D01*
X1707895Y7702550D01*
X1692147Y7707629D01*
X1687068Y7712710D01*
X1681734Y7723123D01*
X687578Y6727444D02*
G01*
X677163Y6717029D01*
X672084Y6701536D01*
X672084Y6680708D01*
X677163Y6665213D01*
X687578Y6654800D01*
X697992Y6654800D01*
X708405Y6659879D01*
X713739Y6665213D01*
X718820Y6675628D01*
X729234Y6706870D01*
X734313Y6717029D01*
X739647Y6722363D01*
X750062Y6727444D01*
X765555Y6727444D01*
X775970Y6717029D01*
X781050Y6701536D01*
X781050Y6680708D01*
X775970Y6665213D01*
X765555Y6654800D01*
X697992Y6839712D02*
G01*
X687578Y6834631D01*
X677163Y6824218D01*
X672084Y6813804D01*
X672084Y6792976D01*
X677163Y6782562D01*
X687578Y6772147D01*
X697992Y6767068D01*
X713739Y6761734D01*
X739647Y6761734D01*
X755142Y6767068D01*
X765555Y6772147D01*
X775970Y6782562D01*
X781050Y6792976D01*
X781050Y6813804D01*
X775970Y6824218D01*
X765555Y6834631D01*
X755142Y6839712D01*
X739647Y6839712D01*
X739647Y6813804D02*
G01*
X739647Y6839712D01*
X692912Y6874002D02*
G01*
X687578Y6884415D01*
X672084Y6899910D01*
X781050Y6899910D01*
X2018284Y7175500D02*
G01*
X2096261Y7175500D01*
X2111756Y7180579D01*
X2122170Y7190994D01*
X2127250Y7206742D01*
X2127250Y7217155D01*
X2122170Y7232650D01*
X2111756Y7243063D01*
X2096261Y7248144D01*
X2018284Y7248144D01*
X2018284Y7292847D02*
G01*
X2018284Y7349997D01*
X2059940Y7319010D01*
X2059940Y7334504D01*
X2065020Y7344918D01*
X2070100Y7349997D01*
X2085847Y7355331D01*
X2096261Y7355331D01*
X2111756Y7349997D01*
X2122170Y7339584D01*
X2127250Y7324089D01*
X2127250Y7308595D01*
X2122170Y7292847D01*
X2117090Y7287768D01*
X2106675Y7282434D01*
X2363977Y5258307D02*
G01*
X2358643Y5268721D01*
X2348229Y5279136D01*
X2338070Y5284215D01*
X2317241Y5284215D01*
X2306827Y5279136D01*
X2296413Y5268721D01*
X2291079Y5258307D01*
X2286000Y5242560D01*
X2286000Y5216652D01*
X2291079Y5201157D01*
X2296413Y5190744D01*
X2306827Y5180329D01*
X2317241Y5175250D01*
X2338070Y5175250D01*
X2348229Y5180329D01*
X2358643Y5190744D01*
X2363977Y5201157D01*
X2398268Y5263387D02*
G01*
X2408681Y5268721D01*
X2424175Y5284215D01*
X2424175Y5175250D01*
X4726177Y5296407D02*
G01*
X4720843Y5306821D01*
X4710429Y5317236D01*
X4700270Y5322315D01*
X4679441Y5322315D01*
X4669027Y5317236D01*
X4658613Y5306821D01*
X4653279Y5296407D01*
X4648200Y5280660D01*
X4648200Y5254752D01*
X4653279Y5239257D01*
X4658613Y5228844D01*
X4669027Y5218429D01*
X4679441Y5213350D01*
X4700270Y5213350D01*
X4710429Y5218429D01*
X4720843Y5228844D01*
X4726177Y5239257D01*
X4765547Y5296407D02*
G01*
X4765547Y5301487D01*
X4770881Y5311902D01*
X4775961Y5317236D01*
X4786375Y5322315D01*
X4807204Y5322315D01*
X4817618Y5317236D01*
X4822697Y5311902D01*
X4828031Y5301487D01*
X4828031Y5291073D01*
X4822697Y5280660D01*
X4812284Y5265165D01*
X4760468Y5213350D01*
X4833111Y5213350D01*
X3321304Y5365750D02*
G01*
X3321304Y5287771D01*
X3326384Y5272278D01*
X3336797Y5261863D01*
X3352545Y5256784D01*
X3362959Y5256784D01*
X3378454Y5261863D01*
X3388868Y5272278D01*
X3393947Y5287771D01*
X3393947Y5365750D01*
X3428238Y5344921D02*
G01*
X3438652Y5350255D01*
X3454400Y5365750D01*
X3454400Y5256784D01*
X4140200Y4661915D02*
G01*
X4140200Y4552950D01*
X4140200Y4661915D02*
G01*
X4186936Y4661915D01*
X4202429Y4656836D01*
X4207763Y4651502D01*
X4212843Y4641087D01*
X4212843Y4630673D01*
X4207763Y4620260D01*
X4202429Y4615179D01*
X4186936Y4610100D01*
X4140200Y4610100D01*
X4176522Y4610100D02*
G01*
X4212843Y4552950D01*
X4273295Y4661915D02*
G01*
X4257547Y4656836D01*
X4252468Y4646421D01*
X4252468Y4636007D01*
X4257547Y4625594D01*
X4267961Y4620260D01*
X4288790Y4615179D01*
X4304284Y4610100D01*
X4314697Y4599686D01*
X4320031Y4589271D01*
X4320031Y4573523D01*
X4314697Y4563110D01*
X4309618Y4558029D01*
X4293870Y4552950D01*
X4273295Y4552950D01*
X4257547Y4558029D01*
X4252468Y4563110D01*
X4247134Y4573523D01*
X4247134Y4589271D01*
X4252468Y4599686D01*
X4262881Y4610100D01*
X4278375Y4615179D01*
X4299204Y4620260D01*
X4309618Y4625594D01*
X4314697Y4636007D01*
X4314697Y4646421D01*
X4309618Y4656836D01*
X4293870Y4661915D01*
X4273295Y4661915D01*
X3581400Y4674615D02*
G01*
X3581400Y4565650D01*
X3581400Y4674615D02*
G01*
X3628136Y4674615D01*
X3643629Y4669536D01*
X3648963Y4664202D01*
X3654043Y4653787D01*
X3654043Y4643373D01*
X3648963Y4632960D01*
X3643629Y4627879D01*
X3628136Y4622800D01*
X3581400Y4622800D01*
X3617722Y4622800D02*
G01*
X3654043Y4565650D01*
X3750818Y4659121D02*
G01*
X3745484Y4669536D01*
X3729990Y4674615D01*
X3719575Y4674615D01*
X3704081Y4669536D01*
X3693668Y4653787D01*
X3688334Y4627879D01*
X3688334Y4601971D01*
X3693668Y4581144D01*
X3704081Y4570729D01*
X3719575Y4565650D01*
X3724909Y4565650D01*
X3740404Y4570729D01*
X3750818Y4581144D01*
X3755897Y4596637D01*
X3755897Y4601971D01*
X3750818Y4617465D01*
X3740404Y4627879D01*
X3724909Y4632960D01*
X3719575Y4632960D01*
X3704081Y4627879D01*
X3693668Y4617465D01*
X3688334Y4601971D01*
X3009900Y4674615D02*
G01*
X3009900Y4565650D01*
X3009900Y4674615D02*
G01*
X3056636Y4674615D01*
X3072129Y4669536D01*
X3077463Y4664202D01*
X3082543Y4653787D01*
X3082543Y4643373D01*
X3077463Y4632960D01*
X3072129Y4627879D01*
X3056636Y4622800D01*
X3009900Y4622800D01*
X3046222Y4622800D02*
G01*
X3082543Y4565650D01*
X3189731Y4674615D02*
G01*
X3137661Y4565650D01*
X3116834Y4674615D02*
G01*
X3189731Y4674615D01*
G36*
X4584395Y4817922D02*
G01*
X4592320Y4808778D01*
X4600803Y4800142D01*
X4609896Y4792116D01*
X4619498Y4784750D01*
X4629556Y4777994D01*
X4640021Y4771948D01*
X4650943Y4766665D01*
X4662119Y4762042D01*
X4673600Y4758232D01*
X4685334Y4755235D01*
X4697272Y4753000D01*
X4709261Y4751578D01*
X4721352Y4750968D01*
X4733493Y4751171D01*
X4745532Y4752187D01*
X4757521Y4754016D01*
X4769358Y4756658D01*
X4775200Y4758232D01*
X4786680Y4762042D01*
X4797856Y4766665D01*
X4808778Y4771948D01*
X4819243Y4777994D01*
X4829302Y4784750D01*
X4838903Y4792116D01*
X4847996Y4800142D01*
X4856480Y4808778D01*
X4864404Y4817922D01*
G37*
D11*
X434911Y4564804D02*
G01*
X1295410Y4559305D01*
X434812Y5465203D02*
G01*
X1856567Y5465135D01*
X434713Y4564606D02*
G01*
X434713Y5464606D01*
X753930Y5335473D02*
G01*
X1856206Y5335295D01*
X753930Y4695499D02*
G01*
X1855439Y4695499D01*
X1855934Y4816149D02*
G01*
X1855934Y4565500D01*
X1855934Y5465500D02*
G01*
X1855934Y5214823D01*
X745931Y4565500D02*
G01*
X745931Y5465500D01*
D12*
X3660775Y10311129D02*
G01*
X3406775Y10311129D01*
X3406775Y10562589D01*
X4168775Y10562589D01*
X4168775Y10311129D01*
X3660775Y10311129D01*
X6959600Y10562587D02*
G01*
X7213600Y10562587D01*
X7213600Y10311127D01*
X6451600Y10311127D01*
X6451600Y10562587D01*
X6959600Y10562587D01*
X6029325Y10562587D02*
G01*
X6283325Y10562587D01*
X6283325Y10311127D01*
X5521325Y10311127D01*
X5521325Y10562587D01*
X6029325Y10562587D01*
X7543800Y6921500D02*
G01*
X7289800Y6921500D01*
X7289800Y7937500D01*
X7543800Y7937500D01*
X7543800Y7747000D01*
D13*
X7543800Y6921500D02*
G01*
X7543800Y7747000D01*
D12*
X2222500Y10309857D02*
G01*
X2222500Y10563857D01*
X3238500Y10563857D01*
X3238500Y10309857D01*
X3048000Y10309857D01*
D13*
X2222500Y10309857D02*
G01*
X3048000Y10309857D01*
D12*
X4337050Y10308592D02*
G01*
X4337050Y10562592D01*
X5353050Y10562592D01*
X5353050Y10308592D01*
X5162550Y10308592D01*
D13*
X4337050Y10308592D02*
G01*
X5162550Y10308592D01*
D12*
X1727200Y10563857D02*
G01*
X1727200Y10312397D01*
X1219200Y10312397D01*
X1219200Y10563857D01*
X1727200Y10563857D01*
D11*
X825500Y7972552D02*
G01*
X1080287Y7972018D01*
X1385511Y9633999D02*
G01*
X1385511Y9709000D01*
X1385511Y9848999D02*
G01*
X1385511Y9924000D01*
X1385511Y9633999D02*
G01*
X1525490Y9633999D01*
X1525490Y9753998D02*
G01*
X1525490Y9804001D01*
X1385511Y9924000D02*
G01*
X1525490Y9924000D01*
D10*
X1670009Y9264520D02*
G01*
X1670009Y9400512D01*
X1454190Y9400512D01*
X1454190Y9264520D01*
X1670009Y9074279D02*
G01*
X1670009Y8938287D01*
X1454190Y8938287D01*
X1454190Y9074279D01*
X1809790Y9518779D02*
G01*
X1809790Y9382787D01*
X2025609Y9382787D01*
X2025609Y9518779D01*
X1809790Y9709020D02*
G01*
X1809790Y9845012D01*
X2025609Y9845012D01*
X2025609Y9709020D01*
X1644690Y8070979D02*
G01*
X1644690Y7934987D01*
X1860509Y7934987D01*
X1860509Y8070979D01*
X1644690Y8261220D02*
G01*
X1644690Y8397212D01*
X1860509Y8397212D01*
X1860509Y8261220D01*
X6978690Y9493379D02*
G01*
X6978690Y9357387D01*
X7194509Y9357387D01*
X7194509Y9493379D01*
X6978690Y9683620D02*
G01*
X6978690Y9819612D01*
X7194509Y9819612D01*
X7194509Y9683620D01*
X1758820Y7461290D02*
G01*
X1894812Y7461290D01*
X1894812Y7677109D01*
X1758820Y7677109D01*
X1568579Y7461290D02*
G01*
X1432587Y7461290D01*
X1432587Y7677109D01*
X1568579Y7677109D01*
X2252939Y5105219D02*
G01*
X2252939Y4956721D01*
X2471460Y4956721D02*
G01*
X2471460Y5105219D01*
X2456220Y5120459D02*
G01*
X2268179Y5120459D01*
X2252939Y4622980D02*
G01*
X2252939Y4771478D01*
X2471460Y4771478D02*
G01*
X2471460Y4622980D01*
X2456220Y4607740D02*
G01*
X2268179Y4607740D01*
D11*
X4843950Y4973297D02*
G01*
X4843950Y5053296D01*
X4805850Y5013937D02*
G01*
X4885850Y5013937D01*
X3890899Y4820366D02*
G01*
X2890898Y4820366D01*
X3890899Y4773005D02*
G01*
X2890898Y4773005D01*
X2890898Y5213004D01*
X3890899Y5213004D01*
X3890899Y4773005D01*
D10*
X4146679Y4527509D02*
G01*
X4010687Y4527509D01*
X4010687Y4311690D01*
X4146679Y4311690D01*
X4336920Y4527509D02*
G01*
X4472912Y4527509D01*
X4472912Y4311690D01*
X4336920Y4311690D01*
X3575179Y4527509D02*
G01*
X3439187Y4527509D01*
X3439187Y4311690D01*
X3575179Y4311690D01*
X3765420Y4527509D02*
G01*
X3901412Y4527509D01*
X3901412Y4311690D01*
X3765420Y4311690D01*
X3193920Y4311690D02*
G01*
X3329912Y4311690D01*
X3329912Y4527509D01*
X3193920Y4527509D01*
X3003679Y4311690D02*
G01*
X2867687Y4311690D01*
X2867687Y4527509D01*
X3003679Y4527509D01*
D11*
G75*
G01*
X1079043Y7972552D02*
G03*
X825551Y7972552I-126746J154710D01*
D10*
G75*
G01*
X2471461Y5105220D02*
G03*
X2456221Y5120460I-15240J0D01*
G75*
G01*
X2268179Y5120460D02*
G03*
X2252939Y5105220I0J-15240D01*
G75*
G01*
X2471461Y4622980D02*
G02*
X2456221Y4607740I-15240J0D01*
G75*
G01*
X2268179Y4607740D02*
G02*
X2252939Y4622980I0J15240D01*
D11*
G75*
G01*
X4924298Y4953122D02*
G03*
X4924298Y4949820I-199993J-1651D01*
G75*
G01
X3884422Y5252999D02*
G03X3884422Y5252999I-13513J0D01*
M02*
