G04 Layer: BottomLayer*
G04 EasyEDA v6.5.23, 2023-06-23 22:07:44*
G04 588d00b09ced4095aabd395724b38ff5,e63460ceaba84a3bb957dccbc2ed3a87,10*
G04 Gerber Generator version 0.2*
G04 Scale: 100 percent, Rotated: No, Reflected: No *
G04 Dimensions in millimeters *
G04 leading zeros omitted , absolute positions ,4 integer and 5 decimal *
%FSLAX45Y45*%
%MOMM*%

%AMMACRO1*21,1,$1,$2,0,0,$3*%
%ADD10C,1.0000*%
%ADD11C,0.5000*%
%ADD12O,3.3999932X1.499997*%
%ADD13O,1.499997X3.7999924*%
%ADD14R,1.5748X1.5748*%
%ADD15C,1.5748*%
%ADD16C,1.4000*%
%ADD17C,1.3005*%
%ADD18C,1.9304*%
%ADD19O,1.9999959999999999X2.4999949999999997*%
%ADD20MACRO1,2.0015X2.4994X0.0000*%
%ADD21C,0.0111*%

%LPD*%
G36*
X429768Y4026408D02*
G01*
X425856Y4027170D01*
X422605Y4029405D01*
X420370Y4032656D01*
X419608Y4036568D01*
X419608Y10911332D01*
X420370Y10915243D01*
X422605Y10918494D01*
X425856Y10920730D01*
X429768Y10921492D01*
X7736687Y10921492D01*
X7740548Y10920730D01*
X7743850Y10918545D01*
X7746034Y10915294D01*
X7746847Y10911433D01*
X7759192Y9702596D01*
X7759192Y4036568D01*
X7758430Y4032656D01*
X7756194Y4029405D01*
X7752943Y4027170D01*
X7749031Y4026408D01*
G37*

%LPC*%
G36*
X1391259Y4454601D02*
G01*
X1394561Y4454601D01*
X1394561Y4511649D01*
X1300276Y4511649D01*
X1303528Y4505045D01*
X1310894Y4494072D01*
X1319580Y4484166D01*
X1329486Y4475429D01*
X1340459Y4468114D01*
X1352296Y4462272D01*
X1364792Y4458055D01*
X1377746Y4455464D01*
G37*
G36*
X1577289Y4454601D02*
G01*
X1580591Y4454601D01*
X1594104Y4455464D01*
X1607007Y4458055D01*
X1619504Y4462272D01*
X1631340Y4468114D01*
X1642313Y4475429D01*
X1652270Y4484166D01*
X1660956Y4494072D01*
X1668272Y4505045D01*
X1671523Y4511649D01*
X1577289Y4511649D01*
G37*
G36*
X1577289Y4599330D02*
G01*
X1671523Y4599330D01*
X1668272Y4605934D01*
X1660956Y4616907D01*
X1652270Y4626813D01*
X1642313Y4635550D01*
X1631340Y4642866D01*
X1619504Y4648708D01*
X1607007Y4652924D01*
X1594104Y4655515D01*
X1580591Y4656378D01*
X1577289Y4656378D01*
G37*
G36*
X1300276Y4599330D02*
G01*
X1394561Y4599330D01*
X1394561Y4656378D01*
X1391259Y4656378D01*
X1377746Y4655515D01*
X1364792Y4652924D01*
X1352296Y4648708D01*
X1340459Y4642866D01*
X1329486Y4635550D01*
X1319580Y4626813D01*
X1310894Y4616907D01*
X1303528Y4605934D01*
G37*
G36*
X3645204Y4623104D02*
G01*
X4041241Y4623155D01*
X4050080Y4623968D01*
X4052519Y4624374D01*
X4061155Y4626508D01*
X4063492Y4627270D01*
X4071721Y4630674D01*
X4073906Y4631791D01*
X4081526Y4636414D01*
X4090365Y4643475D01*
X4396130Y4949190D01*
X4399432Y4951374D01*
X4403293Y4952136D01*
X4666945Y4952136D01*
X4670806Y4951374D01*
X4674057Y4949240D01*
X4676292Y4945989D01*
X4677105Y4942128D01*
X4676394Y4938268D01*
X4674260Y4934966D01*
X4665878Y4926228D01*
X4659172Y4916728D01*
X4655515Y4909312D01*
X4693056Y4909312D01*
X4693056Y4941976D01*
X4693818Y4945888D01*
X4696002Y4949190D01*
X4699304Y4951374D01*
X4703216Y4952136D01*
X4745583Y4952034D01*
X4749495Y4951272D01*
X4752797Y4949037D01*
X4754981Y4945735D01*
X4755743Y4941874D01*
X4755743Y4909312D01*
X4793335Y4909312D01*
X4792421Y4911598D01*
X4786477Y4921605D01*
X4779060Y4930546D01*
X4774895Y4934254D01*
X4772456Y4937506D01*
X4771491Y4941468D01*
X4772152Y4945481D01*
X4774336Y4948885D01*
X4777689Y4951222D01*
X4781651Y4952034D01*
X5818276Y4952085D01*
X5827064Y4952898D01*
X5829503Y4953304D01*
X5838139Y4955438D01*
X5848705Y4959604D01*
X5850890Y4960721D01*
X5860542Y4966766D01*
X5867349Y4972405D01*
X6418224Y5523534D01*
X6423914Y5530392D01*
X6429908Y5539994D01*
X6431026Y5542178D01*
X6434429Y5550408D01*
X6435191Y5552744D01*
X6437325Y5561380D01*
X6437731Y5563819D01*
X6438544Y5572658D01*
X6438595Y6084265D01*
X6439458Y6088380D01*
X6441948Y6091783D01*
X6450584Y6099708D01*
X6460388Y6111138D01*
X6468719Y6123686D01*
X6475425Y6137198D01*
X6480454Y6151422D01*
X6483654Y6166104D01*
X6485026Y6181140D01*
X6484569Y6196177D01*
X6482283Y6211062D01*
X6478168Y6225590D01*
X6472275Y6239459D01*
X6464757Y6252514D01*
X6455664Y6264554D01*
X6445148Y6275374D01*
X6442405Y6277610D01*
X6439611Y6281115D01*
X6438595Y6285484D01*
X6438595Y6654444D01*
X6437731Y6666128D01*
X6435191Y6677152D01*
X6431076Y6687718D01*
X6425438Y6697522D01*
X6417360Y6707428D01*
X6408674Y6715150D01*
X6398971Y6721449D01*
X6388252Y6726224D01*
X6379362Y6728866D01*
X6368186Y6730492D01*
X6365798Y6730644D01*
X6356858Y6730492D01*
X6354165Y6730238D01*
X6345631Y6728764D01*
X6342735Y6728053D01*
X6334810Y6725412D01*
X6331762Y6724142D01*
X6324650Y6720484D01*
X6321552Y6718553D01*
X6315303Y6714083D01*
X6312255Y6711543D01*
X6306972Y6706362D01*
X6304178Y6703161D01*
X6299962Y6697472D01*
X6297472Y6693662D01*
X6294272Y6687667D01*
X6292342Y6683197D01*
X6290157Y6677152D01*
X6288786Y6672122D01*
X6287668Y6666077D01*
X6287008Y6660642D01*
X6286804Y6654596D01*
X6286804Y6285484D01*
X6285788Y6281115D01*
X6282994Y6277610D01*
X6280251Y6275374D01*
X6269736Y6264554D01*
X6260642Y6252514D01*
X6253124Y6239459D01*
X6247231Y6225590D01*
X6243116Y6211062D01*
X6240830Y6196177D01*
X6240373Y6181140D01*
X6241745Y6166104D01*
X6244945Y6151422D01*
X6249974Y6137198D01*
X6256680Y6123686D01*
X6265011Y6111138D01*
X6274816Y6099708D01*
X6283452Y6091783D01*
X6285941Y6088380D01*
X6286804Y6084265D01*
X6286804Y5610961D01*
X6286042Y5607050D01*
X6283807Y5603748D01*
X5787085Y5106822D01*
X5783834Y5104587D01*
X5779922Y5103825D01*
X5015331Y5103825D01*
X5011420Y5104587D01*
X5008118Y5106822D01*
X4623765Y5491124D01*
X4614926Y5498185D01*
X4607306Y5502808D01*
X4605121Y5503926D01*
X4596892Y5507329D01*
X4594555Y5508091D01*
X4585919Y5510225D01*
X4583480Y5510631D01*
X4574641Y5511444D01*
X3515258Y5511444D01*
X3506419Y5510631D01*
X3503980Y5510225D01*
X3495344Y5508091D01*
X3493008Y5507329D01*
X3484778Y5503926D01*
X3482594Y5502808D01*
X3474974Y5498185D01*
X3466134Y5491124D01*
X3335375Y5360365D01*
X3328314Y5351526D01*
X3323691Y5343906D01*
X3322574Y5341721D01*
X3319170Y5333492D01*
X3318408Y5331155D01*
X3316274Y5322519D01*
X3315868Y5320080D01*
X3315055Y5311241D01*
X3315004Y5146598D01*
X3314547Y5143601D01*
X3313176Y5140858D01*
X3311093Y5138623D01*
X3307435Y5135727D01*
X3296665Y5125008D01*
X3287318Y5113020D01*
X3279444Y5100015D01*
X3273145Y5086096D01*
X3270961Y5082946D01*
X3267710Y5080812D01*
X3263900Y5080101D01*
X3260090Y5080812D01*
X3256838Y5082946D01*
X3254654Y5086096D01*
X3248355Y5100015D01*
X3240481Y5113020D01*
X3231134Y5125008D01*
X3220364Y5135727D01*
X3208426Y5145125D01*
X3195421Y5152999D01*
X3181553Y5159197D01*
X3167024Y5163718D01*
X3152089Y5166461D01*
X3136900Y5167376D01*
X3121710Y5166461D01*
X3106775Y5163718D01*
X3092246Y5159197D01*
X3078378Y5152999D01*
X3065373Y5145125D01*
X3053435Y5135727D01*
X3042666Y5125008D01*
X3033318Y5113020D01*
X3025444Y5100015D01*
X3024682Y5098389D01*
X3022498Y5095240D01*
X3019247Y5093157D01*
X3015437Y5092395D01*
X2301748Y5092395D01*
X2297836Y5093157D01*
X2294534Y5095392D01*
X2016607Y5373319D01*
X2014474Y5376468D01*
X2013661Y5380177D01*
X2014270Y5383987D01*
X2015439Y5387187D01*
X2017725Y5396280D01*
X2018944Y5407558D01*
X2018995Y5409996D01*
X2018487Y5418886D01*
X2018131Y5421630D01*
X2016353Y5430012D01*
X2015489Y5432958D01*
X2012594Y5440680D01*
X2011172Y5443778D01*
X2007311Y5450687D01*
X2005228Y5453786D01*
X2000554Y5459780D01*
X1997862Y5462778D01*
X1992528Y5467807D01*
X1989175Y5470499D01*
X1983435Y5474512D01*
X1979422Y5476849D01*
X1973427Y5479796D01*
X1968804Y5481624D01*
X1962708Y5483504D01*
X1957578Y5484723D01*
X1951583Y5485638D01*
X1945995Y5486044D01*
X1940255Y5486044D01*
X1934362Y5485587D01*
X1929028Y5484774D01*
X1922932Y5483402D01*
X1918055Y5481878D01*
X1912010Y5479440D01*
X1907692Y5477357D01*
X1901799Y5473852D01*
X1898091Y5471312D01*
X1892554Y5466791D01*
X1889302Y5463794D01*
X1730400Y5304790D01*
X1723339Y5295950D01*
X1718716Y5288330D01*
X1717598Y5286146D01*
X1714195Y5277916D01*
X1713433Y5275580D01*
X1711299Y5266944D01*
X1710893Y5264505D01*
X1710080Y5255666D01*
X1710029Y5205272D01*
X1709369Y5201666D01*
X1707489Y5198567D01*
X1705965Y5196840D01*
X1698650Y5185867D01*
X1692808Y5174030D01*
X1688541Y5161534D01*
X1686001Y5148580D01*
X1685086Y5135067D01*
X1685086Y4905756D01*
X1686001Y4892243D01*
X1688541Y4879289D01*
X1692808Y4866792D01*
X1698650Y4854956D01*
X1705965Y4843983D01*
X1714652Y4834077D01*
X1724609Y4825390D01*
X1735582Y4818024D01*
X1747418Y4812182D01*
X1759915Y4807966D01*
X1772818Y4805375D01*
X1786026Y4804511D01*
X1799183Y4805375D01*
X1812137Y4807966D01*
X1824634Y4812182D01*
X1836470Y4818024D01*
X1847443Y4825390D01*
X1857349Y4834077D01*
X1866036Y4843983D01*
X1873351Y4854956D01*
X1879193Y4866792D01*
X1883460Y4879289D01*
X1886051Y4892243D01*
X1886915Y4905756D01*
X1886915Y4930444D01*
X1887677Y4934305D01*
X1889912Y4937607D01*
X1893163Y4939842D01*
X1897075Y4940604D01*
X3015437Y4940604D01*
X3019247Y4939842D01*
X3022498Y4937760D01*
X3033318Y4919980D01*
X3042666Y4908042D01*
X3053435Y4897272D01*
X3065373Y4887925D01*
X3078378Y4880051D01*
X3092246Y4873802D01*
X3106775Y4869281D01*
X3121710Y4866538D01*
X3136900Y4865624D01*
X3152089Y4866538D01*
X3167024Y4869281D01*
X3181553Y4873802D01*
X3195421Y4880051D01*
X3208426Y4887925D01*
X3220364Y4897272D01*
X3231134Y4908042D01*
X3240481Y4919980D01*
X3248355Y4932984D01*
X3254654Y4946904D01*
X3256838Y4950104D01*
X3260090Y4952187D01*
X3263900Y4952898D01*
X3267710Y4952187D01*
X3270961Y4950104D01*
X3273145Y4946904D01*
X3279444Y4932984D01*
X3287318Y4919980D01*
X3296665Y4908042D01*
X3307435Y4897272D01*
X3319373Y4887925D01*
X3332378Y4880051D01*
X3346246Y4873802D01*
X3360775Y4869281D01*
X3375710Y4866538D01*
X3390900Y4865624D01*
X3406089Y4866538D01*
X3421024Y4869281D01*
X3435553Y4873802D01*
X3449421Y4880051D01*
X3462426Y4887925D01*
X3474364Y4897272D01*
X3485134Y4908042D01*
X3494481Y4919980D01*
X3500120Y4929327D01*
X3503168Y4932476D01*
X3507181Y4934102D01*
X3511550Y4933848D01*
X3515410Y4931816D01*
X3518052Y4928311D01*
X3518966Y4924044D01*
X3518966Y4892090D01*
X3519728Y4885740D01*
X3521608Y4880305D01*
X3524707Y4875377D01*
X3528771Y4871313D01*
X3533698Y4868214D01*
X3539134Y4866284D01*
X3545484Y4865573D01*
X3744315Y4865573D01*
X3750665Y4866284D01*
X3756101Y4868214D01*
X3761028Y4871313D01*
X3765092Y4875377D01*
X3768191Y4880305D01*
X3770071Y4885740D01*
X3770833Y4892090D01*
X3770833Y4930444D01*
X3771595Y4934305D01*
X3773779Y4937607D01*
X3777081Y4939842D01*
X3780993Y4940604D01*
X3914343Y4940655D01*
X3923080Y4941468D01*
X3925874Y4941976D01*
X3934104Y4944008D01*
X3937101Y4945024D01*
X3944670Y4948174D01*
X3947769Y4949748D01*
X3954475Y4953863D01*
X3957523Y4956048D01*
X3963314Y4960924D01*
X3966210Y4963820D01*
X3970985Y4969256D01*
X3973626Y4972761D01*
X3977386Y4978603D01*
X3979570Y4982768D01*
X3982262Y4988814D01*
X3983939Y4993538D01*
X3985615Y4999634D01*
X3986631Y5004917D01*
X3987292Y5010861D01*
X3987495Y5016500D01*
X3987292Y5022138D01*
X3986631Y5028082D01*
X3985615Y5033365D01*
X3983939Y5039410D01*
X3982262Y5044186D01*
X3979570Y5050231D01*
X3977386Y5054396D01*
X3973626Y5060238D01*
X3970985Y5063744D01*
X3966210Y5069179D01*
X3963314Y5072075D01*
X3957523Y5076952D01*
X3954475Y5079136D01*
X3947769Y5083251D01*
X3944670Y5084826D01*
X3937101Y5087975D01*
X3934104Y5088991D01*
X3925874Y5091023D01*
X3923080Y5091531D01*
X3914343Y5092344D01*
X3780993Y5092395D01*
X3777081Y5093157D01*
X3773779Y5095392D01*
X3771595Y5098694D01*
X3770833Y5102555D01*
X3770833Y5140909D01*
X3770071Y5147259D01*
X3768191Y5152694D01*
X3765092Y5157622D01*
X3761028Y5161686D01*
X3756101Y5164785D01*
X3750665Y5166715D01*
X3744315Y5167426D01*
X3545484Y5167426D01*
X3539134Y5166715D01*
X3533698Y5164785D01*
X3528771Y5161686D01*
X3524707Y5157622D01*
X3521608Y5152694D01*
X3519728Y5147259D01*
X3518966Y5140909D01*
X3518966Y5108956D01*
X3518052Y5104688D01*
X3515410Y5101234D01*
X3511550Y5099151D01*
X3507181Y5098948D01*
X3503168Y5100523D01*
X3500120Y5103723D01*
X3494481Y5113020D01*
X3485134Y5125008D01*
X3474364Y5135727D01*
X3470706Y5138623D01*
X3468624Y5140858D01*
X3467252Y5143601D01*
X3466795Y5146598D01*
X3466795Y5272938D01*
X3467557Y5276850D01*
X3469792Y5280152D01*
X3546348Y5356707D01*
X3549650Y5358942D01*
X3553561Y5359704D01*
X4034434Y5359704D01*
X4038295Y5358942D01*
X4041597Y5356707D01*
X4250994Y5147310D01*
X4253230Y5144008D01*
X4253992Y5140096D01*
X4253992Y5025948D01*
X4253230Y5022037D01*
X4250994Y5018786D01*
X4010151Y4777892D01*
X4006850Y4775657D01*
X4002938Y4774895D01*
X3645204Y4774895D01*
X3636010Y4774387D01*
X3633876Y4774082D01*
X3622548Y4771491D01*
X3611981Y4767376D01*
X3602177Y4761687D01*
X3593236Y4754575D01*
X3586378Y4747310D01*
X3579672Y4737760D01*
X3574542Y4727346D01*
X3571036Y4716272D01*
X3569258Y4704791D01*
X3569208Y4693310D01*
X3570935Y4682134D01*
X3574287Y4671263D01*
X3579164Y4661103D01*
X3586378Y4650689D01*
X3594404Y4642358D01*
X3603650Y4635296D01*
X3613912Y4629708D01*
X3624579Y4625848D01*
X3633774Y4623917D01*
X3636010Y4623612D01*
G37*
G36*
X4693056Y4808880D02*
G01*
X4693056Y4846574D01*
X4655515Y4846574D01*
X4659172Y4839157D01*
X4665878Y4829657D01*
X4673904Y4821275D01*
X4683150Y4814265D01*
G37*
G36*
X4755743Y4809083D02*
G01*
X4760671Y4811268D01*
X4770374Y4817567D01*
X4779060Y4825339D01*
X4786477Y4834280D01*
X4792421Y4844288D01*
X4793335Y4846574D01*
X4755743Y4846574D01*
G37*
G36*
X1142085Y4814773D02*
G01*
X1142085Y4919065D01*
X1085037Y4919065D01*
X1085037Y4905756D01*
X1085900Y4892243D01*
X1088491Y4879289D01*
X1092758Y4866792D01*
X1098550Y4854956D01*
X1105916Y4843983D01*
X1114602Y4834077D01*
X1124508Y4825390D01*
X1135481Y4818024D01*
G37*
G36*
X1229817Y4814773D02*
G01*
X1236370Y4818024D01*
X1247343Y4825390D01*
X1257300Y4834077D01*
X1265986Y4843983D01*
X1273302Y4854956D01*
X1279144Y4866792D01*
X1283411Y4879289D01*
X1285951Y4892243D01*
X1286865Y4905756D01*
X1286865Y4919065D01*
X1229817Y4919065D01*
G37*
G36*
X1085037Y5121757D02*
G01*
X1142085Y5121757D01*
X1142085Y5226050D01*
X1135481Y5222798D01*
X1124508Y5215432D01*
X1114602Y5206746D01*
X1105916Y5196840D01*
X1098550Y5185867D01*
X1092758Y5174030D01*
X1088491Y5161534D01*
X1085900Y5148580D01*
X1085037Y5135067D01*
G37*
G36*
X1229817Y5121757D02*
G01*
X1286865Y5121757D01*
X1286865Y5135067D01*
X1285951Y5148580D01*
X1283411Y5161534D01*
X1279144Y5174030D01*
X1273302Y5185867D01*
X1265986Y5196840D01*
X1257300Y5206746D01*
X1247343Y5215432D01*
X1236370Y5222798D01*
X1229817Y5226050D01*
G37*
G36*
X3307181Y6062726D02*
G01*
X3322218Y6062726D01*
X3337204Y6064554D01*
X3351784Y6068263D01*
X3365855Y6073698D01*
X3379165Y6080810D01*
X3391458Y6089548D01*
X3402584Y6099708D01*
X3412388Y6111138D01*
X3420719Y6123686D01*
X3427425Y6137198D01*
X3432098Y6150508D01*
X3434283Y6154064D01*
X3437636Y6156452D01*
X3441700Y6157264D01*
X3445764Y6156452D01*
X3449116Y6154064D01*
X3451301Y6150508D01*
X3455974Y6137198D01*
X3462680Y6123686D01*
X3471011Y6111138D01*
X3480815Y6099708D01*
X3491941Y6089548D01*
X3504234Y6080810D01*
X3517544Y6073698D01*
X3531615Y6068263D01*
X3546195Y6064554D01*
X3561181Y6062726D01*
X3576218Y6062726D01*
X3591204Y6064554D01*
X3605784Y6068263D01*
X3619855Y6073698D01*
X3633165Y6080810D01*
X3645458Y6089548D01*
X3656584Y6099708D01*
X3666388Y6111138D01*
X3674719Y6123686D01*
X3681425Y6137198D01*
X3686098Y6150508D01*
X3688283Y6154064D01*
X3691636Y6156452D01*
X3695700Y6157264D01*
X3699764Y6156452D01*
X3703116Y6154064D01*
X3705301Y6150508D01*
X3709974Y6137198D01*
X3716680Y6123686D01*
X3725011Y6111138D01*
X3734815Y6099708D01*
X3745941Y6089548D01*
X3758234Y6080810D01*
X3771544Y6073698D01*
X3785615Y6068263D01*
X3800195Y6064554D01*
X3815181Y6062726D01*
X3830218Y6062726D01*
X3845204Y6064554D01*
X3859784Y6068263D01*
X3873855Y6073698D01*
X3887165Y6080810D01*
X3899458Y6089548D01*
X3910584Y6099708D01*
X3920388Y6111138D01*
X3928719Y6123686D01*
X3935425Y6137198D01*
X3940098Y6150508D01*
X3942283Y6154064D01*
X3945636Y6156452D01*
X3949700Y6157264D01*
X3953764Y6156452D01*
X3957116Y6154064D01*
X3959301Y6150508D01*
X3963974Y6137198D01*
X3970680Y6123686D01*
X3979011Y6111138D01*
X3988815Y6099708D01*
X3999941Y6089548D01*
X4012234Y6080810D01*
X4025544Y6073698D01*
X4039615Y6068263D01*
X4054195Y6064554D01*
X4069181Y6062726D01*
X4084218Y6062726D01*
X4099204Y6064554D01*
X4113784Y6068263D01*
X4127855Y6073698D01*
X4141165Y6080810D01*
X4153458Y6089548D01*
X4164584Y6099708D01*
X4174388Y6111138D01*
X4182719Y6123686D01*
X4189425Y6137198D01*
X4194098Y6150508D01*
X4196283Y6154064D01*
X4199636Y6156452D01*
X4203700Y6157264D01*
X4207764Y6156452D01*
X4211116Y6154064D01*
X4213301Y6150508D01*
X4217974Y6137198D01*
X4224680Y6123686D01*
X4233011Y6111138D01*
X4242816Y6099708D01*
X4253941Y6089548D01*
X4266234Y6080810D01*
X4279544Y6073698D01*
X4293616Y6068263D01*
X4308195Y6064554D01*
X4323181Y6062726D01*
X4338218Y6062726D01*
X4353204Y6064554D01*
X4367784Y6068263D01*
X4381855Y6073698D01*
X4395165Y6080810D01*
X4407458Y6089548D01*
X4418584Y6099708D01*
X4428388Y6111138D01*
X4436719Y6123686D01*
X4443425Y6137198D01*
X4448098Y6150508D01*
X4450283Y6154064D01*
X4453636Y6156452D01*
X4457700Y6157264D01*
X4461764Y6156452D01*
X4465116Y6154064D01*
X4467301Y6150508D01*
X4471974Y6137198D01*
X4478680Y6123686D01*
X4487011Y6111138D01*
X4496816Y6099708D01*
X4507941Y6089548D01*
X4520285Y6080810D01*
X4533544Y6073698D01*
X4547616Y6068263D01*
X4562195Y6064554D01*
X4577181Y6062726D01*
X4592218Y6062726D01*
X4607204Y6064554D01*
X4621784Y6068263D01*
X4635855Y6073698D01*
X4649165Y6080810D01*
X4661458Y6089548D01*
X4672584Y6099708D01*
X4682388Y6111138D01*
X4690719Y6123686D01*
X4697425Y6137198D01*
X4702098Y6150508D01*
X4704283Y6154064D01*
X4707636Y6156452D01*
X4711700Y6157264D01*
X4715764Y6156452D01*
X4719116Y6154064D01*
X4721301Y6150508D01*
X4725974Y6137198D01*
X4732680Y6123686D01*
X4741011Y6111138D01*
X4750816Y6099708D01*
X4761941Y6089548D01*
X4774285Y6080810D01*
X4787544Y6073698D01*
X4801616Y6068263D01*
X4816195Y6064554D01*
X4831181Y6062726D01*
X4846218Y6062726D01*
X4861204Y6064554D01*
X4875784Y6068263D01*
X4889855Y6073698D01*
X4903165Y6080810D01*
X4915458Y6089548D01*
X4926584Y6099708D01*
X4936388Y6111138D01*
X4944719Y6123686D01*
X4951425Y6137198D01*
X4956454Y6151422D01*
X4959654Y6166104D01*
X4961026Y6181140D01*
X4960569Y6196177D01*
X4958283Y6211062D01*
X4954168Y6225590D01*
X4948275Y6239459D01*
X4940757Y6252514D01*
X4931664Y6264554D01*
X4921148Y6275374D01*
X4909413Y6284823D01*
X4896612Y6292748D01*
X4882896Y6299047D01*
X4868570Y6303619D01*
X4853736Y6306362D01*
X4838700Y6307328D01*
X4823663Y6306362D01*
X4808829Y6303619D01*
X4794504Y6299047D01*
X4780788Y6292748D01*
X4767986Y6284823D01*
X4756251Y6275374D01*
X4745736Y6264554D01*
X4736642Y6252514D01*
X4729124Y6239459D01*
X4723231Y6225590D01*
X4721453Y6219342D01*
X4719421Y6215481D01*
X4715967Y6212890D01*
X4711700Y6211976D01*
X4707432Y6212890D01*
X4703978Y6215481D01*
X4701946Y6219342D01*
X4700168Y6225590D01*
X4694275Y6239459D01*
X4686757Y6252514D01*
X4677664Y6264554D01*
X4667148Y6275374D01*
X4655413Y6284823D01*
X4642612Y6292748D01*
X4628896Y6299047D01*
X4614570Y6303619D01*
X4599736Y6306362D01*
X4584700Y6307328D01*
X4569663Y6306362D01*
X4554829Y6303619D01*
X4540504Y6299047D01*
X4526788Y6292748D01*
X4513986Y6284823D01*
X4502251Y6275374D01*
X4491736Y6264554D01*
X4482642Y6252514D01*
X4475124Y6239459D01*
X4469231Y6225590D01*
X4467453Y6219342D01*
X4465421Y6215481D01*
X4461967Y6212890D01*
X4457700Y6211976D01*
X4453432Y6212890D01*
X4449978Y6215481D01*
X4447946Y6219342D01*
X4446168Y6225590D01*
X4440275Y6239459D01*
X4432757Y6252514D01*
X4423664Y6264554D01*
X4413148Y6275374D01*
X4401413Y6284823D01*
X4388612Y6292748D01*
X4374896Y6299047D01*
X4360570Y6303619D01*
X4345736Y6306362D01*
X4330700Y6307328D01*
X4315663Y6306362D01*
X4300829Y6303619D01*
X4286504Y6299047D01*
X4272788Y6292748D01*
X4259986Y6284823D01*
X4248251Y6275374D01*
X4237736Y6264554D01*
X4228642Y6252514D01*
X4221124Y6239459D01*
X4215231Y6225590D01*
X4213453Y6219342D01*
X4211421Y6215481D01*
X4207967Y6212890D01*
X4203700Y6211976D01*
X4199432Y6212890D01*
X4195978Y6215481D01*
X4193946Y6219342D01*
X4192168Y6225590D01*
X4186275Y6239459D01*
X4178757Y6252514D01*
X4169664Y6264554D01*
X4159148Y6275374D01*
X4147413Y6284823D01*
X4134612Y6292748D01*
X4120896Y6299047D01*
X4106570Y6303619D01*
X4091736Y6306362D01*
X4076700Y6307328D01*
X4061663Y6306362D01*
X4046829Y6303619D01*
X4032504Y6299047D01*
X4018787Y6292748D01*
X4005986Y6284823D01*
X3994251Y6275374D01*
X3983736Y6264554D01*
X3974642Y6252514D01*
X3967124Y6239459D01*
X3961231Y6225590D01*
X3959453Y6219342D01*
X3957421Y6215481D01*
X3953967Y6212890D01*
X3949700Y6211976D01*
X3945432Y6212890D01*
X3941978Y6215481D01*
X3939946Y6219342D01*
X3938168Y6225590D01*
X3932275Y6239459D01*
X3924757Y6252514D01*
X3915664Y6264554D01*
X3905148Y6275374D01*
X3893413Y6284823D01*
X3880612Y6292748D01*
X3866896Y6299047D01*
X3852570Y6303619D01*
X3837736Y6306362D01*
X3822700Y6307328D01*
X3807663Y6306362D01*
X3792829Y6303619D01*
X3778504Y6299047D01*
X3764787Y6292748D01*
X3751986Y6284823D01*
X3740251Y6275374D01*
X3729736Y6264554D01*
X3720642Y6252514D01*
X3713124Y6239459D01*
X3707231Y6225590D01*
X3705453Y6219342D01*
X3703421Y6215481D01*
X3699967Y6212890D01*
X3695700Y6211976D01*
X3691432Y6212890D01*
X3687978Y6215481D01*
X3685946Y6219342D01*
X3684168Y6225590D01*
X3678275Y6239459D01*
X3670757Y6252514D01*
X3661664Y6264554D01*
X3651148Y6275374D01*
X3639413Y6284823D01*
X3626612Y6292748D01*
X3612896Y6299047D01*
X3598570Y6303619D01*
X3583736Y6306362D01*
X3568700Y6307328D01*
X3553663Y6306362D01*
X3538829Y6303619D01*
X3524504Y6299047D01*
X3510787Y6292748D01*
X3497986Y6284823D01*
X3486251Y6275374D01*
X3475736Y6264554D01*
X3466642Y6252514D01*
X3459124Y6239459D01*
X3453231Y6225590D01*
X3451453Y6219342D01*
X3449421Y6215481D01*
X3445967Y6212890D01*
X3441700Y6211976D01*
X3437432Y6212890D01*
X3433978Y6215481D01*
X3431946Y6219342D01*
X3430168Y6225590D01*
X3424275Y6239459D01*
X3416757Y6252514D01*
X3407664Y6264554D01*
X3397148Y6275374D01*
X3385413Y6284823D01*
X3372612Y6292748D01*
X3358896Y6299047D01*
X3344570Y6303619D01*
X3329736Y6306362D01*
X3314700Y6307328D01*
X3299663Y6306362D01*
X3284829Y6303619D01*
X3270503Y6299047D01*
X3256788Y6292748D01*
X3243986Y6284823D01*
X3232251Y6275374D01*
X3221736Y6264554D01*
X3212642Y6252514D01*
X3205124Y6239459D01*
X3199231Y6225590D01*
X3195116Y6211062D01*
X3192830Y6196177D01*
X3192373Y6181140D01*
X3193745Y6166104D01*
X3196945Y6151422D01*
X3201974Y6137198D01*
X3208680Y6123686D01*
X3217011Y6111138D01*
X3226816Y6099708D01*
X3237941Y6089548D01*
X3250234Y6080810D01*
X3263544Y6073698D01*
X3277615Y6068263D01*
X3292195Y6064554D01*
G37*
G36*
X5339181Y6062726D02*
G01*
X5354218Y6062726D01*
X5369204Y6064554D01*
X5383784Y6068263D01*
X5397855Y6073698D01*
X5411165Y6080810D01*
X5423458Y6089548D01*
X5434584Y6099708D01*
X5444388Y6111138D01*
X5452719Y6123686D01*
X5459425Y6137198D01*
X5464098Y6150508D01*
X5466283Y6154064D01*
X5469636Y6156452D01*
X5473700Y6157264D01*
X5477764Y6156452D01*
X5481116Y6154064D01*
X5483301Y6150508D01*
X5487974Y6137198D01*
X5494680Y6123686D01*
X5503011Y6111138D01*
X5512816Y6099708D01*
X5523941Y6089548D01*
X5536285Y6080810D01*
X5549544Y6073698D01*
X5563616Y6068263D01*
X5578195Y6064554D01*
X5593181Y6062726D01*
X5608218Y6062726D01*
X5623204Y6064554D01*
X5637784Y6068263D01*
X5651855Y6073698D01*
X5665165Y6080810D01*
X5677458Y6089548D01*
X5688584Y6099708D01*
X5698388Y6111138D01*
X5706719Y6123686D01*
X5713425Y6137198D01*
X5718098Y6150508D01*
X5720283Y6154064D01*
X5723636Y6156452D01*
X5727700Y6157264D01*
X5731764Y6156452D01*
X5735116Y6154064D01*
X5737301Y6150508D01*
X5741974Y6137198D01*
X5748680Y6123686D01*
X5757011Y6111138D01*
X5766816Y6099708D01*
X5777941Y6089548D01*
X5790285Y6080810D01*
X5803544Y6073698D01*
X5817616Y6068263D01*
X5832195Y6064554D01*
X5847181Y6062726D01*
X5862218Y6062726D01*
X5877204Y6064554D01*
X5891784Y6068263D01*
X5905855Y6073698D01*
X5919165Y6080810D01*
X5931458Y6089548D01*
X5942584Y6099708D01*
X5952388Y6111138D01*
X5960719Y6123686D01*
X5967425Y6137198D01*
X5972454Y6151422D01*
X5975654Y6166104D01*
X5977026Y6181140D01*
X5976569Y6196177D01*
X5974283Y6211062D01*
X5970168Y6225590D01*
X5964275Y6239459D01*
X5956757Y6252514D01*
X5947664Y6264554D01*
X5937148Y6275374D01*
X5925413Y6284823D01*
X5912612Y6292748D01*
X5898896Y6299047D01*
X5884570Y6303619D01*
X5869736Y6306362D01*
X5854700Y6307328D01*
X5839663Y6306362D01*
X5824829Y6303619D01*
X5810504Y6299047D01*
X5796788Y6292748D01*
X5783986Y6284823D01*
X5772251Y6275374D01*
X5761736Y6264554D01*
X5752642Y6252514D01*
X5745124Y6239459D01*
X5739231Y6225590D01*
X5737453Y6219342D01*
X5735421Y6215481D01*
X5731967Y6212890D01*
X5727700Y6211976D01*
X5723432Y6212890D01*
X5719978Y6215481D01*
X5717946Y6219342D01*
X5716168Y6225590D01*
X5710275Y6239459D01*
X5702757Y6252514D01*
X5693664Y6264554D01*
X5683148Y6275374D01*
X5671413Y6284823D01*
X5658612Y6292748D01*
X5644896Y6299047D01*
X5630570Y6303619D01*
X5615736Y6306362D01*
X5600700Y6307328D01*
X5585663Y6306362D01*
X5570829Y6303619D01*
X5556504Y6299047D01*
X5542788Y6292748D01*
X5529986Y6284823D01*
X5518251Y6275374D01*
X5507736Y6264554D01*
X5498642Y6252514D01*
X5491124Y6239459D01*
X5485231Y6225590D01*
X5483453Y6219342D01*
X5481421Y6215481D01*
X5477967Y6212890D01*
X5473700Y6211976D01*
X5469432Y6212890D01*
X5465978Y6215481D01*
X5463946Y6219342D01*
X5462168Y6225590D01*
X5456275Y6239459D01*
X5448757Y6252514D01*
X5439664Y6264554D01*
X5438190Y6266078D01*
X5436057Y6269329D01*
X5435295Y6273139D01*
X5435295Y6679844D01*
X5434431Y6691528D01*
X5431891Y6702552D01*
X5427776Y6713118D01*
X5422138Y6722922D01*
X5414060Y6732828D01*
X5405374Y6740550D01*
X5395671Y6746849D01*
X5384952Y6751624D01*
X5376062Y6754266D01*
X5364886Y6755892D01*
X5362498Y6756044D01*
X5353558Y6755892D01*
X5350865Y6755638D01*
X5342331Y6754164D01*
X5339435Y6753453D01*
X5331510Y6750812D01*
X5328462Y6749542D01*
X5321350Y6745884D01*
X5318252Y6743953D01*
X5312003Y6739483D01*
X5308955Y6736943D01*
X5303672Y6731762D01*
X5300878Y6728561D01*
X5296662Y6722872D01*
X5294172Y6719062D01*
X5290972Y6713067D01*
X5289042Y6708597D01*
X5286857Y6702552D01*
X5285486Y6697522D01*
X5284368Y6691477D01*
X5283708Y6686042D01*
X5283504Y6679996D01*
X5283504Y6295136D01*
X5282895Y6291732D01*
X5281269Y6288735D01*
X5278678Y6286500D01*
X5275986Y6284823D01*
X5264251Y6275374D01*
X5253736Y6264554D01*
X5244642Y6252514D01*
X5237124Y6239459D01*
X5231231Y6225590D01*
X5227116Y6211062D01*
X5224830Y6196177D01*
X5224373Y6181140D01*
X5225745Y6166104D01*
X5228945Y6151422D01*
X5233974Y6137198D01*
X5240680Y6123686D01*
X5249011Y6111138D01*
X5258816Y6099708D01*
X5269941Y6089548D01*
X5282285Y6080810D01*
X5295544Y6073698D01*
X5309616Y6068263D01*
X5324195Y6064554D01*
G37*
G36*
X2799181Y6062726D02*
G01*
X2814218Y6062726D01*
X2829204Y6064554D01*
X2843784Y6068263D01*
X2857855Y6073698D01*
X2871165Y6080810D01*
X2883458Y6089548D01*
X2894584Y6099708D01*
X2904388Y6111138D01*
X2912719Y6123686D01*
X2919425Y6137198D01*
X2924454Y6151422D01*
X2927654Y6166104D01*
X2929026Y6181140D01*
X2928569Y6196177D01*
X2926283Y6211062D01*
X2922168Y6225590D01*
X2916275Y6239459D01*
X2908757Y6252514D01*
X2899664Y6264554D01*
X2889148Y6275374D01*
X2886405Y6277610D01*
X2883611Y6281115D01*
X2882595Y6285484D01*
X2882595Y6517538D01*
X2883357Y6521450D01*
X2885592Y6524752D01*
X3330448Y6969607D01*
X3333750Y6971842D01*
X3337661Y6972604D01*
X7341209Y6972604D01*
X7344765Y6971944D01*
X7347864Y6970064D01*
X7353096Y6965492D01*
X7364475Y6957872D01*
X7376769Y6951827D01*
X7389723Y6947458D01*
X7403134Y6944766D01*
X7416800Y6943852D01*
X7430465Y6944766D01*
X7443876Y6947458D01*
X7456830Y6951827D01*
X7469124Y6957872D01*
X7480503Y6965492D01*
X7490764Y6974535D01*
X7499807Y6984796D01*
X7507427Y6996175D01*
X7513472Y7008469D01*
X7517841Y7021423D01*
X7520533Y7034834D01*
X7521448Y7048500D01*
X7520533Y7062165D01*
X7517841Y7075576D01*
X7513472Y7088530D01*
X7507427Y7100824D01*
X7499807Y7112203D01*
X7490764Y7122464D01*
X7480503Y7131507D01*
X7469124Y7139127D01*
X7456830Y7145172D01*
X7443876Y7149541D01*
X7430465Y7152233D01*
X7416800Y7153148D01*
X7403134Y7152233D01*
X7389723Y7149541D01*
X7376769Y7145172D01*
X7364475Y7139127D01*
X7353096Y7131507D01*
X7347864Y7126935D01*
X7344765Y7125055D01*
X7341209Y7124395D01*
X3299358Y7124344D01*
X3290519Y7123531D01*
X3288080Y7123125D01*
X3279444Y7120991D01*
X3277108Y7120229D01*
X3268878Y7116825D01*
X3266694Y7115708D01*
X3259074Y7111085D01*
X3250234Y7104024D01*
X2751175Y6604965D01*
X2744114Y6596125D01*
X2739491Y6588506D01*
X2738374Y6586321D01*
X2734970Y6578092D01*
X2734208Y6575755D01*
X2732074Y6567119D01*
X2731668Y6564680D01*
X2730855Y6555841D01*
X2730804Y6285484D01*
X2729788Y6281115D01*
X2726994Y6277610D01*
X2724251Y6275374D01*
X2713736Y6264554D01*
X2704642Y6252514D01*
X2697124Y6239459D01*
X2691231Y6225590D01*
X2687116Y6211062D01*
X2684830Y6196177D01*
X2684373Y6181140D01*
X2685745Y6166104D01*
X2688945Y6151422D01*
X2693974Y6137198D01*
X2700680Y6123686D01*
X2709011Y6111138D01*
X2718816Y6099708D01*
X2729941Y6089548D01*
X2742234Y6080810D01*
X2755544Y6073698D01*
X2769616Y6068263D01*
X2784195Y6064554D01*
G37*
G36*
X3115310Y6075527D02*
G01*
X3125165Y6080810D01*
X3137458Y6089548D01*
X3148584Y6099708D01*
X3158388Y6111138D01*
X3166719Y6123686D01*
X3169970Y6130290D01*
X3115310Y6130290D01*
G37*
G36*
X5038090Y6075527D02*
G01*
X5038090Y6130290D01*
X4983429Y6130290D01*
X4986680Y6123686D01*
X4995011Y6111138D01*
X5004816Y6099708D01*
X5015941Y6089548D01*
X5028285Y6080810D01*
G37*
G36*
X6054090Y6075527D02*
G01*
X6054090Y6130290D01*
X5999429Y6130290D01*
X6002680Y6123686D01*
X6011011Y6111138D01*
X6020816Y6099708D01*
X6031941Y6089548D01*
X6044285Y6080810D01*
G37*
G36*
X6163310Y6075527D02*
G01*
X6173165Y6080810D01*
X6185458Y6089548D01*
X6196584Y6099708D01*
X6206388Y6111138D01*
X6214719Y6123686D01*
X6217970Y6130290D01*
X6163310Y6130290D01*
G37*
G36*
X3006090Y6075527D02*
G01*
X3006090Y6130290D01*
X2951429Y6130290D01*
X2954680Y6123686D01*
X2963011Y6111138D01*
X2972816Y6099708D01*
X2983941Y6089548D01*
X2996234Y6080810D01*
G37*
G36*
X5147310Y6075527D02*
G01*
X5157165Y6080810D01*
X5169458Y6089548D01*
X5180584Y6099708D01*
X5190388Y6111138D01*
X5198719Y6123686D01*
X5201970Y6130290D01*
X5147310Y6130290D01*
G37*
G36*
X2416302Y6126226D02*
G01*
X2435098Y6126226D01*
X2453843Y6128156D01*
X2472283Y6131966D01*
X2490266Y6137605D01*
X2507589Y6145022D01*
X2524048Y6154166D01*
X2539492Y6164884D01*
X2553766Y6177178D01*
X2566720Y6190792D01*
X2578252Y6205728D01*
X2588209Y6221679D01*
X2596540Y6238595D01*
X2603042Y6256274D01*
X2607767Y6274460D01*
X2610612Y6293104D01*
X2611577Y6311900D01*
X2610612Y6330696D01*
X2607767Y6349339D01*
X2603042Y6367526D01*
X2596540Y6385204D01*
X2588209Y6402120D01*
X2578252Y6418072D01*
X2566720Y6433007D01*
X2553766Y6446621D01*
X2539492Y6458915D01*
X2524048Y6469634D01*
X2507589Y6478778D01*
X2490266Y6486194D01*
X2472283Y6491833D01*
X2453843Y6495643D01*
X2435098Y6497574D01*
X2416302Y6497574D01*
X2397556Y6495643D01*
X2379116Y6491833D01*
X2361133Y6486194D01*
X2343810Y6478778D01*
X2327351Y6469634D01*
X2311908Y6458915D01*
X2297633Y6446621D01*
X2284679Y6433007D01*
X2273147Y6418072D01*
X2263190Y6402120D01*
X2254859Y6385204D01*
X2248357Y6367526D01*
X2243632Y6349339D01*
X2240788Y6330696D01*
X2239822Y6311900D01*
X2240788Y6293104D01*
X2243632Y6274460D01*
X2248357Y6256274D01*
X2254859Y6238595D01*
X2263190Y6221679D01*
X2273147Y6205728D01*
X2284679Y6190792D01*
X2297633Y6177178D01*
X2311908Y6164884D01*
X2327351Y6154166D01*
X2343810Y6145022D01*
X2361133Y6137605D01*
X2379116Y6131966D01*
X2397556Y6128156D01*
G37*
G36*
X6734302Y6126226D02*
G01*
X6753098Y6126226D01*
X6771843Y6128156D01*
X6790283Y6131966D01*
X6808266Y6137605D01*
X6825589Y6145022D01*
X6842048Y6154166D01*
X6857492Y6164884D01*
X6871766Y6177178D01*
X6884720Y6190792D01*
X6896252Y6205728D01*
X6906209Y6221679D01*
X6914540Y6238595D01*
X6921042Y6256274D01*
X6925767Y6274460D01*
X6928612Y6293104D01*
X6929577Y6311900D01*
X6928612Y6330696D01*
X6925767Y6349339D01*
X6921042Y6367526D01*
X6914540Y6385204D01*
X6906209Y6402120D01*
X6896252Y6418072D01*
X6884720Y6433007D01*
X6871766Y6446621D01*
X6857492Y6458915D01*
X6842048Y6469634D01*
X6825589Y6478778D01*
X6808266Y6486194D01*
X6790283Y6491833D01*
X6771843Y6495643D01*
X6753098Y6497574D01*
X6734302Y6497574D01*
X6715556Y6495643D01*
X6697116Y6491833D01*
X6679133Y6486194D01*
X6661810Y6478778D01*
X6645351Y6469634D01*
X6629908Y6458915D01*
X6615633Y6446621D01*
X6602679Y6433007D01*
X6591147Y6418072D01*
X6581190Y6402120D01*
X6572859Y6385204D01*
X6566357Y6367526D01*
X6561632Y6349339D01*
X6558788Y6330696D01*
X6557822Y6311900D01*
X6558788Y6293104D01*
X6561632Y6274460D01*
X6566357Y6256274D01*
X6572859Y6238595D01*
X6581190Y6221679D01*
X6591147Y6205728D01*
X6602679Y6190792D01*
X6615633Y6177178D01*
X6629908Y6164884D01*
X6645351Y6154166D01*
X6661810Y6145022D01*
X6679133Y6137605D01*
X6697116Y6131966D01*
X6715556Y6128156D01*
G37*
G36*
X4983175Y6239510D02*
G01*
X5038090Y6239510D01*
X5038090Y6294272D01*
X5034788Y6292748D01*
X5021986Y6284823D01*
X5010251Y6275374D01*
X4999736Y6264554D01*
X4990642Y6252514D01*
G37*
G36*
X3115310Y6239510D02*
G01*
X3170224Y6239510D01*
X3162757Y6252514D01*
X3153664Y6264554D01*
X3143148Y6275374D01*
X3131413Y6284823D01*
X3118612Y6292748D01*
X3115310Y6294272D01*
G37*
G36*
X5999175Y6239510D02*
G01*
X6054090Y6239510D01*
X6054090Y6294272D01*
X6050788Y6292748D01*
X6037986Y6284823D01*
X6026251Y6275374D01*
X6015736Y6264554D01*
X6006642Y6252514D01*
G37*
G36*
X6163310Y6239510D02*
G01*
X6218224Y6239510D01*
X6210757Y6252514D01*
X6201664Y6264554D01*
X6191148Y6275374D01*
X6179413Y6284823D01*
X6166612Y6292748D01*
X6163310Y6294272D01*
G37*
G36*
X5147310Y6239510D02*
G01*
X5202224Y6239510D01*
X5194757Y6252514D01*
X5185664Y6264554D01*
X5175148Y6275374D01*
X5163413Y6284823D01*
X5150612Y6292748D01*
X5147310Y6294272D01*
G37*
G36*
X2951175Y6239510D02*
G01*
X3006090Y6239510D01*
X3006090Y6294272D01*
X3002788Y6292748D01*
X2989986Y6284823D01*
X2978251Y6275374D01*
X2967736Y6264554D01*
X2958642Y6252514D01*
G37*
G36*
X1105662Y6374739D02*
G01*
X1109472Y6376416D01*
X1120241Y6383121D01*
X1129944Y6391300D01*
X1138428Y6400698D01*
X1145540Y6411214D01*
X1148740Y6417818D01*
X1105662Y6417818D01*
G37*
G36*
X1027937Y6374739D02*
G01*
X1027937Y6417818D01*
X984859Y6417818D01*
X988060Y6411214D01*
X995171Y6400698D01*
X1003655Y6391300D01*
X1013358Y6383121D01*
X1024128Y6376416D01*
G37*
G36*
X984707Y6495542D02*
G01*
X1027937Y6495542D01*
X1027937Y6538722D01*
X1018641Y6533794D01*
X1008380Y6526326D01*
X999236Y6517487D01*
X991412Y6507530D01*
G37*
G36*
X1105662Y6495542D02*
G01*
X1148892Y6495542D01*
X1142187Y6507530D01*
X1134364Y6517487D01*
X1125220Y6526326D01*
X1114958Y6533794D01*
X1105662Y6538722D01*
G37*
G36*
X1060450Y7016242D02*
G01*
X1073150Y7016242D01*
X1085697Y7018020D01*
X1097889Y7021474D01*
X1109472Y7026656D01*
X1120241Y7033361D01*
X1129944Y7041540D01*
X1138428Y7050938D01*
X1145540Y7061453D01*
X1151077Y7072884D01*
X1154988Y7084923D01*
X1157224Y7097420D01*
X1157630Y7110069D01*
X1156309Y7122718D01*
X1153261Y7135012D01*
X1148486Y7146747D01*
X1144066Y7154468D01*
X1143050Y7156907D01*
X1142695Y7159548D01*
X1142695Y7454544D01*
X1141831Y7466228D01*
X1139291Y7477252D01*
X1135176Y7487818D01*
X1129538Y7497622D01*
X1121460Y7507528D01*
X1112774Y7515250D01*
X1103071Y7521549D01*
X1092352Y7526324D01*
X1083462Y7528966D01*
X1072286Y7530592D01*
X1069898Y7530744D01*
X1060958Y7530592D01*
X1058265Y7530338D01*
X1049731Y7528864D01*
X1046835Y7528153D01*
X1038910Y7525512D01*
X1035862Y7524242D01*
X1028750Y7520584D01*
X1025652Y7518653D01*
X1019403Y7514183D01*
X1016355Y7511643D01*
X1011072Y7506462D01*
X1008278Y7503261D01*
X1004062Y7497572D01*
X1001572Y7493762D01*
X998372Y7487767D01*
X996442Y7483297D01*
X994257Y7477252D01*
X992886Y7472222D01*
X991768Y7466177D01*
X991108Y7460742D01*
X990904Y7454696D01*
X990904Y7159548D01*
X990549Y7156907D01*
X989533Y7154468D01*
X985113Y7146747D01*
X980338Y7135012D01*
X977290Y7122718D01*
X975969Y7110069D01*
X976376Y7097420D01*
X978611Y7084923D01*
X982522Y7072884D01*
X988060Y7061453D01*
X995171Y7050938D01*
X1003655Y7041540D01*
X1013358Y7033361D01*
X1024128Y7026656D01*
X1035710Y7021474D01*
X1047902Y7018020D01*
G37*
G36*
X7416800Y7197852D02*
G01*
X7430465Y7198766D01*
X7443876Y7201458D01*
X7456830Y7205827D01*
X7469124Y7211872D01*
X7480503Y7219492D01*
X7490764Y7228535D01*
X7499807Y7238796D01*
X7507427Y7250175D01*
X7513472Y7262469D01*
X7517841Y7275423D01*
X7520533Y7288834D01*
X7521448Y7302500D01*
X7520533Y7316165D01*
X7517841Y7329576D01*
X7513472Y7342530D01*
X7507427Y7354824D01*
X7499807Y7366203D01*
X7490764Y7376464D01*
X7480503Y7385507D01*
X7469124Y7393127D01*
X7456830Y7399172D01*
X7443876Y7403541D01*
X7430465Y7406233D01*
X7416800Y7407148D01*
X7403134Y7406233D01*
X7389723Y7403541D01*
X7376769Y7399172D01*
X7364475Y7393127D01*
X7353096Y7385507D01*
X7342835Y7376464D01*
X7333792Y7366203D01*
X7326172Y7354824D01*
X7320127Y7342530D01*
X7315758Y7329576D01*
X7313066Y7316165D01*
X7312152Y7302500D01*
X7313066Y7288834D01*
X7315758Y7275423D01*
X7320127Y7262469D01*
X7326172Y7250175D01*
X7333792Y7238796D01*
X7342835Y7228535D01*
X7353096Y7219492D01*
X7364475Y7211872D01*
X7376769Y7205827D01*
X7389723Y7201458D01*
X7403134Y7198766D01*
G37*
G36*
X7462520Y7462621D02*
G01*
X7469124Y7465872D01*
X7480503Y7473492D01*
X7490764Y7482535D01*
X7499807Y7492796D01*
X7507427Y7504175D01*
X7510678Y7510780D01*
X7462520Y7510780D01*
G37*
G36*
X7371080Y7462621D02*
G01*
X7371080Y7510780D01*
X7322921Y7510780D01*
X7326172Y7504175D01*
X7333792Y7492796D01*
X7342835Y7482535D01*
X7353096Y7473492D01*
X7364475Y7465872D01*
G37*
G36*
X2832404Y7493304D02*
G01*
X4803241Y7493355D01*
X4812080Y7494168D01*
X4814519Y7494574D01*
X4823155Y7496708D01*
X4825492Y7497470D01*
X4833721Y7500874D01*
X4835906Y7501991D01*
X4843526Y7506614D01*
X4852365Y7513675D01*
X5148224Y7809534D01*
X5155285Y7818374D01*
X5159908Y7825994D01*
X5161026Y7828178D01*
X5164429Y7836408D01*
X5165191Y7838744D01*
X5167325Y7847380D01*
X5167731Y7849819D01*
X5168544Y7858658D01*
X5168595Y8370265D01*
X5169458Y8374380D01*
X5171948Y8377783D01*
X5180584Y8385708D01*
X5190388Y8397138D01*
X5198719Y8409686D01*
X5205425Y8423198D01*
X5210098Y8436508D01*
X5212283Y8440064D01*
X5215636Y8442452D01*
X5219700Y8443264D01*
X5223764Y8442452D01*
X5227116Y8440064D01*
X5229301Y8436508D01*
X5233974Y8423198D01*
X5240680Y8409686D01*
X5249011Y8397138D01*
X5258816Y8385708D01*
X5269941Y8375548D01*
X5282285Y8366810D01*
X5295544Y8359698D01*
X5309616Y8354263D01*
X5324195Y8350554D01*
X5339181Y8348725D01*
X5354218Y8348725D01*
X5369204Y8350554D01*
X5383784Y8354263D01*
X5397855Y8359698D01*
X5411165Y8366810D01*
X5423458Y8375548D01*
X5434584Y8385708D01*
X5444388Y8397138D01*
X5452719Y8409686D01*
X5459425Y8423198D01*
X5464098Y8436508D01*
X5466283Y8440064D01*
X5469636Y8442452D01*
X5473700Y8443264D01*
X5477764Y8442452D01*
X5481116Y8440064D01*
X5483301Y8436508D01*
X5487974Y8423198D01*
X5494680Y8409686D01*
X5503011Y8397138D01*
X5512816Y8385708D01*
X5523941Y8375548D01*
X5536285Y8366810D01*
X5549544Y8359698D01*
X5563616Y8354263D01*
X5578195Y8350554D01*
X5593181Y8348725D01*
X5608218Y8348725D01*
X5623204Y8350554D01*
X5637784Y8354263D01*
X5651855Y8359698D01*
X5665165Y8366810D01*
X5677458Y8375548D01*
X5688584Y8385708D01*
X5698388Y8397138D01*
X5706719Y8409686D01*
X5713425Y8423198D01*
X5718098Y8436508D01*
X5720283Y8440064D01*
X5723636Y8442452D01*
X5727700Y8443264D01*
X5731764Y8442452D01*
X5735116Y8440064D01*
X5737301Y8436508D01*
X5741974Y8423198D01*
X5748680Y8409686D01*
X5757011Y8397138D01*
X5766816Y8385708D01*
X5777941Y8375548D01*
X5790285Y8366810D01*
X5803544Y8359698D01*
X5817616Y8354263D01*
X5832195Y8350554D01*
X5847181Y8348725D01*
X5862218Y8348725D01*
X5877204Y8350554D01*
X5891784Y8354263D01*
X5905855Y8359698D01*
X5919165Y8366810D01*
X5931458Y8375548D01*
X5942584Y8385708D01*
X5952388Y8397138D01*
X5960719Y8409686D01*
X5967425Y8423198D01*
X5972454Y8437422D01*
X5975654Y8452104D01*
X5977026Y8467140D01*
X5976569Y8482177D01*
X5974283Y8497062D01*
X5970168Y8511590D01*
X5964275Y8525459D01*
X5956757Y8538514D01*
X5947664Y8550554D01*
X5937148Y8561374D01*
X5925413Y8570823D01*
X5912612Y8578748D01*
X5898896Y8585047D01*
X5884570Y8589619D01*
X5869736Y8592362D01*
X5854700Y8593328D01*
X5839663Y8592362D01*
X5824829Y8589619D01*
X5810504Y8585047D01*
X5796788Y8578748D01*
X5783986Y8570823D01*
X5772251Y8561374D01*
X5761736Y8550554D01*
X5752642Y8538514D01*
X5745124Y8525459D01*
X5739231Y8511590D01*
X5737453Y8505342D01*
X5735421Y8501481D01*
X5731967Y8498890D01*
X5727700Y8497976D01*
X5723432Y8498890D01*
X5719978Y8501481D01*
X5717946Y8505342D01*
X5716168Y8511590D01*
X5710275Y8525459D01*
X5702757Y8538514D01*
X5693664Y8550554D01*
X5683148Y8561374D01*
X5671413Y8570823D01*
X5658612Y8578748D01*
X5644896Y8585047D01*
X5630570Y8589619D01*
X5615736Y8592362D01*
X5600700Y8593328D01*
X5585663Y8592362D01*
X5570829Y8589619D01*
X5556504Y8585047D01*
X5542788Y8578748D01*
X5529986Y8570823D01*
X5518251Y8561374D01*
X5507736Y8550554D01*
X5498642Y8538514D01*
X5491124Y8525459D01*
X5485231Y8511590D01*
X5483453Y8505342D01*
X5481421Y8501481D01*
X5477967Y8498890D01*
X5473700Y8497976D01*
X5469432Y8498890D01*
X5465978Y8501481D01*
X5463946Y8505342D01*
X5462168Y8511590D01*
X5456275Y8525459D01*
X5448757Y8538514D01*
X5439664Y8550554D01*
X5429148Y8561374D01*
X5426405Y8563610D01*
X5423611Y8567115D01*
X5422595Y8571484D01*
X5422595Y9105544D01*
X5421731Y9117228D01*
X5419191Y9128252D01*
X5415076Y9138818D01*
X5409438Y9148622D01*
X5401360Y9158528D01*
X5392674Y9166250D01*
X5382971Y9172549D01*
X5372252Y9177324D01*
X5363362Y9179966D01*
X5352186Y9181592D01*
X5349798Y9181744D01*
X5340858Y9181592D01*
X5338165Y9181338D01*
X5329631Y9179864D01*
X5326735Y9179153D01*
X5318810Y9176512D01*
X5315762Y9175242D01*
X5308650Y9171584D01*
X5305552Y9169654D01*
X5299303Y9165183D01*
X5296255Y9162643D01*
X5290972Y9157462D01*
X5288178Y9154261D01*
X5283962Y9148572D01*
X5281472Y9144762D01*
X5278272Y9138767D01*
X5276342Y9134297D01*
X5274157Y9128252D01*
X5272786Y9123222D01*
X5271668Y9117177D01*
X5271008Y9111742D01*
X5270804Y9105696D01*
X5270804Y8571484D01*
X5269788Y8567115D01*
X5266994Y8563610D01*
X5264251Y8561374D01*
X5253736Y8550554D01*
X5244642Y8538514D01*
X5237124Y8525459D01*
X5231231Y8511590D01*
X5229453Y8505342D01*
X5227421Y8501481D01*
X5223967Y8498890D01*
X5219700Y8497976D01*
X5215432Y8498890D01*
X5211978Y8501481D01*
X5209946Y8505342D01*
X5208168Y8511590D01*
X5202275Y8525459D01*
X5194757Y8538514D01*
X5185664Y8550554D01*
X5175148Y8561374D01*
X5163413Y8570823D01*
X5150612Y8578748D01*
X5136896Y8585047D01*
X5122570Y8589619D01*
X5107736Y8592362D01*
X5092700Y8593328D01*
X5077663Y8592362D01*
X5062829Y8589619D01*
X5048504Y8585047D01*
X5034788Y8578748D01*
X5021986Y8570823D01*
X5010251Y8561374D01*
X4999736Y8550554D01*
X4990642Y8538514D01*
X4983124Y8525459D01*
X4977231Y8511590D01*
X4975453Y8505342D01*
X4973421Y8501481D01*
X4969967Y8498890D01*
X4965700Y8497976D01*
X4961432Y8498890D01*
X4957978Y8501481D01*
X4955946Y8505342D01*
X4954168Y8511590D01*
X4948275Y8525459D01*
X4940757Y8538514D01*
X4931664Y8550554D01*
X4921148Y8561374D01*
X4909413Y8570823D01*
X4896612Y8578748D01*
X4882896Y8585047D01*
X4868570Y8589619D01*
X4853736Y8592362D01*
X4838700Y8593328D01*
X4823663Y8592362D01*
X4808829Y8589619D01*
X4794504Y8585047D01*
X4780788Y8578748D01*
X4767986Y8570823D01*
X4756251Y8561374D01*
X4745736Y8550554D01*
X4736642Y8538514D01*
X4729124Y8525459D01*
X4723231Y8511590D01*
X4721453Y8505342D01*
X4719421Y8501481D01*
X4715967Y8498890D01*
X4711700Y8497976D01*
X4707432Y8498890D01*
X4703978Y8501481D01*
X4701946Y8505342D01*
X4700168Y8511590D01*
X4694275Y8525459D01*
X4686757Y8538514D01*
X4677664Y8550554D01*
X4667148Y8561374D01*
X4664405Y8563610D01*
X4661611Y8567115D01*
X4660595Y8571484D01*
X4660595Y9171838D01*
X4661357Y9175750D01*
X4663592Y9179052D01*
X5703976Y10219232D01*
X5711037Y10228072D01*
X5715660Y10235692D01*
X5716778Y10237876D01*
X5720943Y10248442D01*
X5723077Y10257078D01*
X5723483Y10259517D01*
X5724296Y10268356D01*
X5724347Y10321594D01*
X5725210Y10325709D01*
X5727700Y10329113D01*
X5731306Y10331246D01*
X5738368Y10333583D01*
X5743194Y10336631D01*
X5747258Y10340746D01*
X5750356Y10345623D01*
X5752236Y10351109D01*
X5752998Y10357408D01*
X5752998Y10513771D01*
X5752236Y10520070D01*
X5750356Y10525556D01*
X5747258Y10530433D01*
X5743194Y10534548D01*
X5738266Y10537596D01*
X5732830Y10539526D01*
X5726480Y10540238D01*
X5570169Y10540238D01*
X5563819Y10539526D01*
X5558383Y10537596D01*
X5553456Y10534548D01*
X5549392Y10530433D01*
X5546293Y10525556D01*
X5544413Y10520070D01*
X5543702Y10513771D01*
X5543702Y10357408D01*
X5544413Y10351109D01*
X5546293Y10345623D01*
X5549392Y10340746D01*
X5553456Y10336631D01*
X5558383Y10333583D01*
X5567273Y10330484D01*
X5570067Y10328249D01*
X5571896Y10325150D01*
X5572556Y10321594D01*
X5572556Y10306659D01*
X5571794Y10302748D01*
X5569559Y10299446D01*
X4529175Y9259265D01*
X4522114Y9250426D01*
X4517491Y9242806D01*
X4516374Y9240621D01*
X4512208Y9230055D01*
X4510074Y9221419D01*
X4509668Y9218980D01*
X4508855Y9210141D01*
X4508804Y8571484D01*
X4507788Y8567115D01*
X4504994Y8563610D01*
X4502251Y8561374D01*
X4491736Y8550554D01*
X4482642Y8538514D01*
X4475124Y8525459D01*
X4469231Y8511590D01*
X4465116Y8497062D01*
X4462830Y8482177D01*
X4462373Y8467140D01*
X4463745Y8452104D01*
X4466945Y8437422D01*
X4471974Y8423198D01*
X4478680Y8409686D01*
X4487011Y8397138D01*
X4496816Y8385708D01*
X4507941Y8375548D01*
X4520285Y8366810D01*
X4533544Y8359698D01*
X4547616Y8354263D01*
X4562195Y8350554D01*
X4577181Y8348725D01*
X4592218Y8348725D01*
X4607204Y8350554D01*
X4621784Y8354263D01*
X4635855Y8359698D01*
X4649165Y8366810D01*
X4661458Y8375548D01*
X4672584Y8385708D01*
X4682388Y8397138D01*
X4690719Y8409686D01*
X4697425Y8423198D01*
X4702098Y8436508D01*
X4704283Y8440064D01*
X4707636Y8442452D01*
X4711700Y8443264D01*
X4715764Y8442452D01*
X4719116Y8440064D01*
X4721301Y8436508D01*
X4725974Y8423198D01*
X4732680Y8409686D01*
X4741011Y8397138D01*
X4750816Y8385708D01*
X4759452Y8377783D01*
X4761941Y8374380D01*
X4762804Y8370265D01*
X4762804Y8252561D01*
X4762042Y8248650D01*
X4759807Y8245348D01*
X4607052Y8092592D01*
X4603750Y8090357D01*
X4599838Y8089595D01*
X4483404Y8089595D01*
X4474210Y8089087D01*
X4472076Y8088782D01*
X4460748Y8086191D01*
X4450181Y8082076D01*
X4440377Y8076387D01*
X4431436Y8069275D01*
X4424578Y8062010D01*
X4417872Y8052460D01*
X4412742Y8042046D01*
X4409236Y8030972D01*
X4407458Y8019491D01*
X4407408Y8008010D01*
X4409135Y7996834D01*
X4412488Y7985963D01*
X4417364Y7975803D01*
X4424578Y7965389D01*
X4432604Y7957058D01*
X4441850Y7949996D01*
X4452112Y7944408D01*
X4462780Y7940548D01*
X4471974Y7938617D01*
X4474210Y7938312D01*
X4483404Y7937804D01*
X4638141Y7937855D01*
X4646980Y7938668D01*
X4649419Y7939074D01*
X4658055Y7941208D01*
X4660392Y7941970D01*
X4668621Y7945374D01*
X4670806Y7946491D01*
X4678426Y7951114D01*
X4687265Y7958175D01*
X4894224Y8165134D01*
X4901285Y8173974D01*
X4905908Y8181594D01*
X4907026Y8183778D01*
X4910429Y8192008D01*
X4911191Y8194344D01*
X4913325Y8202980D01*
X4913731Y8205419D01*
X4914544Y8214258D01*
X4914595Y8370265D01*
X4915458Y8374380D01*
X4917948Y8377783D01*
X4926584Y8385708D01*
X4936388Y8397138D01*
X4944719Y8409686D01*
X4951425Y8423198D01*
X4956098Y8436508D01*
X4958283Y8440064D01*
X4961636Y8442452D01*
X4965700Y8443264D01*
X4969764Y8442452D01*
X4973116Y8440064D01*
X4975301Y8436508D01*
X4979974Y8423198D01*
X4986680Y8409686D01*
X4995011Y8397138D01*
X5004816Y8385708D01*
X5013452Y8377783D01*
X5015941Y8374380D01*
X5016804Y8370265D01*
X5016804Y7896961D01*
X5016042Y7893050D01*
X5013807Y7889748D01*
X4772152Y7648092D01*
X4768850Y7645857D01*
X4764938Y7645095D01*
X2832404Y7645095D01*
X2823210Y7644587D01*
X2821076Y7644282D01*
X2809748Y7641691D01*
X2799181Y7637576D01*
X2789377Y7631887D01*
X2780436Y7624775D01*
X2773578Y7617510D01*
X2766872Y7607960D01*
X2761742Y7597546D01*
X2758236Y7586472D01*
X2756458Y7574991D01*
X2756408Y7563510D01*
X2758135Y7552334D01*
X2761488Y7541463D01*
X2766364Y7531303D01*
X2773578Y7520889D01*
X2781604Y7512558D01*
X2790850Y7505496D01*
X2801112Y7499908D01*
X2811780Y7496048D01*
X2820974Y7494117D01*
X2823210Y7493812D01*
G37*
G36*
X7322921Y7602220D02*
G01*
X7371080Y7602220D01*
X7371080Y7650378D01*
X7364475Y7647127D01*
X7353096Y7639507D01*
X7342835Y7630464D01*
X7333792Y7620203D01*
X7326172Y7608824D01*
G37*
G36*
X7462520Y7602220D02*
G01*
X7510678Y7602220D01*
X7507427Y7608824D01*
X7499807Y7620203D01*
X7490764Y7630464D01*
X7480503Y7639507D01*
X7469124Y7647127D01*
X7462520Y7650378D01*
G37*
G36*
X7338618Y7705852D02*
G01*
X7494981Y7705852D01*
X7501280Y7706563D01*
X7506766Y7708493D01*
X7511643Y7711541D01*
X7515758Y7715656D01*
X7518806Y7720533D01*
X7520736Y7726019D01*
X7521448Y7732318D01*
X7521448Y7888681D01*
X7520736Y7894980D01*
X7518806Y7900466D01*
X7515758Y7905343D01*
X7511643Y7909458D01*
X7506766Y7912506D01*
X7501280Y7914436D01*
X7494981Y7915148D01*
X7338618Y7915148D01*
X7332319Y7914436D01*
X7326833Y7912506D01*
X7321956Y7909458D01*
X7317841Y7905343D01*
X7314844Y7900517D01*
X7312456Y7893405D01*
X7310323Y7889748D01*
X7306919Y7887258D01*
X7302804Y7886395D01*
X6543548Y7886395D01*
X6539636Y7887157D01*
X6536334Y7889392D01*
X6441592Y7984134D01*
X6439357Y7987436D01*
X6438595Y7991348D01*
X6438595Y8370265D01*
X6439458Y8374380D01*
X6441948Y8377783D01*
X6450584Y8385708D01*
X6460388Y8397138D01*
X6468719Y8409686D01*
X6475425Y8423198D01*
X6480454Y8437422D01*
X6483654Y8452104D01*
X6485026Y8467140D01*
X6484569Y8482177D01*
X6482283Y8497062D01*
X6478168Y8511590D01*
X6472275Y8525459D01*
X6464757Y8538514D01*
X6455664Y8550554D01*
X6445148Y8561374D01*
X6433413Y8570823D01*
X6430721Y8572500D01*
X6428130Y8574735D01*
X6426504Y8577732D01*
X6425895Y8581136D01*
X6425895Y8737244D01*
X6425031Y8748928D01*
X6422491Y8759952D01*
X6418376Y8770518D01*
X6412738Y8780322D01*
X6404660Y8790228D01*
X6395974Y8797950D01*
X6386271Y8804249D01*
X6375552Y8809024D01*
X6366662Y8811666D01*
X6355486Y8813292D01*
X6353098Y8813444D01*
X6344158Y8813292D01*
X6341465Y8813038D01*
X6332931Y8811564D01*
X6330035Y8810853D01*
X6322110Y8808212D01*
X6319062Y8806942D01*
X6311950Y8803284D01*
X6308852Y8801354D01*
X6302603Y8796883D01*
X6299555Y8794343D01*
X6294272Y8789162D01*
X6291478Y8785961D01*
X6287262Y8780272D01*
X6284772Y8776462D01*
X6281572Y8770467D01*
X6279642Y8765997D01*
X6277457Y8759952D01*
X6276086Y8754922D01*
X6274968Y8748877D01*
X6274308Y8743442D01*
X6274104Y8737396D01*
X6274104Y8559139D01*
X6273342Y8555329D01*
X6271209Y8552078D01*
X6269736Y8550554D01*
X6260642Y8538514D01*
X6253124Y8525459D01*
X6247231Y8511590D01*
X6243116Y8497062D01*
X6240830Y8482177D01*
X6240373Y8467140D01*
X6241745Y8452104D01*
X6244945Y8437422D01*
X6249974Y8423198D01*
X6256680Y8409686D01*
X6265011Y8397138D01*
X6274816Y8385708D01*
X6283452Y8377783D01*
X6285941Y8374380D01*
X6286804Y8370265D01*
X6286804Y7798104D01*
X6287262Y7789316D01*
X6288836Y7780375D01*
X6290157Y7775448D01*
X6292342Y7769402D01*
X6294272Y7764932D01*
X6297472Y7758938D01*
X6299962Y7755128D01*
X6304178Y7749438D01*
X6306972Y7746238D01*
X6312255Y7741056D01*
X6315303Y7738516D01*
X6321552Y7734046D01*
X6324650Y7732115D01*
X6331762Y7728458D01*
X6334810Y7727188D01*
X6342735Y7724546D01*
X6345529Y7723886D01*
X6357112Y7722108D01*
X6365748Y7721955D01*
X6368186Y7722108D01*
X6379413Y7723733D01*
X6387947Y7726222D01*
X6398158Y7730693D01*
X6402222Y7733131D01*
X6404711Y7734198D01*
X6407454Y7734604D01*
X7302804Y7734604D01*
X7306919Y7733741D01*
X7310323Y7731252D01*
X7312456Y7727594D01*
X7314844Y7720482D01*
X7317841Y7715656D01*
X7321956Y7711541D01*
X7326833Y7708493D01*
X7332319Y7706563D01*
G37*
G36*
X4070756Y7709408D02*
G01*
X4082389Y7709408D01*
X4093565Y7711135D01*
X4104436Y7714488D01*
X4114647Y7719364D01*
X4123994Y7725765D01*
X4132326Y7733538D01*
X4138726Y7741412D01*
X4144721Y7751419D01*
X4149039Y7762189D01*
X4151680Y7773517D01*
X4152595Y7785506D01*
X4152595Y8370265D01*
X4153458Y8374380D01*
X4155948Y8377783D01*
X4164584Y8385708D01*
X4174388Y8397138D01*
X4182719Y8409686D01*
X4189425Y8423198D01*
X4194454Y8437422D01*
X4197654Y8452104D01*
X4199026Y8467140D01*
X4198569Y8482177D01*
X4196283Y8497062D01*
X4192168Y8511590D01*
X4186275Y8525459D01*
X4178757Y8538514D01*
X4169664Y8550554D01*
X4159148Y8561374D01*
X4156405Y8563610D01*
X4153611Y8567115D01*
X4152595Y8571484D01*
X4152544Y9730841D01*
X4151731Y9739680D01*
X4151325Y9742119D01*
X4149191Y9750755D01*
X4148429Y9753092D01*
X4145026Y9761321D01*
X4143908Y9763506D01*
X4139285Y9771126D01*
X4132224Y9779965D01*
X3866794Y10045446D01*
X3864559Y10048748D01*
X3863797Y10052659D01*
X3863797Y10362641D01*
X3864457Y10366248D01*
X3866337Y10369346D01*
X3870756Y10374426D01*
X3878376Y10385806D01*
X3884422Y10398099D01*
X3888841Y10411053D01*
X3891483Y10424464D01*
X3892397Y10438130D01*
X3891483Y10451795D01*
X3888841Y10465206D01*
X3884422Y10478160D01*
X3878376Y10490454D01*
X3870756Y10501833D01*
X3861765Y10512094D01*
X3851452Y10521137D01*
X3840073Y10528757D01*
X3827830Y10534802D01*
X3814876Y10539171D01*
X3801414Y10541863D01*
X3787800Y10542778D01*
X3774135Y10541863D01*
X3760673Y10539171D01*
X3747719Y10534802D01*
X3735476Y10528757D01*
X3724097Y10521137D01*
X3713784Y10512094D01*
X3704793Y10501833D01*
X3697173Y10490454D01*
X3691128Y10478160D01*
X3686708Y10465206D01*
X3684066Y10451795D01*
X3683152Y10438130D01*
X3684066Y10424464D01*
X3686708Y10411053D01*
X3691128Y10398099D01*
X3697173Y10385806D01*
X3704793Y10374426D01*
X3709466Y10369092D01*
X3711346Y10365943D01*
X3712006Y10362387D01*
X3712057Y10014356D01*
X3712870Y10005517D01*
X3713276Y10003078D01*
X3715410Y9994442D01*
X3716172Y9992106D01*
X3719576Y9983876D01*
X3720693Y9981692D01*
X3725316Y9974072D01*
X3732377Y9965232D01*
X3997807Y9699752D01*
X4000042Y9696450D01*
X4000804Y9692538D01*
X4000804Y8571484D01*
X3999788Y8567115D01*
X3996994Y8563610D01*
X3994251Y8561374D01*
X3983736Y8550554D01*
X3974642Y8538514D01*
X3967124Y8525459D01*
X3961231Y8511590D01*
X3959453Y8505342D01*
X3957421Y8501481D01*
X3953967Y8498890D01*
X3949700Y8497976D01*
X3945432Y8498890D01*
X3941978Y8501481D01*
X3939946Y8505342D01*
X3938168Y8511590D01*
X3932275Y8525459D01*
X3924757Y8538514D01*
X3915664Y8550554D01*
X3905148Y8561374D01*
X3902405Y8563610D01*
X3899611Y8567115D01*
X3898595Y8571484D01*
X3898595Y9054744D01*
X3897731Y9066428D01*
X3895191Y9077452D01*
X3891076Y9088018D01*
X3885437Y9097822D01*
X3877360Y9107728D01*
X3868674Y9115450D01*
X3858971Y9121749D01*
X3848252Y9126524D01*
X3839362Y9129166D01*
X3828186Y9130792D01*
X3825798Y9130944D01*
X3816858Y9130792D01*
X3814165Y9130538D01*
X3805631Y9129064D01*
X3802735Y9128353D01*
X3794810Y9125712D01*
X3791762Y9124442D01*
X3784650Y9120784D01*
X3781551Y9118854D01*
X3775303Y9114383D01*
X3772255Y9111843D01*
X3766972Y9106662D01*
X3764178Y9103461D01*
X3759962Y9097772D01*
X3757472Y9093962D01*
X3754272Y9087967D01*
X3752342Y9083497D01*
X3750157Y9077452D01*
X3748786Y9072422D01*
X3747668Y9066377D01*
X3747008Y9060942D01*
X3746804Y9054896D01*
X3746804Y8571484D01*
X3745788Y8567115D01*
X3742994Y8563610D01*
X3740251Y8561374D01*
X3729736Y8550554D01*
X3720642Y8538514D01*
X3713124Y8525459D01*
X3707231Y8511590D01*
X3705453Y8505342D01*
X3703421Y8501481D01*
X3699967Y8498890D01*
X3695700Y8497976D01*
X3691432Y8498890D01*
X3687978Y8501481D01*
X3685946Y8505342D01*
X3684168Y8511590D01*
X3678275Y8525459D01*
X3670757Y8538514D01*
X3661664Y8550554D01*
X3651148Y8561374D01*
X3648405Y8563610D01*
X3645611Y8567115D01*
X3644595Y8571484D01*
X3644544Y10405872D01*
X3643731Y10414711D01*
X3643325Y10417149D01*
X3641242Y10425531D01*
X3638905Y10431526D01*
X3638245Y10435844D01*
X3638397Y10438130D01*
X3637483Y10451795D01*
X3634841Y10465206D01*
X3630422Y10478160D01*
X3624376Y10490454D01*
X3616756Y10501833D01*
X3607765Y10512094D01*
X3597452Y10521137D01*
X3586073Y10528757D01*
X3573830Y10534802D01*
X3560876Y10539171D01*
X3547414Y10541863D01*
X3533800Y10542778D01*
X3520135Y10541863D01*
X3506673Y10539171D01*
X3493719Y10534802D01*
X3481476Y10528757D01*
X3470097Y10521137D01*
X3459784Y10512094D01*
X3450793Y10501833D01*
X3443173Y10490454D01*
X3437128Y10478160D01*
X3432708Y10465206D01*
X3430066Y10451795D01*
X3429152Y10438130D01*
X3430066Y10424464D01*
X3432708Y10411053D01*
X3437128Y10398099D01*
X3443173Y10385806D01*
X3450793Y10374426D01*
X3459784Y10364165D01*
X3470097Y10355122D01*
X3481476Y10347502D01*
X3487115Y10344708D01*
X3490112Y10342473D01*
X3492093Y10339273D01*
X3492804Y10335615D01*
X3492804Y8571484D01*
X3491788Y8567115D01*
X3488994Y8563610D01*
X3486251Y8561374D01*
X3475736Y8550554D01*
X3466642Y8538514D01*
X3459124Y8525459D01*
X3453231Y8511590D01*
X3451453Y8505342D01*
X3449421Y8501481D01*
X3445967Y8498890D01*
X3441700Y8497976D01*
X3437432Y8498890D01*
X3433978Y8501481D01*
X3431946Y8505342D01*
X3430168Y8511590D01*
X3424275Y8525459D01*
X3416757Y8538514D01*
X3407664Y8550554D01*
X3397148Y8561374D01*
X3394405Y8563610D01*
X3391611Y8567115D01*
X3390595Y8571484D01*
X3390544Y8829141D01*
X3389731Y8837980D01*
X3389325Y8840419D01*
X3387191Y8849055D01*
X3386429Y8851392D01*
X3383026Y8859621D01*
X3381908Y8861806D01*
X3377285Y8869426D01*
X3370224Y8878265D01*
X2682392Y9566148D01*
X2680157Y9569450D01*
X2679395Y9573361D01*
X2679395Y10361269D01*
X2680055Y10364825D01*
X2681935Y10367924D01*
X2686507Y10373156D01*
X2694127Y10384536D01*
X2700172Y10396829D01*
X2704541Y10409783D01*
X2707233Y10423194D01*
X2708148Y10436860D01*
X2707233Y10450525D01*
X2704541Y10463936D01*
X2700172Y10476890D01*
X2694127Y10489184D01*
X2686507Y10500563D01*
X2677464Y10510824D01*
X2667203Y10519867D01*
X2655824Y10527487D01*
X2643530Y10533532D01*
X2630576Y10537901D01*
X2617165Y10540593D01*
X2603500Y10541508D01*
X2589834Y10540593D01*
X2576423Y10537901D01*
X2563469Y10533532D01*
X2551176Y10527487D01*
X2539796Y10519867D01*
X2529535Y10510824D01*
X2520492Y10500563D01*
X2512872Y10489184D01*
X2506827Y10476890D01*
X2502458Y10463936D01*
X2499766Y10450525D01*
X2498852Y10436860D01*
X2499766Y10423194D01*
X2502458Y10409783D01*
X2506827Y10396829D01*
X2512872Y10384536D01*
X2520492Y10373156D01*
X2525064Y10367924D01*
X2526944Y10364825D01*
X2527604Y10361269D01*
X2527655Y9535058D01*
X2528468Y9526219D01*
X2528874Y9523780D01*
X2531008Y9515144D01*
X2531770Y9512808D01*
X2535174Y9504578D01*
X2536291Y9502394D01*
X2540914Y9494774D01*
X2547975Y9485934D01*
X3235807Y8798052D01*
X3238042Y8794750D01*
X3238804Y8790838D01*
X3238804Y8571484D01*
X3237788Y8567115D01*
X3234994Y8563610D01*
X3232251Y8561374D01*
X3221736Y8550554D01*
X3212642Y8538514D01*
X3205124Y8525459D01*
X3199231Y8511590D01*
X3197453Y8505342D01*
X3195421Y8501481D01*
X3191967Y8498890D01*
X3187700Y8497976D01*
X3183432Y8498890D01*
X3179978Y8501481D01*
X3177946Y8505342D01*
X3176168Y8511590D01*
X3170275Y8525459D01*
X3162757Y8538514D01*
X3153664Y8550554D01*
X3143148Y8561374D01*
X3140405Y8563610D01*
X3137611Y8567115D01*
X3136595Y8571484D01*
X3136544Y8676741D01*
X3135731Y8685580D01*
X3135325Y8688019D01*
X3133191Y8696655D01*
X3132429Y8698992D01*
X3129026Y8707221D01*
X3127908Y8709406D01*
X3123285Y8717026D01*
X3116224Y8725865D01*
X2428392Y9413748D01*
X2426157Y9417050D01*
X2425395Y9420961D01*
X2425395Y10361269D01*
X2426055Y10364825D01*
X2427935Y10367924D01*
X2432507Y10373156D01*
X2440127Y10384536D01*
X2446172Y10396829D01*
X2450541Y10409783D01*
X2453233Y10423194D01*
X2454148Y10436860D01*
X2453233Y10450525D01*
X2450541Y10463936D01*
X2446172Y10476890D01*
X2440127Y10489184D01*
X2432507Y10500563D01*
X2423464Y10510824D01*
X2413203Y10519867D01*
X2401824Y10527487D01*
X2389530Y10533532D01*
X2376576Y10537901D01*
X2363165Y10540593D01*
X2349500Y10541508D01*
X2335834Y10540593D01*
X2322423Y10537901D01*
X2309469Y10533532D01*
X2297176Y10527487D01*
X2285796Y10519867D01*
X2275535Y10510824D01*
X2266492Y10500563D01*
X2258872Y10489184D01*
X2252827Y10476890D01*
X2248458Y10463936D01*
X2245766Y10450525D01*
X2244852Y10436860D01*
X2245766Y10423194D01*
X2248458Y10409783D01*
X2252827Y10396829D01*
X2258872Y10384536D01*
X2266492Y10373156D01*
X2271064Y10367924D01*
X2272944Y10364825D01*
X2273604Y10361269D01*
X2273655Y9382658D01*
X2274468Y9373819D01*
X2274874Y9371380D01*
X2277008Y9362744D01*
X2277770Y9360408D01*
X2281174Y9352178D01*
X2282291Y9349994D01*
X2286914Y9342374D01*
X2293975Y9333534D01*
X2981807Y8645652D01*
X2984042Y8642350D01*
X2984804Y8638438D01*
X2984804Y8571484D01*
X2983788Y8567115D01*
X2980994Y8563610D01*
X2978251Y8561374D01*
X2967736Y8550554D01*
X2958642Y8538514D01*
X2951124Y8525459D01*
X2945231Y8511590D01*
X2943453Y8505342D01*
X2941421Y8501481D01*
X2937967Y8498890D01*
X2933700Y8497976D01*
X2929432Y8498890D01*
X2925978Y8501481D01*
X2923946Y8505342D01*
X2922168Y8511590D01*
X2916275Y8525459D01*
X2908757Y8538514D01*
X2899664Y8550554D01*
X2889148Y8561374D01*
X2886405Y8563610D01*
X2883611Y8567115D01*
X2882595Y8571484D01*
X2882544Y8587943D01*
X2881731Y8596680D01*
X2881325Y8599119D01*
X2879191Y8607755D01*
X2878429Y8610092D01*
X2875026Y8618321D01*
X2873908Y8620506D01*
X2869285Y8628126D01*
X2862224Y8636965D01*
X2426665Y9072524D01*
X2417826Y9079585D01*
X2410206Y9084208D01*
X2408021Y9085326D01*
X2399792Y9088729D01*
X2397455Y9089491D01*
X2388819Y9091625D01*
X2386380Y9092031D01*
X2377541Y9092844D01*
X1956104Y9092895D01*
X1946910Y9092387D01*
X1944776Y9092082D01*
X1933448Y9089491D01*
X1922881Y9085376D01*
X1913077Y9079687D01*
X1904136Y9072575D01*
X1897278Y9065310D01*
X1890572Y9055760D01*
X1885442Y9045346D01*
X1881936Y9034272D01*
X1880158Y9022791D01*
X1880158Y9011310D01*
X1881835Y9000134D01*
X1885188Y8989263D01*
X1890064Y8979103D01*
X1897278Y8968689D01*
X1905304Y8960358D01*
X1914550Y8953296D01*
X1924812Y8947708D01*
X1935480Y8943848D01*
X1944674Y8941917D01*
X1946910Y8941612D01*
X1956104Y8941104D01*
X2339238Y8941104D01*
X2343150Y8940342D01*
X2346452Y8938107D01*
X2716631Y8567928D01*
X2718816Y8564626D01*
X2719628Y8560816D01*
X2718866Y8556955D01*
X2716733Y8553653D01*
X2713736Y8550554D01*
X2704642Y8538514D01*
X2697124Y8525459D01*
X2691231Y8511590D01*
X2687116Y8497062D01*
X2684830Y8482177D01*
X2684373Y8467140D01*
X2685745Y8452104D01*
X2688945Y8437422D01*
X2693974Y8423198D01*
X2700680Y8409686D01*
X2709011Y8397138D01*
X2718816Y8385708D01*
X2729941Y8375548D01*
X2742234Y8366810D01*
X2755544Y8359698D01*
X2769616Y8354263D01*
X2784195Y8350554D01*
X2799181Y8348725D01*
X2814218Y8348725D01*
X2829204Y8350554D01*
X2843784Y8354263D01*
X2857855Y8359698D01*
X2871165Y8366810D01*
X2883458Y8375548D01*
X2894584Y8385708D01*
X2904388Y8397138D01*
X2912719Y8409686D01*
X2919425Y8423198D01*
X2924098Y8436508D01*
X2926283Y8440064D01*
X2929636Y8442452D01*
X2933700Y8443264D01*
X2937764Y8442452D01*
X2941116Y8440064D01*
X2943301Y8436508D01*
X2947974Y8423198D01*
X2954680Y8409686D01*
X2963011Y8397138D01*
X2972816Y8385708D01*
X2983941Y8375548D01*
X2996234Y8366810D01*
X3009544Y8359698D01*
X3023616Y8354263D01*
X3038195Y8350554D01*
X3053181Y8348725D01*
X3068218Y8348725D01*
X3083204Y8350554D01*
X3097784Y8354263D01*
X3111855Y8359698D01*
X3125165Y8366810D01*
X3137458Y8375548D01*
X3148584Y8385708D01*
X3158388Y8397138D01*
X3166719Y8409686D01*
X3173425Y8423198D01*
X3178098Y8436508D01*
X3180283Y8440064D01*
X3183636Y8442452D01*
X3187700Y8443264D01*
X3191764Y8442452D01*
X3195116Y8440064D01*
X3197301Y8436508D01*
X3201974Y8423198D01*
X3208680Y8409686D01*
X3217011Y8397138D01*
X3226816Y8385708D01*
X3237941Y8375548D01*
X3250234Y8366810D01*
X3263544Y8359698D01*
X3277615Y8354263D01*
X3292195Y8350554D01*
X3307181Y8348725D01*
X3322218Y8348725D01*
X3337204Y8350554D01*
X3351784Y8354263D01*
X3365855Y8359698D01*
X3379165Y8366810D01*
X3391458Y8375548D01*
X3402584Y8385708D01*
X3412388Y8397138D01*
X3420719Y8409686D01*
X3427425Y8423198D01*
X3432098Y8436508D01*
X3434283Y8440064D01*
X3437636Y8442452D01*
X3441700Y8443264D01*
X3445764Y8442452D01*
X3449116Y8440064D01*
X3451301Y8436508D01*
X3455974Y8423198D01*
X3462680Y8409686D01*
X3471011Y8397138D01*
X3480815Y8385708D01*
X3491941Y8375548D01*
X3504234Y8366810D01*
X3517544Y8359698D01*
X3531615Y8354263D01*
X3546195Y8350554D01*
X3561181Y8348725D01*
X3576218Y8348725D01*
X3591204Y8350554D01*
X3605784Y8354263D01*
X3619855Y8359698D01*
X3633165Y8366810D01*
X3645458Y8375548D01*
X3656584Y8385708D01*
X3666388Y8397138D01*
X3674719Y8409686D01*
X3681425Y8423198D01*
X3686098Y8436508D01*
X3688283Y8440064D01*
X3691636Y8442452D01*
X3695700Y8443264D01*
X3699764Y8442452D01*
X3703116Y8440064D01*
X3705301Y8436508D01*
X3709974Y8423198D01*
X3716680Y8409686D01*
X3725011Y8397138D01*
X3734815Y8385708D01*
X3745941Y8375548D01*
X3758234Y8366810D01*
X3771544Y8359698D01*
X3785615Y8354263D01*
X3800195Y8350554D01*
X3815181Y8348725D01*
X3830218Y8348725D01*
X3845204Y8350554D01*
X3859784Y8354263D01*
X3873855Y8359698D01*
X3887165Y8366810D01*
X3899458Y8375548D01*
X3910584Y8385708D01*
X3920388Y8397138D01*
X3928719Y8409686D01*
X3935425Y8423198D01*
X3940098Y8436508D01*
X3942283Y8440064D01*
X3945636Y8442452D01*
X3949700Y8443264D01*
X3953764Y8442452D01*
X3957116Y8440064D01*
X3959301Y8436508D01*
X3963974Y8423198D01*
X3970680Y8409686D01*
X3979011Y8397138D01*
X3988815Y8385708D01*
X3997451Y8377783D01*
X3999941Y8374380D01*
X4000804Y8370265D01*
X4000804Y7785303D01*
X4001008Y7779258D01*
X4001668Y7773822D01*
X4002786Y7767777D01*
X4004157Y7762748D01*
X4006342Y7756702D01*
X4008272Y7752232D01*
X4011472Y7746238D01*
X4013962Y7742428D01*
X4018178Y7736738D01*
X4020972Y7733538D01*
X4026255Y7728356D01*
X4029303Y7725816D01*
X4035551Y7721346D01*
X4038650Y7719415D01*
X4045762Y7715758D01*
X4048810Y7714488D01*
X4056735Y7711846D01*
X4059631Y7711135D01*
X4068165Y7709662D01*
G37*
G36*
X911148Y7927390D02*
G01*
X911148Y7972348D01*
X866190Y7972348D01*
X867359Y7969605D01*
X874166Y7958429D01*
X882446Y7948269D01*
X891997Y7939328D01*
X902665Y7931759D01*
G37*
G36*
X993851Y7927390D02*
G01*
X1002334Y7931759D01*
X1013002Y7939328D01*
X1022553Y7948269D01*
X1030833Y7958429D01*
X1037640Y7969605D01*
X1038809Y7972348D01*
X993851Y7972348D01*
G37*
G36*
X993851Y8055051D02*
G01*
X1038809Y8055051D01*
X1037640Y8057794D01*
X1030833Y8068970D01*
X1022553Y8079130D01*
X1013002Y8088071D01*
X1002334Y8095640D01*
X993851Y8100009D01*
G37*
G36*
X866190Y8055051D02*
G01*
X911148Y8055051D01*
X911148Y8100009D01*
X902665Y8095640D01*
X891997Y8088071D01*
X882446Y8079130D01*
X874166Y8068970D01*
X867359Y8057794D01*
G37*
G36*
X2416302Y8158225D02*
G01*
X2435098Y8158225D01*
X2453843Y8160156D01*
X2472283Y8163966D01*
X2490266Y8169605D01*
X2507589Y8177022D01*
X2524048Y8186166D01*
X2539492Y8196884D01*
X2553766Y8209178D01*
X2566720Y8222792D01*
X2578252Y8237728D01*
X2588209Y8253679D01*
X2596540Y8270595D01*
X2603042Y8288274D01*
X2607767Y8306460D01*
X2610612Y8325103D01*
X2611577Y8343900D01*
X2610612Y8362696D01*
X2607767Y8381339D01*
X2603042Y8399526D01*
X2596540Y8417204D01*
X2588209Y8434120D01*
X2578252Y8450072D01*
X2566720Y8465007D01*
X2553766Y8478621D01*
X2539492Y8490915D01*
X2524048Y8501634D01*
X2507589Y8510778D01*
X2490266Y8518194D01*
X2472283Y8523833D01*
X2453843Y8527643D01*
X2435098Y8529574D01*
X2416302Y8529574D01*
X2397556Y8527643D01*
X2379116Y8523833D01*
X2361133Y8518194D01*
X2343810Y8510778D01*
X2327351Y8501634D01*
X2311908Y8490915D01*
X2297633Y8478621D01*
X2284679Y8465007D01*
X2273147Y8450072D01*
X2263190Y8434120D01*
X2254859Y8417204D01*
X2248357Y8399526D01*
X2243632Y8381339D01*
X2240788Y8362696D01*
X2239822Y8343900D01*
X2240788Y8325103D01*
X2243632Y8306460D01*
X2248357Y8288274D01*
X2254859Y8270595D01*
X2263190Y8253679D01*
X2273147Y8237728D01*
X2284679Y8222792D01*
X2297633Y8209178D01*
X2311908Y8196884D01*
X2327351Y8186166D01*
X2343810Y8177022D01*
X2361133Y8169605D01*
X2379116Y8163966D01*
X2397556Y8160156D01*
G37*
G36*
X6734302Y8158225D02*
G01*
X6753098Y8158225D01*
X6771843Y8160156D01*
X6790283Y8163966D01*
X6808266Y8169605D01*
X6825589Y8177022D01*
X6842048Y8186166D01*
X6857492Y8196884D01*
X6871766Y8209178D01*
X6884720Y8222792D01*
X6896252Y8237728D01*
X6906209Y8253679D01*
X6914540Y8270595D01*
X6921042Y8288274D01*
X6925767Y8306460D01*
X6928612Y8325103D01*
X6929577Y8343900D01*
X6928612Y8362696D01*
X6925767Y8381339D01*
X6921042Y8399526D01*
X6914540Y8417204D01*
X6906209Y8434120D01*
X6896252Y8450072D01*
X6884720Y8465007D01*
X6871766Y8478621D01*
X6857492Y8490915D01*
X6842048Y8501634D01*
X6825589Y8510778D01*
X6808266Y8518194D01*
X6790283Y8523833D01*
X6771843Y8527643D01*
X6753098Y8529574D01*
X6734302Y8529574D01*
X6715556Y8527643D01*
X6697116Y8523833D01*
X6679133Y8518194D01*
X6661810Y8510778D01*
X6645351Y8501634D01*
X6629908Y8490915D01*
X6615633Y8478621D01*
X6602679Y8465007D01*
X6591147Y8450072D01*
X6581190Y8434120D01*
X6572859Y8417204D01*
X6566357Y8399526D01*
X6561632Y8381339D01*
X6558788Y8362696D01*
X6557822Y8343900D01*
X6558788Y8325103D01*
X6561632Y8306460D01*
X6566357Y8288274D01*
X6572859Y8270595D01*
X6581190Y8253679D01*
X6591147Y8237728D01*
X6602679Y8222792D01*
X6615633Y8209178D01*
X6629908Y8196884D01*
X6645351Y8186166D01*
X6661810Y8177022D01*
X6679133Y8169605D01*
X6697116Y8163966D01*
X6715556Y8160156D01*
G37*
G36*
X952500Y8171840D02*
G01*
X965555Y8172703D01*
X978357Y8175396D01*
X990701Y8179765D01*
X1002334Y8185759D01*
X1013002Y8193328D01*
X1022553Y8202269D01*
X1030833Y8212429D01*
X1037640Y8223605D01*
X1042873Y8235594D01*
X1046378Y8248192D01*
X1048156Y8261146D01*
X1048156Y8274253D01*
X1046378Y8287207D01*
X1042873Y8299805D01*
X1037640Y8311794D01*
X1029004Y8326170D01*
X1028395Y8329574D01*
X1028395Y8470544D01*
X1027531Y8482228D01*
X1024991Y8493252D01*
X1020876Y8503818D01*
X1015237Y8513622D01*
X1007160Y8523528D01*
X998474Y8531250D01*
X988771Y8537549D01*
X978052Y8542324D01*
X969162Y8544966D01*
X957986Y8546592D01*
X955598Y8546744D01*
X946658Y8546592D01*
X943965Y8546338D01*
X935431Y8544864D01*
X932535Y8544153D01*
X924610Y8541512D01*
X921562Y8540242D01*
X914450Y8536584D01*
X911352Y8534654D01*
X905103Y8530183D01*
X902055Y8527643D01*
X896772Y8522462D01*
X893978Y8519261D01*
X889762Y8513572D01*
X887272Y8509762D01*
X884072Y8503767D01*
X882142Y8499297D01*
X879957Y8493252D01*
X878586Y8488222D01*
X877468Y8482177D01*
X876808Y8476742D01*
X876604Y8470696D01*
X876604Y8329574D01*
X875995Y8326170D01*
X867359Y8311794D01*
X862177Y8299805D01*
X858621Y8287207D01*
X856843Y8274253D01*
X856843Y8261146D01*
X858621Y8248192D01*
X862177Y8235594D01*
X867359Y8223605D01*
X874166Y8212429D01*
X882446Y8202269D01*
X891997Y8193328D01*
X902665Y8185759D01*
X914298Y8179765D01*
X926642Y8175396D01*
X939444Y8172703D01*
G37*
G36*
X6054090Y8361527D02*
G01*
X6054090Y8416290D01*
X5999429Y8416290D01*
X6002680Y8409686D01*
X6011011Y8397138D01*
X6020816Y8385708D01*
X6031941Y8375548D01*
X6044285Y8366810D01*
G37*
G36*
X4385310Y8361527D02*
G01*
X4395165Y8366810D01*
X4407458Y8375548D01*
X4418584Y8385708D01*
X4428388Y8397138D01*
X4436719Y8409686D01*
X4439970Y8416290D01*
X4385310Y8416290D01*
G37*
G36*
X6163310Y8361527D02*
G01*
X6173165Y8366810D01*
X6185458Y8375548D01*
X6196584Y8385708D01*
X6206388Y8397138D01*
X6214719Y8409686D01*
X6217970Y8416290D01*
X6163310Y8416290D01*
G37*
G36*
X4276090Y8361527D02*
G01*
X4276090Y8416290D01*
X4221429Y8416290D01*
X4224680Y8409686D01*
X4233011Y8397138D01*
X4242816Y8385708D01*
X4253941Y8375548D01*
X4266234Y8366810D01*
G37*
G36*
X4221175Y8525510D02*
G01*
X4276090Y8525510D01*
X4276090Y8580272D01*
X4272788Y8578748D01*
X4259986Y8570823D01*
X4248251Y8561374D01*
X4237736Y8550554D01*
X4228642Y8538514D01*
G37*
G36*
X4385310Y8525510D02*
G01*
X4440224Y8525510D01*
X4432757Y8538514D01*
X4423664Y8550554D01*
X4413148Y8561374D01*
X4401413Y8570823D01*
X4388612Y8578748D01*
X4385310Y8580272D01*
G37*
G36*
X6163310Y8525510D02*
G01*
X6218224Y8525510D01*
X6210757Y8538514D01*
X6201664Y8550554D01*
X6191148Y8561374D01*
X6179413Y8570823D01*
X6166612Y8578748D01*
X6163310Y8580272D01*
G37*
G36*
X5999175Y8525510D02*
G01*
X6054090Y8525510D01*
X6054090Y8580272D01*
X6050788Y8578748D01*
X6037986Y8570823D01*
X6026251Y8561374D01*
X6015736Y8550554D01*
X6006642Y8538514D01*
G37*
G36*
X7134555Y8712555D02*
G01*
X7140295Y8712555D01*
X7145883Y8712962D01*
X7151878Y8713876D01*
X7157008Y8715095D01*
X7163104Y8716975D01*
X7167727Y8718804D01*
X7173722Y8721750D01*
X7177735Y8724087D01*
X7183475Y8728100D01*
X7186828Y8730792D01*
X7192162Y8735822D01*
X7194854Y8738819D01*
X7199528Y8744813D01*
X7201611Y8747912D01*
X7205472Y8754821D01*
X7206894Y8757920D01*
X7209790Y8765641D01*
X7210653Y8768588D01*
X7212431Y8776970D01*
X7212787Y8779713D01*
X7213295Y8788603D01*
X7213244Y8790940D01*
X7211974Y8802522D01*
X7209028Y8813444D01*
X7204506Y8823858D01*
X7198461Y8833459D01*
X7190790Y8842349D01*
X6235192Y9797948D01*
X6233007Y9801250D01*
X6232245Y9805111D01*
X6232245Y10359999D01*
X6232906Y10363555D01*
X6234734Y10366654D01*
X6239306Y10371886D01*
X6246926Y10383266D01*
X6252972Y10395559D01*
X6257391Y10408513D01*
X6260033Y10421924D01*
X6260947Y10435590D01*
X6260033Y10449255D01*
X6257391Y10462666D01*
X6252972Y10475620D01*
X6246926Y10487914D01*
X6239306Y10499293D01*
X6234887Y10504373D01*
X6233007Y10507472D01*
X6232347Y10511028D01*
X6232296Y10546689D01*
X6231483Y10555528D01*
X6231077Y10557967D01*
X6228943Y10566603D01*
X6228181Y10568940D01*
X6224778Y10577169D01*
X6223660Y10579354D01*
X6219037Y10586974D01*
X6211976Y10595813D01*
X6033465Y10774324D01*
X6024626Y10781385D01*
X6017006Y10786008D01*
X6014821Y10787126D01*
X6006592Y10790529D01*
X6004255Y10791291D01*
X5995619Y10793425D01*
X5993180Y10793831D01*
X5984341Y10794644D01*
X1737258Y10794644D01*
X1728419Y10793831D01*
X1725980Y10793425D01*
X1717344Y10791291D01*
X1715007Y10790529D01*
X1706778Y10787126D01*
X1704593Y10786008D01*
X1696974Y10781385D01*
X1688134Y10774324D01*
X1544675Y10630865D01*
X1537614Y10622026D01*
X1532991Y10614406D01*
X1531874Y10612221D01*
X1528470Y10603992D01*
X1527708Y10601655D01*
X1525574Y10593019D01*
X1525168Y10590580D01*
X1524355Y10581741D01*
X1524304Y10512450D01*
X1523644Y10508894D01*
X1521764Y10505744D01*
X1517192Y10500563D01*
X1509572Y10489184D01*
X1503527Y10476890D01*
X1499158Y10463936D01*
X1496466Y10450525D01*
X1495552Y10436860D01*
X1496466Y10423194D01*
X1499158Y10409783D01*
X1503527Y10396829D01*
X1509572Y10384536D01*
X1517192Y10373156D01*
X1526235Y10362895D01*
X1536496Y10353852D01*
X1547876Y10346232D01*
X1560169Y10340187D01*
X1573123Y10335818D01*
X1586534Y10333126D01*
X1600200Y10332212D01*
X1613865Y10333126D01*
X1627276Y10335818D01*
X1640230Y10340187D01*
X1652524Y10346232D01*
X1663903Y10353852D01*
X1674164Y10362895D01*
X1683207Y10373156D01*
X1690827Y10384536D01*
X1696872Y10396829D01*
X1701241Y10409783D01*
X1703933Y10423194D01*
X1704848Y10436860D01*
X1703933Y10450525D01*
X1701241Y10463936D01*
X1696872Y10476890D01*
X1690827Y10489184D01*
X1683207Y10500563D01*
X1678635Y10505744D01*
X1676755Y10508894D01*
X1676095Y10512450D01*
X1676095Y10543438D01*
X1676857Y10547350D01*
X1679092Y10550652D01*
X1768348Y10639907D01*
X1771650Y10642142D01*
X1775561Y10642904D01*
X2669438Y10642904D01*
X2673350Y10642142D01*
X2676652Y10639907D01*
X2778607Y10537952D01*
X2780842Y10534650D01*
X2781604Y10530738D01*
X2781604Y10512450D01*
X2780944Y10508894D01*
X2779064Y10505744D01*
X2774492Y10500563D01*
X2766872Y10489184D01*
X2760827Y10476890D01*
X2756458Y10463936D01*
X2753766Y10450525D01*
X2752852Y10436860D01*
X2753766Y10423194D01*
X2756458Y10409783D01*
X2760827Y10396829D01*
X2766872Y10384536D01*
X2774492Y10373156D01*
X2783535Y10362895D01*
X2793796Y10353852D01*
X2805176Y10346232D01*
X2817469Y10340187D01*
X2830423Y10335818D01*
X2843834Y10333126D01*
X2857500Y10332212D01*
X2871165Y10333126D01*
X2884576Y10335818D01*
X2897530Y10340187D01*
X2909824Y10346232D01*
X2921203Y10353852D01*
X2931464Y10362895D01*
X2940507Y10373156D01*
X2948127Y10384536D01*
X2954172Y10396829D01*
X2958541Y10409783D01*
X2961233Y10423194D01*
X2962148Y10436860D01*
X2961233Y10450525D01*
X2958541Y10463936D01*
X2954172Y10476890D01*
X2948127Y10489184D01*
X2940507Y10500563D01*
X2935935Y10505744D01*
X2934055Y10508894D01*
X2933395Y10512450D01*
X2933395Y10530738D01*
X2934157Y10534650D01*
X2936392Y10537952D01*
X3038348Y10639907D01*
X3041650Y10642142D01*
X3045561Y10642904D01*
X4256938Y10642904D01*
X4260850Y10642142D01*
X4264152Y10639907D01*
X4385157Y10518902D01*
X4387392Y10515600D01*
X4388154Y10511180D01*
X4387494Y10507624D01*
X4385614Y10504525D01*
X4381042Y10499293D01*
X4373422Y10487914D01*
X4367377Y10475620D01*
X4363008Y10462666D01*
X4360316Y10449255D01*
X4359402Y10435590D01*
X4360316Y10421924D01*
X4363008Y10408513D01*
X4367377Y10395559D01*
X4373422Y10383266D01*
X4381042Y10371886D01*
X4390085Y10361625D01*
X4400346Y10352582D01*
X4411726Y10344962D01*
X4424019Y10338917D01*
X4436973Y10334548D01*
X4450384Y10331856D01*
X4464050Y10330942D01*
X4477715Y10331856D01*
X4491126Y10334548D01*
X4504080Y10338917D01*
X4516374Y10344962D01*
X4527753Y10352582D01*
X4538014Y10361625D01*
X4547057Y10371886D01*
X4554677Y10383266D01*
X4560722Y10395559D01*
X4565091Y10408513D01*
X4567783Y10421924D01*
X4568698Y10435590D01*
X4567783Y10449255D01*
X4565091Y10462666D01*
X4560722Y10475620D01*
X4554677Y10487914D01*
X4552340Y10491368D01*
X4550968Y10494518D01*
X4550714Y10497972D01*
X4551629Y10501325D01*
X4553610Y10504170D01*
X4689348Y10639907D01*
X4692650Y10642142D01*
X4696561Y10642904D01*
X5946038Y10642904D01*
X5949950Y10642142D01*
X5953252Y10639907D01*
X6076188Y10516971D01*
X6078321Y10513822D01*
X6079185Y10510113D01*
X6078575Y10506354D01*
X6076645Y10503052D01*
X6073343Y10499293D01*
X6065723Y10487914D01*
X6059678Y10475620D01*
X6055258Y10462666D01*
X6052616Y10449255D01*
X6051702Y10435590D01*
X6052616Y10421924D01*
X6055258Y10408513D01*
X6059678Y10395559D01*
X6065723Y10383266D01*
X6073343Y10371886D01*
X6077915Y10366654D01*
X6079744Y10363555D01*
X6080404Y10359999D01*
X6080455Y9766808D01*
X6081318Y9757968D01*
X6081725Y9755530D01*
X6083858Y9746945D01*
X6084620Y9744608D01*
X6088024Y9736378D01*
X6089142Y9734194D01*
X6093714Y9726574D01*
X6095136Y9724542D01*
X6100826Y9717684D01*
X7083602Y8734806D01*
X7086853Y8731808D01*
X7092391Y8727287D01*
X7096099Y8724747D01*
X7101992Y8721242D01*
X7106310Y8719159D01*
X7112355Y8716721D01*
X7117232Y8715197D01*
X7123328Y8713825D01*
X7128662Y8713012D01*
G37*
G36*
X7089698Y10109555D02*
G01*
X7091984Y10109708D01*
X7103465Y10111435D01*
X7114336Y10114788D01*
X7124547Y10119664D01*
X7133894Y10126065D01*
X7142225Y10133838D01*
X7148626Y10141712D01*
X7154621Y10151719D01*
X7158939Y10162489D01*
X7161580Y10173817D01*
X7162495Y10185806D01*
X7162495Y10359999D01*
X7163155Y10363555D01*
X7165035Y10366654D01*
X7169607Y10371886D01*
X7177227Y10383266D01*
X7183272Y10395559D01*
X7187641Y10408513D01*
X7190333Y10421924D01*
X7191248Y10435590D01*
X7190333Y10449255D01*
X7187641Y10462666D01*
X7183272Y10475620D01*
X7177227Y10487914D01*
X7169607Y10499293D01*
X7160564Y10509554D01*
X7150303Y10518597D01*
X7138924Y10526217D01*
X7126630Y10532262D01*
X7113676Y10536631D01*
X7100265Y10539323D01*
X7086600Y10540187D01*
X7072934Y10539323D01*
X7059523Y10536631D01*
X7046569Y10532262D01*
X7034275Y10526217D01*
X7022896Y10518597D01*
X7012635Y10509554D01*
X7003592Y10499293D01*
X6995972Y10487914D01*
X6989927Y10475620D01*
X6985558Y10462666D01*
X6982866Y10449255D01*
X6981952Y10435590D01*
X6982866Y10421924D01*
X6985558Y10408513D01*
X6989927Y10395559D01*
X6995972Y10383266D01*
X7003592Y10371886D01*
X7008164Y10366654D01*
X7010044Y10363555D01*
X7010704Y10359999D01*
X7010704Y10185603D01*
X7010908Y10179558D01*
X7011568Y10174122D01*
X7012686Y10168077D01*
X7014057Y10163048D01*
X7016242Y10157002D01*
X7018172Y10152532D01*
X7021372Y10146538D01*
X7023862Y10142728D01*
X7028078Y10137038D01*
X7030872Y10133838D01*
X7036155Y10128656D01*
X7039203Y10126116D01*
X7045452Y10121646D01*
X7048550Y10119715D01*
X7055662Y10116058D01*
X7058710Y10114788D01*
X7066635Y10112146D01*
X7069531Y10111435D01*
X7078065Y10109962D01*
X7080758Y10109708D01*
G37*
G36*
X4705756Y10122408D02*
G01*
X4717389Y10122408D01*
X4728565Y10124135D01*
X4739436Y10127488D01*
X4749647Y10132364D01*
X4758994Y10138765D01*
X4767326Y10146538D01*
X4773726Y10154412D01*
X4779721Y10164419D01*
X4784039Y10175189D01*
X4786680Y10186517D01*
X4787595Y10198506D01*
X4787595Y10353141D01*
X4788509Y10357307D01*
X4792014Y10361625D01*
X4801057Y10371886D01*
X4808677Y10383266D01*
X4814722Y10395559D01*
X4819091Y10408513D01*
X4821783Y10421924D01*
X4822698Y10435590D01*
X4821783Y10449255D01*
X4819091Y10462666D01*
X4814722Y10475620D01*
X4808677Y10487914D01*
X4801057Y10499293D01*
X4792014Y10509554D01*
X4781753Y10518597D01*
X4770374Y10526217D01*
X4758080Y10532262D01*
X4745126Y10536631D01*
X4731715Y10539323D01*
X4718050Y10540238D01*
X4704384Y10539323D01*
X4690973Y10536631D01*
X4678019Y10532262D01*
X4665726Y10526217D01*
X4654346Y10518597D01*
X4644085Y10509554D01*
X4635042Y10499293D01*
X4627422Y10487914D01*
X4621377Y10475620D01*
X4617008Y10462666D01*
X4614316Y10449255D01*
X4613402Y10435590D01*
X4614316Y10421924D01*
X4617008Y10408513D01*
X4621377Y10395559D01*
X4627422Y10383266D01*
X4634077Y10373360D01*
X4635347Y10370667D01*
X4635804Y10367721D01*
X4635804Y10198303D01*
X4636008Y10192258D01*
X4636668Y10186822D01*
X4637786Y10180777D01*
X4639157Y10175748D01*
X4641342Y10169702D01*
X4643272Y10165232D01*
X4646472Y10159238D01*
X4648962Y10155428D01*
X4653178Y10149738D01*
X4655972Y10146538D01*
X4661255Y10141356D01*
X4664303Y10138816D01*
X4670552Y10134346D01*
X4673650Y10132415D01*
X4680762Y10128758D01*
X4683810Y10127488D01*
X4691735Y10124846D01*
X4694631Y10124135D01*
X4703165Y10122662D01*
G37*
G36*
X5271770Y10330942D02*
G01*
X5304231Y10330942D01*
X5310530Y10331653D01*
X5316016Y10333583D01*
X5320893Y10336631D01*
X5325008Y10340746D01*
X5328056Y10345623D01*
X5329986Y10351109D01*
X5330698Y10357408D01*
X5330698Y10389870D01*
X5271770Y10389870D01*
G37*
G36*
X5147868Y10330942D02*
G01*
X5180330Y10330942D01*
X5180330Y10389870D01*
X5121402Y10389870D01*
X5121402Y10357408D01*
X5122113Y10351109D01*
X5124043Y10345623D01*
X5127091Y10340746D01*
X5131206Y10336631D01*
X5136083Y10333583D01*
X5141569Y10331653D01*
G37*
G36*
X4972050Y10330942D02*
G01*
X4985715Y10331856D01*
X4999126Y10334548D01*
X5012080Y10338917D01*
X5024374Y10344962D01*
X5035753Y10352582D01*
X5046014Y10361625D01*
X5055057Y10371886D01*
X5062677Y10383266D01*
X5068722Y10395559D01*
X5073091Y10408513D01*
X5075783Y10421924D01*
X5076698Y10435590D01*
X5075783Y10449255D01*
X5073091Y10462666D01*
X5068722Y10475620D01*
X5062677Y10487914D01*
X5055057Y10499293D01*
X5046014Y10509554D01*
X5035753Y10518597D01*
X5024374Y10526217D01*
X5012080Y10532262D01*
X4999126Y10536631D01*
X4985715Y10539323D01*
X4972050Y10540238D01*
X4958384Y10539323D01*
X4944973Y10536631D01*
X4932019Y10532262D01*
X4919726Y10526217D01*
X4908346Y10518597D01*
X4898085Y10509554D01*
X4889042Y10499293D01*
X4881422Y10487914D01*
X4875377Y10475620D01*
X4871008Y10462666D01*
X4868316Y10449255D01*
X4867402Y10435590D01*
X4868316Y10421924D01*
X4871008Y10408513D01*
X4875377Y10395559D01*
X4881422Y10383266D01*
X4889042Y10371886D01*
X4898085Y10361625D01*
X4908346Y10352582D01*
X4919726Y10344962D01*
X4932019Y10338917D01*
X4944973Y10334548D01*
X4958384Y10331856D01*
G37*
G36*
X6500418Y10330942D02*
G01*
X6656781Y10330942D01*
X6663080Y10331653D01*
X6668566Y10333583D01*
X6673443Y10336631D01*
X6677558Y10340746D01*
X6680606Y10345623D01*
X6682536Y10351109D01*
X6683248Y10357408D01*
X6683248Y10513771D01*
X6682536Y10520070D01*
X6680606Y10525556D01*
X6677558Y10530433D01*
X6673443Y10534548D01*
X6668566Y10537596D01*
X6663080Y10539526D01*
X6656781Y10540238D01*
X6500418Y10540238D01*
X6494119Y10539526D01*
X6488633Y10537596D01*
X6483756Y10534548D01*
X6479641Y10530433D01*
X6476593Y10525556D01*
X6474663Y10520070D01*
X6473952Y10513771D01*
X6473952Y10357408D01*
X6474663Y10351109D01*
X6476593Y10345623D01*
X6479641Y10340746D01*
X6483756Y10336631D01*
X6488633Y10333583D01*
X6494119Y10331653D01*
G37*
G36*
X3157220Y10332212D02*
G01*
X3189681Y10332212D01*
X3195980Y10332923D01*
X3201466Y10334853D01*
X3206343Y10337901D01*
X3210458Y10342016D01*
X3213506Y10346893D01*
X3215436Y10352379D01*
X3216148Y10358678D01*
X3216148Y10391140D01*
X3157220Y10391140D01*
G37*
G36*
X3033318Y10332212D02*
G01*
X3065780Y10332212D01*
X3065780Y10391140D01*
X3006852Y10391140D01*
X3006852Y10358678D01*
X3007563Y10352379D01*
X3009493Y10346893D01*
X3012541Y10342016D01*
X3016656Y10337901D01*
X3021533Y10334853D01*
X3027019Y10332923D01*
G37*
G36*
X1268018Y10332212D02*
G01*
X1424381Y10332212D01*
X1430680Y10332923D01*
X1436166Y10334853D01*
X1441043Y10337901D01*
X1445158Y10342016D01*
X1448206Y10346893D01*
X1450136Y10352379D01*
X1450848Y10358678D01*
X1450848Y10515041D01*
X1450136Y10521340D01*
X1448206Y10526826D01*
X1445158Y10531703D01*
X1441043Y10535818D01*
X1436166Y10538866D01*
X1430680Y10540796D01*
X1424381Y10541508D01*
X1268018Y10541508D01*
X1261719Y10540796D01*
X1256233Y10538866D01*
X1251356Y10535818D01*
X1247241Y10531703D01*
X1244193Y10526826D01*
X1242263Y10521340D01*
X1241552Y10515041D01*
X1241552Y10497921D01*
X1240790Y10494060D01*
X1238554Y10490758D01*
X1235303Y10488523D01*
X1231392Y10487761D01*
X1155192Y10487761D01*
X1150823Y10488726D01*
X1138174Y10499750D01*
X1128471Y10506049D01*
X1117854Y10510824D01*
X1106627Y10513872D01*
X1095095Y10515244D01*
X1083513Y10514787D01*
X1072083Y10512552D01*
X1061161Y10508640D01*
X1050950Y10503103D01*
X1041704Y10496042D01*
X1033678Y10487660D01*
X1026972Y10478160D01*
X1021842Y10467746D01*
X1018336Y10456672D01*
X1016558Y10445191D01*
X1016558Y10433608D01*
X1018336Y10422128D01*
X1021842Y10411053D01*
X1026972Y10400639D01*
X1033678Y10391140D01*
X1041704Y10382758D01*
X1050950Y10375696D01*
X1061161Y10370159D01*
X1072083Y10366248D01*
X1083513Y10364012D01*
X1095095Y10363555D01*
X1106627Y10364927D01*
X1117854Y10367975D01*
X1128471Y10372750D01*
X1138174Y10379049D01*
X1143050Y10383367D01*
X1146200Y10385298D01*
X1149807Y10385958D01*
X1231392Y10385958D01*
X1235303Y10385196D01*
X1238554Y10382961D01*
X1240790Y10379659D01*
X1241552Y10375798D01*
X1241552Y10358678D01*
X1242263Y10352379D01*
X1244193Y10346893D01*
X1247241Y10342016D01*
X1251356Y10337901D01*
X1256233Y10334853D01*
X1261719Y10332923D01*
G37*
G36*
X4087520Y10333482D02*
G01*
X4119930Y10333482D01*
X4126280Y10334193D01*
X4131716Y10336123D01*
X4136644Y10339171D01*
X4140708Y10343286D01*
X4143806Y10348163D01*
X4145686Y10353649D01*
X4146448Y10359948D01*
X4146448Y10392410D01*
X4087520Y10392410D01*
G37*
G36*
X3963619Y10333482D02*
G01*
X3996080Y10333482D01*
X3996080Y10392410D01*
X3937152Y10392410D01*
X3937152Y10359948D01*
X3937863Y10353649D01*
X3939743Y10348163D01*
X3942842Y10343286D01*
X3946906Y10339171D01*
X3951833Y10336123D01*
X3957269Y10334193D01*
G37*
G36*
X5948070Y10341711D02*
G01*
X5954623Y10344962D01*
X5966002Y10352582D01*
X5976315Y10361625D01*
X5985306Y10371886D01*
X5992926Y10383266D01*
X5996178Y10389870D01*
X5948070Y10389870D01*
G37*
G36*
X6786880Y10341711D02*
G01*
X6786880Y10389870D01*
X6738721Y10389870D01*
X6741972Y10383266D01*
X6749592Y10371886D01*
X6758635Y10361625D01*
X6768896Y10352582D01*
X6780275Y10344962D01*
G37*
G36*
X5856630Y10341711D02*
G01*
X5856630Y10389870D01*
X5808472Y10389870D01*
X5811723Y10383266D01*
X5819343Y10371886D01*
X5828334Y10361625D01*
X5838647Y10352582D01*
X5850026Y10344962D01*
G37*
G36*
X6878320Y10341711D02*
G01*
X6884924Y10344962D01*
X6896303Y10352582D01*
X6906564Y10361625D01*
X6915607Y10371886D01*
X6923227Y10383266D01*
X6926478Y10389870D01*
X6878320Y10389870D01*
G37*
G36*
X5808472Y10481310D02*
G01*
X5856630Y10481310D01*
X5856630Y10529468D01*
X5850026Y10526217D01*
X5838647Y10518597D01*
X5828334Y10509554D01*
X5819343Y10499293D01*
X5811723Y10487914D01*
G37*
G36*
X6738721Y10481310D02*
G01*
X6786880Y10481310D01*
X6786880Y10529468D01*
X6780275Y10526217D01*
X6768896Y10518597D01*
X6758635Y10509554D01*
X6749592Y10499293D01*
X6741972Y10487914D01*
G37*
G36*
X6878320Y10481310D02*
G01*
X6926478Y10481310D01*
X6923227Y10487914D01*
X6915607Y10499293D01*
X6906564Y10509554D01*
X6896303Y10518597D01*
X6884924Y10526217D01*
X6878320Y10529468D01*
G37*
G36*
X5948070Y10481310D02*
G01*
X5996178Y10481310D01*
X5992926Y10487914D01*
X5985306Y10499293D01*
X5976315Y10509554D01*
X5966002Y10518597D01*
X5954623Y10526217D01*
X5948070Y10529468D01*
G37*
G36*
X5121402Y10481310D02*
G01*
X5180330Y10481310D01*
X5180330Y10540238D01*
X5147868Y10540238D01*
X5141569Y10539526D01*
X5136083Y10537596D01*
X5131206Y10534548D01*
X5127091Y10530433D01*
X5124043Y10525556D01*
X5122113Y10520070D01*
X5121402Y10513771D01*
G37*
G36*
X5271770Y10481310D02*
G01*
X5330698Y10481310D01*
X5330698Y10513771D01*
X5329986Y10520070D01*
X5328056Y10525556D01*
X5325008Y10530433D01*
X5320893Y10534548D01*
X5316016Y10537596D01*
X5310530Y10539526D01*
X5304231Y10540238D01*
X5271770Y10540238D01*
G37*
G36*
X3006852Y10482580D02*
G01*
X3065780Y10482580D01*
X3065780Y10541508D01*
X3033318Y10541508D01*
X3027019Y10540796D01*
X3021533Y10538866D01*
X3016656Y10535818D01*
X3012541Y10531703D01*
X3009493Y10526826D01*
X3007563Y10521340D01*
X3006852Y10515041D01*
G37*
G36*
X3157220Y10482580D02*
G01*
X3216148Y10482580D01*
X3216148Y10515041D01*
X3215436Y10521340D01*
X3213506Y10526826D01*
X3210458Y10531703D01*
X3206343Y10535818D01*
X3201466Y10538866D01*
X3195980Y10540796D01*
X3189681Y10541508D01*
X3157220Y10541508D01*
G37*
G36*
X4087520Y10483850D02*
G01*
X4146448Y10483850D01*
X4146448Y10516311D01*
X4145686Y10522610D01*
X4143806Y10528096D01*
X4140708Y10532973D01*
X4136644Y10537088D01*
X4131716Y10540136D01*
X4126280Y10542066D01*
X4119930Y10542778D01*
X4087520Y10542778D01*
G37*
G36*
X3937152Y10483850D02*
G01*
X3996080Y10483850D01*
X3996080Y10542778D01*
X3963619Y10542778D01*
X3957269Y10542066D01*
X3951833Y10540136D01*
X3946906Y10537088D01*
X3942842Y10532973D01*
X3939743Y10528096D01*
X3937863Y10522610D01*
X3937152Y10516311D01*
G37*

%LPD*%
G36*
X6362700Y8026400D02*
G01*
X6362700Y7797800D01*
X6527800Y7797800D01*
X6540500Y7810500D01*
X6540500Y7848600D01*
G37*
G36*
X4292600Y10718800D02*
G01*
X4292600Y10693400D01*
X4464050Y10521950D01*
X4660900Y10718800D01*
G37*
G36*
X2705100Y10718800D02*
G01*
X2857500Y10566400D01*
X3009900Y10718800D01*
G37*
G36*
X1943100Y5410200D02*
G01*
X1785924Y5253024D01*
X1785924Y5020360D01*
X2332888Y5020360D01*
G37*
G36*
X4000500Y5435600D02*
G01*
X4000500Y5434431D01*
X4406900Y5028031D01*
X4978400Y5027930D01*
X4978400Y5029200D01*
X4572000Y5435600D01*
G37*
G36*
X4305300Y5295900D02*
G01*
X4317542Y5283657D01*
X4318000Y5295900D01*
G37*
G36*
X4317542Y5283657D02*
G01*
X4305300Y4965700D01*
X4445000Y5105400D01*
X4445000Y5156200D01*
G37*
G36*
X4305300Y5334000D02*
G01*
X4279900Y5270500D01*
X4279900Y4965700D01*
X4292600Y4953000D01*
X4483100Y5143500D01*
X4483100Y5156200D01*
G37*
D10*
X3787902Y10438129D02*
G01*
X3787902Y10016997D01*
X4076700Y9728200D01*
X4076700Y8470900D01*
X7137400Y8788400D02*
G01*
X6156325Y9769475D01*
X6156325Y10435587D01*
X5648452Y10435589D02*
G01*
X5648452Y10270997D01*
X4584700Y9207500D01*
X4584700Y8470900D01*
X6362700Y7797800D02*
G01*
X6375400Y7810500D01*
X7416800Y7810500D01*
X3644900Y5016500D02*
G01*
X3911600Y5016500D01*
X4724407Y5028054D02*
G01*
X4367654Y5028054D01*
X4038600Y4699000D01*
X3644900Y4699000D01*
X4483100Y8013700D02*
G01*
X4635500Y8013700D01*
X4838700Y8216900D01*
X4838700Y8470900D01*
X6362700Y6184900D02*
G01*
X6362700Y6654800D01*
X5346700Y8470900D02*
G01*
X5346700Y9105900D01*
X4076700Y7785100D02*
G01*
X4076700Y8470900D01*
X6362700Y8470900D02*
G01*
X6362700Y7797800D01*
X5346700Y6184900D02*
G01*
X5359400Y6197600D01*
X5359400Y6680200D01*
X2806700Y6184900D02*
G01*
X2806700Y6553200D01*
X3302000Y7048500D01*
X7416800Y7048500D01*
X6362700Y8470900D02*
G01*
X6350000Y8483600D01*
X6350000Y8737600D01*
X7086600Y10435587D02*
G01*
X7086600Y10185400D01*
X3822700Y8470900D02*
G01*
X3822700Y9055100D01*
X4718050Y10435592D02*
G01*
X4711700Y10429242D01*
X4711700Y10198100D01*
X3533775Y10438129D02*
G01*
X3568700Y10403204D01*
X3568700Y8470900D01*
X2603500Y10436860D02*
G01*
X2603500Y9537700D01*
X3314700Y8826500D01*
X3314700Y8470900D01*
X2349500Y10436860D02*
G01*
X2349500Y9385300D01*
X3060700Y8674100D01*
X3060700Y8470900D01*
D11*
X3111500Y10436857D02*
G01*
X3111500Y10172700D01*
X1092200Y10439400D02*
G01*
X1094742Y10436857D01*
X1346200Y10436857D01*
D10*
X2806700Y8470900D02*
G01*
X2806700Y8585200D01*
X2374900Y9017000D01*
X1955800Y9017000D01*
X952500Y8267700D02*
G01*
X952500Y8470900D01*
X2832100Y7569200D02*
G01*
X4800600Y7569200D01*
X5092700Y7861300D01*
X5092700Y8470900D01*
X1066800Y7106920D02*
G01*
X1066800Y7454900D01*
X1785924Y5020386D02*
G01*
X1785924Y5253024D01*
X1943100Y5410200D01*
X1785924Y5020386D02*
G01*
X1789811Y5016500D01*
X3136900Y5016500D01*
X3390900Y5016500D02*
G01*
X3390900Y5308600D01*
X3517900Y5435600D01*
X4572000Y5435600D01*
X4724400Y5283200D01*
X4724400Y5028062D01*
X4724407Y5028054D02*
G01*
X4406900Y5028054D01*
X4724400Y5027929D02*
G01*
X5815584Y5027929D01*
X6362700Y5575300D01*
X6362700Y6184900D01*
X4572000Y5435600D02*
G01*
X4979670Y5027929D01*
X5815584Y5027929D01*
X2857500Y10436860D02*
G01*
X2857500Y10566400D01*
X3009900Y10718800D01*
X4292600Y10718800D01*
X4464050Y10547350D01*
X4464050Y10435589D01*
X2705100Y10718800D02*
G01*
X3009900Y10718800D01*
X4292600Y10718800D02*
G01*
X4660900Y10718800D01*
X1600200Y10436860D02*
G01*
X1600200Y10579100D01*
X1739900Y10718800D01*
X2705100Y10718800D01*
X2857500Y10566400D01*
X2857500Y10436860D01*
X4464050Y10435589D02*
G01*
X4464050Y10521950D01*
X4660900Y10718800D01*
X5981700Y10718800D01*
X6156452Y10544047D01*
X6156452Y10435589D01*
D12*
G01*
X1485925Y4555388D03*
D13*
G01*
X1185900Y5020386D03*
G01*
X1785924Y5020386D03*
D14*
G01*
X4041775Y10438129D03*
D15*
G01*
X3787775Y10438129D03*
G01*
X3533775Y10438129D03*
D14*
G01*
X6578600Y10435589D03*
D15*
G01*
X6832600Y10435589D03*
G01*
X7086600Y10435589D03*
D14*
G01*
X5648325Y10435589D03*
D15*
G01*
X5902325Y10435589D03*
G01*
X6156325Y10435589D03*
D14*
G01*
X7416800Y7810500D03*
D15*
G01*
X7416800Y7556500D03*
G01*
X7416800Y7302500D03*
G01*
X7416800Y7048500D03*
D14*
G01*
X3111500Y10436860D03*
D15*
G01*
X2857500Y10436860D03*
G01*
X2603500Y10436860D03*
G01*
X2349500Y10436860D03*
D14*
G01*
X5226050Y10435589D03*
D15*
G01*
X4972050Y10435589D03*
G01*
X4718050Y10435589D03*
G01*
X4464050Y10435589D03*
D14*
G01*
X1346200Y10436860D03*
D15*
G01*
X1600200Y10436860D03*
D16*
G01*
X952500Y8267700D03*
G01*
X952500Y8013700D03*
D17*
G01*
X1066800Y6456679D03*
G01*
X1066800Y7106920D03*
D18*
G01*
X2806700Y6184900D03*
G01*
X3060700Y6184900D03*
G01*
X3314700Y6184900D03*
G01*
X3568700Y6184900D03*
G01*
X3822700Y6184900D03*
G01*
X4076700Y6184900D03*
G01*
X4330700Y6184900D03*
G01*
X4584700Y6184900D03*
G01*
X4838700Y6184900D03*
G01*
X5092700Y6184900D03*
G01*
X5346700Y6184900D03*
G01*
X5600700Y6184900D03*
G01*
X5854700Y6184900D03*
G01*
X6108700Y6184900D03*
G01*
X6362700Y6184900D03*
G01*
X2806700Y8470900D03*
G01*
X3060700Y8470900D03*
G01*
X3314700Y8470900D03*
G01*
X3568700Y8470900D03*
G01*
X3822700Y8470900D03*
G01*
X4076700Y8470900D03*
G01*
X4330700Y8470900D03*
G01*
X4584700Y8470900D03*
G01*
X4838700Y8470900D03*
G01*
X5092700Y8470900D03*
G01*
X5346700Y8470900D03*
G01*
X5600700Y8470900D03*
G01*
X5854700Y8470900D03*
G01*
X6108700Y8470900D03*
G01*
X6362700Y8470900D03*
D10*
G01*
X4724400Y4877943D03*
G01*
X4724400Y5028056D03*
D19*
G01*
X3390900Y5016500D03*
G01*
X3136900Y5016500D03*
D20*
G01*
X3644900Y5016505D03*
D10*
G01*
X1066800Y7454900D03*
G01*
X2832100Y7569200D03*
G01*
X952500Y8470900D03*
G01*
X1955800Y9017000D03*
G01*
X1092200Y10439400D03*
G01*
X3111500Y10172700D03*
G01*
X4711700Y10198100D03*
G01*
X3822700Y9055100D03*
G01*
X7086600Y10185400D03*
G01*
X6350000Y8737600D03*
G01*
X5359400Y6680200D03*
G01*
X6362700Y7797800D03*
G01*
X4076700Y7785100D03*
G01*
X5346700Y9105900D03*
G01*
X6362700Y6654800D03*
G01*
X7137400Y8788400D03*
G01*
X4483100Y8013700D03*
G01*
X1943100Y5410200D03*
G01*
X3644900Y4699000D03*
G01*
X3911600Y5016500D03*
M02*
