G04 Layer: BottomSolderMaskLayer*
G04 EasyEDA v6.5.23, 2023-06-23 22:07:44*
G04 588d00b09ced4095aabd395724b38ff5,e63460ceaba84a3bb957dccbc2ed3a87,10*
G04 Gerber Generator version 0.2*
G04 Scale: 100 percent, Rotated: No, Reflected: No *
G04 Dimensions in millimeters *
G04 leading zeros omitted , absolute positions ,4 integer and 5 decimal *
%FSLAX45Y45*%
%MOMM*%

%AMMACRO1*1,1,$1,$2,$3*1,1,$1,$4,$5*1,1,$1,0-$2,0-$3*1,1,$1,0-$4,0-$5*20,1,$1,$2,$3,$4,$5,0*20,1,$1,$4,$5,0-$2,0-$3,0*20,1,$1,0-$2,0-$3,0-$4,0-$5,0*20,1,$1,0-$4,0-$5,$2,$3,0*4,1,4,$2,$3,$4,$5,0-$2,0-$3,0-$4,0-$5,$2,$3,0*%
%ADD10O,3.5015932X1.6015970000000002*%
%ADD11O,1.6015970000000002X3.9015924*%
%ADD12MACRO1,0.1016X0.7874X-0.7874X-0.7874X-0.7874*%
%ADD13C,1.6764*%
%ADD14MACRO1,0.1016X-0.7874X0.7874X0.7874X0.7874*%
%ADD15MACRO1,0.1016X0.7874X0.7874X0.7874X-0.7874*%
%ADD16C,1.5016*%
%ADD17C,1.4021*%
%ADD18C,2.0320*%
%ADD19C,1.2032*%
%ADD20O,2.101596X2.601595*%
%ADD21MACRO1,0.1016X1.0008X-1.2497X-1.0008X-1.2497*%

%LPD*%
D10*
G01*
X1485925Y4555388D03*
D11*
G01*
X1185900Y5020386D03*
G01*
X1785924Y5020386D03*
D12*
G01*
X4041775Y10438130D03*
D13*
G01*
X3787775Y10438129D03*
G01*
X3533775Y10438129D03*
D14*
G01*
X6578600Y10435587D03*
D13*
G01*
X6832600Y10435589D03*
G01*
X7086600Y10435589D03*
D14*
G01*
X5648325Y10435587D03*
D13*
G01*
X5902325Y10435589D03*
G01*
X6156325Y10435589D03*
D15*
G01*
X7416800Y7810500D03*
D13*
G01*
X7416800Y7556500D03*
G01*
X7416800Y7302500D03*
G01*
X7416800Y7048500D03*
D12*
G01*
X3111500Y10436857D03*
D13*
G01*
X2857500Y10436860D03*
G01*
X2603500Y10436860D03*
G01*
X2349500Y10436860D03*
D12*
G01*
X5226050Y10435592D03*
D13*
G01*
X4972050Y10435589D03*
G01*
X4718050Y10435589D03*
G01*
X4464050Y10435589D03*
D15*
G01*
X1346200Y10436857D03*
D13*
G01*
X1600200Y10436860D03*
D16*
G01*
X952500Y8267700D03*
G01*
X952500Y8013700D03*
D17*
G01*
X1066800Y6456679D03*
G01*
X1066800Y7106920D03*
D18*
G01*
X2806700Y6184900D03*
G01*
X3060700Y6184900D03*
G01*
X3314700Y6184900D03*
G01*
X3568700Y6184900D03*
G01*
X3822700Y6184900D03*
G01*
X4076700Y6184900D03*
G01*
X4330700Y6184900D03*
G01*
X4584700Y6184900D03*
G01*
X4838700Y6184900D03*
G01*
X5092700Y6184900D03*
G01*
X5346700Y6184900D03*
G01*
X5600700Y6184900D03*
G01*
X5854700Y6184900D03*
G01*
X6108700Y6184900D03*
G01*
X6362700Y6184900D03*
G01*
X2806700Y8470900D03*
G01*
X3060700Y8470900D03*
G01*
X3314700Y8470900D03*
G01*
X3568700Y8470900D03*
G01*
X3822700Y8470900D03*
G01*
X4076700Y8470900D03*
G01*
X4330700Y8470900D03*
G01*
X4584700Y8470900D03*
G01*
X4838700Y8470900D03*
G01*
X5092700Y8470900D03*
G01*
X5346700Y8470900D03*
G01*
X5600700Y8470900D03*
G01*
X5854700Y8470900D03*
G01*
X6108700Y8470900D03*
G01*
X6362700Y8470900D03*
D19*
G01*
X4724400Y4877943D03*
G01*
X4724400Y5028056D03*
D20*
G01*
X3390900Y5016500D03*
G01*
X3136900Y5016500D03*
D21*
G01*
X3644900Y5016505D03*
M02*
