G04 Layer: TopPasteMaskLayer*
G04 EasyEDA v6.5.23, 2023-06-23 22:07:44*
G04 588d00b09ced4095aabd395724b38ff5,e63460ceaba84a3bb957dccbc2ed3a87,10*
G04 Gerber Generator version 0.2*
G04 Scale: 100 percent, Rotated: No, Reflected: No *
G04 Dimensions in millimeters *
G04 leading zeros omitted , absolute positions ,4 integer and 5 decimal *
%FSLAX45Y45*%
%MOMM*%

%ADD10R,1.4000X0.6000*%

%LPD*%
G36*
X1487068Y9377629D02*
G01*
X1477060Y9367672D01*
X1477060Y9266885D01*
X1487068Y9256877D01*
X1523187Y9256877D01*
X1533194Y9266885D01*
X1533194Y9287967D01*
X1543202Y9297974D01*
X1580997Y9297974D01*
X1591005Y9287967D01*
X1591005Y9266885D01*
X1601012Y9256877D01*
X1637131Y9256877D01*
X1647139Y9266885D01*
X1647139Y9367672D01*
X1637131Y9377629D01*
G37*
G36*
X1487068Y9081922D02*
G01*
X1477060Y9071914D01*
X1477060Y8971127D01*
X1487068Y8961170D01*
X1637131Y8961170D01*
X1647139Y8971127D01*
X1647139Y9071914D01*
X1637131Y9081922D01*
X1601012Y9081922D01*
X1591005Y9071914D01*
X1591005Y9050832D01*
X1580997Y9040825D01*
X1543202Y9040825D01*
X1533194Y9050832D01*
X1533194Y9071914D01*
X1523187Y9081922D01*
G37*
G36*
X1842668Y9526422D02*
G01*
X1832660Y9516414D01*
X1832660Y9415627D01*
X1842668Y9405670D01*
X1992731Y9405670D01*
X2002739Y9415627D01*
X2002739Y9516414D01*
X1992731Y9526422D01*
X1956612Y9526422D01*
X1946605Y9516414D01*
X1946605Y9495332D01*
X1936597Y9485325D01*
X1898802Y9485325D01*
X1888794Y9495332D01*
X1888794Y9516414D01*
X1878787Y9526422D01*
G37*
G36*
X1842668Y9822129D02*
G01*
X1832660Y9812172D01*
X1832660Y9711385D01*
X1842668Y9701377D01*
X1878787Y9701377D01*
X1888794Y9711385D01*
X1888794Y9732467D01*
X1898802Y9742474D01*
X1936597Y9742474D01*
X1946605Y9732467D01*
X1946605Y9711385D01*
X1956612Y9701377D01*
X1992731Y9701377D01*
X2002739Y9711385D01*
X2002739Y9812172D01*
X1992731Y9822129D01*
G37*
G36*
X1677568Y8078622D02*
G01*
X1667560Y8068614D01*
X1667560Y7967827D01*
X1677568Y7957870D01*
X1827631Y7957870D01*
X1837639Y7967827D01*
X1837639Y8068614D01*
X1827631Y8078622D01*
X1791512Y8078622D01*
X1781505Y8068614D01*
X1781505Y8047532D01*
X1771497Y8037525D01*
X1733702Y8037525D01*
X1723694Y8047532D01*
X1723694Y8068614D01*
X1713687Y8078622D01*
G37*
G36*
X1677568Y8374329D02*
G01*
X1667560Y8364372D01*
X1667560Y8263585D01*
X1677568Y8253577D01*
X1713687Y8253577D01*
X1723694Y8263585D01*
X1723694Y8284667D01*
X1733702Y8294674D01*
X1771497Y8294674D01*
X1781505Y8284667D01*
X1781505Y8263585D01*
X1791512Y8253577D01*
X1827631Y8253577D01*
X1837639Y8263585D01*
X1837639Y8364372D01*
X1827631Y8374329D01*
G37*
G36*
X7011568Y9501022D02*
G01*
X7001560Y9491014D01*
X7001560Y9390227D01*
X7011568Y9380270D01*
X7161631Y9380270D01*
X7171639Y9390227D01*
X7171639Y9491014D01*
X7161631Y9501022D01*
X7125512Y9501022D01*
X7115505Y9491014D01*
X7115505Y9469932D01*
X7105497Y9459925D01*
X7067702Y9459925D01*
X7057694Y9469932D01*
X7057694Y9491014D01*
X7047687Y9501022D01*
G37*
G36*
X7011568Y9796729D02*
G01*
X7001560Y9786772D01*
X7001560Y9685985D01*
X7011568Y9675977D01*
X7047687Y9675977D01*
X7057694Y9685985D01*
X7057694Y9707067D01*
X7067702Y9717074D01*
X7105497Y9717074D01*
X7115505Y9707067D01*
X7115505Y9685985D01*
X7125512Y9675977D01*
X7161631Y9675977D01*
X7171639Y9685985D01*
X7171639Y9786772D01*
X7161631Y9796729D01*
G37*
G36*
X1761185Y7654239D02*
G01*
X1751177Y7644231D01*
X1751177Y7608112D01*
X1761185Y7598105D01*
X1782267Y7598105D01*
X1792274Y7588097D01*
X1792274Y7550302D01*
X1782267Y7540294D01*
X1761185Y7540294D01*
X1751177Y7530287D01*
X1751177Y7494168D01*
X1761185Y7484160D01*
X1861972Y7484160D01*
X1871929Y7494168D01*
X1871929Y7644231D01*
X1861972Y7654239D01*
G37*
G36*
X1465427Y7654239D02*
G01*
X1455470Y7644231D01*
X1455470Y7494168D01*
X1465427Y7484160D01*
X1566214Y7484160D01*
X1576222Y7494168D01*
X1576222Y7530287D01*
X1566214Y7540294D01*
X1545132Y7540294D01*
X1535125Y7550302D01*
X1535125Y7588097D01*
X1545132Y7598105D01*
X1566214Y7598105D01*
X1576222Y7608112D01*
X1576222Y7644231D01*
X1566214Y7654239D01*
G37*
G36*
X2285796Y5097576D02*
G01*
X2275789Y5087620D01*
X2275789Y4959096D01*
X2285796Y4949088D01*
X2322830Y4949088D01*
X2332837Y4959096D01*
X2332837Y4989576D01*
X2342845Y4999583D01*
X2381554Y4999583D01*
X2391562Y4989576D01*
X2391562Y4959096D01*
X2401570Y4949088D01*
X2438603Y4949088D01*
X2448610Y4959096D01*
X2448610Y5087620D01*
X2438603Y5097576D01*
G37*
G36*
X2285796Y4779111D02*
G01*
X2275789Y4769104D01*
X2275789Y4640580D01*
X2285796Y4630623D01*
X2438603Y4630623D01*
X2448610Y4640580D01*
X2448610Y4769104D01*
X2438603Y4779111D01*
X2401570Y4779111D01*
X2391562Y4769104D01*
X2391562Y4738624D01*
X2381554Y4728616D01*
X2342845Y4728616D01*
X2332837Y4738624D01*
X2332837Y4769104D01*
X2322830Y4779111D01*
G37*
G36*
X4043527Y4504639D02*
G01*
X4033570Y4494631D01*
X4033570Y4344568D01*
X4043527Y4334560D01*
X4144314Y4334560D01*
X4154322Y4344568D01*
X4154322Y4380687D01*
X4144314Y4390694D01*
X4123232Y4390694D01*
X4113225Y4400702D01*
X4113225Y4438497D01*
X4123232Y4448505D01*
X4144314Y4448505D01*
X4154322Y4458512D01*
X4154322Y4494631D01*
X4144314Y4504639D01*
G37*
G36*
X4339285Y4504639D02*
G01*
X4329277Y4494631D01*
X4329277Y4458512D01*
X4339285Y4448505D01*
X4360367Y4448505D01*
X4370374Y4438497D01*
X4370374Y4400702D01*
X4360367Y4390694D01*
X4339285Y4390694D01*
X4329277Y4380687D01*
X4329277Y4344568D01*
X4339285Y4334560D01*
X4440072Y4334560D01*
X4450029Y4344568D01*
X4450029Y4494631D01*
X4440072Y4504639D01*
G37*
G36*
X3472027Y4504639D02*
G01*
X3462070Y4494631D01*
X3462070Y4344568D01*
X3472027Y4334560D01*
X3572814Y4334560D01*
X3582822Y4344568D01*
X3582822Y4380687D01*
X3572814Y4390694D01*
X3551732Y4390694D01*
X3541725Y4400702D01*
X3541725Y4438497D01*
X3551732Y4448505D01*
X3572814Y4448505D01*
X3582822Y4458512D01*
X3582822Y4494631D01*
X3572814Y4504639D01*
G37*
G36*
X3767785Y4504639D02*
G01*
X3757777Y4494631D01*
X3757777Y4458512D01*
X3767785Y4448505D01*
X3788867Y4448505D01*
X3798874Y4438497D01*
X3798874Y4400702D01*
X3788867Y4390694D01*
X3767785Y4390694D01*
X3757777Y4380687D01*
X3757777Y4344568D01*
X3767785Y4334560D01*
X3868572Y4334560D01*
X3878529Y4344568D01*
X3878529Y4494631D01*
X3868572Y4504639D01*
G37*
G36*
X3196285Y4504639D02*
G01*
X3186277Y4494631D01*
X3186277Y4458512D01*
X3196285Y4448505D01*
X3217367Y4448505D01*
X3227374Y4438497D01*
X3227374Y4400702D01*
X3217367Y4390694D01*
X3196285Y4390694D01*
X3186277Y4380687D01*
X3186277Y4344568D01*
X3196285Y4334560D01*
X3297072Y4334560D01*
X3307029Y4344568D01*
X3307029Y4494631D01*
X3297072Y4504639D01*
G37*
G36*
X2900527Y4504639D02*
G01*
X2890570Y4494631D01*
X2890570Y4344568D01*
X2900527Y4334560D01*
X3001314Y4334560D01*
X3011322Y4344568D01*
X3011322Y4380687D01*
X3001314Y4390694D01*
X2980232Y4390694D01*
X2970225Y4400702D01*
X2970225Y4438497D01*
X2980232Y4448505D01*
X3001314Y4448505D01*
X3011322Y4458512D01*
X3011322Y4494631D01*
X3001314Y4504639D01*
G37*
D10*
G01*
X1355496Y9779000D03*
G01*
X1565503Y9684004D03*
G01*
X1565503Y9873995D03*
M02*
