G04 Layer: TopLayer*
G04 EasyEDA v6.5.23, 2023-06-23 22:07:44*
G04 588d00b09ced4095aabd395724b38ff5,e63460ceaba84a3bb957dccbc2ed3a87,10*
G04 Gerber Generator version 0.2*
G04 Scale: 100 percent, Rotated: No, Reflected: No *
G04 Dimensions in millimeters *
G04 leading zeros omitted , absolute positions ,4 integer and 5 decimal *
%FSLAX45Y45*%
%MOMM*%

%AMMACRO1*21,1,$1,$2,0,0,$3*%
%ADD10C,1.0000*%
%ADD11C,0.5000*%
%ADD12R,1.4000X0.6000*%
%ADD13MACRO1,1.701X1.2075X0.0000*%
%ADD14R,1.7010X1.2075*%
%ADD15MACRO1,1.701X1.2075X90.0000*%
%ADD16MACRO1,1.728X1.485X0.0000*%
%ADD17R,1.7280X1.4850*%
%ADD18MACRO1,1.701X1.2075X-90.0000*%
%ADD19O,3.3999932X1.499997*%
%ADD20O,1.499997X3.7999924*%
%ADD21R,1.5748X1.5748*%
%ADD22C,1.5748*%
%ADD23C,1.4000*%
%ADD24C,1.3005*%
%ADD25C,1.9304*%
%ADD26O,1.9999959999999999X2.4999949999999997*%
%ADD27MACRO1,2.0015X2.4994X0.0000*%
%ADD28C,0.0161*%

%LPD*%
G36*
X429768Y4026408D02*
G01*
X425856Y4027170D01*
X422605Y4029405D01*
X420370Y4032656D01*
X419608Y4036568D01*
X419608Y10911332D01*
X420370Y10915243D01*
X422605Y10918494D01*
X425856Y10920730D01*
X429768Y10921492D01*
X7736687Y10921492D01*
X7740548Y10920730D01*
X7743850Y10918545D01*
X7746034Y10915294D01*
X7746847Y10911433D01*
X7759192Y9702596D01*
X7759192Y4036568D01*
X7758430Y4032656D01*
X7756194Y4029405D01*
X7752943Y4027170D01*
X7749031Y4026408D01*
X4271975Y4026408D01*
X4268012Y4027220D01*
X4264660Y4029506D01*
X4262475Y4032961D01*
X4261866Y4036974D01*
X4262831Y4040936D01*
X4265269Y4044187D01*
X4270298Y4048658D01*
X4445152Y4223562D01*
X4452213Y4232402D01*
X4456836Y4240022D01*
X4457954Y4242206D01*
X4461357Y4250436D01*
X4462119Y4252772D01*
X4464253Y4261408D01*
X4464659Y4263847D01*
X4465472Y4272686D01*
X4465523Y4309516D01*
X4466285Y4313377D01*
X4468520Y4316679D01*
X4470247Y4318457D01*
X4473346Y4323334D01*
X4475226Y4328820D01*
X4475937Y4335119D01*
X4475937Y4504080D01*
X4475226Y4510379D01*
X4473346Y4515866D01*
X4470247Y4520742D01*
X4466183Y4524857D01*
X4461256Y4527956D01*
X4455820Y4529836D01*
X4449470Y4530547D01*
X4329887Y4530547D01*
X4323537Y4529836D01*
X4318101Y4527956D01*
X4313174Y4524857D01*
X4309110Y4520742D01*
X4306011Y4515866D01*
X4304080Y4510379D01*
X4303369Y4504080D01*
X4303369Y4335119D01*
X4304080Y4328820D01*
X4306011Y4323334D01*
X4309110Y4318457D01*
X4312259Y4314190D01*
X4313021Y4310278D01*
X4312259Y4306417D01*
X4310075Y4303115D01*
X4187951Y4180992D01*
X4184650Y4178757D01*
X4180738Y4177995D01*
X3439261Y4177995D01*
X3435350Y4178757D01*
X3432048Y4180992D01*
X3325520Y4287520D01*
X3323285Y4290822D01*
X3322523Y4294733D01*
X3322523Y4309516D01*
X3323285Y4313377D01*
X3325520Y4316679D01*
X3327247Y4318457D01*
X3330346Y4323334D01*
X3332226Y4328820D01*
X3332937Y4335119D01*
X3332937Y4504080D01*
X3332226Y4510379D01*
X3330346Y4515866D01*
X3327247Y4520742D01*
X3323183Y4524857D01*
X3318256Y4527956D01*
X3312820Y4529836D01*
X3306470Y4530547D01*
X3186887Y4530547D01*
X3180537Y4529836D01*
X3175101Y4527956D01*
X3170174Y4524857D01*
X3166110Y4520742D01*
X3163011Y4515866D01*
X3161080Y4510379D01*
X3160369Y4504080D01*
X3160369Y4335119D01*
X3161080Y4328820D01*
X3163011Y4323334D01*
X3166110Y4318457D01*
X3167735Y4316780D01*
X3169970Y4313478D01*
X3170732Y4309618D01*
X3170783Y4256430D01*
X3171596Y4247591D01*
X3172002Y4245152D01*
X3174136Y4236516D01*
X3174898Y4234180D01*
X3178302Y4225950D01*
X3179419Y4223766D01*
X3184042Y4216146D01*
X3191103Y4207306D01*
X3349701Y4048658D01*
X3354730Y4044187D01*
X3357168Y4040936D01*
X3358134Y4036974D01*
X3357524Y4032961D01*
X3355340Y4029506D01*
X3351987Y4027220D01*
X3348024Y4026408D01*
G37*

%LPC*%
G36*
X2987446Y4308652D02*
G01*
X3010712Y4308652D01*
X3017062Y4309364D01*
X3022498Y4311243D01*
X3027426Y4314342D01*
X3031490Y4318457D01*
X3034588Y4323334D01*
X3036519Y4328820D01*
X3037230Y4335119D01*
X3037230Y4370730D01*
X2987446Y4370730D01*
G37*
G36*
X2891129Y4308652D02*
G01*
X2914396Y4308652D01*
X2914396Y4370730D01*
X2864662Y4370730D01*
X2864662Y4335119D01*
X2865374Y4328820D01*
X2867253Y4323334D01*
X2870352Y4318457D01*
X2874416Y4314342D01*
X2879344Y4311243D01*
X2884779Y4309364D01*
G37*
G36*
X3462629Y4308652D02*
G01*
X3582212Y4308652D01*
X3588562Y4309364D01*
X3593998Y4311243D01*
X3598926Y4314342D01*
X3602990Y4318457D01*
X3606088Y4323334D01*
X3608019Y4328820D01*
X3608730Y4335119D01*
X3608730Y4504080D01*
X3608019Y4510379D01*
X3606088Y4515866D01*
X3602990Y4520742D01*
X3601313Y4522470D01*
X3599078Y4525772D01*
X3598316Y4529632D01*
X3598316Y4540859D01*
X3599078Y4544771D01*
X3601313Y4548073D01*
X3698544Y4645304D01*
X3706977Y4655362D01*
X3712921Y4665421D01*
X3716629Y4674158D01*
X3719525Y4685080D01*
X3720744Y4696358D01*
X3720795Y4698796D01*
X3720287Y4707686D01*
X3719931Y4710430D01*
X3718153Y4718812D01*
X3717290Y4721758D01*
X3714394Y4729480D01*
X3712972Y4732578D01*
X3709111Y4739487D01*
X3707028Y4742586D01*
X3702354Y4748580D01*
X3699662Y4751578D01*
X3694328Y4756607D01*
X3690975Y4759299D01*
X3685235Y4763312D01*
X3681222Y4765649D01*
X3675227Y4768596D01*
X3670604Y4770424D01*
X3664508Y4772304D01*
X3659378Y4773523D01*
X3653383Y4774438D01*
X3647795Y4774844D01*
X3642055Y4774844D01*
X3636162Y4774387D01*
X3630828Y4773574D01*
X3624732Y4772202D01*
X3619855Y4770678D01*
X3613810Y4768240D01*
X3609492Y4766157D01*
X3603599Y4762652D01*
X3599891Y4760112D01*
X3594354Y4755591D01*
X3591102Y4752594D01*
X3466896Y4628286D01*
X3459835Y4619447D01*
X3455212Y4611827D01*
X3454095Y4609642D01*
X3450691Y4601413D01*
X3449929Y4599076D01*
X3447796Y4590440D01*
X3447389Y4588002D01*
X3446576Y4579162D01*
X3446526Y4529632D01*
X3445764Y4525772D01*
X3443528Y4522470D01*
X3441852Y4520742D01*
X3438753Y4515866D01*
X3436874Y4510379D01*
X3436162Y4504080D01*
X3436162Y4335119D01*
X3436874Y4328820D01*
X3438753Y4323334D01*
X3441852Y4318457D01*
X3445916Y4314342D01*
X3450844Y4311243D01*
X3456279Y4309364D01*
G37*
G36*
X3758387Y4308652D02*
G01*
X3877970Y4308652D01*
X3884320Y4309364D01*
X3889756Y4311243D01*
X3894683Y4314342D01*
X3898747Y4318457D01*
X3901846Y4323334D01*
X3903726Y4328820D01*
X3904386Y4334662D01*
X3905504Y4338218D01*
X3907739Y4341114D01*
X3910888Y4343044D01*
X3914495Y4343704D01*
X3997604Y4343704D01*
X4001211Y4343044D01*
X4004360Y4341114D01*
X4006596Y4338218D01*
X4007713Y4334662D01*
X4008374Y4328820D01*
X4010253Y4323334D01*
X4013352Y4318457D01*
X4017416Y4314342D01*
X4022344Y4311243D01*
X4027779Y4309364D01*
X4034129Y4308652D01*
X4153712Y4308652D01*
X4160062Y4309364D01*
X4165498Y4311243D01*
X4170426Y4314342D01*
X4174490Y4318457D01*
X4177588Y4323334D01*
X4179519Y4328820D01*
X4180230Y4335119D01*
X4180230Y4504080D01*
X4179519Y4510379D01*
X4177588Y4515866D01*
X4174490Y4520742D01*
X4170426Y4524857D01*
X4165498Y4527956D01*
X4160062Y4529836D01*
X4153712Y4530547D01*
X4034129Y4530547D01*
X4027779Y4529836D01*
X4022344Y4527956D01*
X4017416Y4524857D01*
X4013352Y4520742D01*
X4010253Y4515866D01*
X4008374Y4510379D01*
X4007713Y4504537D01*
X4006596Y4500981D01*
X4004360Y4498086D01*
X4001211Y4496155D01*
X3997604Y4495495D01*
X3914495Y4495495D01*
X3910888Y4496155D01*
X3907739Y4498086D01*
X3905504Y4500981D01*
X3904386Y4504537D01*
X3903726Y4510379D01*
X3901846Y4515866D01*
X3898747Y4520742D01*
X3897020Y4522520D01*
X3894785Y4525822D01*
X3894023Y4529683D01*
X3894023Y4544466D01*
X3894785Y4548378D01*
X3897020Y4551680D01*
X4030624Y4685334D01*
X4037685Y4694174D01*
X4042308Y4701794D01*
X4043426Y4703978D01*
X4046829Y4712208D01*
X4047591Y4714544D01*
X4049725Y4723180D01*
X4050131Y4725619D01*
X4050944Y4734458D01*
X4050944Y4955641D01*
X4050131Y4964480D01*
X4049725Y4966919D01*
X4047591Y4975555D01*
X4046829Y4977892D01*
X4043426Y4986121D01*
X4042308Y4988306D01*
X4037685Y4995926D01*
X4030624Y5004765D01*
X3965498Y5069941D01*
X3957624Y5076799D01*
X3947871Y5083149D01*
X3937254Y5087924D01*
X3926027Y5090972D01*
X3914495Y5092344D01*
X3903116Y5091887D01*
X3891940Y5089804D01*
X3881272Y5086045D01*
X3871264Y5080762D01*
X3861104Y5073142D01*
X3853078Y5064760D01*
X3846372Y5055260D01*
X3841191Y5044795D01*
X3837736Y5034026D01*
X3836162Y5024780D01*
X3835755Y5013452D01*
X3835908Y5010861D01*
X3837076Y5002225D01*
X3837635Y4999380D01*
X3840022Y4991303D01*
X3841140Y4988255D01*
X3844544Y4980940D01*
X3846271Y4977841D01*
X3850589Y4971338D01*
X3852976Y4968290D01*
X3858107Y4962652D01*
X3896207Y4924552D01*
X3898442Y4921250D01*
X3899204Y4917338D01*
X3899204Y4772761D01*
X3898442Y4768850D01*
X3896207Y4765548D01*
X3762603Y4631893D01*
X3755542Y4623054D01*
X3750919Y4615434D01*
X3749801Y4613249D01*
X3746398Y4605020D01*
X3745636Y4602683D01*
X3743502Y4594047D01*
X3743096Y4591608D01*
X3742283Y4582769D01*
X3742232Y4529582D01*
X3741470Y4525721D01*
X3739235Y4522419D01*
X3737610Y4520742D01*
X3734511Y4515866D01*
X3732580Y4510379D01*
X3731869Y4504080D01*
X3731869Y4335119D01*
X3732580Y4328820D01*
X3734511Y4323334D01*
X3737610Y4318457D01*
X3741674Y4314342D01*
X3746601Y4311243D01*
X3752037Y4309364D01*
G37*
G36*
X1391259Y4454601D02*
G01*
X1394561Y4454601D01*
X1394561Y4511649D01*
X1300276Y4511649D01*
X1303528Y4505045D01*
X1310894Y4494072D01*
X1319580Y4484166D01*
X1329486Y4475429D01*
X1340459Y4468114D01*
X1352296Y4462272D01*
X1364792Y4458055D01*
X1377746Y4455464D01*
G37*
G36*
X1577289Y4454601D02*
G01*
X1580591Y4454601D01*
X1594104Y4455464D01*
X1607007Y4458055D01*
X1619504Y4462272D01*
X1631340Y4468114D01*
X1642313Y4475429D01*
X1652270Y4484166D01*
X1660956Y4494072D01*
X1668272Y4505045D01*
X1671523Y4511649D01*
X1577289Y4511649D01*
G37*
G36*
X2864662Y4468469D02*
G01*
X2914396Y4468469D01*
X2914396Y4530547D01*
X2891129Y4530547D01*
X2884779Y4529836D01*
X2879344Y4527956D01*
X2874416Y4524857D01*
X2870352Y4520742D01*
X2867253Y4515866D01*
X2865374Y4510379D01*
X2864662Y4504080D01*
G37*
G36*
X2987446Y4468469D02*
G01*
X3037230Y4468469D01*
X3037230Y4504080D01*
X3036519Y4510379D01*
X3034588Y4515866D01*
X3031490Y4520742D01*
X3027426Y4524857D01*
X3022498Y4527956D01*
X3017062Y4529836D01*
X3010712Y4530547D01*
X2987446Y4530547D01*
G37*
G36*
X1300276Y4599330D02*
G01*
X1394561Y4599330D01*
X1394561Y4656378D01*
X1391259Y4656378D01*
X1377746Y4655515D01*
X1364792Y4652924D01*
X1352296Y4648708D01*
X1340459Y4642866D01*
X1329486Y4635550D01*
X1319580Y4626813D01*
X1310894Y4616907D01*
X1303528Y4605934D01*
G37*
G36*
X1577289Y4599330D02*
G01*
X1671523Y4599330D01*
X1668272Y4605934D01*
X1660956Y4616907D01*
X1652270Y4626813D01*
X1642313Y4635550D01*
X1631340Y4642866D01*
X1619504Y4648708D01*
X1607007Y4652924D01*
X1594104Y4655515D01*
X1580591Y4656378D01*
X1577289Y4656378D01*
G37*
G36*
X2411730Y4604715D02*
G01*
X2448052Y4604715D01*
X2454351Y4605426D01*
X2459837Y4607306D01*
X2464714Y4610404D01*
X2468829Y4614468D01*
X2471877Y4619396D01*
X2473807Y4624832D01*
X2474518Y4631182D01*
X2474518Y4661357D01*
X2411730Y4661357D01*
G37*
G36*
X2276348Y4604715D02*
G01*
X2312670Y4604715D01*
X2312670Y4661357D01*
X2249881Y4661357D01*
X2249881Y4631182D01*
X2250592Y4624832D01*
X2252522Y4619396D01*
X2255570Y4614468D01*
X2259685Y4610404D01*
X2264562Y4607306D01*
X2270048Y4605426D01*
G37*
G36*
X2249881Y4748326D02*
G01*
X2312670Y4748326D01*
X2312670Y4805019D01*
X2276348Y4805019D01*
X2270048Y4804308D01*
X2264562Y4802378D01*
X2259685Y4799330D01*
X2255570Y4795215D01*
X2252522Y4790338D01*
X2250592Y4784852D01*
X2249881Y4778552D01*
G37*
G36*
X2411730Y4748326D02*
G01*
X2474518Y4748326D01*
X2474518Y4778552D01*
X2473807Y4784852D01*
X2471877Y4790338D01*
X2468829Y4795215D01*
X2464714Y4799330D01*
X2459837Y4802378D01*
X2454351Y4804308D01*
X2448052Y4805019D01*
X2411730Y4805019D01*
G37*
G36*
X1786026Y4804511D02*
G01*
X1799183Y4805375D01*
X1812137Y4807966D01*
X1824634Y4812182D01*
X1836470Y4818024D01*
X1847443Y4825390D01*
X1857349Y4834077D01*
X1866036Y4843983D01*
X1873351Y4854956D01*
X1879193Y4866792D01*
X1883460Y4879289D01*
X1886051Y4892243D01*
X1886915Y4905756D01*
X1886915Y5135067D01*
X1886051Y5148580D01*
X1883460Y5161534D01*
X1879193Y5174030D01*
X1873351Y5185867D01*
X1866036Y5196840D01*
X1857349Y5206746D01*
X1847443Y5215432D01*
X1836470Y5222798D01*
X1824634Y5228640D01*
X1812137Y5232857D01*
X1799183Y5235448D01*
X1786026Y5236311D01*
X1772818Y5235448D01*
X1759915Y5232857D01*
X1747418Y5228640D01*
X1735582Y5222798D01*
X1724609Y5215432D01*
X1714652Y5206746D01*
X1705965Y5196840D01*
X1698650Y5185867D01*
X1692808Y5174030D01*
X1688541Y5161534D01*
X1686001Y5148580D01*
X1685086Y5135067D01*
X1685086Y4905756D01*
X1686001Y4892243D01*
X1688541Y4879289D01*
X1692808Y4866792D01*
X1698650Y4854956D01*
X1705965Y4843983D01*
X1714652Y4834077D01*
X1724609Y4825390D01*
X1735582Y4818024D01*
X1747418Y4812182D01*
X1759915Y4807966D01*
X1772818Y4805375D01*
G37*
G36*
X4693056Y4808880D02*
G01*
X4693056Y4846574D01*
X4655515Y4846574D01*
X4659172Y4839157D01*
X4665878Y4829657D01*
X4673904Y4821275D01*
X4683150Y4814265D01*
G37*
G36*
X4755743Y4809083D02*
G01*
X4760671Y4811268D01*
X4770374Y4817567D01*
X4779060Y4825339D01*
X4786477Y4834280D01*
X4792421Y4844288D01*
X4793335Y4846574D01*
X4755743Y4846574D01*
G37*
G36*
X1229817Y4814773D02*
G01*
X1236370Y4818024D01*
X1247343Y4825390D01*
X1257300Y4834077D01*
X1265986Y4843983D01*
X1273302Y4854956D01*
X1279144Y4866792D01*
X1283411Y4879289D01*
X1285951Y4892243D01*
X1286865Y4905756D01*
X1286865Y4919065D01*
X1229817Y4919065D01*
G37*
G36*
X1142085Y4814773D02*
G01*
X1142085Y4919065D01*
X1085037Y4919065D01*
X1085037Y4905756D01*
X1085900Y4892243D01*
X1088491Y4879289D01*
X1092758Y4866792D01*
X1098550Y4854956D01*
X1105916Y4843983D01*
X1114602Y4834077D01*
X1124508Y4825390D01*
X1135481Y4818024D01*
G37*
G36*
X3545484Y4865573D02*
G01*
X3744315Y4865573D01*
X3750665Y4866284D01*
X3756101Y4868214D01*
X3761028Y4871313D01*
X3765092Y4875377D01*
X3768191Y4880305D01*
X3770071Y4885740D01*
X3770833Y4892090D01*
X3770833Y5140909D01*
X3770071Y5147259D01*
X3768191Y5152694D01*
X3765092Y5157622D01*
X3761028Y5161686D01*
X3756101Y5164785D01*
X3750665Y5166715D01*
X3744315Y5167426D01*
X3545484Y5167426D01*
X3539134Y5166715D01*
X3533698Y5164785D01*
X3528771Y5161686D01*
X3524707Y5157622D01*
X3521608Y5152694D01*
X3519728Y5147259D01*
X3518966Y5140909D01*
X3518966Y5108956D01*
X3518052Y5104688D01*
X3515410Y5101234D01*
X3511550Y5099151D01*
X3507181Y5098948D01*
X3503168Y5100523D01*
X3500120Y5103723D01*
X3494481Y5113020D01*
X3485134Y5125008D01*
X3474364Y5135727D01*
X3462426Y5145125D01*
X3449421Y5152999D01*
X3435553Y5159197D01*
X3421024Y5163718D01*
X3406089Y5166461D01*
X3390900Y5167376D01*
X3375710Y5166461D01*
X3360775Y5163718D01*
X3346246Y5159197D01*
X3332378Y5152999D01*
X3319373Y5145125D01*
X3307435Y5135727D01*
X3296665Y5125008D01*
X3287318Y5113020D01*
X3279444Y5100015D01*
X3273145Y5086096D01*
X3270961Y5082946D01*
X3267710Y5080812D01*
X3263900Y5080101D01*
X3260090Y5080812D01*
X3256838Y5082946D01*
X3254654Y5086096D01*
X3248355Y5100015D01*
X3240481Y5113020D01*
X3231134Y5125008D01*
X3220364Y5135727D01*
X3208426Y5145125D01*
X3195421Y5152999D01*
X3181553Y5159197D01*
X3167024Y5163718D01*
X3152089Y5166461D01*
X3136900Y5167376D01*
X3121710Y5166461D01*
X3106775Y5163718D01*
X3092246Y5159197D01*
X3078378Y5152999D01*
X3065373Y5145125D01*
X3053435Y5135727D01*
X3042666Y5125008D01*
X3033318Y5113020D01*
X3025444Y5100015D01*
X3019196Y5086146D01*
X3014675Y5071618D01*
X3011932Y5056682D01*
X3010966Y5041188D01*
X3010966Y4991811D01*
X3011932Y4976317D01*
X3014675Y4961382D01*
X3019196Y4946853D01*
X3025444Y4932984D01*
X3033318Y4919980D01*
X3042666Y4908042D01*
X3053435Y4897272D01*
X3065373Y4887925D01*
X3078378Y4880051D01*
X3092246Y4873802D01*
X3106775Y4869281D01*
X3121710Y4866538D01*
X3136900Y4865624D01*
X3152089Y4866538D01*
X3167024Y4869281D01*
X3181553Y4873802D01*
X3195421Y4880051D01*
X3208426Y4887925D01*
X3220364Y4897272D01*
X3231134Y4908042D01*
X3240481Y4919980D01*
X3248355Y4932984D01*
X3254654Y4946904D01*
X3256838Y4950104D01*
X3260090Y4952187D01*
X3263900Y4952898D01*
X3267710Y4952187D01*
X3270961Y4950104D01*
X3273145Y4946904D01*
X3279444Y4932984D01*
X3287318Y4919980D01*
X3296665Y4908042D01*
X3307435Y4897272D01*
X3319373Y4887925D01*
X3332378Y4880051D01*
X3346246Y4873802D01*
X3360775Y4869281D01*
X3375710Y4866538D01*
X3390900Y4865624D01*
X3406089Y4866538D01*
X3421024Y4869281D01*
X3435553Y4873802D01*
X3449421Y4880051D01*
X3462426Y4887925D01*
X3474364Y4897272D01*
X3485134Y4908042D01*
X3494481Y4919980D01*
X3500120Y4929327D01*
X3503168Y4932476D01*
X3507181Y4934102D01*
X3511550Y4933848D01*
X3515410Y4931816D01*
X3518052Y4928311D01*
X3518966Y4924044D01*
X3518966Y4892090D01*
X3519728Y4885740D01*
X3521608Y4880305D01*
X3524707Y4875377D01*
X3528771Y4871313D01*
X3533698Y4868214D01*
X3539134Y4866284D01*
G37*
G36*
X4655515Y4909312D02*
G01*
X4693056Y4909312D01*
X4693056Y4944770D01*
X4694021Y4949088D01*
X4696764Y4952593D01*
X4700727Y4954574D01*
X4705146Y4954727D01*
X4715713Y4952695D01*
X4727295Y4952238D01*
X4738827Y4953558D01*
X4742891Y4954676D01*
X4746599Y4954981D01*
X4750155Y4953965D01*
X4753102Y4951679D01*
X4755083Y4948529D01*
X4755743Y4944872D01*
X4755743Y4909312D01*
X4793335Y4909312D01*
X4792421Y4911598D01*
X4786477Y4921605D01*
X4779060Y4930546D01*
X4770374Y4938268D01*
X4760874Y4944465D01*
X4757978Y4947259D01*
X4756404Y4950968D01*
X4756404Y4954981D01*
X4757978Y4958689D01*
X4760874Y4961534D01*
X4770374Y4967681D01*
X4779060Y4975453D01*
X4786477Y4984394D01*
X4792421Y4994402D01*
X4796739Y5005171D01*
X4799380Y5016449D01*
X4800295Y5028031D01*
X4799380Y5039614D01*
X4796739Y5050942D01*
X4792421Y5061712D01*
X4786477Y5071719D01*
X4779060Y5080660D01*
X4770374Y5088382D01*
X4760671Y5094732D01*
X4750054Y5099456D01*
X4738827Y5102555D01*
X4727295Y5103876D01*
X4715713Y5103418D01*
X4704283Y5101234D01*
X4693361Y5097272D01*
X4683150Y5091734D01*
X4673904Y5084673D01*
X4665878Y5076342D01*
X4659172Y5066842D01*
X4654042Y5056428D01*
X4650536Y5045354D01*
X4648758Y5033873D01*
X4648758Y5022240D01*
X4650536Y5010759D01*
X4654042Y4999685D01*
X4659172Y4989271D01*
X4665878Y4979771D01*
X4673904Y4971389D01*
X4683150Y4964379D01*
X4687620Y4961940D01*
X4690922Y4959096D01*
X4692700Y4955133D01*
X4692700Y4950815D01*
X4690922Y4946904D01*
X4687620Y4944059D01*
X4683150Y4941620D01*
X4673904Y4934559D01*
X4665878Y4926228D01*
X4659172Y4916728D01*
G37*
G36*
X2276348Y4923180D02*
G01*
X2448052Y4923180D01*
X2454351Y4923891D01*
X2459837Y4925822D01*
X2464714Y4928870D01*
X2468829Y4932984D01*
X2471877Y4937861D01*
X2473807Y4943348D01*
X2474518Y4949647D01*
X2474518Y5097018D01*
X2473807Y5103368D01*
X2471877Y5108803D01*
X2468829Y5113731D01*
X2464714Y5117795D01*
X2459837Y5120894D01*
X2454351Y5122773D01*
X2447188Y5123586D01*
X2443632Y5124602D01*
X2440686Y5126888D01*
X2438755Y5130038D01*
X2438095Y5133644D01*
X2438044Y5273141D01*
X2437231Y5281980D01*
X2436825Y5284419D01*
X2434691Y5293055D01*
X2433929Y5295392D01*
X2430526Y5303621D01*
X2429408Y5305806D01*
X2424785Y5313426D01*
X2417724Y5322265D01*
X2274265Y5465724D01*
X2265426Y5472785D01*
X2257806Y5477408D01*
X2255621Y5478526D01*
X2247392Y5481929D01*
X2245055Y5482691D01*
X2236419Y5484825D01*
X2233980Y5485231D01*
X2225141Y5486044D01*
X1943404Y5486095D01*
X1934210Y5485587D01*
X1932076Y5485282D01*
X1920748Y5482691D01*
X1910181Y5478576D01*
X1900377Y5472887D01*
X1891436Y5465775D01*
X1884578Y5458510D01*
X1877872Y5448960D01*
X1872742Y5438546D01*
X1869236Y5427472D01*
X1867458Y5415991D01*
X1867458Y5404510D01*
X1869135Y5393334D01*
X1872488Y5382463D01*
X1877364Y5372303D01*
X1884578Y5361889D01*
X1892604Y5353558D01*
X1901850Y5346496D01*
X1912112Y5340908D01*
X1922780Y5337048D01*
X1931974Y5335117D01*
X1934210Y5334812D01*
X1943404Y5334304D01*
X2186838Y5334304D01*
X2190750Y5333542D01*
X2194052Y5331307D01*
X2283307Y5242052D01*
X2285542Y5238750D01*
X2286304Y5234838D01*
X2286304Y5133644D01*
X2285644Y5130038D01*
X2283714Y5126888D01*
X2280767Y5124602D01*
X2277211Y5123586D01*
X2270048Y5122773D01*
X2264562Y5120894D01*
X2259685Y5117795D01*
X2255570Y5113731D01*
X2252522Y5108803D01*
X2250592Y5103368D01*
X2249881Y5097018D01*
X2249881Y4949647D01*
X2250592Y4943348D01*
X2252522Y4937861D01*
X2255570Y4932984D01*
X2259685Y4928870D01*
X2264562Y4925822D01*
X2270048Y4923891D01*
G37*
G36*
X1085037Y5121757D02*
G01*
X1142085Y5121757D01*
X1142085Y5226050D01*
X1135481Y5222798D01*
X1124508Y5215432D01*
X1114602Y5206746D01*
X1105916Y5196840D01*
X1098550Y5185867D01*
X1092758Y5174030D01*
X1088491Y5161534D01*
X1085900Y5148580D01*
X1085037Y5135067D01*
G37*
G36*
X1229817Y5121757D02*
G01*
X1286865Y5121757D01*
X1286865Y5135067D01*
X1285951Y5148580D01*
X1283411Y5161534D01*
X1279144Y5174030D01*
X1273302Y5185867D01*
X1265986Y5196840D01*
X1257300Y5206746D01*
X1247343Y5215432D01*
X1236370Y5222798D01*
X1229817Y5226050D01*
G37*
G36*
X2799181Y6062726D02*
G01*
X2814218Y6062726D01*
X2829204Y6064554D01*
X2843784Y6068263D01*
X2857855Y6073698D01*
X2871165Y6080810D01*
X2883458Y6089548D01*
X2894584Y6099708D01*
X2904388Y6111138D01*
X2912719Y6123686D01*
X2919425Y6137198D01*
X2924454Y6151422D01*
X2927654Y6166104D01*
X2929026Y6181140D01*
X2928569Y6196177D01*
X2926283Y6211062D01*
X2922168Y6225590D01*
X2916275Y6239459D01*
X2908757Y6252514D01*
X2899664Y6264554D01*
X2889148Y6275374D01*
X2877413Y6284823D01*
X2864612Y6292748D01*
X2850896Y6299047D01*
X2836570Y6303619D01*
X2821736Y6306362D01*
X2806700Y6307328D01*
X2791663Y6306362D01*
X2776829Y6303619D01*
X2762504Y6299047D01*
X2748788Y6292748D01*
X2735986Y6284823D01*
X2724251Y6275374D01*
X2713736Y6264554D01*
X2704642Y6252514D01*
X2697124Y6239459D01*
X2691231Y6225590D01*
X2687116Y6211062D01*
X2684830Y6196177D01*
X2684373Y6181140D01*
X2685745Y6166104D01*
X2688945Y6151422D01*
X2693974Y6137198D01*
X2700680Y6123686D01*
X2709011Y6111138D01*
X2718816Y6099708D01*
X2729941Y6089548D01*
X2742234Y6080810D01*
X2755544Y6073698D01*
X2769616Y6068263D01*
X2784195Y6064554D01*
G37*
G36*
X6355181Y6062726D02*
G01*
X6370218Y6062726D01*
X6385204Y6064554D01*
X6399784Y6068263D01*
X6413855Y6073698D01*
X6427165Y6080810D01*
X6439458Y6089548D01*
X6450584Y6099708D01*
X6460388Y6111138D01*
X6468719Y6123686D01*
X6475425Y6137198D01*
X6480454Y6151422D01*
X6483654Y6166104D01*
X6485026Y6181140D01*
X6484569Y6196177D01*
X6482283Y6211062D01*
X6478168Y6225590D01*
X6472275Y6239459D01*
X6464757Y6252514D01*
X6455664Y6264554D01*
X6445148Y6275374D01*
X6433413Y6284823D01*
X6420612Y6292748D01*
X6406896Y6299047D01*
X6392570Y6303619D01*
X6377736Y6306362D01*
X6362700Y6307328D01*
X6347663Y6306362D01*
X6332829Y6303619D01*
X6318504Y6299047D01*
X6304788Y6292748D01*
X6291986Y6284823D01*
X6280251Y6275374D01*
X6269736Y6264554D01*
X6260642Y6252514D01*
X6253124Y6239459D01*
X6247231Y6225590D01*
X6243116Y6211062D01*
X6240830Y6196177D01*
X6240373Y6181140D01*
X6241745Y6166104D01*
X6244945Y6151422D01*
X6249974Y6137198D01*
X6256680Y6123686D01*
X6265011Y6111138D01*
X6274816Y6099708D01*
X6285941Y6089548D01*
X6298285Y6080810D01*
X6311544Y6073698D01*
X6325616Y6068263D01*
X6340195Y6064554D01*
G37*
G36*
X5339181Y6062726D02*
G01*
X5354218Y6062726D01*
X5369204Y6064554D01*
X5383784Y6068263D01*
X5397855Y6073698D01*
X5411165Y6080810D01*
X5423458Y6089548D01*
X5434584Y6099708D01*
X5444388Y6111138D01*
X5452719Y6123686D01*
X5459425Y6137198D01*
X5464098Y6150508D01*
X5466283Y6154064D01*
X5469636Y6156452D01*
X5473700Y6157264D01*
X5477764Y6156452D01*
X5481116Y6154064D01*
X5483301Y6150508D01*
X5487974Y6137198D01*
X5494680Y6123686D01*
X5503011Y6111138D01*
X5512816Y6099708D01*
X5523941Y6089548D01*
X5536285Y6080810D01*
X5549544Y6073698D01*
X5563616Y6068263D01*
X5578195Y6064554D01*
X5593181Y6062726D01*
X5608218Y6062726D01*
X5623204Y6064554D01*
X5637784Y6068263D01*
X5651855Y6073698D01*
X5665165Y6080810D01*
X5677458Y6089548D01*
X5688584Y6099708D01*
X5698388Y6111138D01*
X5706719Y6123686D01*
X5713425Y6137198D01*
X5718098Y6150508D01*
X5720283Y6154064D01*
X5723636Y6156452D01*
X5727700Y6157264D01*
X5731764Y6156452D01*
X5735116Y6154064D01*
X5737301Y6150508D01*
X5741974Y6137198D01*
X5748680Y6123686D01*
X5757011Y6111138D01*
X5766816Y6099708D01*
X5777941Y6089548D01*
X5790285Y6080810D01*
X5803544Y6073698D01*
X5817616Y6068263D01*
X5832195Y6064554D01*
X5847181Y6062726D01*
X5862218Y6062726D01*
X5877204Y6064554D01*
X5891784Y6068263D01*
X5905855Y6073698D01*
X5919165Y6080810D01*
X5931458Y6089548D01*
X5942584Y6099708D01*
X5952388Y6111138D01*
X5960719Y6123686D01*
X5967425Y6137198D01*
X5972454Y6151422D01*
X5975654Y6166104D01*
X5977026Y6181140D01*
X5976569Y6196177D01*
X5974283Y6211062D01*
X5970168Y6225590D01*
X5964275Y6239459D01*
X5956757Y6252514D01*
X5947664Y6264554D01*
X5937148Y6275374D01*
X5925413Y6284823D01*
X5912612Y6292748D01*
X5898896Y6299047D01*
X5884570Y6303619D01*
X5869736Y6306362D01*
X5854700Y6307328D01*
X5839663Y6306362D01*
X5824829Y6303619D01*
X5810504Y6299047D01*
X5796788Y6292748D01*
X5783986Y6284823D01*
X5772251Y6275374D01*
X5761736Y6264554D01*
X5752642Y6252514D01*
X5745124Y6239459D01*
X5739231Y6225590D01*
X5737453Y6219342D01*
X5735421Y6215481D01*
X5731967Y6212890D01*
X5727700Y6211976D01*
X5723432Y6212890D01*
X5719978Y6215481D01*
X5717946Y6219342D01*
X5716168Y6225590D01*
X5710275Y6239459D01*
X5702757Y6252514D01*
X5693664Y6264554D01*
X5683148Y6275374D01*
X5671413Y6284823D01*
X5658612Y6292748D01*
X5644896Y6299047D01*
X5630570Y6303619D01*
X5615736Y6306362D01*
X5600700Y6307328D01*
X5585663Y6306362D01*
X5570829Y6303619D01*
X5556504Y6299047D01*
X5542788Y6292748D01*
X5529986Y6284823D01*
X5518251Y6275374D01*
X5507736Y6264554D01*
X5498642Y6252514D01*
X5491124Y6239459D01*
X5485231Y6225590D01*
X5483453Y6219342D01*
X5481421Y6215481D01*
X5477967Y6212890D01*
X5473700Y6211976D01*
X5469432Y6212890D01*
X5465978Y6215481D01*
X5463946Y6219342D01*
X5462168Y6225590D01*
X5456275Y6239459D01*
X5448757Y6252514D01*
X5439664Y6264554D01*
X5429148Y6275374D01*
X5417413Y6284823D01*
X5404612Y6292748D01*
X5390896Y6299047D01*
X5376570Y6303619D01*
X5361736Y6306362D01*
X5346700Y6307328D01*
X5331663Y6306362D01*
X5316829Y6303619D01*
X5302504Y6299047D01*
X5288788Y6292748D01*
X5275986Y6284823D01*
X5264251Y6275374D01*
X5253736Y6264554D01*
X5244642Y6252514D01*
X5237124Y6239459D01*
X5231231Y6225590D01*
X5227116Y6211062D01*
X5224830Y6196177D01*
X5224373Y6181140D01*
X5225745Y6166104D01*
X5228945Y6151422D01*
X5233974Y6137198D01*
X5240680Y6123686D01*
X5249011Y6111138D01*
X5258816Y6099708D01*
X5269941Y6089548D01*
X5282285Y6080810D01*
X5295544Y6073698D01*
X5309616Y6068263D01*
X5324195Y6064554D01*
G37*
G36*
X3307181Y6062726D02*
G01*
X3322218Y6062726D01*
X3337204Y6064554D01*
X3351784Y6068263D01*
X3365855Y6073698D01*
X3379165Y6080810D01*
X3391458Y6089548D01*
X3402584Y6099708D01*
X3412388Y6111138D01*
X3420719Y6123686D01*
X3427425Y6137198D01*
X3432098Y6150508D01*
X3434283Y6154064D01*
X3437636Y6156452D01*
X3441700Y6157264D01*
X3445764Y6156452D01*
X3449116Y6154064D01*
X3451301Y6150508D01*
X3455974Y6137198D01*
X3462680Y6123686D01*
X3471011Y6111138D01*
X3480815Y6099708D01*
X3491941Y6089548D01*
X3504234Y6080810D01*
X3517544Y6073698D01*
X3531615Y6068263D01*
X3546195Y6064554D01*
X3561181Y6062726D01*
X3576218Y6062726D01*
X3591204Y6064554D01*
X3605784Y6068263D01*
X3619855Y6073698D01*
X3633165Y6080810D01*
X3645458Y6089548D01*
X3656584Y6099708D01*
X3666388Y6111138D01*
X3674719Y6123686D01*
X3681425Y6137198D01*
X3686098Y6150508D01*
X3688283Y6154064D01*
X3691636Y6156452D01*
X3695700Y6157264D01*
X3699764Y6156452D01*
X3703116Y6154064D01*
X3705301Y6150508D01*
X3709974Y6137198D01*
X3716680Y6123686D01*
X3725011Y6111138D01*
X3734815Y6099708D01*
X3745941Y6089548D01*
X3758234Y6080810D01*
X3771544Y6073698D01*
X3785615Y6068263D01*
X3800195Y6064554D01*
X3815181Y6062726D01*
X3830218Y6062726D01*
X3845204Y6064554D01*
X3859784Y6068263D01*
X3873855Y6073698D01*
X3887165Y6080810D01*
X3899458Y6089548D01*
X3910584Y6099708D01*
X3920388Y6111138D01*
X3928719Y6123686D01*
X3935425Y6137198D01*
X3940098Y6150508D01*
X3942283Y6154064D01*
X3945636Y6156452D01*
X3949700Y6157264D01*
X3953764Y6156452D01*
X3957116Y6154064D01*
X3959301Y6150508D01*
X3963974Y6137198D01*
X3970680Y6123686D01*
X3979011Y6111138D01*
X3988815Y6099708D01*
X3999941Y6089548D01*
X4012234Y6080810D01*
X4025544Y6073698D01*
X4039615Y6068263D01*
X4054195Y6064554D01*
X4069181Y6062726D01*
X4084218Y6062726D01*
X4099204Y6064554D01*
X4113784Y6068263D01*
X4127855Y6073698D01*
X4141165Y6080810D01*
X4153458Y6089548D01*
X4164584Y6099708D01*
X4174388Y6111138D01*
X4182719Y6123686D01*
X4189425Y6137198D01*
X4194098Y6150508D01*
X4196283Y6154064D01*
X4199636Y6156452D01*
X4203700Y6157264D01*
X4207764Y6156452D01*
X4211116Y6154064D01*
X4213301Y6150508D01*
X4217974Y6137198D01*
X4224680Y6123686D01*
X4233011Y6111138D01*
X4242816Y6099708D01*
X4253941Y6089548D01*
X4266234Y6080810D01*
X4279544Y6073698D01*
X4293616Y6068263D01*
X4308195Y6064554D01*
X4323181Y6062726D01*
X4338218Y6062726D01*
X4353204Y6064554D01*
X4367784Y6068263D01*
X4381855Y6073698D01*
X4395165Y6080810D01*
X4407458Y6089548D01*
X4418584Y6099708D01*
X4428388Y6111138D01*
X4436719Y6123686D01*
X4443425Y6137198D01*
X4448098Y6150508D01*
X4450283Y6154064D01*
X4453636Y6156452D01*
X4457700Y6157264D01*
X4461764Y6156452D01*
X4465116Y6154064D01*
X4467301Y6150508D01*
X4471974Y6137198D01*
X4478680Y6123686D01*
X4487011Y6111138D01*
X4496816Y6099708D01*
X4507941Y6089548D01*
X4520285Y6080810D01*
X4533544Y6073698D01*
X4547616Y6068263D01*
X4562195Y6064554D01*
X4577181Y6062726D01*
X4592218Y6062726D01*
X4607204Y6064554D01*
X4621784Y6068263D01*
X4635855Y6073698D01*
X4649165Y6080810D01*
X4661458Y6089548D01*
X4672584Y6099708D01*
X4682388Y6111138D01*
X4690719Y6123686D01*
X4697425Y6137198D01*
X4702098Y6150508D01*
X4704283Y6154064D01*
X4707636Y6156452D01*
X4711700Y6157264D01*
X4715764Y6156452D01*
X4719116Y6154064D01*
X4721301Y6150508D01*
X4725974Y6137198D01*
X4732680Y6123686D01*
X4741011Y6111138D01*
X4750816Y6099708D01*
X4761941Y6089548D01*
X4774285Y6080810D01*
X4787544Y6073698D01*
X4801616Y6068263D01*
X4816195Y6064554D01*
X4831181Y6062726D01*
X4846218Y6062726D01*
X4861204Y6064554D01*
X4875784Y6068263D01*
X4889855Y6073698D01*
X4903165Y6080810D01*
X4915458Y6089548D01*
X4926584Y6099708D01*
X4936388Y6111138D01*
X4944719Y6123686D01*
X4951425Y6137198D01*
X4956454Y6151422D01*
X4959654Y6166104D01*
X4961026Y6181140D01*
X4960569Y6196177D01*
X4958283Y6211062D01*
X4954168Y6225590D01*
X4948275Y6239459D01*
X4940757Y6252514D01*
X4931664Y6264554D01*
X4921148Y6275374D01*
X4909413Y6284823D01*
X4896612Y6292748D01*
X4882896Y6299047D01*
X4868570Y6303619D01*
X4853736Y6306362D01*
X4838700Y6307328D01*
X4823663Y6306362D01*
X4808829Y6303619D01*
X4794504Y6299047D01*
X4780788Y6292748D01*
X4767986Y6284823D01*
X4756251Y6275374D01*
X4745736Y6264554D01*
X4736642Y6252514D01*
X4729124Y6239459D01*
X4723231Y6225590D01*
X4721453Y6219342D01*
X4719421Y6215481D01*
X4715967Y6212890D01*
X4711700Y6211976D01*
X4707432Y6212890D01*
X4703978Y6215481D01*
X4701946Y6219342D01*
X4700168Y6225590D01*
X4694275Y6239459D01*
X4686757Y6252514D01*
X4677664Y6264554D01*
X4667148Y6275374D01*
X4655413Y6284823D01*
X4642612Y6292748D01*
X4628896Y6299047D01*
X4614570Y6303619D01*
X4599736Y6306362D01*
X4584700Y6307328D01*
X4569663Y6306362D01*
X4554829Y6303619D01*
X4540504Y6299047D01*
X4526788Y6292748D01*
X4513986Y6284823D01*
X4502251Y6275374D01*
X4491736Y6264554D01*
X4482642Y6252514D01*
X4475124Y6239459D01*
X4469231Y6225590D01*
X4467453Y6219342D01*
X4465421Y6215481D01*
X4461967Y6212890D01*
X4457700Y6211976D01*
X4453432Y6212890D01*
X4449978Y6215481D01*
X4447946Y6219342D01*
X4446168Y6225590D01*
X4440275Y6239459D01*
X4432757Y6252514D01*
X4423664Y6264554D01*
X4413148Y6275374D01*
X4401413Y6284823D01*
X4388612Y6292748D01*
X4374896Y6299047D01*
X4360570Y6303619D01*
X4345736Y6306362D01*
X4330700Y6307328D01*
X4315663Y6306362D01*
X4300829Y6303619D01*
X4286504Y6299047D01*
X4272788Y6292748D01*
X4259986Y6284823D01*
X4248251Y6275374D01*
X4237736Y6264554D01*
X4228642Y6252514D01*
X4221124Y6239459D01*
X4215231Y6225590D01*
X4213453Y6219342D01*
X4211421Y6215481D01*
X4207967Y6212890D01*
X4203700Y6211976D01*
X4199432Y6212890D01*
X4195978Y6215481D01*
X4193946Y6219342D01*
X4192168Y6225590D01*
X4186275Y6239459D01*
X4178757Y6252514D01*
X4169664Y6264554D01*
X4159148Y6275374D01*
X4147413Y6284823D01*
X4134612Y6292748D01*
X4120896Y6299047D01*
X4106570Y6303619D01*
X4091736Y6306362D01*
X4076700Y6307328D01*
X4061663Y6306362D01*
X4046829Y6303619D01*
X4032504Y6299047D01*
X4018787Y6292748D01*
X4005986Y6284823D01*
X3994251Y6275374D01*
X3983736Y6264554D01*
X3974642Y6252514D01*
X3967124Y6239459D01*
X3961231Y6225590D01*
X3959453Y6219342D01*
X3957421Y6215481D01*
X3953967Y6212890D01*
X3949700Y6211976D01*
X3945432Y6212890D01*
X3941978Y6215481D01*
X3939946Y6219342D01*
X3938168Y6225590D01*
X3932275Y6239459D01*
X3924757Y6252514D01*
X3915664Y6264554D01*
X3905148Y6275374D01*
X3893413Y6284823D01*
X3880612Y6292748D01*
X3866896Y6299047D01*
X3852570Y6303619D01*
X3837736Y6306362D01*
X3822700Y6307328D01*
X3807663Y6306362D01*
X3792829Y6303619D01*
X3778504Y6299047D01*
X3764787Y6292748D01*
X3751986Y6284823D01*
X3740251Y6275374D01*
X3729736Y6264554D01*
X3720642Y6252514D01*
X3713124Y6239459D01*
X3707231Y6225590D01*
X3705453Y6219342D01*
X3703421Y6215481D01*
X3699967Y6212890D01*
X3695700Y6211976D01*
X3691432Y6212890D01*
X3687978Y6215481D01*
X3685946Y6219342D01*
X3684168Y6225590D01*
X3678275Y6239459D01*
X3670757Y6252514D01*
X3661664Y6264554D01*
X3651148Y6275374D01*
X3639413Y6284823D01*
X3626612Y6292748D01*
X3612896Y6299047D01*
X3598570Y6303619D01*
X3583736Y6306362D01*
X3568700Y6307328D01*
X3553663Y6306362D01*
X3538829Y6303619D01*
X3524504Y6299047D01*
X3510787Y6292748D01*
X3497986Y6284823D01*
X3486251Y6275374D01*
X3475736Y6264554D01*
X3466642Y6252514D01*
X3459124Y6239459D01*
X3453231Y6225590D01*
X3451453Y6219342D01*
X3449421Y6215481D01*
X3445967Y6212890D01*
X3441700Y6211976D01*
X3437432Y6212890D01*
X3433978Y6215481D01*
X3431946Y6219342D01*
X3430168Y6225590D01*
X3424275Y6239459D01*
X3416757Y6252514D01*
X3407664Y6264554D01*
X3397148Y6275374D01*
X3385413Y6284823D01*
X3372612Y6292748D01*
X3358896Y6299047D01*
X3344570Y6303619D01*
X3329736Y6306362D01*
X3314700Y6307328D01*
X3299663Y6306362D01*
X3284829Y6303619D01*
X3270503Y6299047D01*
X3256788Y6292748D01*
X3243986Y6284823D01*
X3232251Y6275374D01*
X3221736Y6264554D01*
X3212642Y6252514D01*
X3205124Y6239459D01*
X3199231Y6225590D01*
X3195116Y6211062D01*
X3192830Y6196177D01*
X3192373Y6181140D01*
X3193745Y6166104D01*
X3196945Y6151422D01*
X3201974Y6137198D01*
X3208680Y6123686D01*
X3217011Y6111138D01*
X3226816Y6099708D01*
X3237941Y6089548D01*
X3250234Y6080810D01*
X3263544Y6073698D01*
X3277615Y6068263D01*
X3292195Y6064554D01*
G37*
G36*
X5038090Y6075527D02*
G01*
X5038090Y6130290D01*
X4983429Y6130290D01*
X4986680Y6123686D01*
X4995011Y6111138D01*
X5004816Y6099708D01*
X5015941Y6089548D01*
X5028285Y6080810D01*
G37*
G36*
X3115310Y6075527D02*
G01*
X3125165Y6080810D01*
X3137458Y6089548D01*
X3148584Y6099708D01*
X3158388Y6111138D01*
X3166719Y6123686D01*
X3169970Y6130290D01*
X3115310Y6130290D01*
G37*
G36*
X6054090Y6075527D02*
G01*
X6054090Y6130290D01*
X5999429Y6130290D01*
X6002680Y6123686D01*
X6011011Y6111138D01*
X6020816Y6099708D01*
X6031941Y6089548D01*
X6044285Y6080810D01*
G37*
G36*
X5147310Y6075527D02*
G01*
X5157165Y6080810D01*
X5169458Y6089548D01*
X5180584Y6099708D01*
X5190388Y6111138D01*
X5198719Y6123686D01*
X5201970Y6130290D01*
X5147310Y6130290D01*
G37*
G36*
X3006090Y6075527D02*
G01*
X3006090Y6130290D01*
X2951429Y6130290D01*
X2954680Y6123686D01*
X2963011Y6111138D01*
X2972816Y6099708D01*
X2983941Y6089548D01*
X2996234Y6080810D01*
G37*
G36*
X6163310Y6075527D02*
G01*
X6173165Y6080810D01*
X6185458Y6089548D01*
X6196584Y6099708D01*
X6206388Y6111138D01*
X6214719Y6123686D01*
X6217970Y6130290D01*
X6163310Y6130290D01*
G37*
G36*
X6734302Y6126226D02*
G01*
X6753098Y6126226D01*
X6771843Y6128156D01*
X6790283Y6131966D01*
X6808266Y6137605D01*
X6825589Y6145022D01*
X6842048Y6154166D01*
X6857492Y6164884D01*
X6871766Y6177178D01*
X6884720Y6190792D01*
X6896252Y6205728D01*
X6906209Y6221679D01*
X6914540Y6238595D01*
X6921042Y6256274D01*
X6925767Y6274460D01*
X6928612Y6293104D01*
X6929577Y6311900D01*
X6928612Y6330696D01*
X6925767Y6349339D01*
X6921042Y6367526D01*
X6914540Y6385204D01*
X6906209Y6402120D01*
X6896252Y6418072D01*
X6884720Y6433007D01*
X6871766Y6446621D01*
X6857492Y6458915D01*
X6842048Y6469634D01*
X6825589Y6478778D01*
X6808266Y6486194D01*
X6790283Y6491833D01*
X6771843Y6495643D01*
X6753098Y6497574D01*
X6734302Y6497574D01*
X6715556Y6495643D01*
X6697116Y6491833D01*
X6679133Y6486194D01*
X6661810Y6478778D01*
X6645351Y6469634D01*
X6629908Y6458915D01*
X6615633Y6446621D01*
X6602679Y6433007D01*
X6591147Y6418072D01*
X6581190Y6402120D01*
X6572859Y6385204D01*
X6566357Y6367526D01*
X6561632Y6349339D01*
X6558788Y6330696D01*
X6557822Y6311900D01*
X6558788Y6293104D01*
X6561632Y6274460D01*
X6566357Y6256274D01*
X6572859Y6238595D01*
X6581190Y6221679D01*
X6591147Y6205728D01*
X6602679Y6190792D01*
X6615633Y6177178D01*
X6629908Y6164884D01*
X6645351Y6154166D01*
X6661810Y6145022D01*
X6679133Y6137605D01*
X6697116Y6131966D01*
X6715556Y6128156D01*
G37*
G36*
X2416302Y6126226D02*
G01*
X2435098Y6126226D01*
X2453843Y6128156D01*
X2472283Y6131966D01*
X2490266Y6137605D01*
X2507589Y6145022D01*
X2524048Y6154166D01*
X2539492Y6164884D01*
X2553766Y6177178D01*
X2566720Y6190792D01*
X2578252Y6205728D01*
X2588209Y6221679D01*
X2596540Y6238595D01*
X2603042Y6256274D01*
X2607767Y6274460D01*
X2610612Y6293104D01*
X2611577Y6311900D01*
X2610612Y6330696D01*
X2607767Y6349339D01*
X2603042Y6367526D01*
X2596540Y6385204D01*
X2588209Y6402120D01*
X2578252Y6418072D01*
X2566720Y6433007D01*
X2553766Y6446621D01*
X2539492Y6458915D01*
X2524048Y6469634D01*
X2507589Y6478778D01*
X2490266Y6486194D01*
X2472283Y6491833D01*
X2453843Y6495643D01*
X2435098Y6497574D01*
X2416302Y6497574D01*
X2397556Y6495643D01*
X2379116Y6491833D01*
X2361133Y6486194D01*
X2343810Y6478778D01*
X2327351Y6469634D01*
X2311908Y6458915D01*
X2297633Y6446621D01*
X2284679Y6433007D01*
X2273147Y6418072D01*
X2263190Y6402120D01*
X2254859Y6385204D01*
X2248357Y6367526D01*
X2243632Y6349339D01*
X2240788Y6330696D01*
X2239822Y6311900D01*
X2240788Y6293104D01*
X2243632Y6274460D01*
X2248357Y6256274D01*
X2254859Y6238595D01*
X2263190Y6221679D01*
X2273147Y6205728D01*
X2284679Y6190792D01*
X2297633Y6177178D01*
X2311908Y6164884D01*
X2327351Y6154166D01*
X2343810Y6145022D01*
X2361133Y6137605D01*
X2379116Y6131966D01*
X2397556Y6128156D01*
G37*
G36*
X4983175Y6239510D02*
G01*
X5038090Y6239510D01*
X5038090Y6294272D01*
X5034788Y6292748D01*
X5021986Y6284823D01*
X5010251Y6275374D01*
X4999736Y6264554D01*
X4990642Y6252514D01*
G37*
G36*
X3115310Y6239510D02*
G01*
X3170224Y6239510D01*
X3162757Y6252514D01*
X3153664Y6264554D01*
X3143148Y6275374D01*
X3131413Y6284823D01*
X3118612Y6292748D01*
X3115310Y6294272D01*
G37*
G36*
X5999175Y6239510D02*
G01*
X6054090Y6239510D01*
X6054090Y6294272D01*
X6050788Y6292748D01*
X6037986Y6284823D01*
X6026251Y6275374D01*
X6015736Y6264554D01*
X6006642Y6252514D01*
G37*
G36*
X5147310Y6239510D02*
G01*
X5202224Y6239510D01*
X5194757Y6252514D01*
X5185664Y6264554D01*
X5175148Y6275374D01*
X5163413Y6284823D01*
X5150612Y6292748D01*
X5147310Y6294272D01*
G37*
G36*
X6163310Y6239510D02*
G01*
X6218224Y6239510D01*
X6210757Y6252514D01*
X6201664Y6264554D01*
X6191148Y6275374D01*
X6179413Y6284823D01*
X6166612Y6292748D01*
X6163310Y6294272D01*
G37*
G36*
X2951175Y6239510D02*
G01*
X3006090Y6239510D01*
X3006090Y6294272D01*
X3002788Y6292748D01*
X2989986Y6284823D01*
X2978251Y6275374D01*
X2967736Y6264554D01*
X2958642Y6252514D01*
G37*
G36*
X1105662Y6374739D02*
G01*
X1109472Y6376416D01*
X1120241Y6383121D01*
X1129944Y6391300D01*
X1138428Y6400698D01*
X1145540Y6411214D01*
X1148740Y6417818D01*
X1105662Y6417818D01*
G37*
G36*
X1027937Y6374739D02*
G01*
X1027937Y6417818D01*
X984859Y6417818D01*
X988060Y6411214D01*
X995171Y6400698D01*
X1003655Y6391300D01*
X1013358Y6383121D01*
X1024128Y6376416D01*
G37*
G36*
X1105662Y6495542D02*
G01*
X1148892Y6495542D01*
X1142187Y6507530D01*
X1134364Y6517487D01*
X1125220Y6526326D01*
X1114958Y6533794D01*
X1105662Y6538722D01*
G37*
G36*
X984707Y6495542D02*
G01*
X1027937Y6495542D01*
X1027937Y6538722D01*
X1018641Y6533794D01*
X1008380Y6526326D01*
X999236Y6517487D01*
X991412Y6507530D01*
G37*
G36*
X6365544Y6578955D02*
G01*
X6376822Y6580225D01*
X6387744Y6583172D01*
X6398158Y6587693D01*
X6407759Y6593738D01*
X6416649Y6601409D01*
X7192924Y7377734D01*
X7199985Y7386574D01*
X7204608Y7394194D01*
X7205725Y7396378D01*
X7209129Y7404608D01*
X7209891Y7406944D01*
X7212025Y7415580D01*
X7212431Y7418019D01*
X7213244Y7426858D01*
X7213295Y8788044D01*
X7212431Y8799728D01*
X7209891Y8810752D01*
X7205776Y8821318D01*
X7200138Y8831122D01*
X7192060Y8841028D01*
X7183374Y8848750D01*
X7173671Y8855049D01*
X7162952Y8859824D01*
X7154062Y8862466D01*
X7142886Y8864092D01*
X7140498Y8864244D01*
X7131558Y8864092D01*
X7128865Y8863838D01*
X7120331Y8862364D01*
X7117435Y8861653D01*
X7109510Y8859012D01*
X7106462Y8857742D01*
X7099350Y8854084D01*
X7096252Y8852154D01*
X7090003Y8847683D01*
X7086955Y8845143D01*
X7081672Y8839962D01*
X7078878Y8836761D01*
X7074662Y8831072D01*
X7072172Y8827262D01*
X7068972Y8821267D01*
X7067042Y8816797D01*
X7064857Y8810752D01*
X7063486Y8805722D01*
X7062368Y8799677D01*
X7061708Y8794242D01*
X7061504Y8788196D01*
X7061504Y7465161D01*
X7060742Y7461250D01*
X7058507Y7457948D01*
X6309207Y6708648D01*
X6304076Y6703009D01*
X6301689Y6699961D01*
X6297371Y6693458D01*
X6295644Y6690359D01*
X6292240Y6683044D01*
X6291122Y6679996D01*
X6288735Y6671919D01*
X6288176Y6669074D01*
X6287008Y6660438D01*
X6286855Y6657848D01*
X6287262Y6646570D01*
X6289395Y6635140D01*
X6293154Y6624472D01*
X6298438Y6614414D01*
X6305194Y6605270D01*
X6312154Y6598208D01*
X6321450Y6591096D01*
X6331661Y6585559D01*
X6342583Y6581648D01*
X6354013Y6579412D01*
G37*
G36*
X5362498Y6604355D02*
G01*
X5364784Y6604508D01*
X5376265Y6606235D01*
X5387136Y6609588D01*
X5397347Y6614464D01*
X5406694Y6620865D01*
X5415026Y6628638D01*
X5421426Y6636512D01*
X5427421Y6646519D01*
X5431739Y6657289D01*
X5434380Y6668617D01*
X5435295Y6680606D01*
X5435295Y6758838D01*
X5436057Y6762750D01*
X5438292Y6766052D01*
X6416344Y7744104D01*
X6424777Y7754162D01*
X6430721Y7764221D01*
X6434429Y7772958D01*
X6437325Y7783880D01*
X6438544Y7795158D01*
X6438595Y7797596D01*
X6438087Y7806486D01*
X6437731Y7809230D01*
X6435953Y7817612D01*
X6435090Y7820558D01*
X6432194Y7828280D01*
X6430772Y7831378D01*
X6426911Y7838287D01*
X6424828Y7841386D01*
X6420154Y7847380D01*
X6417462Y7850378D01*
X6412128Y7855407D01*
X6408775Y7858099D01*
X6403035Y7862112D01*
X6399022Y7864449D01*
X6393027Y7867396D01*
X6388404Y7869224D01*
X6382308Y7871104D01*
X6377178Y7872323D01*
X6371183Y7873238D01*
X6365595Y7873644D01*
X6359855Y7873644D01*
X6353962Y7873187D01*
X6348628Y7872374D01*
X6342532Y7871002D01*
X6337655Y7869478D01*
X6331610Y7867040D01*
X6327292Y7864957D01*
X6321399Y7861452D01*
X6317691Y7858912D01*
X6312154Y7854391D01*
X6308902Y7851394D01*
X5807964Y7350455D01*
X5804712Y7348220D01*
X5800801Y7347458D01*
X5387898Y7347458D01*
X5383987Y7348220D01*
X5380736Y7350455D01*
X5106365Y7624724D01*
X5097526Y7631785D01*
X5089906Y7636408D01*
X5087721Y7637525D01*
X5079492Y7640929D01*
X5077155Y7641691D01*
X5068519Y7643825D01*
X5066080Y7644231D01*
X5057241Y7645044D01*
X4328261Y7645095D01*
X4324350Y7645857D01*
X4321048Y7648092D01*
X4130598Y7838541D01*
X4122724Y7845399D01*
X4112971Y7851749D01*
X4102354Y7856524D01*
X4091127Y7859572D01*
X4079595Y7860944D01*
X4068216Y7860487D01*
X4057040Y7858404D01*
X4046372Y7854645D01*
X4036364Y7849362D01*
X4026204Y7841742D01*
X4018178Y7833359D01*
X4011472Y7823860D01*
X4006291Y7813395D01*
X4002836Y7802625D01*
X4001262Y7793380D01*
X4000855Y7782052D01*
X4001008Y7779461D01*
X4002176Y7770825D01*
X4002735Y7767980D01*
X4005122Y7759903D01*
X4006240Y7756855D01*
X4009644Y7749540D01*
X4011371Y7746441D01*
X4015689Y7739938D01*
X4018076Y7736890D01*
X4023207Y7731252D01*
X4240834Y7513675D01*
X4249674Y7506614D01*
X4257294Y7501991D01*
X4259478Y7500874D01*
X4267708Y7497470D01*
X4270044Y7496708D01*
X4278680Y7494574D01*
X4281119Y7494168D01*
X4289958Y7493355D01*
X5018938Y7493304D01*
X5022850Y7492542D01*
X5026152Y7490307D01*
X5280507Y7235952D01*
X5282742Y7232650D01*
X5283504Y7228738D01*
X5283504Y6680403D01*
X5283708Y6674358D01*
X5284368Y6668922D01*
X5285486Y6662877D01*
X5286857Y6657848D01*
X5289042Y6651802D01*
X5290972Y6647332D01*
X5294172Y6641338D01*
X5296662Y6637528D01*
X5300878Y6631838D01*
X5303672Y6628638D01*
X5308955Y6623456D01*
X5312003Y6620916D01*
X5318252Y6616446D01*
X5321350Y6614515D01*
X5328462Y6610858D01*
X5331510Y6609588D01*
X5339435Y6606946D01*
X5342331Y6606235D01*
X5350865Y6604762D01*
X5353558Y6604508D01*
G37*
G36*
X7416800Y6943852D02*
G01*
X7430465Y6944766D01*
X7443876Y6947458D01*
X7456830Y6951827D01*
X7469124Y6957872D01*
X7480503Y6965492D01*
X7490764Y6974535D01*
X7499807Y6984796D01*
X7507427Y6996175D01*
X7513472Y7008469D01*
X7517841Y7021423D01*
X7520533Y7034834D01*
X7521448Y7048500D01*
X7520533Y7062165D01*
X7517841Y7075576D01*
X7513472Y7088530D01*
X7507427Y7100824D01*
X7499807Y7112203D01*
X7490764Y7122464D01*
X7480503Y7131507D01*
X7469124Y7139127D01*
X7456830Y7145172D01*
X7443876Y7149541D01*
X7430465Y7152233D01*
X7416800Y7153148D01*
X7403134Y7152233D01*
X7389723Y7149541D01*
X7376769Y7145172D01*
X7364475Y7139127D01*
X7353096Y7131507D01*
X7342835Y7122464D01*
X7333792Y7112203D01*
X7326172Y7100824D01*
X7320127Y7088530D01*
X7315758Y7075576D01*
X7313066Y7062165D01*
X7312152Y7048500D01*
X7313066Y7034834D01*
X7315758Y7021423D01*
X7320127Y7008469D01*
X7326172Y6996175D01*
X7333792Y6984796D01*
X7342835Y6974535D01*
X7353096Y6965492D01*
X7364475Y6957872D01*
X7376769Y6951827D01*
X7389723Y6947458D01*
X7403134Y6944766D01*
G37*
G36*
X1060450Y7016242D02*
G01*
X1073150Y7016242D01*
X1085697Y7018020D01*
X1097889Y7021474D01*
X1109472Y7026656D01*
X1120241Y7033361D01*
X1129944Y7041540D01*
X1138428Y7050938D01*
X1145540Y7061453D01*
X1151077Y7072884D01*
X1154988Y7084923D01*
X1157224Y7097420D01*
X1157630Y7110069D01*
X1156309Y7122718D01*
X1153261Y7135012D01*
X1148486Y7146747D01*
X1142187Y7157770D01*
X1134364Y7167727D01*
X1125220Y7176566D01*
X1114958Y7184034D01*
X1103782Y7189978D01*
X1091844Y7194296D01*
X1079449Y7196937D01*
X1066800Y7197852D01*
X1054150Y7196937D01*
X1041755Y7194296D01*
X1029817Y7189978D01*
X1018641Y7184034D01*
X1008380Y7176566D01*
X999236Y7167727D01*
X991412Y7157770D01*
X985113Y7146747D01*
X980338Y7135012D01*
X977290Y7122718D01*
X975969Y7110069D01*
X976376Y7097420D01*
X978611Y7084923D01*
X982522Y7072884D01*
X988060Y7061453D01*
X995171Y7050938D01*
X1003655Y7041540D01*
X1013358Y7033361D01*
X1024128Y7026656D01*
X1035710Y7021474D01*
X1047902Y7018020D01*
G37*
G36*
X7416800Y7197852D02*
G01*
X7430465Y7198766D01*
X7443876Y7201458D01*
X7456830Y7205827D01*
X7469124Y7211872D01*
X7480503Y7219492D01*
X7490764Y7228535D01*
X7499807Y7238796D01*
X7507427Y7250175D01*
X7513472Y7262469D01*
X7517841Y7275423D01*
X7520533Y7288834D01*
X7521448Y7302500D01*
X7520533Y7316165D01*
X7517841Y7329576D01*
X7513472Y7342530D01*
X7507427Y7354824D01*
X7499807Y7366203D01*
X7490764Y7376464D01*
X7480503Y7385507D01*
X7469124Y7393127D01*
X7456830Y7399172D01*
X7443876Y7403541D01*
X7430465Y7406233D01*
X7416800Y7407148D01*
X7403134Y7406233D01*
X7389723Y7403541D01*
X7376769Y7399172D01*
X7364475Y7393127D01*
X7353096Y7385507D01*
X7342835Y7376464D01*
X7333792Y7366203D01*
X7326172Y7354824D01*
X7320127Y7342530D01*
X7315758Y7329576D01*
X7313066Y7316165D01*
X7312152Y7302500D01*
X7313066Y7288834D01*
X7315758Y7275423D01*
X7320127Y7262469D01*
X7326172Y7250175D01*
X7333792Y7238796D01*
X7342835Y7228535D01*
X7353096Y7219492D01*
X7364475Y7211872D01*
X7376769Y7205827D01*
X7389723Y7201458D01*
X7403134Y7198766D01*
G37*
G36*
X1069644Y7379055D02*
G01*
X1080922Y7380325D01*
X1091844Y7383272D01*
X1102258Y7387793D01*
X1111859Y7393838D01*
X1120749Y7401509D01*
X1209548Y7490307D01*
X1212850Y7492542D01*
X1216761Y7493304D01*
X1419504Y7493304D01*
X1423111Y7492644D01*
X1426260Y7490714D01*
X1428496Y7487818D01*
X1429613Y7484262D01*
X1430274Y7478420D01*
X1432153Y7472934D01*
X1435252Y7468057D01*
X1439316Y7463942D01*
X1444244Y7460843D01*
X1449679Y7458964D01*
X1456029Y7458252D01*
X1575612Y7458252D01*
X1581962Y7458964D01*
X1587398Y7460843D01*
X1592326Y7463942D01*
X1596390Y7468057D01*
X1599488Y7472934D01*
X1601419Y7478420D01*
X1602130Y7484719D01*
X1602130Y7653680D01*
X1601419Y7659979D01*
X1599488Y7665466D01*
X1596390Y7670342D01*
X1592326Y7674457D01*
X1587398Y7677556D01*
X1581962Y7679436D01*
X1575612Y7680147D01*
X1456029Y7680147D01*
X1449679Y7679436D01*
X1444244Y7677556D01*
X1439316Y7674457D01*
X1435252Y7670342D01*
X1432153Y7665466D01*
X1430274Y7659979D01*
X1429613Y7654137D01*
X1428496Y7650581D01*
X1426260Y7647686D01*
X1423111Y7645755D01*
X1419504Y7645095D01*
X1178458Y7645044D01*
X1169619Y7644231D01*
X1167180Y7643825D01*
X1158544Y7641691D01*
X1156208Y7640929D01*
X1147978Y7637525D01*
X1145794Y7636408D01*
X1138174Y7631785D01*
X1129334Y7624724D01*
X1013307Y7508748D01*
X1008176Y7503109D01*
X1005789Y7500061D01*
X1001471Y7493558D01*
X999744Y7490459D01*
X996340Y7483144D01*
X995222Y7480096D01*
X992835Y7472019D01*
X992276Y7469174D01*
X991108Y7460538D01*
X990955Y7457948D01*
X991362Y7446670D01*
X993495Y7435240D01*
X997254Y7424572D01*
X1002537Y7414514D01*
X1009294Y7405370D01*
X1016253Y7398308D01*
X1025550Y7391196D01*
X1035761Y7385659D01*
X1046683Y7381748D01*
X1058113Y7379512D01*
G37*
G36*
X1751787Y7458252D02*
G01*
X1871370Y7458252D01*
X1877720Y7458964D01*
X1883156Y7460843D01*
X1888083Y7463942D01*
X1892147Y7468057D01*
X1895246Y7472934D01*
X1897125Y7478420D01*
X1897786Y7484262D01*
X1898904Y7487818D01*
X1901139Y7490714D01*
X1904288Y7492644D01*
X1907895Y7493304D01*
X2834843Y7493355D01*
X2843580Y7494168D01*
X2846374Y7494676D01*
X2854604Y7496708D01*
X2857601Y7497724D01*
X2865170Y7500874D01*
X2868269Y7502448D01*
X2874975Y7506563D01*
X2878023Y7508748D01*
X2883814Y7513624D01*
X2886710Y7516520D01*
X2891485Y7521956D01*
X2894126Y7525461D01*
X2897886Y7531303D01*
X2900070Y7535468D01*
X2902762Y7541514D01*
X2904439Y7546238D01*
X2906115Y7552334D01*
X2907131Y7557617D01*
X2907792Y7563561D01*
X2907995Y7569200D01*
X2907792Y7574838D01*
X2907131Y7580782D01*
X2906115Y7586065D01*
X2904439Y7592110D01*
X2902762Y7596886D01*
X2900070Y7602931D01*
X2897886Y7607096D01*
X2894126Y7612938D01*
X2891485Y7616444D01*
X2886710Y7621879D01*
X2883814Y7624775D01*
X2878023Y7629652D01*
X2874975Y7631836D01*
X2868269Y7635951D01*
X2865170Y7637525D01*
X2857601Y7640675D01*
X2854604Y7641691D01*
X2846374Y7643723D01*
X2843580Y7644231D01*
X2834843Y7645044D01*
X1907895Y7645095D01*
X1904288Y7645755D01*
X1901139Y7647686D01*
X1898904Y7650581D01*
X1897786Y7654137D01*
X1897125Y7659979D01*
X1895246Y7665466D01*
X1892147Y7670342D01*
X1888083Y7674457D01*
X1883156Y7677556D01*
X1877720Y7679436D01*
X1871370Y7680147D01*
X1751787Y7680147D01*
X1745437Y7679436D01*
X1740001Y7677556D01*
X1735074Y7674457D01*
X1731010Y7670342D01*
X1727911Y7665466D01*
X1725980Y7659979D01*
X1725269Y7653680D01*
X1725269Y7484719D01*
X1725980Y7478420D01*
X1727911Y7472934D01*
X1731010Y7468057D01*
X1735074Y7463942D01*
X1740001Y7460843D01*
X1745437Y7458964D01*
G37*
G36*
X7462520Y7462621D02*
G01*
X7469124Y7465872D01*
X7480503Y7473492D01*
X7490764Y7482535D01*
X7499807Y7492796D01*
X7507427Y7504175D01*
X7510678Y7510780D01*
X7462520Y7510780D01*
G37*
G36*
X7371080Y7462621D02*
G01*
X7371080Y7510780D01*
X7322921Y7510780D01*
X7326172Y7504175D01*
X7333792Y7492796D01*
X7342835Y7482535D01*
X7353096Y7473492D01*
X7364475Y7465872D01*
G37*
G36*
X7322921Y7602220D02*
G01*
X7371080Y7602220D01*
X7371080Y7650378D01*
X7364475Y7647127D01*
X7353096Y7639507D01*
X7342835Y7630464D01*
X7333792Y7620203D01*
X7326172Y7608824D01*
G37*
G36*
X7462520Y7602220D02*
G01*
X7510678Y7602220D01*
X7507427Y7608824D01*
X7499807Y7620203D01*
X7490764Y7630464D01*
X7480503Y7639507D01*
X7469124Y7647127D01*
X7462520Y7650378D01*
G37*
G36*
X7338618Y7705852D02*
G01*
X7494981Y7705852D01*
X7501280Y7706563D01*
X7506766Y7708493D01*
X7511643Y7711541D01*
X7515758Y7715656D01*
X7518806Y7720533D01*
X7520736Y7726019D01*
X7521448Y7732318D01*
X7521448Y7888681D01*
X7520736Y7894980D01*
X7518806Y7900466D01*
X7515758Y7905343D01*
X7511643Y7909458D01*
X7506766Y7912506D01*
X7501280Y7914436D01*
X7494981Y7915148D01*
X7338618Y7915148D01*
X7332319Y7914436D01*
X7326833Y7912506D01*
X7321956Y7909458D01*
X7317841Y7905343D01*
X7314793Y7900466D01*
X7312863Y7894980D01*
X7312152Y7888681D01*
X7312152Y7732318D01*
X7312863Y7726019D01*
X7314793Y7720533D01*
X7317841Y7715656D01*
X7321956Y7711541D01*
X7326833Y7708493D01*
X7332319Y7706563D01*
G37*
G36*
X911148Y7927390D02*
G01*
X911148Y7972348D01*
X866190Y7972348D01*
X867359Y7969605D01*
X874166Y7958429D01*
X882446Y7948269D01*
X891997Y7939328D01*
X902665Y7931759D01*
G37*
G36*
X993851Y7927390D02*
G01*
X1002334Y7931759D01*
X1013002Y7939328D01*
X1022553Y7948269D01*
X1030833Y7958429D01*
X1037640Y7969605D01*
X1038809Y7972348D01*
X993851Y7972348D01*
G37*
G36*
X1668119Y7931962D02*
G01*
X1837080Y7931962D01*
X1843379Y7932674D01*
X1848866Y7934553D01*
X1854098Y7937398D01*
X1856943Y7937804D01*
X4485843Y7937855D01*
X4494580Y7938668D01*
X4497374Y7939176D01*
X4505604Y7941208D01*
X4508601Y7942224D01*
X4516170Y7945374D01*
X4519269Y7946948D01*
X4525975Y7951063D01*
X4529023Y7953248D01*
X4534814Y7958124D01*
X4537710Y7961020D01*
X4542485Y7966456D01*
X4545126Y7969961D01*
X4548886Y7975803D01*
X4551070Y7979968D01*
X4553762Y7986014D01*
X4555439Y7990738D01*
X4557115Y7996834D01*
X4558131Y8002117D01*
X4558792Y8008061D01*
X4558995Y8013700D01*
X4558792Y8019338D01*
X4558131Y8025282D01*
X4557115Y8030565D01*
X4555439Y8036610D01*
X4553762Y8041386D01*
X4551070Y8047431D01*
X4548886Y8051596D01*
X4545126Y8057438D01*
X4542485Y8060944D01*
X4537710Y8066379D01*
X4534814Y8069275D01*
X4529023Y8074152D01*
X4525975Y8076336D01*
X4519269Y8080451D01*
X4516170Y8082025D01*
X4508601Y8085175D01*
X4505604Y8086191D01*
X4497374Y8088223D01*
X4494580Y8088731D01*
X4485843Y8089544D01*
X1866696Y8089595D01*
X1863343Y8090153D01*
X1860346Y8091830D01*
X1857857Y8094725D01*
X1853742Y8098790D01*
X1848866Y8101888D01*
X1843379Y8103819D01*
X1837080Y8104530D01*
X1668119Y8104530D01*
X1661820Y8103819D01*
X1656334Y8101888D01*
X1651457Y8098790D01*
X1647342Y8094725D01*
X1644243Y8089798D01*
X1642364Y8084362D01*
X1641652Y8078012D01*
X1641652Y7958429D01*
X1642364Y7952079D01*
X1644243Y7946644D01*
X1647342Y7941716D01*
X1651457Y7937652D01*
X1656334Y7934553D01*
X1661820Y7932674D01*
G37*
G36*
X993851Y8055051D02*
G01*
X1038809Y8055051D01*
X1037640Y8057794D01*
X1030833Y8068970D01*
X1022553Y8079130D01*
X1013002Y8088071D01*
X1002334Y8095640D01*
X993851Y8100009D01*
G37*
G36*
X866190Y8055051D02*
G01*
X911148Y8055051D01*
X911148Y8100009D01*
X902665Y8095640D01*
X891997Y8088071D01*
X882446Y8079130D01*
X874166Y8068970D01*
X867359Y8057794D01*
G37*
G36*
X2416302Y8158225D02*
G01*
X2435098Y8158225D01*
X2453843Y8160156D01*
X2472283Y8163966D01*
X2490266Y8169605D01*
X2507589Y8177022D01*
X2524048Y8186166D01*
X2539492Y8196884D01*
X2553766Y8209178D01*
X2566720Y8222792D01*
X2578252Y8237728D01*
X2588209Y8253679D01*
X2596540Y8270595D01*
X2603042Y8288274D01*
X2607767Y8306460D01*
X2610612Y8325103D01*
X2611577Y8343900D01*
X2610612Y8362696D01*
X2607767Y8381339D01*
X2603042Y8399526D01*
X2596540Y8417204D01*
X2588209Y8434120D01*
X2578252Y8450072D01*
X2566720Y8465007D01*
X2553766Y8478621D01*
X2539492Y8490915D01*
X2524048Y8501634D01*
X2507589Y8510778D01*
X2490266Y8518194D01*
X2472283Y8523833D01*
X2453843Y8527643D01*
X2435098Y8529574D01*
X2416302Y8529574D01*
X2397556Y8527643D01*
X2379116Y8523833D01*
X2361133Y8518194D01*
X2343810Y8510778D01*
X2327351Y8501634D01*
X2311908Y8490915D01*
X2297633Y8478621D01*
X2284679Y8465007D01*
X2273147Y8450072D01*
X2263190Y8434120D01*
X2254859Y8417204D01*
X2248357Y8399526D01*
X2243632Y8381339D01*
X2240788Y8362696D01*
X2239822Y8343900D01*
X2240788Y8325103D01*
X2243632Y8306460D01*
X2248357Y8288274D01*
X2254859Y8270595D01*
X2263190Y8253679D01*
X2273147Y8237728D01*
X2284679Y8222792D01*
X2297633Y8209178D01*
X2311908Y8196884D01*
X2327351Y8186166D01*
X2343810Y8177022D01*
X2361133Y8169605D01*
X2379116Y8163966D01*
X2397556Y8160156D01*
G37*
G36*
X6734302Y8158225D02*
G01*
X6753098Y8158225D01*
X6771843Y8160156D01*
X6790283Y8163966D01*
X6808266Y8169605D01*
X6825589Y8177022D01*
X6842048Y8186166D01*
X6857492Y8196884D01*
X6871766Y8209178D01*
X6884720Y8222792D01*
X6896252Y8237728D01*
X6906209Y8253679D01*
X6914540Y8270595D01*
X6921042Y8288274D01*
X6925767Y8306460D01*
X6928612Y8325103D01*
X6929577Y8343900D01*
X6928612Y8362696D01*
X6925767Y8381339D01*
X6921042Y8399526D01*
X6914540Y8417204D01*
X6906209Y8434120D01*
X6896252Y8450072D01*
X6884720Y8465007D01*
X6871766Y8478621D01*
X6857492Y8490915D01*
X6842048Y8501634D01*
X6825589Y8510778D01*
X6808266Y8518194D01*
X6790283Y8523833D01*
X6771843Y8527643D01*
X6753098Y8529574D01*
X6734302Y8529574D01*
X6715556Y8527643D01*
X6697116Y8523833D01*
X6679133Y8518194D01*
X6661810Y8510778D01*
X6645351Y8501634D01*
X6629908Y8490915D01*
X6615633Y8478621D01*
X6602679Y8465007D01*
X6591147Y8450072D01*
X6581190Y8434120D01*
X6572859Y8417204D01*
X6566357Y8399526D01*
X6561632Y8381339D01*
X6558788Y8362696D01*
X6557822Y8343900D01*
X6558788Y8325103D01*
X6561632Y8306460D01*
X6566357Y8288274D01*
X6572859Y8270595D01*
X6581190Y8253679D01*
X6591147Y8237728D01*
X6602679Y8222792D01*
X6615633Y8209178D01*
X6629908Y8196884D01*
X6645351Y8186166D01*
X6661810Y8177022D01*
X6679133Y8169605D01*
X6697116Y8163966D01*
X6715556Y8160156D01*
G37*
G36*
X952500Y8171840D02*
G01*
X965555Y8172703D01*
X978357Y8175396D01*
X990701Y8179765D01*
X1002334Y8185759D01*
X1013002Y8193328D01*
X1022553Y8202269D01*
X1030833Y8212429D01*
X1037640Y8223605D01*
X1042873Y8235594D01*
X1046378Y8248192D01*
X1048156Y8261146D01*
X1048156Y8274253D01*
X1046378Y8287207D01*
X1042873Y8299805D01*
X1037640Y8311794D01*
X1030833Y8322970D01*
X1022553Y8333130D01*
X1013002Y8342071D01*
X1002334Y8349640D01*
X990701Y8355634D01*
X978357Y8360003D01*
X965555Y8362696D01*
X952500Y8363559D01*
X939444Y8362696D01*
X926642Y8360003D01*
X914298Y8355634D01*
X902665Y8349640D01*
X891997Y8342071D01*
X882446Y8333130D01*
X874166Y8322970D01*
X867359Y8311794D01*
X862177Y8299805D01*
X858621Y8287207D01*
X856843Y8274253D01*
X856843Y8261146D01*
X858621Y8248192D01*
X862177Y8235594D01*
X867359Y8223605D01*
X874166Y8212429D01*
X882446Y8202269D01*
X891997Y8193328D01*
X902665Y8185759D01*
X914298Y8179765D01*
X926642Y8175396D01*
X939444Y8172703D01*
G37*
G36*
X1668119Y8227669D02*
G01*
X1837080Y8227669D01*
X1843379Y8228380D01*
X1848866Y8230311D01*
X1853742Y8233409D01*
X1857857Y8237474D01*
X1860956Y8242401D01*
X1862836Y8247837D01*
X1863547Y8254187D01*
X1863547Y8373770D01*
X1862836Y8380120D01*
X1860956Y8385556D01*
X1857857Y8390483D01*
X1853742Y8394547D01*
X1848866Y8397646D01*
X1843379Y8399526D01*
X1837537Y8400186D01*
X1833981Y8401304D01*
X1831086Y8403539D01*
X1829155Y8406688D01*
X1828495Y8410295D01*
X1828444Y8460841D01*
X1827631Y8469680D01*
X1827225Y8472119D01*
X1825091Y8480755D01*
X1824329Y8483092D01*
X1820925Y8491321D01*
X1819808Y8493506D01*
X1815185Y8501126D01*
X1808124Y8509965D01*
X1639265Y8678824D01*
X1630426Y8685885D01*
X1622806Y8690508D01*
X1620621Y8691626D01*
X1612392Y8695029D01*
X1610055Y8695791D01*
X1601419Y8697925D01*
X1598980Y8698331D01*
X1590141Y8699144D01*
X1102258Y8699144D01*
X1093419Y8698331D01*
X1090980Y8697925D01*
X1082344Y8695791D01*
X1080008Y8695029D01*
X1071778Y8691626D01*
X1069594Y8690508D01*
X1061974Y8685885D01*
X1053134Y8678824D01*
X899007Y8524748D01*
X893876Y8519109D01*
X891489Y8516061D01*
X887171Y8509558D01*
X885444Y8506460D01*
X882040Y8499144D01*
X880922Y8496096D01*
X878535Y8488019D01*
X877976Y8485174D01*
X876808Y8476538D01*
X876655Y8473948D01*
X877062Y8462670D01*
X879195Y8451240D01*
X882954Y8440572D01*
X888237Y8430514D01*
X894994Y8421370D01*
X901953Y8414308D01*
X911250Y8407196D01*
X921461Y8401659D01*
X932383Y8397748D01*
X943813Y8395512D01*
X955344Y8395055D01*
X966622Y8396325D01*
X977544Y8399272D01*
X987958Y8403793D01*
X997559Y8409838D01*
X1006449Y8417509D01*
X1133348Y8544407D01*
X1136650Y8546642D01*
X1140561Y8547404D01*
X1551838Y8547404D01*
X1555750Y8546642D01*
X1559052Y8544407D01*
X1673707Y8429752D01*
X1675942Y8426450D01*
X1676704Y8422538D01*
X1676704Y8410295D01*
X1676044Y8406688D01*
X1674114Y8403539D01*
X1671218Y8401304D01*
X1667662Y8400186D01*
X1661820Y8399526D01*
X1656334Y8397646D01*
X1651457Y8394547D01*
X1647342Y8390483D01*
X1644243Y8385556D01*
X1642364Y8380120D01*
X1641652Y8373770D01*
X1641652Y8254187D01*
X1642364Y8247837D01*
X1644243Y8242401D01*
X1647342Y8237474D01*
X1651457Y8233409D01*
X1656334Y8230311D01*
X1661820Y8228380D01*
G37*
G36*
X6355181Y8348725D02*
G01*
X6370218Y8348725D01*
X6385204Y8350554D01*
X6399784Y8354263D01*
X6413855Y8359698D01*
X6427165Y8366810D01*
X6439458Y8375548D01*
X6450584Y8385708D01*
X6460388Y8397138D01*
X6468719Y8409686D01*
X6475425Y8423198D01*
X6480454Y8437422D01*
X6483654Y8452104D01*
X6485026Y8467140D01*
X6484569Y8482177D01*
X6482283Y8497062D01*
X6478168Y8511590D01*
X6472275Y8525459D01*
X6464757Y8538514D01*
X6455664Y8550554D01*
X6445148Y8561374D01*
X6433413Y8570823D01*
X6420612Y8578748D01*
X6406896Y8585047D01*
X6392570Y8589619D01*
X6377736Y8592362D01*
X6362700Y8593328D01*
X6347663Y8592362D01*
X6332829Y8589619D01*
X6318504Y8585047D01*
X6304788Y8578748D01*
X6291986Y8570823D01*
X6280251Y8561374D01*
X6269736Y8550554D01*
X6260642Y8538514D01*
X6253124Y8525459D01*
X6247231Y8511590D01*
X6243116Y8497062D01*
X6240830Y8482177D01*
X6240373Y8467140D01*
X6241745Y8452104D01*
X6244945Y8437422D01*
X6249974Y8423198D01*
X6256680Y8409686D01*
X6265011Y8397138D01*
X6274816Y8385708D01*
X6285941Y8375548D01*
X6298285Y8366810D01*
X6311544Y8359698D01*
X6325616Y8354263D01*
X6340195Y8350554D01*
G37*
G36*
X4577181Y8348725D02*
G01*
X4592218Y8348725D01*
X4607204Y8350554D01*
X4621784Y8354263D01*
X4635855Y8359698D01*
X4649165Y8366810D01*
X4661458Y8375548D01*
X4672584Y8385708D01*
X4682388Y8397138D01*
X4690719Y8409686D01*
X4697425Y8423198D01*
X4702098Y8436508D01*
X4704283Y8440064D01*
X4707636Y8442452D01*
X4711700Y8443264D01*
X4715764Y8442452D01*
X4719116Y8440064D01*
X4721301Y8436508D01*
X4725974Y8423198D01*
X4732680Y8409686D01*
X4741011Y8397138D01*
X4750816Y8385708D01*
X4761941Y8375548D01*
X4774285Y8366810D01*
X4787544Y8359698D01*
X4801616Y8354263D01*
X4816195Y8350554D01*
X4831181Y8348725D01*
X4846218Y8348725D01*
X4861204Y8350554D01*
X4875784Y8354263D01*
X4889855Y8359698D01*
X4903165Y8366810D01*
X4915458Y8375548D01*
X4926584Y8385708D01*
X4936388Y8397138D01*
X4944719Y8409686D01*
X4951425Y8423198D01*
X4956098Y8436508D01*
X4958283Y8440064D01*
X4961636Y8442452D01*
X4965700Y8443264D01*
X4969764Y8442452D01*
X4973116Y8440064D01*
X4975301Y8436508D01*
X4979974Y8423198D01*
X4986680Y8409686D01*
X4995011Y8397138D01*
X5004816Y8385708D01*
X5015941Y8375548D01*
X5028285Y8366810D01*
X5041544Y8359698D01*
X5055616Y8354263D01*
X5070195Y8350554D01*
X5085181Y8348725D01*
X5100218Y8348725D01*
X5115204Y8350554D01*
X5129784Y8354263D01*
X5143855Y8359698D01*
X5157165Y8366810D01*
X5169458Y8375548D01*
X5180584Y8385708D01*
X5190388Y8397138D01*
X5198719Y8409686D01*
X5205425Y8423198D01*
X5210098Y8436508D01*
X5212283Y8440064D01*
X5215636Y8442452D01*
X5219700Y8443264D01*
X5223764Y8442452D01*
X5227116Y8440064D01*
X5229301Y8436508D01*
X5233974Y8423198D01*
X5240680Y8409686D01*
X5249011Y8397138D01*
X5258816Y8385708D01*
X5269941Y8375548D01*
X5282285Y8366810D01*
X5295544Y8359698D01*
X5309616Y8354263D01*
X5324195Y8350554D01*
X5339181Y8348725D01*
X5354218Y8348725D01*
X5369204Y8350554D01*
X5383784Y8354263D01*
X5397855Y8359698D01*
X5411165Y8366810D01*
X5423458Y8375548D01*
X5434584Y8385708D01*
X5444388Y8397138D01*
X5452719Y8409686D01*
X5459425Y8423198D01*
X5464098Y8436508D01*
X5466283Y8440064D01*
X5469636Y8442452D01*
X5473700Y8443264D01*
X5477764Y8442452D01*
X5481116Y8440064D01*
X5483301Y8436508D01*
X5487974Y8423198D01*
X5494680Y8409686D01*
X5503011Y8397138D01*
X5512816Y8385708D01*
X5523941Y8375548D01*
X5536285Y8366810D01*
X5549544Y8359698D01*
X5563616Y8354263D01*
X5578195Y8350554D01*
X5593181Y8348725D01*
X5608218Y8348725D01*
X5623204Y8350554D01*
X5637784Y8354263D01*
X5651855Y8359698D01*
X5665165Y8366810D01*
X5677458Y8375548D01*
X5688584Y8385708D01*
X5698388Y8397138D01*
X5706719Y8409686D01*
X5713425Y8423198D01*
X5718098Y8436508D01*
X5720283Y8440064D01*
X5723636Y8442452D01*
X5727700Y8443264D01*
X5731764Y8442452D01*
X5735116Y8440064D01*
X5737301Y8436508D01*
X5741974Y8423198D01*
X5748680Y8409686D01*
X5757011Y8397138D01*
X5766816Y8385708D01*
X5777941Y8375548D01*
X5790285Y8366810D01*
X5803544Y8359698D01*
X5817616Y8354263D01*
X5832195Y8350554D01*
X5847181Y8348725D01*
X5862218Y8348725D01*
X5877204Y8350554D01*
X5891784Y8354263D01*
X5905855Y8359698D01*
X5919165Y8366810D01*
X5931458Y8375548D01*
X5942584Y8385708D01*
X5952388Y8397138D01*
X5960719Y8409686D01*
X5967425Y8423198D01*
X5972454Y8437422D01*
X5975654Y8452104D01*
X5977026Y8467140D01*
X5976569Y8482177D01*
X5974283Y8497062D01*
X5970168Y8511590D01*
X5964275Y8525459D01*
X5956757Y8538514D01*
X5947664Y8550554D01*
X5937148Y8561374D01*
X5925413Y8570823D01*
X5912612Y8578748D01*
X5898896Y8585047D01*
X5884570Y8589619D01*
X5869736Y8592362D01*
X5854700Y8593328D01*
X5839663Y8592362D01*
X5824829Y8589619D01*
X5810504Y8585047D01*
X5796788Y8578748D01*
X5783986Y8570823D01*
X5772251Y8561374D01*
X5761736Y8550554D01*
X5752642Y8538514D01*
X5745124Y8525459D01*
X5739231Y8511590D01*
X5737453Y8505342D01*
X5735421Y8501481D01*
X5731967Y8498890D01*
X5727700Y8497976D01*
X5723432Y8498890D01*
X5719978Y8501481D01*
X5717946Y8505342D01*
X5716168Y8511590D01*
X5710275Y8525459D01*
X5702757Y8538514D01*
X5693664Y8550554D01*
X5683148Y8561374D01*
X5671413Y8570823D01*
X5658612Y8578748D01*
X5644896Y8585047D01*
X5630570Y8589619D01*
X5615736Y8592362D01*
X5600700Y8593328D01*
X5585663Y8592362D01*
X5570829Y8589619D01*
X5556504Y8585047D01*
X5542788Y8578748D01*
X5529986Y8570823D01*
X5518251Y8561374D01*
X5507736Y8550554D01*
X5498642Y8538514D01*
X5491124Y8525459D01*
X5485231Y8511590D01*
X5483453Y8505342D01*
X5481421Y8501481D01*
X5477967Y8498890D01*
X5473700Y8497976D01*
X5469432Y8498890D01*
X5465978Y8501481D01*
X5463946Y8505342D01*
X5462168Y8511590D01*
X5456275Y8525459D01*
X5448757Y8538514D01*
X5439664Y8550554D01*
X5429148Y8561374D01*
X5417413Y8570823D01*
X5404612Y8578748D01*
X5390896Y8585047D01*
X5376570Y8589619D01*
X5361736Y8592362D01*
X5346700Y8593328D01*
X5331663Y8592362D01*
X5316829Y8589619D01*
X5302504Y8585047D01*
X5288788Y8578748D01*
X5275986Y8570823D01*
X5264251Y8561374D01*
X5253736Y8550554D01*
X5244642Y8538514D01*
X5237124Y8525459D01*
X5231231Y8511590D01*
X5229453Y8505342D01*
X5227421Y8501481D01*
X5223967Y8498890D01*
X5219700Y8497976D01*
X5215432Y8498890D01*
X5211978Y8501481D01*
X5209946Y8505342D01*
X5208168Y8511590D01*
X5202275Y8525459D01*
X5194757Y8538514D01*
X5185664Y8550554D01*
X5175148Y8561374D01*
X5163413Y8570823D01*
X5150612Y8578748D01*
X5136896Y8585047D01*
X5122570Y8589619D01*
X5107736Y8592362D01*
X5092700Y8593328D01*
X5077663Y8592362D01*
X5062829Y8589619D01*
X5048504Y8585047D01*
X5034788Y8578748D01*
X5021986Y8570823D01*
X5010251Y8561374D01*
X4999736Y8550554D01*
X4990642Y8538514D01*
X4983124Y8525459D01*
X4977231Y8511590D01*
X4975453Y8505342D01*
X4973421Y8501481D01*
X4969967Y8498890D01*
X4965700Y8497976D01*
X4961432Y8498890D01*
X4957978Y8501481D01*
X4955946Y8505342D01*
X4954168Y8511590D01*
X4948275Y8525459D01*
X4940757Y8538514D01*
X4931664Y8550554D01*
X4921148Y8561374D01*
X4909413Y8570823D01*
X4896612Y8578748D01*
X4882896Y8585047D01*
X4868570Y8589619D01*
X4853736Y8592362D01*
X4838700Y8593328D01*
X4823663Y8592362D01*
X4808829Y8589619D01*
X4794504Y8585047D01*
X4780788Y8578748D01*
X4767986Y8570823D01*
X4756251Y8561374D01*
X4745736Y8550554D01*
X4736642Y8538514D01*
X4729124Y8525459D01*
X4723231Y8511590D01*
X4721453Y8505342D01*
X4719421Y8501481D01*
X4715967Y8498890D01*
X4711700Y8497976D01*
X4707432Y8498890D01*
X4703978Y8501481D01*
X4701946Y8505342D01*
X4700168Y8511590D01*
X4694275Y8525459D01*
X4686757Y8538514D01*
X4677664Y8550554D01*
X4667148Y8561374D01*
X4655413Y8570823D01*
X4642612Y8578748D01*
X4628896Y8585047D01*
X4614570Y8589619D01*
X4599736Y8592362D01*
X4584700Y8593328D01*
X4569663Y8592362D01*
X4554829Y8589619D01*
X4540504Y8585047D01*
X4526788Y8578748D01*
X4513986Y8570823D01*
X4502251Y8561374D01*
X4491736Y8550554D01*
X4482642Y8538514D01*
X4475124Y8525459D01*
X4469231Y8511590D01*
X4465116Y8497062D01*
X4462830Y8482177D01*
X4462373Y8467140D01*
X4463745Y8452104D01*
X4466945Y8437422D01*
X4471974Y8423198D01*
X4478680Y8409686D01*
X4487011Y8397138D01*
X4496816Y8385708D01*
X4507941Y8375548D01*
X4520285Y8366810D01*
X4533544Y8359698D01*
X4547616Y8354263D01*
X4562195Y8350554D01*
G37*
G36*
X2799181Y8348725D02*
G01*
X2814218Y8348725D01*
X2829204Y8350554D01*
X2843784Y8354263D01*
X2857855Y8359698D01*
X2871165Y8366810D01*
X2883458Y8375548D01*
X2894584Y8385708D01*
X2904388Y8397138D01*
X2912719Y8409686D01*
X2919425Y8423198D01*
X2924098Y8436508D01*
X2926283Y8440064D01*
X2929636Y8442452D01*
X2933700Y8443264D01*
X2937764Y8442452D01*
X2941116Y8440064D01*
X2943301Y8436508D01*
X2947974Y8423198D01*
X2954680Y8409686D01*
X2963011Y8397138D01*
X2972816Y8385708D01*
X2983941Y8375548D01*
X2996234Y8366810D01*
X3009544Y8359698D01*
X3023616Y8354263D01*
X3038195Y8350554D01*
X3053181Y8348725D01*
X3068218Y8348725D01*
X3083204Y8350554D01*
X3097784Y8354263D01*
X3111855Y8359698D01*
X3125165Y8366810D01*
X3137458Y8375548D01*
X3148584Y8385708D01*
X3158388Y8397138D01*
X3166719Y8409686D01*
X3173425Y8423198D01*
X3178098Y8436508D01*
X3180283Y8440064D01*
X3183636Y8442452D01*
X3187700Y8443264D01*
X3191764Y8442452D01*
X3195116Y8440064D01*
X3197301Y8436508D01*
X3201974Y8423198D01*
X3208680Y8409686D01*
X3217011Y8397138D01*
X3226816Y8385708D01*
X3237941Y8375548D01*
X3250234Y8366810D01*
X3263544Y8359698D01*
X3277615Y8354263D01*
X3292195Y8350554D01*
X3307181Y8348725D01*
X3322218Y8348725D01*
X3337204Y8350554D01*
X3351784Y8354263D01*
X3365855Y8359698D01*
X3379165Y8366810D01*
X3391458Y8375548D01*
X3402584Y8385708D01*
X3412388Y8397138D01*
X3420719Y8409686D01*
X3427425Y8423198D01*
X3432098Y8436508D01*
X3434283Y8440064D01*
X3437636Y8442452D01*
X3441700Y8443264D01*
X3445764Y8442452D01*
X3449116Y8440064D01*
X3451301Y8436508D01*
X3455974Y8423198D01*
X3462680Y8409686D01*
X3471011Y8397138D01*
X3480815Y8385708D01*
X3491941Y8375548D01*
X3504234Y8366810D01*
X3517544Y8359698D01*
X3531615Y8354263D01*
X3546195Y8350554D01*
X3561181Y8348725D01*
X3576218Y8348725D01*
X3591204Y8350554D01*
X3605784Y8354263D01*
X3619855Y8359698D01*
X3633165Y8366810D01*
X3645458Y8375548D01*
X3656584Y8385708D01*
X3666388Y8397138D01*
X3674719Y8409686D01*
X3681425Y8423198D01*
X3686098Y8436508D01*
X3688283Y8440064D01*
X3691636Y8442452D01*
X3695700Y8443264D01*
X3699764Y8442452D01*
X3703116Y8440064D01*
X3705301Y8436508D01*
X3709974Y8423198D01*
X3716680Y8409686D01*
X3725011Y8397138D01*
X3734815Y8385708D01*
X3745941Y8375548D01*
X3758234Y8366810D01*
X3771544Y8359698D01*
X3785615Y8354263D01*
X3800195Y8350554D01*
X3815181Y8348725D01*
X3830218Y8348725D01*
X3845204Y8350554D01*
X3859784Y8354263D01*
X3873855Y8359698D01*
X3887165Y8366810D01*
X3899458Y8375548D01*
X3910584Y8385708D01*
X3920388Y8397138D01*
X3928719Y8409686D01*
X3935425Y8423198D01*
X3940098Y8436508D01*
X3942283Y8440064D01*
X3945636Y8442452D01*
X3949700Y8443264D01*
X3953764Y8442452D01*
X3957116Y8440064D01*
X3959301Y8436508D01*
X3963974Y8423198D01*
X3970680Y8409686D01*
X3979011Y8397138D01*
X3988815Y8385708D01*
X3999941Y8375548D01*
X4012234Y8366810D01*
X4025544Y8359698D01*
X4039615Y8354263D01*
X4054195Y8350554D01*
X4069181Y8348725D01*
X4084218Y8348725D01*
X4099204Y8350554D01*
X4113784Y8354263D01*
X4127855Y8359698D01*
X4141165Y8366810D01*
X4153458Y8375548D01*
X4164584Y8385708D01*
X4174388Y8397138D01*
X4182719Y8409686D01*
X4189425Y8423198D01*
X4194454Y8437422D01*
X4197654Y8452104D01*
X4199026Y8467140D01*
X4198569Y8482177D01*
X4196283Y8497062D01*
X4192168Y8511590D01*
X4186275Y8525459D01*
X4178757Y8538514D01*
X4169664Y8550554D01*
X4159148Y8561374D01*
X4147413Y8570823D01*
X4134612Y8578748D01*
X4120896Y8585047D01*
X4106570Y8589619D01*
X4091736Y8592362D01*
X4076700Y8593328D01*
X4061663Y8592362D01*
X4046829Y8589619D01*
X4032504Y8585047D01*
X4018787Y8578748D01*
X4005986Y8570823D01*
X3994251Y8561374D01*
X3983736Y8550554D01*
X3974642Y8538514D01*
X3967124Y8525459D01*
X3961231Y8511590D01*
X3959453Y8505342D01*
X3957421Y8501481D01*
X3953967Y8498890D01*
X3949700Y8497976D01*
X3945432Y8498890D01*
X3941978Y8501481D01*
X3939946Y8505342D01*
X3938168Y8511590D01*
X3932275Y8525459D01*
X3924757Y8538514D01*
X3915664Y8550554D01*
X3905148Y8561374D01*
X3893413Y8570823D01*
X3880612Y8578748D01*
X3866896Y8585047D01*
X3852570Y8589619D01*
X3837736Y8592362D01*
X3822700Y8593328D01*
X3807663Y8592362D01*
X3792829Y8589619D01*
X3778504Y8585047D01*
X3764787Y8578748D01*
X3751986Y8570823D01*
X3740251Y8561374D01*
X3729736Y8550554D01*
X3720642Y8538514D01*
X3713124Y8525459D01*
X3707231Y8511590D01*
X3705453Y8505342D01*
X3703421Y8501481D01*
X3699967Y8498890D01*
X3695700Y8497976D01*
X3691432Y8498890D01*
X3687978Y8501481D01*
X3685946Y8505342D01*
X3684168Y8511590D01*
X3678275Y8525459D01*
X3670757Y8538514D01*
X3661664Y8550554D01*
X3651148Y8561374D01*
X3639413Y8570823D01*
X3626612Y8578748D01*
X3612896Y8585047D01*
X3598570Y8589619D01*
X3583736Y8592362D01*
X3568700Y8593328D01*
X3553663Y8592362D01*
X3538829Y8589619D01*
X3524504Y8585047D01*
X3510787Y8578748D01*
X3497986Y8570823D01*
X3486251Y8561374D01*
X3475736Y8550554D01*
X3466642Y8538514D01*
X3459124Y8525459D01*
X3453231Y8511590D01*
X3451453Y8505342D01*
X3449421Y8501481D01*
X3445967Y8498890D01*
X3441700Y8497976D01*
X3437432Y8498890D01*
X3433978Y8501481D01*
X3431946Y8505342D01*
X3430168Y8511590D01*
X3424275Y8525459D01*
X3416757Y8538514D01*
X3407664Y8550554D01*
X3397148Y8561374D01*
X3385413Y8570823D01*
X3372612Y8578748D01*
X3358896Y8585047D01*
X3344570Y8589619D01*
X3329736Y8592362D01*
X3314700Y8593328D01*
X3299663Y8592362D01*
X3284829Y8589619D01*
X3270503Y8585047D01*
X3256788Y8578748D01*
X3243986Y8570823D01*
X3232251Y8561374D01*
X3221736Y8550554D01*
X3212642Y8538514D01*
X3205124Y8525459D01*
X3199231Y8511590D01*
X3197453Y8505342D01*
X3195421Y8501481D01*
X3191967Y8498890D01*
X3187700Y8497976D01*
X3183432Y8498890D01*
X3179978Y8501481D01*
X3177946Y8505342D01*
X3176168Y8511590D01*
X3170275Y8525459D01*
X3162757Y8538514D01*
X3153664Y8550554D01*
X3143148Y8561374D01*
X3131413Y8570823D01*
X3118612Y8578748D01*
X3104896Y8585047D01*
X3090570Y8589619D01*
X3075736Y8592362D01*
X3060700Y8593328D01*
X3045663Y8592362D01*
X3030829Y8589619D01*
X3016504Y8585047D01*
X3002788Y8578748D01*
X2989986Y8570823D01*
X2978251Y8561374D01*
X2967736Y8550554D01*
X2958642Y8538514D01*
X2951124Y8525459D01*
X2945231Y8511590D01*
X2943453Y8505342D01*
X2941421Y8501481D01*
X2937967Y8498890D01*
X2933700Y8497976D01*
X2929432Y8498890D01*
X2925978Y8501481D01*
X2923946Y8505342D01*
X2922168Y8511590D01*
X2916275Y8525459D01*
X2908757Y8538514D01*
X2899664Y8550554D01*
X2889148Y8561374D01*
X2877413Y8570823D01*
X2864612Y8578748D01*
X2850896Y8585047D01*
X2836570Y8589619D01*
X2821736Y8592362D01*
X2806700Y8593328D01*
X2791663Y8592362D01*
X2776829Y8589619D01*
X2762504Y8585047D01*
X2748788Y8578748D01*
X2735986Y8570823D01*
X2724251Y8561374D01*
X2713736Y8550554D01*
X2704642Y8538514D01*
X2697124Y8525459D01*
X2691231Y8511590D01*
X2687116Y8497062D01*
X2684830Y8482177D01*
X2684373Y8467140D01*
X2685745Y8452104D01*
X2688945Y8437422D01*
X2693974Y8423198D01*
X2700680Y8409686D01*
X2709011Y8397138D01*
X2718816Y8385708D01*
X2729941Y8375548D01*
X2742234Y8366810D01*
X2755544Y8359698D01*
X2769616Y8354263D01*
X2784195Y8350554D01*
G37*
G36*
X4385310Y8361527D02*
G01*
X4395165Y8366810D01*
X4407458Y8375548D01*
X4418584Y8385708D01*
X4428388Y8397138D01*
X4436719Y8409686D01*
X4439970Y8416290D01*
X4385310Y8416290D01*
G37*
G36*
X6054090Y8361527D02*
G01*
X6054090Y8416290D01*
X5999429Y8416290D01*
X6002680Y8409686D01*
X6011011Y8397138D01*
X6020816Y8385708D01*
X6031941Y8375548D01*
X6044285Y8366810D01*
G37*
G36*
X6163310Y8361527D02*
G01*
X6173165Y8366810D01*
X6185458Y8375548D01*
X6196584Y8385708D01*
X6206388Y8397138D01*
X6214719Y8409686D01*
X6217970Y8416290D01*
X6163310Y8416290D01*
G37*
G36*
X4276090Y8361527D02*
G01*
X4276090Y8416290D01*
X4221429Y8416290D01*
X4224680Y8409686D01*
X4233011Y8397138D01*
X4242816Y8385708D01*
X4253941Y8375548D01*
X4266234Y8366810D01*
G37*
G36*
X5999175Y8525510D02*
G01*
X6054090Y8525510D01*
X6054090Y8580272D01*
X6050788Y8578748D01*
X6037986Y8570823D01*
X6026251Y8561374D01*
X6015736Y8550554D01*
X6006642Y8538514D01*
G37*
G36*
X4385310Y8525510D02*
G01*
X4440224Y8525510D01*
X4432757Y8538514D01*
X4423664Y8550554D01*
X4413148Y8561374D01*
X4401413Y8570823D01*
X4388612Y8578748D01*
X4385310Y8580272D01*
G37*
G36*
X4221175Y8525510D02*
G01*
X4276090Y8525510D01*
X4276090Y8580272D01*
X4272788Y8578748D01*
X4259986Y8570823D01*
X4248251Y8561374D01*
X4237736Y8550554D01*
X4228642Y8538514D01*
G37*
G36*
X6163310Y8525510D02*
G01*
X6218224Y8525510D01*
X6210757Y8538514D01*
X6201664Y8550554D01*
X6191148Y8561374D01*
X6179413Y8570823D01*
X6166612Y8578748D01*
X6163310Y8580272D01*
G37*
G36*
X6353098Y8661755D02*
G01*
X6355384Y8661908D01*
X6366865Y8663635D01*
X6377736Y8666988D01*
X6387947Y8671864D01*
X6397294Y8678265D01*
X6405626Y8686038D01*
X6412026Y8693912D01*
X6418021Y8703919D01*
X6422339Y8714689D01*
X6424980Y8726017D01*
X6425895Y8738006D01*
X6425895Y9044838D01*
X6426657Y9048750D01*
X6428892Y9052052D01*
X6738620Y9361779D01*
X6741922Y9364014D01*
X6745833Y9364776D01*
X6976516Y9364776D01*
X6980377Y9364014D01*
X6983679Y9361779D01*
X6985457Y9360052D01*
X6990334Y9356953D01*
X6995820Y9355074D01*
X7002119Y9354362D01*
X7171080Y9354362D01*
X7177379Y9355074D01*
X7182866Y9356953D01*
X7187742Y9360052D01*
X7191857Y9364116D01*
X7194956Y9369044D01*
X7196836Y9374479D01*
X7197547Y9380829D01*
X7197547Y9500412D01*
X7196836Y9506762D01*
X7194956Y9512198D01*
X7191857Y9517126D01*
X7187742Y9521190D01*
X7182866Y9524288D01*
X7177379Y9526219D01*
X7171080Y9526930D01*
X7002119Y9526930D01*
X6995820Y9526219D01*
X6990334Y9524288D01*
X6985457Y9521190D01*
X6983780Y9519564D01*
X6980478Y9517329D01*
X6976618Y9516567D01*
X6707530Y9516516D01*
X6698691Y9515703D01*
X6696252Y9515297D01*
X6687616Y9513163D01*
X6685280Y9512401D01*
X6677050Y9508998D01*
X6674866Y9507880D01*
X6667246Y9503257D01*
X6658406Y9496196D01*
X6294475Y9132265D01*
X6287414Y9123426D01*
X6282791Y9115806D01*
X6281674Y9113621D01*
X6278270Y9105392D01*
X6277508Y9103055D01*
X6275374Y9094419D01*
X6274968Y9091980D01*
X6274155Y9083141D01*
X6274104Y8737803D01*
X6274308Y8731758D01*
X6274968Y8726322D01*
X6276086Y8720277D01*
X6277457Y8715248D01*
X6279642Y8709202D01*
X6281572Y8704732D01*
X6284772Y8698738D01*
X6287262Y8694928D01*
X6291478Y8689238D01*
X6294272Y8686038D01*
X6299555Y8680856D01*
X6302603Y8678316D01*
X6308852Y8673846D01*
X6311950Y8671915D01*
X6319062Y8668258D01*
X6322110Y8666988D01*
X6330035Y8664346D01*
X6332931Y8663635D01*
X6341465Y8662162D01*
X6344158Y8661908D01*
G37*
G36*
X1477619Y8935262D02*
G01*
X1646580Y8935262D01*
X1652879Y8935974D01*
X1658366Y8937853D01*
X1663598Y8940698D01*
X1666443Y8941104D01*
X1958543Y8941155D01*
X1967280Y8941968D01*
X1970074Y8942476D01*
X1978304Y8944508D01*
X1981301Y8945524D01*
X1988870Y8948674D01*
X1991969Y8950248D01*
X1998675Y8954363D01*
X2001723Y8956548D01*
X2007514Y8961424D01*
X2010410Y8964320D01*
X2015185Y8969756D01*
X2017826Y8973261D01*
X2021586Y8979103D01*
X2023770Y8983268D01*
X2026462Y8989314D01*
X2028139Y8994038D01*
X2029815Y9000134D01*
X2030831Y9005417D01*
X2031492Y9011361D01*
X2031695Y9017000D01*
X2031492Y9022638D01*
X2030831Y9028582D01*
X2029815Y9033865D01*
X2028139Y9039910D01*
X2026462Y9044686D01*
X2023770Y9050731D01*
X2021586Y9054896D01*
X2017826Y9060738D01*
X2015185Y9064244D01*
X2010410Y9069679D01*
X2007514Y9072575D01*
X2001723Y9077452D01*
X1998675Y9079636D01*
X1991969Y9083751D01*
X1988870Y9085326D01*
X1981301Y9088475D01*
X1978304Y9089491D01*
X1970074Y9091523D01*
X1967280Y9092031D01*
X1958543Y9092844D01*
X1676196Y9092895D01*
X1672843Y9093454D01*
X1669846Y9095130D01*
X1667357Y9098026D01*
X1663242Y9102090D01*
X1658366Y9105188D01*
X1652879Y9107119D01*
X1646580Y9107830D01*
X1477619Y9107830D01*
X1471320Y9107119D01*
X1465834Y9105188D01*
X1460957Y9102090D01*
X1456842Y9098026D01*
X1453743Y9093098D01*
X1451864Y9087662D01*
X1451152Y9081312D01*
X1451152Y8961729D01*
X1451864Y8955379D01*
X1453743Y8949944D01*
X1456842Y8945016D01*
X1460957Y8940952D01*
X1465834Y8937853D01*
X1471320Y8935974D01*
G37*
G36*
X3816756Y8979408D02*
G01*
X3828389Y8979408D01*
X3839565Y8981135D01*
X3850436Y8984488D01*
X3860647Y8989364D01*
X3869994Y8995765D01*
X3878326Y9003538D01*
X3884726Y9011412D01*
X3890721Y9021419D01*
X3895039Y9032189D01*
X3897680Y9043517D01*
X3898595Y9055506D01*
X3898595Y9273438D01*
X3899357Y9277350D01*
X3901592Y9280652D01*
X4765344Y10144404D01*
X4773777Y10154462D01*
X4779721Y10164521D01*
X4783429Y10173258D01*
X4786325Y10184180D01*
X4787544Y10195458D01*
X4787595Y10197896D01*
X4787087Y10206786D01*
X4786731Y10209530D01*
X4784953Y10217912D01*
X4784090Y10220858D01*
X4781194Y10228580D01*
X4779772Y10231678D01*
X4775911Y10238587D01*
X4773828Y10241686D01*
X4769154Y10247680D01*
X4766462Y10250678D01*
X4761128Y10255707D01*
X4757775Y10258399D01*
X4752035Y10262412D01*
X4748022Y10264749D01*
X4742027Y10267696D01*
X4737404Y10269524D01*
X4731308Y10271404D01*
X4726178Y10272623D01*
X4720183Y10273538D01*
X4714595Y10273944D01*
X4708855Y10273944D01*
X4702962Y10273487D01*
X4697628Y10272674D01*
X4691532Y10271302D01*
X4686655Y10269778D01*
X4680610Y10267340D01*
X4676292Y10265257D01*
X4670399Y10261752D01*
X4666691Y10259212D01*
X4661154Y10254691D01*
X4657902Y10251694D01*
X3767175Y9360865D01*
X3760114Y9352026D01*
X3755491Y9344406D01*
X3754374Y9342221D01*
X3750970Y9333992D01*
X3750208Y9331655D01*
X3748074Y9323019D01*
X3747668Y9320580D01*
X3746855Y9311741D01*
X3746804Y9055303D01*
X3747008Y9049258D01*
X3747668Y9043822D01*
X3748786Y9037777D01*
X3750157Y9032748D01*
X3752342Y9026702D01*
X3754272Y9022232D01*
X3757472Y9016238D01*
X3759962Y9012428D01*
X3764178Y9006738D01*
X3766972Y9003538D01*
X3772255Y8998356D01*
X3775303Y8995816D01*
X3781551Y8991346D01*
X3784650Y8989415D01*
X3791762Y8985758D01*
X3794810Y8984488D01*
X3802735Y8981846D01*
X3805631Y8981135D01*
X3814165Y8979662D01*
G37*
G36*
X5349544Y9030055D02*
G01*
X5360822Y9031325D01*
X5371744Y9034272D01*
X5382158Y9038793D01*
X5391759Y9044838D01*
X5400649Y9052509D01*
X6005626Y9657486D01*
X6008928Y9659721D01*
X6012840Y9660483D01*
X6976567Y9660483D01*
X6980428Y9659721D01*
X6983730Y9657486D01*
X6985457Y9655810D01*
X6990334Y9652711D01*
X6995820Y9650780D01*
X7002119Y9650069D01*
X7171080Y9650069D01*
X7177379Y9650780D01*
X7182866Y9652711D01*
X7187742Y9655810D01*
X7191857Y9659874D01*
X7194956Y9664801D01*
X7196836Y9670237D01*
X7197547Y9676587D01*
X7197547Y9796170D01*
X7196836Y9802520D01*
X7194956Y9807956D01*
X7191857Y9812883D01*
X7187742Y9816947D01*
X7182866Y9820046D01*
X7177379Y9821926D01*
X7171537Y9822586D01*
X7167981Y9823704D01*
X7165086Y9825939D01*
X7163155Y9829088D01*
X7162495Y9832695D01*
X7162495Y10185044D01*
X7161631Y10196728D01*
X7159091Y10207752D01*
X7154976Y10218318D01*
X7149338Y10228122D01*
X7141260Y10238028D01*
X7132574Y10245750D01*
X7122871Y10252049D01*
X7112152Y10256824D01*
X7103262Y10259466D01*
X7092086Y10261092D01*
X7089698Y10261244D01*
X7080758Y10261092D01*
X7078065Y10260838D01*
X7069531Y10259364D01*
X7066635Y10258653D01*
X7058710Y10256012D01*
X7055662Y10254742D01*
X7048550Y10251084D01*
X7045452Y10249154D01*
X7039203Y10244683D01*
X7036155Y10242143D01*
X7030872Y10236962D01*
X7028078Y10233761D01*
X7023862Y10228072D01*
X7021372Y10224262D01*
X7018172Y10218267D01*
X7016242Y10213797D01*
X7014057Y10207752D01*
X7012686Y10202722D01*
X7011568Y10196677D01*
X7010908Y10191242D01*
X7010704Y10185196D01*
X7010704Y9921748D01*
X7009942Y9917836D01*
X7007707Y9914534D01*
X6908444Y9815271D01*
X6905142Y9813036D01*
X6901230Y9812274D01*
X5974537Y9812223D01*
X5965698Y9811410D01*
X5963259Y9811004D01*
X5954623Y9808870D01*
X5952286Y9808108D01*
X5944057Y9804704D01*
X5941872Y9803587D01*
X5934252Y9798964D01*
X5925413Y9791903D01*
X5293207Y9159748D01*
X5288076Y9154109D01*
X5285689Y9151061D01*
X5281371Y9144558D01*
X5279644Y9141460D01*
X5276240Y9134144D01*
X5275122Y9131096D01*
X5272735Y9123019D01*
X5272176Y9120174D01*
X5271008Y9111538D01*
X5270855Y9108948D01*
X5271262Y9097670D01*
X5273395Y9086240D01*
X5277154Y9075572D01*
X5282438Y9065514D01*
X5289194Y9056370D01*
X5296154Y9049308D01*
X5305450Y9042196D01*
X5315661Y9036659D01*
X5326583Y9032748D01*
X5338013Y9030512D01*
G37*
G36*
X1477619Y9230969D02*
G01*
X1646580Y9230969D01*
X1652879Y9231680D01*
X1658366Y9233611D01*
X1663242Y9236710D01*
X1664919Y9238335D01*
X1668221Y9240570D01*
X1672082Y9241332D01*
X1771497Y9241383D01*
X1780336Y9242196D01*
X1782775Y9242602D01*
X1791411Y9244736D01*
X1793748Y9245498D01*
X1801977Y9248902D01*
X1804162Y9250019D01*
X1811782Y9254642D01*
X1820621Y9261703D01*
X1935734Y9376765D01*
X1939036Y9378950D01*
X1942947Y9379762D01*
X2002180Y9379762D01*
X2008479Y9380474D01*
X2013966Y9382353D01*
X2018842Y9385452D01*
X2022957Y9389516D01*
X2026056Y9394444D01*
X2027936Y9399879D01*
X2028647Y9406229D01*
X2028647Y9525812D01*
X2027936Y9532162D01*
X2026056Y9537598D01*
X2022957Y9542526D01*
X2018842Y9546590D01*
X2013966Y9549688D01*
X2008479Y9551619D01*
X2002180Y9552330D01*
X1833219Y9552330D01*
X1823212Y9550908D01*
X1682038Y9550908D01*
X1678178Y9551670D01*
X1674875Y9553905D01*
X1619402Y9609378D01*
X1617218Y9612630D01*
X1616405Y9617913D01*
X1617218Y9621824D01*
X1619402Y9625126D01*
X1622704Y9627311D01*
X1626565Y9628073D01*
X1634947Y9628073D01*
X1641246Y9628784D01*
X1646732Y9630714D01*
X1651609Y9633813D01*
X1655724Y9637877D01*
X1658772Y9642805D01*
X1660702Y9648240D01*
X1661414Y9654590D01*
X1661414Y9713417D01*
X1660702Y9719767D01*
X1658772Y9725202D01*
X1655724Y9730130D01*
X1651609Y9734194D01*
X1646732Y9737293D01*
X1641246Y9739223D01*
X1634947Y9739934D01*
X1496060Y9739934D01*
X1489760Y9739223D01*
X1484274Y9737293D01*
X1479397Y9734194D01*
X1475282Y9730130D01*
X1472234Y9725202D01*
X1470304Y9719767D01*
X1469593Y9713417D01*
X1469593Y9654590D01*
X1470304Y9648240D01*
X1472234Y9642805D01*
X1475282Y9637877D01*
X1479397Y9633813D01*
X1484274Y9630714D01*
X1489760Y9628784D01*
X1496060Y9628073D01*
X1504442Y9628073D01*
X1508353Y9627311D01*
X1511655Y9625126D01*
X1513840Y9621824D01*
X1514602Y9617913D01*
X1514602Y9413697D01*
X1513840Y9409836D01*
X1511655Y9406534D01*
X1508353Y9404350D01*
X1504442Y9403537D01*
X1477619Y9403537D01*
X1471320Y9402826D01*
X1465834Y9400946D01*
X1460957Y9397847D01*
X1456842Y9393783D01*
X1453743Y9388856D01*
X1451864Y9383420D01*
X1451152Y9377070D01*
X1451152Y9257487D01*
X1451864Y9251137D01*
X1453743Y9245701D01*
X1456842Y9240774D01*
X1460957Y9236710D01*
X1465834Y9233611D01*
X1471320Y9231680D01*
G37*
G36*
X1833219Y9675469D02*
G01*
X1868830Y9675469D01*
X1868830Y9725253D01*
X1806752Y9725253D01*
X1806752Y9701987D01*
X1807464Y9695637D01*
X1809343Y9690201D01*
X1812442Y9685274D01*
X1816557Y9681210D01*
X1821434Y9678111D01*
X1826920Y9676180D01*
G37*
G36*
X1966569Y9675469D02*
G01*
X2002180Y9675469D01*
X2008479Y9676180D01*
X2013966Y9678111D01*
X2018842Y9681210D01*
X2022957Y9685274D01*
X2026056Y9690201D01*
X2027936Y9695637D01*
X2028647Y9701987D01*
X2028647Y9725253D01*
X1966569Y9725253D01*
G37*
G36*
X1286052Y9723069D02*
G01*
X1424940Y9723069D01*
X1431239Y9723780D01*
X1436725Y9725710D01*
X1441602Y9728809D01*
X1445717Y9732873D01*
X1448765Y9737801D01*
X1450695Y9743236D01*
X1451406Y9749586D01*
X1451406Y9808413D01*
X1450695Y9814763D01*
X1448765Y9820198D01*
X1445717Y9825126D01*
X1441602Y9829190D01*
X1436725Y9832289D01*
X1431239Y9834219D01*
X1424940Y9834930D01*
X1286052Y9834930D01*
X1279753Y9834219D01*
X1274267Y9832289D01*
X1270406Y9830308D01*
X1267561Y9829901D01*
X1142898Y9829901D01*
X1138986Y9830663D01*
X1135735Y9832898D01*
X1057198Y9911435D01*
X1054963Y9914686D01*
X1054201Y9918598D01*
X1054201Y10325201D01*
X1054963Y10329113D01*
X1057198Y10332364D01*
X1085494Y10360710D01*
X1088948Y10362946D01*
X1093063Y10363657D01*
X1095095Y10363555D01*
X1106627Y10364927D01*
X1117854Y10367975D01*
X1128471Y10372750D01*
X1138174Y10379049D01*
X1146860Y10386771D01*
X1154277Y10395762D01*
X1160221Y10405719D01*
X1164539Y10416489D01*
X1167180Y10427817D01*
X1168095Y10439400D01*
X1167180Y10450982D01*
X1164539Y10462310D01*
X1160221Y10473080D01*
X1154277Y10483037D01*
X1146860Y10492028D01*
X1138174Y10499750D01*
X1128471Y10506049D01*
X1117854Y10510824D01*
X1106627Y10513872D01*
X1095095Y10515244D01*
X1083513Y10514787D01*
X1072083Y10512552D01*
X1061161Y10508640D01*
X1050950Y10503103D01*
X1041704Y10496042D01*
X1033678Y10487660D01*
X1026972Y10478160D01*
X1021842Y10467746D01*
X1018336Y10456672D01*
X1016558Y10445191D01*
X1016558Y10439958D01*
X1015746Y10436047D01*
X1013561Y10432745D01*
X967435Y10386669D01*
X964285Y10383215D01*
X961593Y10379710D01*
X959205Y10375950D01*
X957173Y10371988D01*
X955446Y10367924D01*
X954125Y10363657D01*
X953160Y10359339D01*
X952601Y10354919D01*
X952398Y10350296D01*
X952398Y9893503D01*
X952601Y9888880D01*
X953160Y9884460D01*
X954125Y9880142D01*
X955446Y9875875D01*
X957173Y9871811D01*
X959205Y9867849D01*
X961593Y9864090D01*
X964285Y9860584D01*
X967435Y9857130D01*
X1081430Y9743135D01*
X1084884Y9739985D01*
X1088390Y9737293D01*
X1092149Y9734905D01*
X1096111Y9732873D01*
X1100175Y9731146D01*
X1104442Y9729825D01*
X1108760Y9728860D01*
X1113180Y9728301D01*
X1117803Y9728098D01*
X1267561Y9728098D01*
X1270406Y9727692D01*
X1274267Y9725710D01*
X1279753Y9723780D01*
G37*
G36*
X1806752Y9798304D02*
G01*
X1868830Y9798304D01*
X1868830Y9848037D01*
X1833219Y9848037D01*
X1826920Y9847326D01*
X1821434Y9845446D01*
X1816557Y9842347D01*
X1812442Y9838283D01*
X1809343Y9833356D01*
X1807464Y9827920D01*
X1806752Y9821570D01*
G37*
G36*
X1966569Y9798304D02*
G01*
X2028647Y9798304D01*
X2028647Y9821570D01*
X2027936Y9827920D01*
X2026056Y9833356D01*
X2022957Y9838283D01*
X2018842Y9842347D01*
X2013966Y9845446D01*
X2008479Y9847326D01*
X2002180Y9848037D01*
X1966569Y9848037D01*
G37*
G36*
X1496060Y9818065D02*
G01*
X1524152Y9818065D01*
X1524152Y9852660D01*
X1469593Y9852660D01*
X1469593Y9844582D01*
X1470304Y9838232D01*
X1472234Y9832797D01*
X1475282Y9827869D01*
X1479397Y9823805D01*
X1484274Y9820706D01*
X1489760Y9818776D01*
G37*
G36*
X1606854Y9818065D02*
G01*
X1634947Y9818065D01*
X1641246Y9818776D01*
X1646732Y9820706D01*
X1651609Y9823805D01*
X1655724Y9827869D01*
X1658772Y9832797D01*
X1660702Y9838232D01*
X1661414Y9844582D01*
X1661414Y9852660D01*
X1606854Y9852660D01*
G37*
G36*
X1469593Y9895332D02*
G01*
X1524152Y9895332D01*
X1524152Y9929926D01*
X1496060Y9929926D01*
X1489760Y9929215D01*
X1484274Y9927285D01*
X1479397Y9924186D01*
X1475282Y9920122D01*
X1472234Y9915194D01*
X1470304Y9909759D01*
X1469593Y9903409D01*
G37*
G36*
X1606854Y9895332D02*
G01*
X1661414Y9895332D01*
X1661414Y9903409D01*
X1660702Y9909759D01*
X1658772Y9915194D01*
X1655724Y9920122D01*
X1651609Y9924186D01*
X1646732Y9927285D01*
X1641246Y9929215D01*
X1634947Y9929926D01*
X1606854Y9929926D01*
G37*
G36*
X5147868Y10330942D02*
G01*
X5180330Y10330942D01*
X5180330Y10389870D01*
X5121402Y10389870D01*
X5121402Y10357408D01*
X5122113Y10351109D01*
X5124043Y10345623D01*
X5127091Y10340746D01*
X5131206Y10336631D01*
X5136083Y10333583D01*
X5141569Y10331653D01*
G37*
G36*
X5271770Y10330942D02*
G01*
X5304231Y10330942D01*
X5310530Y10331653D01*
X5316016Y10333583D01*
X5320893Y10336631D01*
X5325008Y10340746D01*
X5328056Y10345623D01*
X5329986Y10351109D01*
X5330698Y10357408D01*
X5330698Y10389870D01*
X5271770Y10389870D01*
G37*
G36*
X4972050Y10330942D02*
G01*
X4985715Y10331856D01*
X4999126Y10334548D01*
X5012080Y10338917D01*
X5024374Y10344962D01*
X5035753Y10352582D01*
X5046014Y10361625D01*
X5055057Y10371886D01*
X5062677Y10383266D01*
X5068722Y10395559D01*
X5073091Y10408513D01*
X5075783Y10421924D01*
X5076698Y10435590D01*
X5075783Y10449255D01*
X5073091Y10462666D01*
X5068722Y10475620D01*
X5062677Y10487914D01*
X5055057Y10499293D01*
X5046014Y10509554D01*
X5035753Y10518597D01*
X5024374Y10526217D01*
X5012080Y10532262D01*
X4999126Y10536631D01*
X4985715Y10539323D01*
X4972050Y10540238D01*
X4958384Y10539323D01*
X4944973Y10536631D01*
X4932019Y10532262D01*
X4919726Y10526217D01*
X4908346Y10518597D01*
X4898085Y10509554D01*
X4889042Y10499293D01*
X4881422Y10487914D01*
X4875377Y10475620D01*
X4871008Y10462666D01*
X4868316Y10449255D01*
X4867402Y10435590D01*
X4868316Y10421924D01*
X4871008Y10408513D01*
X4875377Y10395559D01*
X4881422Y10383266D01*
X4889042Y10371886D01*
X4898085Y10361625D01*
X4908346Y10352582D01*
X4919726Y10344962D01*
X4932019Y10338917D01*
X4944973Y10334548D01*
X4958384Y10331856D01*
G37*
G36*
X6156350Y10330942D02*
G01*
X6169964Y10331856D01*
X6183426Y10334548D01*
X6196380Y10338917D01*
X6208623Y10344962D01*
X6220002Y10352582D01*
X6230315Y10361625D01*
X6239306Y10371886D01*
X6246926Y10383266D01*
X6252972Y10395559D01*
X6257391Y10408513D01*
X6260033Y10421924D01*
X6260947Y10435590D01*
X6260033Y10449255D01*
X6257391Y10462666D01*
X6252972Y10475620D01*
X6246926Y10487914D01*
X6239306Y10499293D01*
X6230315Y10509554D01*
X6220002Y10518597D01*
X6208623Y10526217D01*
X6196380Y10532262D01*
X6183426Y10536631D01*
X6169964Y10539323D01*
X6156350Y10540187D01*
X6142685Y10539323D01*
X6129223Y10536631D01*
X6116269Y10532262D01*
X6104026Y10526217D01*
X6092647Y10518597D01*
X6082334Y10509554D01*
X6073343Y10499293D01*
X6065723Y10487914D01*
X6059678Y10475620D01*
X6055258Y10462666D01*
X6052616Y10449255D01*
X6051702Y10435590D01*
X6052616Y10421924D01*
X6055258Y10408513D01*
X6059678Y10395559D01*
X6065723Y10383266D01*
X6073343Y10371886D01*
X6082334Y10361625D01*
X6092647Y10352582D01*
X6104026Y10344962D01*
X6116269Y10338917D01*
X6129223Y10334548D01*
X6142685Y10331856D01*
G37*
G36*
X4718050Y10330942D02*
G01*
X4731715Y10331856D01*
X4745126Y10334548D01*
X4758080Y10338917D01*
X4770374Y10344962D01*
X4781753Y10352582D01*
X4792014Y10361625D01*
X4801057Y10371886D01*
X4808677Y10383266D01*
X4814722Y10395559D01*
X4819091Y10408513D01*
X4821783Y10421924D01*
X4822698Y10435590D01*
X4821783Y10449255D01*
X4819091Y10462666D01*
X4814722Y10475620D01*
X4808677Y10487914D01*
X4801057Y10499293D01*
X4792014Y10509554D01*
X4781753Y10518597D01*
X4770374Y10526217D01*
X4758080Y10532262D01*
X4745126Y10536631D01*
X4731715Y10539323D01*
X4718050Y10540238D01*
X4704384Y10539323D01*
X4690973Y10536631D01*
X4678019Y10532262D01*
X4665726Y10526217D01*
X4654346Y10518597D01*
X4644085Y10509554D01*
X4635042Y10499293D01*
X4627422Y10487914D01*
X4621377Y10475620D01*
X4617008Y10462666D01*
X4614316Y10449255D01*
X4613402Y10435590D01*
X4614316Y10421924D01*
X4617008Y10408513D01*
X4621377Y10395559D01*
X4627422Y10383266D01*
X4635042Y10371886D01*
X4644085Y10361625D01*
X4654346Y10352582D01*
X4665726Y10344962D01*
X4678019Y10338917D01*
X4690973Y10334548D01*
X4704384Y10331856D01*
G37*
G36*
X4464050Y10330942D02*
G01*
X4477715Y10331856D01*
X4491126Y10334548D01*
X4504080Y10338917D01*
X4516374Y10344962D01*
X4527753Y10352582D01*
X4538014Y10361625D01*
X4547057Y10371886D01*
X4554677Y10383266D01*
X4560722Y10395559D01*
X4565091Y10408513D01*
X4567783Y10421924D01*
X4568698Y10435590D01*
X4567783Y10449255D01*
X4565091Y10462666D01*
X4560722Y10475620D01*
X4554677Y10487914D01*
X4547057Y10499293D01*
X4538014Y10509554D01*
X4527753Y10518597D01*
X4516374Y10526217D01*
X4504080Y10532262D01*
X4491126Y10536631D01*
X4477715Y10539323D01*
X4464050Y10540238D01*
X4450384Y10539323D01*
X4436973Y10536631D01*
X4424019Y10532262D01*
X4411726Y10526217D01*
X4400346Y10518597D01*
X4390085Y10509554D01*
X4381042Y10499293D01*
X4373422Y10487914D01*
X4367377Y10475620D01*
X4363008Y10462666D01*
X4360316Y10449255D01*
X4359402Y10435590D01*
X4360316Y10421924D01*
X4363008Y10408513D01*
X4367377Y10395559D01*
X4373422Y10383266D01*
X4381042Y10371886D01*
X4390085Y10361625D01*
X4400346Y10352582D01*
X4411726Y10344962D01*
X4424019Y10338917D01*
X4436973Y10334548D01*
X4450384Y10331856D01*
G37*
G36*
X7086600Y10330942D02*
G01*
X7100265Y10331856D01*
X7113676Y10334548D01*
X7126630Y10338917D01*
X7138924Y10344962D01*
X7150303Y10352582D01*
X7160564Y10361625D01*
X7169607Y10371886D01*
X7177227Y10383266D01*
X7183272Y10395559D01*
X7187641Y10408513D01*
X7190333Y10421924D01*
X7191248Y10435590D01*
X7190333Y10449255D01*
X7187641Y10462666D01*
X7183272Y10475620D01*
X7177227Y10487914D01*
X7169607Y10499293D01*
X7160564Y10509554D01*
X7150303Y10518597D01*
X7138924Y10526217D01*
X7126630Y10532262D01*
X7113676Y10536631D01*
X7100265Y10539323D01*
X7086600Y10540187D01*
X7072934Y10539323D01*
X7059523Y10536631D01*
X7046569Y10532262D01*
X7034275Y10526217D01*
X7022896Y10518597D01*
X7012635Y10509554D01*
X7003592Y10499293D01*
X6995972Y10487914D01*
X6989927Y10475620D01*
X6985558Y10462666D01*
X6982866Y10449255D01*
X6981952Y10435590D01*
X6982866Y10421924D01*
X6985558Y10408513D01*
X6989927Y10395559D01*
X6995972Y10383266D01*
X7003592Y10371886D01*
X7012635Y10361625D01*
X7022896Y10352582D01*
X7034275Y10344962D01*
X7046569Y10338917D01*
X7059523Y10334548D01*
X7072934Y10331856D01*
G37*
G36*
X5570169Y10330942D02*
G01*
X5726480Y10330942D01*
X5732830Y10331653D01*
X5738266Y10333583D01*
X5743194Y10336631D01*
X5747258Y10340746D01*
X5750356Y10345623D01*
X5752236Y10351109D01*
X5752998Y10357408D01*
X5752998Y10513771D01*
X5752236Y10520070D01*
X5750356Y10525556D01*
X5747258Y10530433D01*
X5743194Y10534548D01*
X5738266Y10537596D01*
X5732830Y10539526D01*
X5726480Y10540238D01*
X5570169Y10540238D01*
X5563819Y10539526D01*
X5558383Y10537596D01*
X5553456Y10534548D01*
X5549392Y10530433D01*
X5546293Y10525556D01*
X5544413Y10520070D01*
X5543702Y10513771D01*
X5543702Y10357408D01*
X5544413Y10351109D01*
X5546293Y10345623D01*
X5549392Y10340746D01*
X5553456Y10336631D01*
X5558383Y10333583D01*
X5563819Y10331653D01*
G37*
G36*
X6500418Y10330942D02*
G01*
X6656781Y10330942D01*
X6663080Y10331653D01*
X6668566Y10333583D01*
X6673443Y10336631D01*
X6677558Y10340746D01*
X6680606Y10345623D01*
X6682536Y10351109D01*
X6683248Y10357408D01*
X6683248Y10513771D01*
X6682536Y10520070D01*
X6680606Y10525556D01*
X6677558Y10530433D01*
X6673443Y10534548D01*
X6668566Y10537596D01*
X6663080Y10539526D01*
X6656781Y10540238D01*
X6500418Y10540238D01*
X6494119Y10539526D01*
X6488633Y10537596D01*
X6483756Y10534548D01*
X6479641Y10530433D01*
X6476593Y10525556D01*
X6474663Y10520070D01*
X6473952Y10513771D01*
X6473952Y10357408D01*
X6474663Y10351109D01*
X6476593Y10345623D01*
X6479641Y10340746D01*
X6483756Y10336631D01*
X6488633Y10333583D01*
X6494119Y10331653D01*
G37*
G36*
X3033318Y10332212D02*
G01*
X3065780Y10332212D01*
X3065780Y10391140D01*
X3006852Y10391140D01*
X3006852Y10358678D01*
X3007563Y10352379D01*
X3009493Y10346893D01*
X3012541Y10342016D01*
X3016656Y10337901D01*
X3021533Y10334853D01*
X3027019Y10332923D01*
G37*
G36*
X3157220Y10332212D02*
G01*
X3189681Y10332212D01*
X3195980Y10332923D01*
X3201466Y10334853D01*
X3206343Y10337901D01*
X3210458Y10342016D01*
X3213506Y10346893D01*
X3215436Y10352379D01*
X3216148Y10358678D01*
X3216148Y10391140D01*
X3157220Y10391140D01*
G37*
G36*
X1600200Y10332212D02*
G01*
X1613865Y10333126D01*
X1627276Y10335818D01*
X1640230Y10340187D01*
X1652524Y10346232D01*
X1663903Y10353852D01*
X1674164Y10362895D01*
X1683207Y10373156D01*
X1690827Y10384536D01*
X1696872Y10396829D01*
X1701241Y10409783D01*
X1703933Y10423194D01*
X1704848Y10436860D01*
X1703933Y10450525D01*
X1701241Y10463936D01*
X1696872Y10476890D01*
X1690827Y10489184D01*
X1683207Y10500563D01*
X1674164Y10510824D01*
X1663903Y10519867D01*
X1652524Y10527487D01*
X1640230Y10533532D01*
X1627276Y10537901D01*
X1613865Y10540593D01*
X1600200Y10541508D01*
X1586534Y10540593D01*
X1573123Y10537901D01*
X1560169Y10533532D01*
X1547876Y10527487D01*
X1536496Y10519867D01*
X1526235Y10510824D01*
X1517192Y10500563D01*
X1509572Y10489184D01*
X1503527Y10476890D01*
X1499158Y10463936D01*
X1496466Y10450525D01*
X1495552Y10436860D01*
X1496466Y10423194D01*
X1499158Y10409783D01*
X1503527Y10396829D01*
X1509572Y10384536D01*
X1517192Y10373156D01*
X1526235Y10362895D01*
X1536496Y10353852D01*
X1547876Y10346232D01*
X1560169Y10340187D01*
X1573123Y10335818D01*
X1586534Y10333126D01*
G37*
G36*
X2349500Y10332212D02*
G01*
X2363165Y10333126D01*
X2376576Y10335818D01*
X2389530Y10340187D01*
X2401824Y10346232D01*
X2413203Y10353852D01*
X2423464Y10362895D01*
X2432507Y10373156D01*
X2440127Y10384536D01*
X2446172Y10396829D01*
X2450541Y10409783D01*
X2453233Y10423194D01*
X2454148Y10436860D01*
X2453233Y10450525D01*
X2450541Y10463936D01*
X2446172Y10476890D01*
X2440127Y10489184D01*
X2432507Y10500563D01*
X2423464Y10510824D01*
X2413203Y10519867D01*
X2401824Y10527487D01*
X2389530Y10533532D01*
X2376576Y10537901D01*
X2363165Y10540593D01*
X2349500Y10541508D01*
X2335834Y10540593D01*
X2322423Y10537901D01*
X2309469Y10533532D01*
X2297176Y10527487D01*
X2285796Y10519867D01*
X2275535Y10510824D01*
X2266492Y10500563D01*
X2258872Y10489184D01*
X2252827Y10476890D01*
X2248458Y10463936D01*
X2245766Y10450525D01*
X2244852Y10436860D01*
X2245766Y10423194D01*
X2248458Y10409783D01*
X2252827Y10396829D01*
X2258872Y10384536D01*
X2266492Y10373156D01*
X2275535Y10362895D01*
X2285796Y10353852D01*
X2297176Y10346232D01*
X2309469Y10340187D01*
X2322423Y10335818D01*
X2335834Y10333126D01*
G37*
G36*
X2603500Y10332212D02*
G01*
X2617165Y10333126D01*
X2630576Y10335818D01*
X2643530Y10340187D01*
X2655824Y10346232D01*
X2667203Y10353852D01*
X2677464Y10362895D01*
X2686507Y10373156D01*
X2694127Y10384536D01*
X2700172Y10396829D01*
X2704541Y10409783D01*
X2707233Y10423194D01*
X2708148Y10436860D01*
X2707233Y10450525D01*
X2704541Y10463936D01*
X2700172Y10476890D01*
X2694127Y10489184D01*
X2686507Y10500563D01*
X2677464Y10510824D01*
X2667203Y10519867D01*
X2655824Y10527487D01*
X2643530Y10533532D01*
X2630576Y10537901D01*
X2617165Y10540593D01*
X2603500Y10541508D01*
X2589834Y10540593D01*
X2576423Y10537901D01*
X2563469Y10533532D01*
X2551176Y10527487D01*
X2539796Y10519867D01*
X2529535Y10510824D01*
X2520492Y10500563D01*
X2512872Y10489184D01*
X2506827Y10476890D01*
X2502458Y10463936D01*
X2499766Y10450525D01*
X2498852Y10436860D01*
X2499766Y10423194D01*
X2502458Y10409783D01*
X2506827Y10396829D01*
X2512872Y10384536D01*
X2520492Y10373156D01*
X2529535Y10362895D01*
X2539796Y10353852D01*
X2551176Y10346232D01*
X2563469Y10340187D01*
X2576423Y10335818D01*
X2589834Y10333126D01*
G37*
G36*
X2857500Y10332212D02*
G01*
X2871165Y10333126D01*
X2884576Y10335818D01*
X2897530Y10340187D01*
X2909824Y10346232D01*
X2921203Y10353852D01*
X2931464Y10362895D01*
X2940507Y10373156D01*
X2948127Y10384536D01*
X2954172Y10396829D01*
X2958541Y10409783D01*
X2961233Y10423194D01*
X2962148Y10436860D01*
X2961233Y10450525D01*
X2958541Y10463936D01*
X2954172Y10476890D01*
X2948127Y10489184D01*
X2940507Y10500563D01*
X2931464Y10510824D01*
X2921203Y10519867D01*
X2909824Y10527487D01*
X2897530Y10533532D01*
X2884576Y10537901D01*
X2871165Y10540593D01*
X2857500Y10541508D01*
X2843834Y10540593D01*
X2830423Y10537901D01*
X2817469Y10533532D01*
X2805176Y10527487D01*
X2793796Y10519867D01*
X2783535Y10510824D01*
X2774492Y10500563D01*
X2766872Y10489184D01*
X2760827Y10476890D01*
X2756458Y10463936D01*
X2753766Y10450525D01*
X2752852Y10436860D01*
X2753766Y10423194D01*
X2756458Y10409783D01*
X2760827Y10396829D01*
X2766872Y10384536D01*
X2774492Y10373156D01*
X2783535Y10362895D01*
X2793796Y10353852D01*
X2805176Y10346232D01*
X2817469Y10340187D01*
X2830423Y10335818D01*
X2843834Y10333126D01*
G37*
G36*
X1268018Y10332212D02*
G01*
X1424381Y10332212D01*
X1430680Y10332923D01*
X1436166Y10334853D01*
X1441043Y10337901D01*
X1445158Y10342016D01*
X1448206Y10346893D01*
X1450136Y10352379D01*
X1450848Y10358678D01*
X1450848Y10515041D01*
X1450136Y10521340D01*
X1448206Y10526826D01*
X1445158Y10531703D01*
X1441043Y10535818D01*
X1436166Y10538866D01*
X1430680Y10540796D01*
X1424381Y10541508D01*
X1268018Y10541508D01*
X1261719Y10540796D01*
X1256233Y10538866D01*
X1251356Y10535818D01*
X1247241Y10531703D01*
X1244193Y10526826D01*
X1242263Y10521340D01*
X1241552Y10515041D01*
X1241552Y10358678D01*
X1242263Y10352379D01*
X1244193Y10346893D01*
X1247241Y10342016D01*
X1251356Y10337901D01*
X1256233Y10334853D01*
X1261719Y10332923D01*
G37*
G36*
X3963619Y10333482D02*
G01*
X3996080Y10333482D01*
X3996080Y10392410D01*
X3937152Y10392410D01*
X3937152Y10359948D01*
X3937863Y10353649D01*
X3939743Y10348163D01*
X3942842Y10343286D01*
X3946906Y10339171D01*
X3951833Y10336123D01*
X3957269Y10334193D01*
G37*
G36*
X4087520Y10333482D02*
G01*
X4119930Y10333482D01*
X4126280Y10334193D01*
X4131716Y10336123D01*
X4136644Y10339171D01*
X4140708Y10343286D01*
X4143806Y10348163D01*
X4145686Y10353649D01*
X4146448Y10359948D01*
X4146448Y10392410D01*
X4087520Y10392410D01*
G37*
G36*
X3787800Y10333482D02*
G01*
X3801414Y10334396D01*
X3814876Y10337088D01*
X3827830Y10341457D01*
X3840073Y10347502D01*
X3851452Y10355122D01*
X3861765Y10364165D01*
X3870756Y10374426D01*
X3878376Y10385806D01*
X3884422Y10398099D01*
X3888841Y10411053D01*
X3891483Y10424464D01*
X3892397Y10438130D01*
X3891483Y10451795D01*
X3888841Y10465206D01*
X3884422Y10478160D01*
X3878376Y10490454D01*
X3870756Y10501833D01*
X3861765Y10512094D01*
X3851452Y10521137D01*
X3840073Y10528757D01*
X3827830Y10534802D01*
X3814876Y10539171D01*
X3801414Y10541863D01*
X3787800Y10542778D01*
X3774135Y10541863D01*
X3760673Y10539171D01*
X3747719Y10534802D01*
X3735476Y10528757D01*
X3724097Y10521137D01*
X3713784Y10512094D01*
X3704793Y10501833D01*
X3697173Y10490454D01*
X3691128Y10478160D01*
X3686708Y10465206D01*
X3684066Y10451795D01*
X3683152Y10438130D01*
X3684066Y10424464D01*
X3686708Y10411053D01*
X3691128Y10398099D01*
X3697173Y10385806D01*
X3704793Y10374426D01*
X3713784Y10364165D01*
X3724097Y10355122D01*
X3735476Y10347502D01*
X3747719Y10341457D01*
X3760673Y10337088D01*
X3774135Y10334396D01*
G37*
G36*
X3533800Y10333482D02*
G01*
X3547414Y10334396D01*
X3560876Y10337088D01*
X3573830Y10341457D01*
X3586073Y10347502D01*
X3597452Y10355122D01*
X3607765Y10364165D01*
X3616756Y10374426D01*
X3624376Y10385806D01*
X3630422Y10398099D01*
X3634841Y10411053D01*
X3637483Y10424464D01*
X3638397Y10438130D01*
X3637483Y10451795D01*
X3634841Y10465206D01*
X3630422Y10478160D01*
X3624376Y10490454D01*
X3616756Y10501833D01*
X3607765Y10512094D01*
X3597452Y10521137D01*
X3586073Y10528757D01*
X3573830Y10534802D01*
X3560876Y10539171D01*
X3547414Y10541863D01*
X3533800Y10542778D01*
X3520135Y10541863D01*
X3506673Y10539171D01*
X3493719Y10534802D01*
X3481476Y10528757D01*
X3470097Y10521137D01*
X3459784Y10512094D01*
X3450793Y10501833D01*
X3443173Y10490454D01*
X3437128Y10478160D01*
X3432708Y10465206D01*
X3430066Y10451795D01*
X3429152Y10438130D01*
X3430066Y10424464D01*
X3432708Y10411053D01*
X3437128Y10398099D01*
X3443173Y10385806D01*
X3450793Y10374426D01*
X3459784Y10364165D01*
X3470097Y10355122D01*
X3481476Y10347502D01*
X3493719Y10341457D01*
X3506673Y10337088D01*
X3520135Y10334396D01*
G37*
G36*
X5856630Y10341711D02*
G01*
X5856630Y10389870D01*
X5808472Y10389870D01*
X5811723Y10383266D01*
X5819343Y10371886D01*
X5828334Y10361625D01*
X5838647Y10352582D01*
X5850026Y10344962D01*
G37*
G36*
X5948070Y10341711D02*
G01*
X5954623Y10344962D01*
X5966002Y10352582D01*
X5976315Y10361625D01*
X5985306Y10371886D01*
X5992926Y10383266D01*
X5996178Y10389870D01*
X5948070Y10389870D01*
G37*
G36*
X6786880Y10341711D02*
G01*
X6786880Y10389870D01*
X6738721Y10389870D01*
X6741972Y10383266D01*
X6749592Y10371886D01*
X6758635Y10361625D01*
X6768896Y10352582D01*
X6780275Y10344962D01*
G37*
G36*
X6878320Y10341711D02*
G01*
X6884924Y10344962D01*
X6896303Y10352582D01*
X6906564Y10361625D01*
X6915607Y10371886D01*
X6923227Y10383266D01*
X6926478Y10389870D01*
X6878320Y10389870D01*
G37*
G36*
X5948070Y10481310D02*
G01*
X5996178Y10481310D01*
X5992926Y10487914D01*
X5985306Y10499293D01*
X5976315Y10509554D01*
X5966002Y10518597D01*
X5954623Y10526217D01*
X5948070Y10529468D01*
G37*
G36*
X6738721Y10481310D02*
G01*
X6786880Y10481310D01*
X6786880Y10529468D01*
X6780275Y10526217D01*
X6768896Y10518597D01*
X6758635Y10509554D01*
X6749592Y10499293D01*
X6741972Y10487914D01*
G37*
G36*
X5808472Y10481310D02*
G01*
X5856630Y10481310D01*
X5856630Y10529468D01*
X5850026Y10526217D01*
X5838647Y10518597D01*
X5828334Y10509554D01*
X5819343Y10499293D01*
X5811723Y10487914D01*
G37*
G36*
X6878320Y10481310D02*
G01*
X6926478Y10481310D01*
X6923227Y10487914D01*
X6915607Y10499293D01*
X6906564Y10509554D01*
X6896303Y10518597D01*
X6884924Y10526217D01*
X6878320Y10529468D01*
G37*
G36*
X5271770Y10481310D02*
G01*
X5330698Y10481310D01*
X5330698Y10513771D01*
X5329986Y10520070D01*
X5328056Y10525556D01*
X5325008Y10530433D01*
X5320893Y10534548D01*
X5316016Y10537596D01*
X5310530Y10539526D01*
X5304231Y10540238D01*
X5271770Y10540238D01*
G37*
G36*
X5121402Y10481310D02*
G01*
X5180330Y10481310D01*
X5180330Y10540238D01*
X5147868Y10540238D01*
X5141569Y10539526D01*
X5136083Y10537596D01*
X5131206Y10534548D01*
X5127091Y10530433D01*
X5124043Y10525556D01*
X5122113Y10520070D01*
X5121402Y10513771D01*
G37*
G36*
X3157220Y10482580D02*
G01*
X3216148Y10482580D01*
X3216148Y10515041D01*
X3215436Y10521340D01*
X3213506Y10526826D01*
X3210458Y10531703D01*
X3206343Y10535818D01*
X3201466Y10538866D01*
X3195980Y10540796D01*
X3189681Y10541508D01*
X3157220Y10541508D01*
G37*
G36*
X3006852Y10482580D02*
G01*
X3065780Y10482580D01*
X3065780Y10541508D01*
X3033318Y10541508D01*
X3027019Y10540796D01*
X3021533Y10538866D01*
X3016656Y10535818D01*
X3012541Y10531703D01*
X3009493Y10526826D01*
X3007563Y10521340D01*
X3006852Y10515041D01*
G37*
G36*
X3937152Y10483850D02*
G01*
X3996080Y10483850D01*
X3996080Y10542778D01*
X3963619Y10542778D01*
X3957269Y10542066D01*
X3951833Y10540136D01*
X3946906Y10537088D01*
X3942842Y10532973D01*
X3939743Y10528096D01*
X3937863Y10522610D01*
X3937152Y10516311D01*
G37*
G36*
X4087520Y10483850D02*
G01*
X4146448Y10483850D01*
X4146448Y10516311D01*
X4145686Y10522610D01*
X4143806Y10528096D01*
X4140708Y10532973D01*
X4136644Y10537088D01*
X4131716Y10540136D01*
X4126280Y10542066D01*
X4119930Y10542778D01*
X4087520Y10542778D01*
G37*

%LPD*%
G36*
X5018074Y6219494D02*
G01*
X5017516Y6219291D01*
X5015179Y6216548D01*
X5008422Y6206185D01*
X4998110Y6188760D01*
X4984546Y6164630D01*
X4967833Y6134201D01*
X4925872Y6056071D01*
X4874006Y5957468D01*
X4841036Y5894171D01*
X4768443Y5753354D01*
X4720488Y5659475D01*
X4599744Y5420918D01*
X4759858Y5420918D01*
X4801666Y5506923D01*
X4836312Y5576925D01*
X4868621Y5641035D01*
X4898390Y5698947D01*
X4925314Y5750255D01*
X4949291Y5794552D01*
X4970068Y5831484D01*
X4979162Y5847029D01*
X4987391Y5860592D01*
X4994706Y5872124D01*
X5002580Y5883605D01*
X5007762Y5890310D01*
X5011978Y5894882D01*
X5013706Y5896305D01*
X5015128Y5897168D01*
X5016347Y5897473D01*
X5018176Y5896762D01*
X5020564Y5894730D01*
X5023561Y5891428D01*
X5031130Y5881116D01*
X5040731Y5866282D01*
X5052110Y5847181D01*
X5065064Y5824372D01*
X5079339Y5798108D01*
X5094732Y5768898D01*
X5110988Y5737047D01*
X5127955Y5703011D01*
X5145430Y5667095D01*
X5272328Y5399735D01*
X4981956Y5399887D01*
X4944973Y5400497D01*
X4910226Y5401513D01*
X4878070Y5402884D01*
X4849012Y5404662D01*
X4823307Y5406745D01*
X4801412Y5409133D01*
X4783734Y5411774D01*
X4776571Y5413197D01*
X4770628Y5414619D01*
X4765954Y5416143D01*
X4762550Y5417667D01*
X4760518Y5419293D01*
X4760010Y5420106D01*
X4759858Y5420918D01*
X4599744Y5420918D01*
X4377207Y4979466D01*
X4548581Y4979466D01*
X4548682Y4983480D01*
X4549089Y4987696D01*
X4550918Y4996738D01*
X4552238Y5001564D01*
X4555845Y5011978D01*
X4560468Y5023358D01*
X4566107Y5035753D01*
X4572660Y5049164D01*
X4608982Y5118862D01*
X4677359Y5253380D01*
X5356961Y5253380D01*
X5514898Y4931308D01*
X4905603Y4931105D01*
X4777587Y4930851D01*
X4719015Y4931410D01*
X4693462Y4932019D01*
X4670247Y4932883D01*
X4649368Y4934051D01*
X4630674Y4935575D01*
X4614164Y4937506D01*
X4599686Y4939842D01*
X4587189Y4942687D01*
X4576572Y4946040D01*
X4572000Y4947920D01*
X4567834Y4949952D01*
X4564075Y4952136D01*
X4560773Y4954473D01*
X4557928Y4957013D01*
X4555439Y4959654D01*
X4553356Y4962499D01*
X4551680Y4965547D01*
X4550359Y4968748D01*
X4549394Y4972100D01*
X4548835Y4975707D01*
X4548581Y4979466D01*
X4377207Y4979466D01*
X4297222Y4819904D01*
X4290872Y4806899D01*
X4290872Y4806289D01*
X4291482Y4805680D01*
X4292650Y4805019D01*
X4296664Y4803851D01*
X4302912Y4802632D01*
X4321810Y4800295D01*
X4348784Y4798110D01*
X4383328Y4796028D01*
X4424984Y4794046D01*
X4473194Y4792218D01*
X4527499Y4790592D01*
X4587392Y4789119D01*
X4652416Y4787849D01*
X4721961Y4786782D01*
X4805121Y4785868D01*
X4943094Y4785055D01*
X5749594Y4784953D01*
X5354726Y5575300D01*
X5271719Y5739942D01*
X5199938Y5880811D01*
X5140299Y5996482D01*
X5093055Y6086703D01*
X5073142Y6124143D01*
X5055971Y6155893D01*
X5041747Y6181648D01*
X5030622Y6201054D01*
X5022850Y6213703D01*
X5020259Y6217412D01*
G37*
G36*
X5957112Y6116624D02*
G01*
X5929934Y6116167D01*
X5904992Y6115050D01*
X5883249Y6113373D01*
X5873902Y6112306D01*
X5865774Y6111087D01*
X5858967Y6109766D01*
X5854750Y6108700D01*
X5849569Y6106769D01*
X5844743Y6104229D01*
X5840323Y6100876D01*
X5836259Y6096457D01*
X5834380Y6093866D01*
X5830874Y6087618D01*
X5827725Y6079947D01*
X5824931Y6070600D01*
X5822391Y6059474D01*
X5820206Y6046368D01*
X5818327Y6031128D01*
X5816701Y6013500D01*
X5815330Y5993384D01*
X5814212Y5970524D01*
X5813348Y5944870D01*
X5812739Y5916117D01*
X5812129Y5848756D01*
X5812383Y5744210D01*
X5813348Y5642610D01*
X5822950Y4916678D01*
X6128562Y4899050D01*
X6145022Y5638444D01*
X6531914Y4916678D01*
X6979412Y4899558D01*
X6979412Y6102400D01*
X6659168Y6102400D01*
X6642709Y5393537D01*
X6436360Y5780887D01*
X6393586Y5859424D01*
X6374282Y5893917D01*
X6356299Y5925362D01*
X6339535Y5953810D01*
X6323939Y5979464D01*
X6309410Y6002375D01*
X6295898Y6022695D01*
X6283299Y6040475D01*
X6271564Y6055817D01*
X6260592Y6068872D01*
X6255410Y6074613D01*
X6245453Y6084417D01*
X6240729Y6088532D01*
X6236106Y6092190D01*
X6231636Y6095339D01*
X6227318Y6098032D01*
X6223050Y6100318D01*
X6218936Y6102096D01*
X6214872Y6103467D01*
X6210909Y6104432D01*
X6206998Y6104991D01*
X6121298Y6109462D01*
X6013907Y6115507D01*
X5985459Y6116370D01*
G37*
G36*
X2074418Y6115812D02*
G01*
X2037283Y6115456D01*
X2003094Y6114592D01*
X1975967Y6113272D01*
X1957070Y6111697D01*
X1949246Y6110782D01*
X1940814Y6109512D01*
X1932228Y6107684D01*
X1928215Y6106515D01*
X1920849Y6103467D01*
X1917496Y6101588D01*
X1914347Y6099403D01*
X1911350Y6096965D01*
X1908606Y6094272D01*
X1906016Y6091224D01*
X1903577Y6087872D01*
X1901342Y6084163D01*
X1899310Y6080099D01*
X1897380Y6075629D01*
X1895652Y6070854D01*
X1894078Y6065621D01*
X1891334Y6053886D01*
X1889150Y6040374D01*
X1887524Y6024880D01*
X1886356Y6007404D01*
X1885594Y5987745D01*
X1885238Y5965748D01*
X1885188Y5809640D01*
X2147163Y5809640D01*
X2163318Y4916678D01*
X2500020Y4899101D01*
X2500020Y5809640D01*
X2792780Y5809640D01*
X2792780Y6102400D01*
X2504287Y6109208D01*
X2328265Y6112916D01*
X2255520Y6114237D01*
X2192020Y6115151D01*
X2137105Y6115659D01*
G37*
G36*
X2880614Y6102400D02*
G01*
X2880614Y4902047D01*
X3200247Y4902047D01*
X3209848Y5550763D01*
X3211372Y5706008D01*
X3211779Y5773064D01*
X3211982Y5864352D01*
X3211779Y5930341D01*
X3211372Y5975451D01*
X3210763Y6012992D01*
X3209950Y6042253D01*
X3208934Y6062421D01*
X3208324Y6068923D01*
X3207715Y6072835D01*
X3206699Y6075121D01*
X3205327Y6076797D01*
X3203448Y6078423D01*
X3201111Y6080048D01*
X3194964Y6083198D01*
X3187090Y6086144D01*
X3177540Y6088938D01*
X3166516Y6091529D01*
X3154070Y6093917D01*
X3140405Y6096000D01*
X3125571Y6097879D01*
X3109772Y6099454D01*
X3093110Y6100724D01*
X3075686Y6101638D01*
X3057702Y6102197D01*
X3039211Y6102400D01*
G37*
G36*
X3287268Y6102400D02*
G01*
X3305149Y5824270D01*
X3583279Y5806440D01*
X3583279Y4902047D01*
X3934561Y4902047D01*
X3934561Y5806440D01*
X4212691Y5824270D01*
X4230573Y6102400D01*
G37*
G36*
X5632653Y4641545D02*
G01*
X5632704Y4513224D01*
X5633059Y4494530D01*
X5633821Y4476902D01*
X5634837Y4460595D01*
X5636209Y4445863D01*
X5637784Y4432960D01*
X5639612Y4422190D01*
X5641594Y4413707D01*
X5642660Y4410405D01*
X5643778Y4407814D01*
X5644946Y4405884D01*
X5646115Y4404715D01*
X5647283Y4404360D01*
X5649112Y4404664D01*
X5651550Y4405680D01*
X5654598Y4407306D01*
X5662218Y4412335D01*
X5671667Y4419447D01*
X5682589Y4428388D01*
X5694680Y4438904D01*
X5707583Y4450689D01*
X5720994Y4463491D01*
X5793689Y4536084D01*
X5803036Y4470196D01*
X5804103Y4463897D01*
X5805525Y4457750D01*
X5807252Y4451807D01*
X5809234Y4446117D01*
X5811469Y4440682D01*
X5813958Y4435500D01*
X5816600Y4430623D01*
X5819394Y4426000D01*
X5825388Y4417822D01*
X5828538Y4414266D01*
X5831738Y4411116D01*
X5834938Y4408322D01*
X5838139Y4405985D01*
X5841288Y4404055D01*
X5844438Y4402582D01*
X5847435Y4401616D01*
X5850331Y4401108D01*
X5853125Y4401108D01*
X5855716Y4401667D01*
X5858103Y4402734D01*
X5860237Y4404410D01*
X5862167Y4406646D01*
X5863793Y4409490D01*
X5865063Y4412996D01*
X5866079Y4417110D01*
X5866638Y4421886D01*
X5866841Y4427321D01*
X5867400Y4430471D01*
X5868974Y4433417D01*
X5871464Y4436262D01*
X5874867Y4438904D01*
X5879084Y4441393D01*
X5884062Y4443577D01*
X5889701Y4445558D01*
X5895949Y4447184D01*
X5902706Y4448505D01*
X5909919Y4449521D01*
X5917488Y4450130D01*
X5925413Y4450334D01*
X5933338Y4450130D01*
X5940958Y4449521D01*
X5948172Y4448505D01*
X5954928Y4447184D01*
X5961126Y4445558D01*
X5966764Y4443577D01*
X5971743Y4441393D01*
X5975959Y4438904D01*
X5979363Y4436262D01*
X5981852Y4433417D01*
X5983427Y4430471D01*
X5984595Y4422698D01*
X5986272Y4418431D01*
X5989015Y4414520D01*
X5992571Y4411116D01*
X5996889Y4408271D01*
X6001867Y4406138D01*
X6007354Y4404817D01*
X6013246Y4404360D01*
X6015634Y4404715D01*
X6017971Y4405884D01*
X6020257Y4407763D01*
X6022492Y4410354D01*
X6024626Y4413554D01*
X6026658Y4417466D01*
X6028639Y4421936D01*
X6030518Y4427016D01*
X6032296Y4432604D01*
X6035446Y4445355D01*
X6038138Y4459884D01*
X6040221Y4475988D01*
X6041694Y4493412D01*
X6042406Y4511852D01*
X6042456Y4529124D01*
X6041948Y4543755D01*
X6040882Y4557420D01*
X6039408Y4570069D01*
X6037478Y4581753D01*
X6035141Y4592421D01*
X6032449Y4602022D01*
X6029452Y4610506D01*
X6026099Y4617974D01*
X6022543Y4624273D01*
X6018733Y4629404D01*
X6014720Y4633417D01*
X6012688Y4634941D01*
X6010554Y4636211D01*
X6008420Y4637176D01*
X6006287Y4637786D01*
X6004102Y4638141D01*
X5999683Y4637887D01*
X5997448Y4637278D01*
X5995212Y4636363D01*
X5992977Y4635093D01*
X5990742Y4633518D01*
X5988507Y4631588D01*
X5984087Y4626813D01*
X5979769Y4620666D01*
X5975502Y4613148D01*
X5971438Y4604207D01*
X5967526Y4593894D01*
X5963818Y4582109D01*
X5955741Y4552696D01*
X5951982Y4541723D01*
X5950204Y4537557D01*
X5948324Y4534255D01*
X5946444Y4531766D01*
X5944463Y4530140D01*
X5942380Y4529378D01*
X5940094Y4529429D01*
X5937656Y4530293D01*
X5934964Y4531969D01*
X5931966Y4534458D01*
X5928715Y4537760D01*
X5921095Y4546803D01*
X5903874Y4569612D01*
X5900928Y4572965D01*
X5894222Y4579467D01*
X5886399Y4585766D01*
X5877560Y4591761D01*
X5867806Y4597501D01*
X5857189Y4602886D01*
X5845810Y4607915D01*
X5833668Y4612538D01*
X5820918Y4616754D01*
X5807608Y4620564D01*
X5793790Y4623866D01*
X5779516Y4626660D01*
X5764936Y4628896D01*
X5750052Y4630572D01*
G37*
G36*
X2485390Y4638548D02*
G01*
X2473502Y4638395D01*
X2462936Y4637836D01*
X2453690Y4636770D01*
X2445613Y4634992D01*
X2438603Y4632401D01*
X2435555Y4630724D01*
X2432710Y4628794D01*
X2430068Y4626559D01*
X2427681Y4624070D01*
X2425547Y4621276D01*
X2423566Y4618075D01*
X2421839Y4614570D01*
X2420264Y4610709D01*
X2418842Y4606442D01*
X2416556Y4596638D01*
X2414828Y4585106D01*
X2413609Y4571593D01*
X2412847Y4556048D01*
X2412390Y4538268D01*
X2412187Y4518152D01*
X2412187Y4375810D01*
X2568194Y4385208D01*
X2600655Y4388154D01*
X2631744Y4391863D01*
X2646375Y4393946D01*
X2673299Y4398518D01*
X2685338Y4400905D01*
X2696159Y4403394D01*
X2705709Y4405934D01*
X2713888Y4408474D01*
X2720441Y4411014D01*
X2730144Y4416044D01*
X2735122Y4417923D01*
X2740202Y4419092D01*
X2745333Y4419650D01*
X2750413Y4419498D01*
X2755392Y4418787D01*
X2760218Y4417415D01*
X2764840Y4415434D01*
X2769158Y4412894D01*
X2773070Y4409795D01*
X2776626Y4406087D01*
X2781604Y4399229D01*
X2783941Y4396790D01*
X2786684Y4394555D01*
X2789783Y4392523D01*
X2793238Y4390694D01*
X2801213Y4387646D01*
X2805633Y4386427D01*
X2815336Y4384548D01*
X2820568Y4383836D01*
X2831642Y4383024D01*
X2843530Y4382922D01*
X2855976Y4383430D01*
X2868828Y4384598D01*
X2882036Y4386326D01*
X2895346Y4388662D01*
X2908604Y4391558D01*
X2921711Y4395012D01*
X2934462Y4398924D01*
X2946755Y4403293D01*
X2958388Y4408119D01*
X2969260Y4413351D01*
X2979166Y4418990D01*
X2987954Y4424984D01*
X2995472Y4431334D01*
X2998724Y4434586D01*
X3001619Y4437938D01*
X3008528Y4447590D01*
X3012795Y4452518D01*
X3016961Y4456125D01*
X3020974Y4458462D01*
X3025038Y4459528D01*
X3029102Y4459224D01*
X3033217Y4457598D01*
X3037484Y4454601D01*
X3041904Y4450283D01*
X3046577Y4444593D01*
X3051505Y4437481D01*
X3059480Y4424883D01*
X3062528Y4421022D01*
X3065983Y4417466D01*
X3069691Y4414164D01*
X3073755Y4411167D01*
X3078073Y4408373D01*
X3082594Y4405884D01*
X3092297Y4401718D01*
X3097428Y4399991D01*
X3102660Y4398568D01*
X3113481Y4396435D01*
X3118967Y4395774D01*
X3130042Y4395165D01*
X3135579Y4395216D01*
X3141065Y4395520D01*
X3146450Y4396079D01*
X3156966Y4397908D01*
X3161995Y4399178D01*
X3166872Y4400702D01*
X3171545Y4402429D01*
X3176016Y4404410D01*
X3180181Y4406595D01*
X3184093Y4409033D01*
X3187750Y4411675D01*
X3191002Y4414520D01*
X3193948Y4417618D01*
X3196488Y4420920D01*
X3198672Y4424426D01*
X3200349Y4428134D01*
X3201619Y4432096D01*
X3202381Y4436262D01*
X3203244Y4446981D01*
X3204972Y4451604D01*
X3207867Y4454347D01*
X3211880Y4455363D01*
X3217062Y4454499D01*
X3223361Y4451858D01*
X3230727Y4447438D01*
X3244596Y4437278D01*
X3250539Y4433468D01*
X3256940Y4429760D01*
X3263696Y4426305D01*
X3270758Y4423054D01*
X3278022Y4420057D01*
X3285337Y4417364D01*
X3292652Y4415028D01*
X3299815Y4413046D01*
X3306826Y4411522D01*
X3313480Y4410405D01*
X3335274Y4408678D01*
X3360369Y4406188D01*
X3387394Y4402988D01*
X3419094Y4398467D01*
X3426714Y4397603D01*
X3434181Y4397349D01*
X3441547Y4397705D01*
X3448608Y4398670D01*
X3455365Y4400143D01*
X3461715Y4402124D01*
X3467557Y4404614D01*
X3472789Y4407560D01*
X3477412Y4410913D01*
X3481273Y4414672D01*
X3484270Y4418838D01*
X3486404Y4423257D01*
X3487521Y4427778D01*
X3487674Y4432046D01*
X3486861Y4435957D01*
X3485184Y4439615D01*
X3482644Y4442866D01*
X3479342Y4445711D01*
X3475278Y4448149D01*
X3470554Y4450130D01*
X3465169Y4451604D01*
X3459175Y4452518D01*
X3452672Y4452823D01*
X3439414Y4452315D01*
X3433470Y4452670D01*
X3427831Y4453585D01*
X3422446Y4455007D01*
X3417417Y4457039D01*
X3412693Y4459579D01*
X3408273Y4462678D01*
X3404158Y4466336D01*
X3400399Y4470501D01*
X3396945Y4475226D01*
X3393846Y4480458D01*
X3391103Y4486148D01*
X3388664Y4492396D01*
X3386632Y4499152D01*
X3384956Y4506417D01*
X3383635Y4514138D01*
X3382060Y4528159D01*
X3381756Y4534408D01*
X3381806Y4540199D01*
X3382111Y4545584D01*
X3382822Y4550460D01*
X3383889Y4554931D01*
X3385312Y4558944D01*
X3387090Y4562602D01*
X3389274Y4565853D01*
X3391865Y4568748D01*
X3394862Y4571238D01*
X3398265Y4573422D01*
X3402126Y4575251D01*
X3406394Y4576775D01*
X3411118Y4577943D01*
X3416350Y4578858D01*
X3421989Y4579518D01*
X3443020Y4580280D01*
X3450894Y4581042D01*
X3458362Y4582312D01*
X3465372Y4583988D01*
X3471824Y4586122D01*
X3477615Y4588611D01*
X3482746Y4591405D01*
X3487115Y4594555D01*
X3490671Y4597908D01*
X3493262Y4601514D01*
X3494887Y4605324D01*
X3495446Y4609287D01*
X3495141Y4612995D01*
X3494328Y4616500D01*
X3492957Y4619701D01*
X3491128Y4622647D01*
X3488842Y4625289D01*
X3486099Y4627676D01*
X3482949Y4629861D01*
X3479393Y4631740D01*
X3475532Y4633366D01*
X3471316Y4634738D01*
X3462070Y4636668D01*
X3457041Y4637278D01*
X3451809Y4637633D01*
X3446424Y4637735D01*
X3435197Y4637125D01*
X3429406Y4636516D01*
X3417671Y4634484D01*
X3405835Y4631436D01*
X3394201Y4627473D01*
X3388512Y4625136D01*
X3377488Y4619752D01*
X3372256Y4616704D01*
X3367227Y4613402D01*
X3362451Y4609896D01*
X3357930Y4606188D01*
X3348431Y4597095D01*
X3343554Y4592726D01*
X3338982Y4589018D01*
X3334715Y4586020D01*
X3330701Y4583734D01*
X3326892Y4582109D01*
X3323285Y4581194D01*
X3319830Y4580991D01*
X3316478Y4581499D01*
X3313176Y4582718D01*
X3309924Y4584598D01*
X3306724Y4587240D01*
X3303473Y4590542D01*
X3300171Y4594555D01*
X3290468Y4608982D01*
X3287369Y4612944D01*
X3284067Y4616551D01*
X3280613Y4619853D01*
X3276904Y4622901D01*
X3273044Y4625644D01*
X3268979Y4628083D01*
X3260394Y4632147D01*
X3255924Y4633722D01*
X3251301Y4635042D01*
X3246577Y4636109D01*
X3241802Y4636922D01*
X3231946Y4637735D01*
X3221837Y4637532D01*
X3216757Y4637074D01*
X3206496Y4635398D01*
X3196285Y4632756D01*
X3191205Y4631131D01*
X3181197Y4627168D01*
X3171494Y4622342D01*
X3162147Y4616653D01*
X3157626Y4613554D01*
X3149041Y4606696D01*
X3141065Y4599076D01*
X3137357Y4595012D01*
X3133852Y4590745D01*
X3127451Y4581702D01*
X3121964Y4572000D01*
X3119628Y4566920D01*
X3117545Y4561687D01*
X3115716Y4556252D01*
X3096564Y4477512D01*
X3073654Y4566462D01*
X3069996Y4578197D01*
X3066084Y4588713D01*
X3061919Y4597958D01*
X3057499Y4605985D01*
X3055264Y4609541D01*
X3050540Y4615738D01*
X3045663Y4620768D01*
X3043174Y4622800D01*
X3038043Y4626000D01*
X3035452Y4627118D01*
X3032810Y4627981D01*
X3030169Y4628540D01*
X3027527Y4628794D01*
X3024835Y4628743D01*
X3022092Y4628388D01*
X3019399Y4627778D01*
X3016656Y4626864D01*
X3013913Y4625644D01*
X3008426Y4622342D01*
X3002940Y4617872D01*
X2997454Y4612233D01*
X2992069Y4605477D01*
X2986684Y4597552D01*
X2981452Y4588510D01*
X2976321Y4578350D01*
X2971292Y4567021D01*
X2966466Y4554626D01*
X2961792Y4541113D01*
X2952750Y4511751D01*
X2947720Y4498289D01*
X2945079Y4492040D01*
X2939440Y4480458D01*
X2936886Y4475835D01*
X3272790Y4475835D01*
X3272891Y4482134D01*
X3274314Y4488332D01*
X3277108Y4494174D01*
X3280816Y4499914D01*
X3284423Y4504944D01*
X3287877Y4509211D01*
X3291179Y4512818D01*
X3294379Y4515662D01*
X3297377Y4517847D01*
X3300272Y4519320D01*
X3302965Y4520082D01*
X3305505Y4520133D01*
X3307842Y4519523D01*
X3310026Y4518202D01*
X3311956Y4516170D01*
X3313734Y4513478D01*
X3315309Y4510125D01*
X3316630Y4506061D01*
X3317748Y4501337D01*
X3318611Y4495952D01*
X3319272Y4489907D01*
X3319779Y4475784D01*
X3319170Y4466996D01*
X3317443Y4459528D01*
X3314649Y4453483D01*
X3311042Y4448962D01*
X3306622Y4446117D01*
X3301593Y4445000D01*
X3296005Y4445762D01*
X3290011Y4448556D01*
X3284372Y4452823D01*
X3279800Y4457852D01*
X3276295Y4463491D01*
X3273958Y4469536D01*
X3272790Y4475835D01*
X2936886Y4475835D01*
X2933446Y4470146D01*
X2930296Y4465421D01*
X2923692Y4457039D01*
X2920288Y4453331D01*
X2916732Y4449927D01*
X2913126Y4446828D01*
X2909417Y4444034D01*
X2905607Y4441596D01*
X2901696Y4439513D01*
X2897682Y4437684D01*
X2893618Y4436211D01*
X2889453Y4435094D01*
X2885186Y4434281D01*
X2880817Y4433773D01*
X2876397Y4433620D01*
X2869031Y4433874D01*
X2861970Y4434687D01*
X2855264Y4435906D01*
X2849016Y4437634D01*
X2843225Y4439716D01*
X2837992Y4442206D01*
X2833420Y4445050D01*
X2829509Y4448149D01*
X2826359Y4451502D01*
X2824022Y4455109D01*
X2822549Y4458919D01*
X2822041Y4462881D01*
X2822448Y4466844D01*
X2823616Y4470654D01*
X2825546Y4474260D01*
X2828086Y4477664D01*
X2831236Y4480763D01*
X2834944Y4483557D01*
X2839161Y4486046D01*
X2843834Y4488180D01*
X2848914Y4489856D01*
X2854350Y4491126D01*
X2860040Y4491888D01*
X2872232Y4492345D01*
X2878023Y4492904D01*
X2883255Y4493818D01*
X2888030Y4495038D01*
X2892247Y4496562D01*
X2896006Y4498390D01*
X2899308Y4500422D01*
X2902051Y4502708D01*
X2904388Y4505198D01*
X2906166Y4507890D01*
X2907487Y4510684D01*
X2908350Y4513630D01*
X2908706Y4516729D01*
X2908604Y4519879D01*
X2907995Y4523079D01*
X2906979Y4526330D01*
X2905455Y4529582D01*
X2903474Y4532833D01*
X2901035Y4536084D01*
X2898140Y4539234D01*
X2894736Y4542332D01*
X2890926Y4545330D01*
X2886659Y4548225D01*
X2881985Y4550918D01*
X2876804Y4553458D01*
X2871216Y4555794D01*
X2865170Y4557928D01*
X2836367Y4565802D01*
X2827223Y4568698D01*
X2824327Y4569866D01*
X2822651Y4570882D01*
X2822041Y4571796D01*
X2822651Y4572558D01*
X2824327Y4573219D01*
X2831185Y4574387D01*
X2842666Y4575454D01*
X2858668Y4576622D01*
X2871114Y4577943D01*
X2881680Y4580128D01*
X2886354Y4581499D01*
X2890520Y4583023D01*
X2894330Y4584750D01*
X2897632Y4586579D01*
X2900578Y4588510D01*
X2903067Y4590592D01*
X2905150Y4592777D01*
X2906776Y4595012D01*
X2908046Y4597349D01*
X2908909Y4599736D01*
X2909366Y4602175D01*
X2909468Y4604613D01*
X2909163Y4607102D01*
X2908452Y4609592D01*
X2907385Y4612030D01*
X2905963Y4614468D01*
X2904185Y4616856D01*
X2899511Y4621479D01*
X2896616Y4623663D01*
X2889859Y4627778D01*
X2881782Y4631334D01*
X2872384Y4634331D01*
X2861665Y4636617D01*
X2849778Y4638040D01*
X2843377Y4638446D01*
X2828239Y4638446D01*
X2820416Y4638090D01*
X2813202Y4637481D01*
X2806598Y4636566D01*
X2800553Y4635347D01*
X2795016Y4633823D01*
X2790088Y4631893D01*
X2785618Y4629658D01*
X2781655Y4626965D01*
X2778099Y4623866D01*
X2775051Y4620361D01*
X2772410Y4616399D01*
X2770124Y4611878D01*
X2768244Y4606899D01*
X2766720Y4601413D01*
X2765501Y4595317D01*
X2764586Y4588713D01*
X2763977Y4581448D01*
X2763621Y4573625D01*
X2763469Y4555642D01*
X2762961Y4539386D01*
X2762504Y4532630D01*
X2761792Y4526686D01*
X2760827Y4521606D01*
X2759608Y4517390D01*
X2758033Y4513935D01*
X2756154Y4511294D01*
X2753918Y4509414D01*
X2751277Y4508296D01*
X2748178Y4507890D01*
X2744622Y4508195D01*
X2740558Y4509160D01*
X2735986Y4510836D01*
X2730855Y4513173D01*
X2718714Y4519676D01*
X2703982Y4528515D01*
X2688234Y4538624D01*
X2681935Y4543044D01*
X2676652Y4547057D01*
X2672334Y4550765D01*
X2669032Y4554067D01*
X2666746Y4557115D01*
X2665425Y4559858D01*
X2665120Y4562348D01*
X2665730Y4564583D01*
X2667304Y4566666D01*
X2669844Y4568545D01*
X2673350Y4570272D01*
X2677718Y4571898D01*
X2696108Y4576470D01*
X2702306Y4578350D01*
X2707944Y4580432D01*
X2712974Y4582718D01*
X2717444Y4585208D01*
X2721305Y4587900D01*
X2724658Y4590643D01*
X2727452Y4593539D01*
X2729687Y4596536D01*
X2731363Y4599584D01*
X2732532Y4602632D01*
X2733141Y4605782D01*
X2733243Y4608830D01*
X2732786Y4611928D01*
X2731820Y4614926D01*
X2730347Y4617872D01*
X2728417Y4620666D01*
X2725928Y4623409D01*
X2722930Y4625949D01*
X2719476Y4628337D01*
X2715564Y4630572D01*
X2711094Y4632553D01*
X2706217Y4634280D01*
X2700832Y4635754D01*
X2694990Y4636922D01*
X2688691Y4637836D01*
X2681935Y4638344D01*
X2674772Y4638548D01*
X2662834Y4638040D01*
X2657195Y4637379D01*
X2646680Y4635347D01*
X2641752Y4634026D01*
X2637078Y4632452D01*
X2628442Y4628642D01*
X2624531Y4626457D01*
X2620822Y4624070D01*
X2617368Y4621530D01*
X2614168Y4618786D01*
X2611221Y4615891D01*
X2606040Y4609642D01*
X2603855Y4606290D01*
X2601925Y4602835D01*
X2600248Y4599228D01*
X2598826Y4595469D01*
X2596794Y4587748D01*
X2596184Y4583734D01*
X2595829Y4579620D01*
X2595880Y4571187D01*
X2597048Y4562500D01*
X2598013Y4558080D01*
X2599283Y4553661D01*
X2602636Y4544669D01*
X2607106Y4535627D01*
X2612745Y4526635D01*
X2615946Y4522114D01*
X2623312Y4513275D01*
X2627376Y4508855D01*
X2636469Y4500270D01*
X2646680Y4491939D01*
X2714701Y4440631D01*
X2584246Y4438904D01*
X2568244Y4439107D01*
X2553360Y4439666D01*
X2539644Y4440631D01*
X2527147Y4442002D01*
X2515870Y4443679D01*
X2505811Y4445711D01*
X2497074Y4448048D01*
X2489555Y4450689D01*
X2483307Y4453636D01*
X2478430Y4456836D01*
X2476449Y4458512D01*
X2474823Y4460240D01*
X2473553Y4462068D01*
X2472588Y4463948D01*
X2471978Y4465828D01*
X2471724Y4467809D01*
X2471775Y4469841D01*
X2472232Y4471873D01*
X2472994Y4473956D01*
X2474112Y4476140D01*
X2477465Y4480509D01*
X2479649Y4482795D01*
X2485186Y4487418D01*
X2492146Y4492142D01*
X2500579Y4496968D01*
X2510485Y4501845D01*
X2537358Y4513376D01*
X2543352Y4516221D01*
X2548229Y4518863D01*
X2551938Y4521301D01*
X2554478Y4523638D01*
X2555900Y4525975D01*
X2556103Y4528210D01*
X2555138Y4530547D01*
X2553004Y4532934D01*
X2549652Y4535424D01*
X2545080Y4538167D01*
X2539339Y4541113D01*
X2524099Y4547870D01*
X2505862Y4555439D01*
X2491740Y4561687D01*
X2486355Y4564278D01*
X2482088Y4566615D01*
X2478938Y4568596D01*
X2476906Y4570374D01*
X2475941Y4571898D01*
X2476093Y4573219D01*
X2477363Y4574286D01*
X2479649Y4575251D01*
X2483053Y4576013D01*
X2493060Y4577181D01*
X2507335Y4577943D01*
X2519832Y4578959D01*
X2525369Y4579823D01*
X2535174Y4582109D01*
X2539390Y4583531D01*
X2543149Y4585157D01*
X2546502Y4586884D01*
X2549398Y4588764D01*
X2551887Y4590796D01*
X2553970Y4592878D01*
X2555646Y4595114D01*
X2556865Y4597400D01*
X2557729Y4599736D01*
X2558186Y4602124D01*
X2558237Y4604562D01*
X2557932Y4607001D01*
X2557221Y4609439D01*
X2556154Y4611928D01*
X2554732Y4614367D01*
X2552903Y4616754D01*
X2550718Y4619091D01*
X2548178Y4621377D01*
X2545334Y4623562D01*
X2538526Y4627676D01*
X2534615Y4629556D01*
X2525877Y4632858D01*
X2515819Y4635550D01*
X2504541Y4637430D01*
X2492044Y4638446D01*
G37*
G36*
X3553968Y4638548D02*
G01*
X3551580Y4638141D01*
X3549243Y4637024D01*
X3546957Y4635144D01*
X3544773Y4632553D01*
X3542639Y4629302D01*
X3540556Y4625441D01*
X3538575Y4620920D01*
X3534968Y4610252D01*
X3533292Y4604156D01*
X3530396Y4590491D01*
X3528009Y4575149D01*
X3526231Y4558334D01*
X3525113Y4540351D01*
X3524707Y4521454D01*
X3525113Y4502505D01*
X3526231Y4484522D01*
X3528009Y4467758D01*
X3530396Y4452416D01*
X3533292Y4438751D01*
X3534968Y4432604D01*
X3538575Y4421936D01*
X3540556Y4417466D01*
X3542639Y4413554D01*
X3544773Y4410354D01*
X3546957Y4407763D01*
X3549243Y4405884D01*
X3551580Y4404715D01*
X3553968Y4404360D01*
X3557930Y4404766D01*
X3561740Y4405934D01*
X3565347Y4407814D01*
X3568750Y4410354D01*
X3571849Y4413504D01*
X3574643Y4417263D01*
X3577132Y4421479D01*
X3579266Y4426153D01*
X3580942Y4431182D01*
X3582212Y4436618D01*
X3582974Y4442307D01*
X3583787Y4457090D01*
X3585311Y4465320D01*
X3587750Y4472787D01*
X3590950Y4479290D01*
X3594811Y4484624D01*
X3599230Y4488688D01*
X3604158Y4491278D01*
X3609390Y4492193D01*
X3613099Y4491786D01*
X3616960Y4490618D01*
X3620871Y4488688D01*
X3624884Y4486148D01*
X3628898Y4482998D01*
X3632809Y4479290D01*
X3636670Y4475022D01*
X3640328Y4470349D01*
X3643782Y4465320D01*
X3646982Y4459884D01*
X3649878Y4454194D01*
X3657092Y4437126D01*
X3662019Y4427677D01*
X3664508Y4423562D01*
X3667048Y4419854D01*
X3669639Y4416552D01*
X3672230Y4413656D01*
X3674821Y4411167D01*
X3677412Y4409033D01*
X3680002Y4407306D01*
X3682593Y4405934D01*
X3685184Y4404969D01*
X3687775Y4404360D01*
X3690315Y4404106D01*
X3692855Y4404258D01*
X3695344Y4404715D01*
X3697782Y4405579D01*
X3700170Y4406747D01*
X3702507Y4408322D01*
X3704793Y4410202D01*
X3707028Y4412386D01*
X3709212Y4414926D01*
X3713276Y4421022D01*
X3717036Y4428388D01*
X3720388Y4436973D01*
X3723284Y4446828D01*
X3725722Y4457801D01*
X3727602Y4469942D01*
X3728872Y4483201D01*
X3729583Y4497527D01*
X3729583Y4513122D01*
X3728872Y4528616D01*
X3727551Y4543298D01*
X3725621Y4557014D01*
X3723132Y4569714D01*
X3720185Y4581398D01*
X3716782Y4592015D01*
X3712972Y4601413D01*
X3708857Y4609642D01*
X3704437Y4616551D01*
X3699764Y4622139D01*
X3694887Y4626305D01*
X3692398Y4627829D01*
X3689908Y4628997D01*
X3687368Y4629759D01*
X3684828Y4630166D01*
X3682237Y4630166D01*
X3679698Y4629759D01*
X3677158Y4628946D01*
X3674618Y4627727D01*
X3672078Y4626051D01*
X3669537Y4623968D01*
X3667048Y4621428D01*
X3664610Y4618431D01*
X3659835Y4611065D01*
X3657549Y4606696D01*
X3650640Y4590440D01*
X3647948Y4584852D01*
X3645154Y4579721D01*
X3642207Y4574997D01*
X3639159Y4570730D01*
X3636010Y4566869D01*
X3632758Y4563465D01*
X3629456Y4560519D01*
X3626154Y4558030D01*
X3622852Y4555947D01*
X3619500Y4554321D01*
X3616248Y4553102D01*
X3612997Y4552340D01*
X3609797Y4552035D01*
X3606698Y4552188D01*
X3603701Y4552797D01*
X3600856Y4553813D01*
X3598113Y4555286D01*
X3595573Y4557217D01*
X3593185Y4559554D01*
X3591051Y4562398D01*
X3589070Y4565650D01*
X3587394Y4569358D01*
X3585972Y4573524D01*
X3584803Y4578096D01*
X3583940Y4583176D01*
X3583432Y4588662D01*
X3582974Y4600600D01*
X3582212Y4606290D01*
X3580942Y4611674D01*
X3579266Y4616754D01*
X3577132Y4621428D01*
X3574643Y4625644D01*
X3571849Y4629353D01*
X3568750Y4632553D01*
X3565347Y4635093D01*
X3561740Y4636973D01*
X3557930Y4638141D01*
G37*
G36*
X4280052Y4638548D02*
G01*
X4274972Y4638446D01*
X4270248Y4638040D01*
X4265777Y4637328D01*
X4261612Y4636363D01*
X4257751Y4635042D01*
X4254195Y4633417D01*
X4250842Y4631385D01*
X4247794Y4628997D01*
X4245000Y4626203D01*
X4242460Y4623003D01*
X4240123Y4619345D01*
X4238040Y4615230D01*
X4236161Y4610608D01*
X4234484Y4605528D01*
X4233011Y4599940D01*
X4230624Y4587087D01*
X4228947Y4572000D01*
X4227880Y4554423D01*
X4227423Y4534255D01*
X4227597Y4505096D01*
X4285894Y4505096D01*
X4286046Y4512716D01*
X4286504Y4520133D01*
X4287215Y4527296D01*
X4289450Y4540707D01*
X4290923Y4546904D01*
X4292600Y4552645D01*
X4294530Y4557979D01*
X4296613Y4562856D01*
X4298848Y4567174D01*
X4301236Y4570933D01*
X4303826Y4574082D01*
X4306519Y4576622D01*
X4309313Y4578451D01*
X4312208Y4579620D01*
X4315206Y4580026D01*
X4319168Y4579467D01*
X4322927Y4577943D01*
X4326534Y4575505D01*
X4329938Y4572203D01*
X4333036Y4568139D01*
X4335881Y4563313D01*
X4338320Y4557826D01*
X4340453Y4551781D01*
X4342130Y4545228D01*
X4343400Y4538218D01*
X4344212Y4530852D01*
X4344466Y4523181D01*
X4344212Y4515307D01*
X4343400Y4507484D01*
X4342130Y4499660D01*
X4340453Y4492091D01*
X4338320Y4484725D01*
X4335881Y4477715D01*
X4333036Y4471162D01*
X4329938Y4465167D01*
X4326534Y4459782D01*
X4322927Y4455109D01*
X4319168Y4451197D01*
X4315206Y4448251D01*
X4312107Y4446727D01*
X4309160Y4446016D01*
X4306316Y4446066D01*
X4303623Y4446828D01*
X4301032Y4448352D01*
X4298645Y4450537D01*
X4296359Y4453382D01*
X4294327Y4456887D01*
X4292447Y4461002D01*
X4290771Y4465726D01*
X4289348Y4471009D01*
X4288129Y4476851D01*
X4287164Y4483201D01*
X4286046Y4497324D01*
X4285894Y4505096D01*
X4227597Y4505096D01*
X4228185Y4489653D01*
X4229201Y4474718D01*
X4230624Y4460951D01*
X4232554Y4448403D01*
X4234891Y4437024D01*
X4237685Y4426762D01*
X4240987Y4417669D01*
X4244797Y4409694D01*
X4249064Y4402886D01*
X4251401Y4399889D01*
X4253890Y4397146D01*
X4256481Y4394708D01*
X4259173Y4392523D01*
X4262069Y4390644D01*
X4265066Y4389018D01*
X4268165Y4387646D01*
X4271467Y4386529D01*
X4278426Y4385106D01*
X4282135Y4384802D01*
X4285945Y4384751D01*
X4294073Y4385462D01*
X4302810Y4387138D01*
X4312107Y4389882D01*
X4322064Y4393590D01*
X4332630Y4398314D01*
X4343857Y4404004D01*
X4348480Y4406595D01*
X4357116Y4412284D01*
X4364990Y4418482D01*
X4372102Y4425188D01*
X4378401Y4432401D01*
X4383989Y4439970D01*
X4388815Y4447946D01*
X4392930Y4456277D01*
X4396333Y4464862D01*
X4399026Y4473651D01*
X4401007Y4482693D01*
X4402328Y4491837D01*
X4403039Y4501083D01*
X4403039Y4510379D01*
X4402378Y4519726D01*
X4401159Y4529023D01*
X4399280Y4538218D01*
X4396790Y4547311D01*
X4393742Y4556201D01*
X4390136Y4564888D01*
X4385919Y4573320D01*
X4381144Y4581448D01*
X4375861Y4589221D01*
X4370019Y4596587D01*
X4363669Y4603546D01*
X4356862Y4609947D01*
X4349496Y4615891D01*
X4341672Y4621174D01*
X4333392Y4625898D01*
X4324654Y4629912D01*
X4315510Y4633264D01*
X4305858Y4635804D01*
X4295851Y4637532D01*
X4285437Y4638446D01*
G37*
G36*
X4554423Y4638548D02*
G01*
X4543145Y4638243D01*
X4533239Y4637532D01*
X4524603Y4636262D01*
X4517237Y4634280D01*
X4513986Y4632960D01*
X4510989Y4631436D01*
X4508296Y4629658D01*
X4505807Y4627626D01*
X4503623Y4625289D01*
X4501692Y4622647D01*
X4499965Y4619701D01*
X4498441Y4616399D01*
X4497171Y4612792D01*
X4495190Y4604359D01*
X4493971Y4594301D01*
X4493412Y4582414D01*
X4493463Y4568647D01*
X4494072Y4552848D01*
X4496460Y4514392D01*
X4497103Y4506823D01*
X4549394Y4506823D01*
X4549546Y4514392D01*
X4550003Y4521606D01*
X4550714Y4528413D01*
X4551680Y4534865D01*
X4552950Y4540961D01*
X4554423Y4546600D01*
X4556099Y4551883D01*
X4558030Y4556709D01*
X4560112Y4561128D01*
X4562398Y4565091D01*
X4564888Y4568647D01*
X4567529Y4571746D01*
X4570323Y4574387D01*
X4573219Y4576572D01*
X4576267Y4578248D01*
X4579416Y4579467D01*
X4582668Y4580229D01*
X4585970Y4580432D01*
X4589373Y4580178D01*
X4592828Y4579366D01*
X4596333Y4578045D01*
X4599838Y4576165D01*
X4603394Y4573778D01*
X4606950Y4570831D01*
X4610506Y4567326D01*
X4614011Y4563262D01*
X4617516Y4558588D01*
X4620971Y4553356D01*
X4623003Y4549495D01*
X4624679Y4545279D01*
X4626000Y4540758D01*
X4626914Y4535932D01*
X4627473Y4530902D01*
X4627676Y4525619D01*
X4627575Y4520234D01*
X4627168Y4514646D01*
X4625492Y4503318D01*
X4622698Y4491837D01*
X4620971Y4486198D01*
X4616805Y4475226D01*
X4614418Y4469942D01*
X4609134Y4460087D01*
X4606239Y4455566D01*
X4603191Y4451350D01*
X4600041Y4447489D01*
X4596739Y4444034D01*
X4593386Y4441037D01*
X4589932Y4438446D01*
X4586376Y4436414D01*
X4582820Y4434890D01*
X4579213Y4433925D01*
X4575556Y4433620D01*
X4572863Y4433976D01*
X4570272Y4435094D01*
X4567783Y4436922D01*
X4565396Y4439412D01*
X4563110Y4442460D01*
X4560976Y4446168D01*
X4558944Y4450384D01*
X4557064Y4455109D01*
X4555388Y4460341D01*
X4553864Y4465980D01*
X4551476Y4478375D01*
X4550562Y4485081D01*
X4549546Y4499356D01*
X4549394Y4506823D01*
X4497103Y4506823D01*
X4497832Y4499051D01*
X4499660Y4484624D01*
X4501896Y4471009D01*
X4504537Y4458360D01*
X4507585Y4446524D01*
X4511040Y4435602D01*
X4514850Y4425594D01*
X4519066Y4416501D01*
X4523638Y4408322D01*
X4528515Y4401058D01*
X4533747Y4394758D01*
X4539335Y4389374D01*
X4542231Y4387037D01*
X4548276Y4383074D01*
X4554626Y4380077D01*
X4557928Y4378909D01*
X4564684Y4377385D01*
X4568190Y4376978D01*
X4575352Y4376877D01*
X4582769Y4377791D01*
X4590440Y4379671D01*
X4598365Y4382566D01*
X4606493Y4386478D01*
X4614824Y4391406D01*
X4623358Y4397349D01*
X4632045Y4404360D01*
X4640986Y4412386D01*
X4652416Y4423613D01*
X4664354Y4434636D01*
X4669485Y4438751D01*
X4674057Y4442002D01*
X4678172Y4444339D01*
X4681880Y4445762D01*
X4685284Y4446270D01*
X4688382Y4445914D01*
X4691227Y4444644D01*
X4693920Y4442460D01*
X4696460Y4439412D01*
X4699000Y4435449D01*
X4701489Y4430623D01*
X4708652Y4413758D01*
X4711141Y4409541D01*
X4714036Y4405528D01*
X4717338Y4401769D01*
X4721047Y4398264D01*
X4725111Y4395012D01*
X4729480Y4391964D01*
X4734153Y4389221D01*
X4739081Y4386681D01*
X4744262Y4384395D01*
X4749596Y4382363D01*
X4755134Y4380636D01*
X4766614Y4377893D01*
X4778451Y4376267D01*
X4790338Y4375708D01*
X4796282Y4375861D01*
X4802124Y4376267D01*
X4807915Y4376978D01*
X4813554Y4377994D01*
X4819040Y4379264D01*
X4824374Y4380839D01*
X4829454Y4382719D01*
X4834331Y4384903D01*
X4838954Y4387392D01*
X4843221Y4390136D01*
X4847183Y4393234D01*
X4850790Y4396638D01*
X4853990Y4400346D01*
X4856784Y4404360D01*
X4858715Y4408322D01*
X4859426Y4412081D01*
X4859070Y4415688D01*
X4857648Y4419092D01*
X4855260Y4422190D01*
X4851857Y4425035D01*
X4847640Y4427474D01*
X4842510Y4429607D01*
X4836617Y4431284D01*
X4829962Y4432554D01*
X4822596Y4433366D01*
X4806492Y4433874D01*
X4798669Y4434687D01*
X4791202Y4435906D01*
X4784242Y4437634D01*
X4777841Y4439716D01*
X4772050Y4442206D01*
X4766919Y4445050D01*
X4762601Y4448149D01*
X4759096Y4451502D01*
X4756505Y4455109D01*
X4754880Y4458919D01*
X4754321Y4462881D01*
X4754727Y4466844D01*
X4755896Y4470654D01*
X4757826Y4474260D01*
X4760366Y4477664D01*
X4763516Y4480763D01*
X4767224Y4483557D01*
X4771440Y4486046D01*
X4776114Y4488180D01*
X4781194Y4489856D01*
X4786630Y4491126D01*
X4792319Y4491888D01*
X4804613Y4492396D01*
X4810506Y4493006D01*
X4815840Y4494022D01*
X4820615Y4495393D01*
X4824933Y4497070D01*
X4828743Y4499051D01*
X4832045Y4501286D01*
X4834788Y4503724D01*
X4837074Y4506417D01*
X4838903Y4509211D01*
X4840173Y4512157D01*
X4840986Y4515256D01*
X4841341Y4518355D01*
X4841189Y4521555D01*
X4840579Y4524705D01*
X4839462Y4527854D01*
X4837938Y4531004D01*
X4835906Y4534001D01*
X4833416Y4536897D01*
X4830470Y4539691D01*
X4827066Y4542231D01*
X4823206Y4544618D01*
X4818938Y4546752D01*
X4814214Y4548632D01*
X4809032Y4550206D01*
X4803444Y4551426D01*
X4797399Y4552289D01*
X4771237Y4554067D01*
X4766818Y4554677D01*
X4763414Y4555439D01*
X4761128Y4556353D01*
X4759858Y4557420D01*
X4759706Y4558690D01*
X4760671Y4560112D01*
X4762703Y4561840D01*
X4765852Y4563770D01*
X4775454Y4568494D01*
X4789525Y4574387D01*
X4804156Y4580077D01*
X4809744Y4581956D01*
X4815027Y4583430D01*
X4820056Y4584547D01*
X4824831Y4585258D01*
X4829403Y4585563D01*
X4833772Y4585462D01*
X4837938Y4584852D01*
X4841951Y4583836D01*
X4845812Y4582363D01*
X4849571Y4580331D01*
X4853228Y4577842D01*
X4856784Y4574794D01*
X4860290Y4571238D01*
X4863795Y4567123D01*
X4867198Y4562449D01*
X4874158Y4551324D01*
X4881219Y4537710D01*
X4888636Y4521555D01*
X4903368Y4486351D01*
X4910124Y4471568D01*
X4916728Y4458360D01*
X4923231Y4446676D01*
X4929632Y4436516D01*
X4935880Y4427880D01*
X4942078Y4420819D01*
X4945126Y4417872D01*
X4948174Y4415282D01*
X4951171Y4413097D01*
X4954117Y4411319D01*
X4957114Y4409897D01*
X4960010Y4408830D01*
X4962956Y4408170D01*
X4965801Y4407916D01*
X4968697Y4408017D01*
X4971542Y4408525D01*
X4974336Y4409389D01*
X4977130Y4410659D01*
X4979924Y4412284D01*
X4982667Y4414316D01*
X4985410Y4416755D01*
X4990795Y4422698D01*
X4996129Y4430217D01*
X5001361Y4439259D01*
X5006543Y4449826D01*
X5011674Y4461916D01*
X5021884Y4488942D01*
X5026152Y4499203D01*
X5029809Y4506772D01*
X5031435Y4509465D01*
X5033010Y4511497D01*
X5034534Y4512818D01*
X5036007Y4513427D01*
X5037378Y4513326D01*
X5038801Y4512513D01*
X5040172Y4510938D01*
X5041595Y4508652D01*
X5044490Y4501794D01*
X5047691Y4491990D01*
X5051298Y4479086D01*
X5059375Y4447997D01*
X5061254Y4442307D01*
X5063388Y4436821D01*
X5065776Y4431487D01*
X5068366Y4426407D01*
X5071211Y4421479D01*
X5074208Y4416806D01*
X5080812Y4408068D01*
X5084368Y4404004D01*
X5091938Y4396587D01*
X5100015Y4390085D01*
X5104180Y4387189D01*
X5112867Y4382160D01*
X5117287Y4379976D01*
X5126329Y4376470D01*
X5135524Y4373981D01*
X5144719Y4372610D01*
X5149342Y4372305D01*
X5158384Y4372610D01*
X5162854Y4373219D01*
X5167274Y4374083D01*
X5171592Y4375251D01*
X5175859Y4376724D01*
X5179974Y4378502D01*
X5184038Y4380636D01*
X5187950Y4383024D01*
X5191709Y4385767D01*
X5195366Y4388815D01*
X5198821Y4392218D01*
X5202123Y4395927D01*
X5205222Y4399940D01*
X5208117Y4404360D01*
X5210860Y4410202D01*
X5211572Y4415688D01*
X5210403Y4420666D01*
X5207508Y4425035D01*
X5202936Y4428591D01*
X5196890Y4431284D01*
X5189372Y4433011D01*
X5174030Y4433874D01*
X5167934Y4434535D01*
X5162397Y4435652D01*
X5157368Y4437176D01*
X5152847Y4439056D01*
X5148884Y4441291D01*
X5145430Y4443831D01*
X5142534Y4446625D01*
X5140147Y4449673D01*
X5138267Y4452924D01*
X5136997Y4456379D01*
X5136235Y4459986D01*
X5136083Y4463694D01*
X5136438Y4467504D01*
X5137353Y4471416D01*
X5138826Y4475327D01*
X5140909Y4479239D01*
X5143550Y4483150D01*
X5146751Y4487011D01*
X5150510Y4490770D01*
X5154879Y4494428D01*
X5159857Y4497933D01*
X5165394Y4501235D01*
X5178145Y4507585D01*
X5183530Y4510633D01*
X5187696Y4513529D01*
X5190642Y4516272D01*
X5192318Y4518914D01*
X5192826Y4521555D01*
X5192115Y4524197D01*
X5190134Y4526889D01*
X5186934Y4529683D01*
X5182514Y4532579D01*
X5176875Y4535728D01*
X5164937Y4541570D01*
X5160619Y4544110D01*
X5157114Y4546752D01*
X5154371Y4549495D01*
X5152440Y4552289D01*
X5151272Y4555286D01*
X5150916Y4558436D01*
X5151374Y4561738D01*
X5152644Y4565294D01*
X5154726Y4569053D01*
X5157622Y4573066D01*
X5161330Y4577384D01*
X5165902Y4582007D01*
X5171287Y4586986D01*
X5177536Y4592320D01*
X5198008Y4608830D01*
X5204714Y4614875D01*
X5209540Y4619955D01*
X5211165Y4622190D01*
X5212334Y4624222D01*
X5212943Y4626051D01*
X5213045Y4627676D01*
X5212588Y4629099D01*
X5211572Y4630369D01*
X5209946Y4631436D01*
X5207762Y4632350D01*
X5201564Y4633671D01*
X5192877Y4634382D01*
X5181650Y4634585D01*
X5167680Y4634230D01*
X5131257Y4632350D01*
X5110226Y4630928D01*
X5091734Y4629302D01*
X5075326Y4627372D01*
X5060899Y4625086D01*
X5048250Y4622292D01*
X5037277Y4618939D01*
X5032400Y4617059D01*
X5027879Y4614976D01*
X5023764Y4612741D01*
X5019903Y4610303D01*
X5016449Y4607712D01*
X5013248Y4604867D01*
X5010353Y4601819D01*
X5007711Y4598568D01*
X5005374Y4595063D01*
X5003241Y4591354D01*
X5001361Y4587341D01*
X4998161Y4578604D01*
X4995672Y4568698D01*
X4992776Y4551324D01*
X4990185Y4540046D01*
X4988661Y4535119D01*
X4985207Y4526483D01*
X4983276Y4522825D01*
X4981244Y4519574D01*
X4979111Y4516780D01*
X4976926Y4514342D01*
X4974640Y4512360D01*
X4972304Y4510786D01*
X4969916Y4509566D01*
X4967528Y4508754D01*
X4965090Y4508347D01*
X4962601Y4508296D01*
X4960162Y4508652D01*
X4957724Y4509414D01*
X4955336Y4510532D01*
X4952949Y4511954D01*
X4950612Y4513834D01*
X4948377Y4516018D01*
X4946192Y4518558D01*
X4944059Y4521454D01*
X4942078Y4524654D01*
X4938420Y4532172D01*
X4935270Y4540961D01*
X4932781Y4551070D01*
X4931054Y4562449D01*
X4930140Y4574997D01*
X4929886Y4587138D01*
X4928971Y4597044D01*
X4927041Y4605629D01*
X4925618Y4609490D01*
X4923891Y4613046D01*
X4921859Y4616348D01*
X4919522Y4619396D01*
X4916779Y4622139D01*
X4913680Y4624679D01*
X4910226Y4626914D01*
X4906365Y4628946D01*
X4902098Y4630775D01*
X4897424Y4632401D01*
X4892243Y4633772D01*
X4880610Y4635957D01*
X4874056Y4636820D01*
X4859375Y4637938D01*
X4842611Y4638497D01*
X4825390Y4638446D01*
X4809337Y4637633D01*
X4793386Y4636058D01*
X4777790Y4633772D01*
X4762906Y4630877D01*
X4748936Y4627422D01*
X4736185Y4623460D01*
X4724908Y4619091D01*
X4715408Y4614367D01*
X4711344Y4611878D01*
X4707890Y4609338D01*
X4699406Y4601464D01*
X4694174Y4597196D01*
X4689246Y4593844D01*
X4684572Y4591456D01*
X4680153Y4590034D01*
X4675936Y4589526D01*
X4671872Y4590034D01*
X4668012Y4591456D01*
X4664252Y4593844D01*
X4660595Y4597196D01*
X4656988Y4601464D01*
X4651044Y4609947D01*
X4647996Y4613097D01*
X4644288Y4616145D01*
X4640021Y4619091D01*
X4635246Y4621885D01*
X4624222Y4626965D01*
X4618075Y4629200D01*
X4611573Y4631283D01*
X4604816Y4633112D01*
X4590592Y4636058D01*
X4583226Y4637125D01*
X4568190Y4638395D01*
G37*
G36*
X6145022Y4638548D02*
G01*
X6131814Y4638344D01*
X6120282Y4637582D01*
X6110274Y4636160D01*
X6105855Y4635093D01*
X6101740Y4633772D01*
X6097981Y4632248D01*
X6094577Y4630369D01*
X6091428Y4628235D01*
X6088634Y4625746D01*
X6086043Y4622901D01*
X6083757Y4619701D01*
X6081725Y4616094D01*
X6079947Y4612081D01*
X6078372Y4607610D01*
X6077000Y4602683D01*
X6074816Y4591354D01*
X6073343Y4577892D01*
X6072428Y4562195D01*
X6071920Y4544009D01*
X6071819Y4514900D01*
X6072124Y4499254D01*
X6072784Y4484674D01*
X6073749Y4471162D01*
X6075121Y4458716D01*
X6076950Y4447286D01*
X6079185Y4436821D01*
X6081877Y4427372D01*
X6085078Y4418888D01*
X6088786Y4411319D01*
X6093053Y4404664D01*
X6097930Y4398822D01*
X6103366Y4393895D01*
X6106363Y4391710D01*
X6112764Y4388002D01*
X6119876Y4385056D01*
X6127699Y4382871D01*
X6136233Y4381449D01*
X6145530Y4380738D01*
X6150508Y4380585D01*
X6160973Y4380890D01*
X6172301Y4381855D01*
X6184493Y4383379D01*
X6197549Y4385564D01*
X6211570Y4388307D01*
X6226606Y4391660D01*
X6240780Y4395520D01*
X6253480Y4399788D01*
X6259220Y4402124D01*
X6269736Y4407204D01*
X6274409Y4409948D01*
X6278778Y4412894D01*
X6282842Y4415942D01*
X6286550Y4419142D01*
X6289954Y4422495D01*
X6293002Y4426051D01*
X6295745Y4429810D01*
X6298234Y4433722D01*
X6300419Y4437837D01*
X6302298Y4442155D01*
X6303873Y4446676D01*
X6305194Y4451400D01*
X6306261Y4456328D01*
X6307582Y4466894D01*
X6307886Y4472533D01*
X6309715Y4536084D01*
X6338976Y4463643D01*
X6341821Y4457446D01*
X6347866Y4446066D01*
X6354216Y4436059D01*
X6360820Y4427423D01*
X6364224Y4423613D01*
X6371132Y4417009D01*
X6374587Y4414215D01*
X6378143Y4411726D01*
X6381648Y4409592D01*
X6388658Y4406290D01*
X6392164Y4405172D01*
X6395669Y4404360D01*
X6399123Y4403852D01*
X6402527Y4403648D01*
X6405880Y4403801D01*
X6409182Y4404258D01*
X6412433Y4405020D01*
X6415633Y4406138D01*
X6418732Y4407560D01*
X6421780Y4409287D01*
X6424676Y4411319D01*
X6427520Y4413656D01*
X6430213Y4416298D01*
X6432804Y4419244D01*
X6435293Y4422546D01*
X6437630Y4426102D01*
X6439814Y4429963D01*
X6441897Y4434179D01*
X6445504Y4443425D01*
X6447078Y4448505D01*
X6448450Y4453839D01*
X6450584Y4465472D01*
X6451396Y4471720D01*
X6452311Y4485081D01*
X6452565Y4501134D01*
X6453022Y4509820D01*
X6453733Y4518202D01*
X6454698Y4526280D01*
X6455968Y4533950D01*
X6457442Y4541164D01*
X6459118Y4547971D01*
X6460998Y4554220D01*
X6463080Y4559858D01*
X6465316Y4564938D01*
X6467754Y4569358D01*
X6470294Y4573066D01*
X6472986Y4576013D01*
X6475780Y4578197D01*
X6478676Y4579569D01*
X6481673Y4580026D01*
X6484670Y4579569D01*
X6487566Y4578248D01*
X6490360Y4576114D01*
X6493052Y4573219D01*
X6495592Y4569561D01*
X6498031Y4565243D01*
X6500266Y4560265D01*
X6502349Y4554728D01*
X6504228Y4548581D01*
X6505956Y4541977D01*
X6507429Y4534865D01*
X6508648Y4527346D01*
X6510375Y4511192D01*
X6510781Y4502658D01*
X6511035Y4486808D01*
X6511798Y4472736D01*
X6513271Y4459020D01*
X6515354Y4445914D01*
X6518046Y4433570D01*
X6521196Y4422241D01*
X6524853Y4412183D01*
X6528866Y4403496D01*
X6531000Y4399788D01*
X6533235Y4396536D01*
X6535521Y4393742D01*
X6537858Y4391456D01*
X6540246Y4389678D01*
X6542785Y4388408D01*
X6545275Y4387799D01*
X6547662Y4387850D01*
X6549948Y4388561D01*
X6552184Y4389882D01*
X6554266Y4391812D01*
X6556197Y4394352D01*
X6558076Y4397502D01*
X6559803Y4401210D01*
X6561429Y4405477D01*
X6562902Y4410252D01*
X6565442Y4421479D01*
X6567373Y4434687D01*
X6568744Y4449775D01*
X6569405Y4466691D01*
X6569608Y4484319D01*
X6570370Y4500778D01*
X6571843Y4516272D01*
X6573926Y4530598D01*
X6576568Y4543501D01*
X6578092Y4549394D01*
X6581546Y4559808D01*
X6583375Y4564329D01*
X6585356Y4568342D01*
X6587439Y4571796D01*
X6589572Y4574641D01*
X6591757Y4576978D01*
X6594043Y4578654D01*
X6596380Y4579670D01*
X6604660Y4580636D01*
X6610146Y4582414D01*
X6615125Y4585208D01*
X6619443Y4588967D01*
X6623050Y4593437D01*
X6625742Y4598619D01*
X6627469Y4604359D01*
X6628079Y4610455D01*
X6627825Y4613046D01*
X6627012Y4615535D01*
X6625793Y4617821D01*
X6624066Y4620006D01*
X6621881Y4621987D01*
X6619290Y4623866D01*
X6616242Y4625594D01*
X6612839Y4627168D01*
X6604914Y4629912D01*
X6595668Y4632096D01*
X6585254Y4633772D01*
X6573824Y4634941D01*
X6561531Y4635601D01*
X6548526Y4635754D01*
X6534962Y4635500D01*
X6520992Y4634738D01*
X6506819Y4633569D01*
X6492544Y4631994D01*
X6478371Y4629962D01*
X6464401Y4627575D01*
X6450787Y4624832D01*
X6437731Y4621682D01*
X6425387Y4618228D01*
X6413906Y4614418D01*
X6403441Y4610303D01*
X6394145Y4605883D01*
X6386118Y4601159D01*
X6382664Y4598720D01*
X6379616Y4596231D01*
X6376974Y4593640D01*
X6374739Y4590999D01*
X6372961Y4588306D01*
X6371640Y4585512D01*
X6368542Y4577791D01*
X6365544Y4571542D01*
X6362649Y4566716D01*
X6359753Y4563414D01*
X6356858Y4561586D01*
X6353810Y4561281D01*
X6350609Y4562500D01*
X6347155Y4565192D01*
X6343396Y4569460D01*
X6339230Y4575200D01*
X6334607Y4582566D01*
X6326174Y4597146D01*
X6319672Y4607356D01*
X6313322Y4616094D01*
X6307074Y4623257D01*
X6304026Y4626305D01*
X6301028Y4628946D01*
X6295186Y4633112D01*
X6292342Y4634636D01*
X6289548Y4635804D01*
X6286855Y4636617D01*
X6284163Y4637074D01*
X6281572Y4637125D01*
X6279083Y4636871D01*
X6276644Y4636211D01*
X6274257Y4635246D01*
X6271971Y4633874D01*
X6269736Y4632198D01*
X6267653Y4630166D01*
X6265621Y4627778D01*
X6263640Y4625035D01*
X6260033Y4618532D01*
X6256883Y4610709D01*
X6254089Y4601514D01*
X6251752Y4590999D01*
X6249924Y4579162D01*
X6248552Y4566107D01*
X6247739Y4551730D01*
X6247231Y4516628D01*
X6246418Y4499711D01*
X6245809Y4492091D01*
X6244996Y4485081D01*
X6242812Y4472635D01*
X6241440Y4467199D01*
X6239865Y4462272D01*
X6238036Y4457750D01*
X6235954Y4453737D01*
X6233668Y4450130D01*
X6231077Y4446981D01*
X6228283Y4444187D01*
X6225133Y4441748D01*
X6221780Y4439666D01*
X6218072Y4437938D01*
X6214059Y4436567D01*
X6209690Y4435449D01*
X6200038Y4434027D01*
X6188913Y4433620D01*
X6180988Y4433874D01*
X6173368Y4434687D01*
X6166154Y4435906D01*
X6159398Y4437634D01*
X6153200Y4439716D01*
X6147562Y4442206D01*
X6142583Y4445050D01*
X6138367Y4448149D01*
X6134963Y4451502D01*
X6132474Y4455109D01*
X6130899Y4458919D01*
X6130340Y4462881D01*
X6130747Y4466844D01*
X6131915Y4470654D01*
X6133846Y4474260D01*
X6136386Y4477664D01*
X6139535Y4480763D01*
X6143244Y4483557D01*
X6147460Y4486046D01*
X6152134Y4488180D01*
X6157214Y4489856D01*
X6162649Y4491126D01*
X6168339Y4491888D01*
X6180531Y4492345D01*
X6186271Y4492904D01*
X6191554Y4493818D01*
X6196279Y4495038D01*
X6200546Y4496562D01*
X6204305Y4498390D01*
X6207607Y4500422D01*
X6210350Y4502708D01*
X6212636Y4505198D01*
X6214465Y4507890D01*
X6215786Y4510684D01*
X6216650Y4513630D01*
X6217005Y4516729D01*
X6216904Y4519879D01*
X6216294Y4523079D01*
X6215278Y4526330D01*
X6213754Y4529582D01*
X6211773Y4532833D01*
X6209334Y4536084D01*
X6206439Y4539234D01*
X6203035Y4542332D01*
X6199225Y4545330D01*
X6194958Y4548225D01*
X6190234Y4550918D01*
X6185103Y4553458D01*
X6179515Y4555794D01*
X6173419Y4557928D01*
X6144666Y4565802D01*
X6135522Y4568698D01*
X6132626Y4569866D01*
X6130950Y4570882D01*
X6130340Y4571796D01*
X6130950Y4572558D01*
X6132626Y4573219D01*
X6139484Y4574387D01*
X6173419Y4577181D01*
X6179362Y4577943D01*
X6189980Y4580128D01*
X6194653Y4581499D01*
X6198819Y4583023D01*
X6202629Y4584750D01*
X6205931Y4586579D01*
X6208877Y4588510D01*
X6211366Y4590592D01*
X6213398Y4592777D01*
X6215075Y4595012D01*
X6216345Y4597349D01*
X6217208Y4599736D01*
X6217666Y4602175D01*
X6217767Y4604613D01*
X6217462Y4607102D01*
X6216751Y4609592D01*
X6215684Y4612030D01*
X6214262Y4614468D01*
X6212484Y4616856D01*
X6207810Y4621479D01*
X6204915Y4623663D01*
X6198158Y4627778D01*
X6190081Y4631334D01*
X6180683Y4634331D01*
X6169964Y4636617D01*
X6158077Y4638040D01*
X6151676Y4638446D01*
G37*
G36*
X5487365Y4637125D02*
G01*
X5480304Y4636871D01*
X5473344Y4636008D01*
X5466486Y4634534D01*
X5459780Y4632452D01*
X5453227Y4629810D01*
X5446877Y4626508D01*
X5440832Y4622647D01*
X5434990Y4618126D01*
X5429504Y4613046D01*
X5424373Y4607356D01*
X5419598Y4601006D01*
X5415178Y4594098D01*
X5411266Y4586528D01*
X5407761Y4578350D01*
X5404815Y4569561D01*
X5402326Y4560163D01*
X5400446Y4550156D01*
X5399176Y4539488D01*
X5398516Y4528210D01*
X5398058Y4506823D01*
X5456986Y4506823D01*
X5457190Y4515154D01*
X5457748Y4523028D01*
X5458714Y4530496D01*
X5459984Y4537456D01*
X5461660Y4543958D01*
X5463692Y4550003D01*
X5466029Y4555490D01*
X5468721Y4560468D01*
X5471668Y4564938D01*
X5475020Y4568850D01*
X5478627Y4572203D01*
X5482488Y4574946D01*
X5486704Y4577130D01*
X5491175Y4578705D01*
X5495899Y4579670D01*
X5500878Y4580026D01*
X5505907Y4579670D01*
X5510631Y4578705D01*
X5515102Y4577130D01*
X5519267Y4574946D01*
X5523179Y4572203D01*
X5526786Y4568850D01*
X5530088Y4564938D01*
X5533085Y4560468D01*
X5535777Y4555490D01*
X5538114Y4550003D01*
X5540146Y4543958D01*
X5541822Y4537456D01*
X5543092Y4530496D01*
X5544058Y4523028D01*
X5544616Y4515154D01*
X5544820Y4506823D01*
X5544616Y4498492D01*
X5544058Y4490567D01*
X5543092Y4483150D01*
X5541822Y4476140D01*
X5540146Y4469638D01*
X5538114Y4463643D01*
X5535777Y4458106D01*
X5533085Y4453128D01*
X5530088Y4448657D01*
X5526786Y4444746D01*
X5523179Y4441444D01*
X5519267Y4438650D01*
X5515102Y4436465D01*
X5510631Y4434890D01*
X5505907Y4433925D01*
X5500878Y4433620D01*
X5495899Y4433925D01*
X5491175Y4434890D01*
X5486704Y4436465D01*
X5482488Y4438650D01*
X5478627Y4441444D01*
X5475020Y4444746D01*
X5471668Y4448657D01*
X5468721Y4453128D01*
X5466029Y4458106D01*
X5463692Y4463643D01*
X5461660Y4469638D01*
X5459984Y4476140D01*
X5458714Y4483150D01*
X5457748Y4490567D01*
X5457190Y4498492D01*
X5456986Y4506823D01*
X5398058Y4506823D01*
X5397449Y4497679D01*
X5396687Y4490313D01*
X5395722Y4483455D01*
X5394502Y4477004D01*
X5393080Y4471009D01*
X5391454Y4465472D01*
X5389575Y4460392D01*
X5387492Y4455718D01*
X5385206Y4451502D01*
X5382666Y4447743D01*
X5379923Y4444441D01*
X5376976Y4441545D01*
X5373776Y4439158D01*
X5370372Y4437126D01*
X5366715Y4435602D01*
X5362905Y4434484D01*
X5358790Y4433824D01*
X5354523Y4433620D01*
X5350256Y4433824D01*
X5346242Y4434484D01*
X5342382Y4435551D01*
X5338775Y4437075D01*
X5335371Y4439056D01*
X5332222Y4441444D01*
X5329224Y4444238D01*
X5326481Y4447489D01*
X5323992Y4451197D01*
X5321655Y4455261D01*
X5319572Y4459833D01*
X5317693Y4464761D01*
X5316016Y4470146D01*
X5314594Y4475988D01*
X5313375Y4482236D01*
X5312359Y4488891D01*
X5311038Y4503470D01*
X5310530Y4526838D01*
X5309768Y4540859D01*
X5308295Y4554575D01*
X5306212Y4567682D01*
X5303520Y4580026D01*
X5300370Y4591354D01*
X5296712Y4601464D01*
X5292699Y4610100D01*
X5290566Y4613808D01*
X5288330Y4617059D01*
X5286044Y4619853D01*
X5283708Y4622139D01*
X5281320Y4623917D01*
X5278729Y4625187D01*
X5276189Y4625695D01*
X5273802Y4625441D01*
X5271465Y4624476D01*
X5269280Y4622800D01*
X5267198Y4620463D01*
X5265216Y4617415D01*
X5263388Y4613706D01*
X5261660Y4609338D01*
X5260035Y4604308D01*
X5258562Y4598720D01*
X5257241Y4592472D01*
X5255006Y4578197D01*
X5253380Y4561687D01*
X5252415Y4542993D01*
X5252110Y4532884D01*
X5252110Y4514443D01*
X5252669Y4499406D01*
X5253837Y4485132D01*
X5255463Y4471619D01*
X5257647Y4458970D01*
X5260340Y4447133D01*
X5263489Y4436160D01*
X5267096Y4426000D01*
X5271211Y4416755D01*
X5275681Y4408424D01*
X5278069Y4404563D01*
X5283200Y4397603D01*
X5288686Y4391609D01*
X5294528Y4386529D01*
X5300726Y4382465D01*
X5307279Y4379366D01*
X5310632Y4378198D01*
X5317642Y4376674D01*
X5321249Y4376267D01*
X5328666Y4376267D01*
X5332425Y4376674D01*
X5340248Y4378299D01*
X5344210Y4379518D01*
X5352338Y4382820D01*
X5360670Y4387189D01*
X5364886Y4389780D01*
X5373471Y4395927D01*
X5382107Y4402683D01*
X5386578Y4405528D01*
X5391251Y4408068D01*
X5396026Y4410151D01*
X5400954Y4411878D01*
X5405932Y4413250D01*
X5411012Y4414164D01*
X5416194Y4414723D01*
X5421376Y4414875D01*
X5426506Y4414621D01*
X5431688Y4413961D01*
X5436819Y4412945D01*
X5441848Y4411472D01*
X5446826Y4409643D01*
X5451652Y4407357D01*
X5461050Y4402023D01*
X5465775Y4399635D01*
X5470499Y4397552D01*
X5475274Y4395774D01*
X5484825Y4393184D01*
X5494426Y4391761D01*
X5503976Y4391507D01*
X5508701Y4391761D01*
X5513374Y4392269D01*
X5522620Y4394098D01*
X5527141Y4395368D01*
X5531612Y4396892D01*
X5540298Y4400651D01*
X5544515Y4402836D01*
X5552643Y4407916D01*
X5560314Y4413808D01*
X5567476Y4420463D01*
X5574030Y4427829D01*
X5579973Y4435906D01*
X5585206Y4444593D01*
X5589676Y4453839D01*
X5591606Y4458665D01*
X5594807Y4468723D01*
X5596077Y4473956D01*
X5597093Y4479290D01*
X5597855Y4484674D01*
X5598668Y4495800D01*
X5598668Y4501489D01*
X5597804Y4513122D01*
X5596077Y4524806D01*
X5593791Y4535932D01*
X5590946Y4546447D01*
X5587593Y4556455D01*
X5583732Y4565853D01*
X5579465Y4574641D01*
X5574792Y4582922D01*
X5569712Y4590592D01*
X5564327Y4597654D01*
X5558586Y4604156D01*
X5552541Y4610100D01*
X5546293Y4615434D01*
X5539790Y4620209D01*
X5533136Y4624374D01*
X5526328Y4627981D01*
X5519369Y4630978D01*
X5512308Y4633366D01*
X5505196Y4635195D01*
X5498084Y4636414D01*
X5490921Y4637024D01*
G37*
G36*
X2252065Y4635957D02*
G01*
X2243074Y4635550D01*
X2239060Y4635042D01*
X2235352Y4634280D01*
X2231948Y4633264D01*
X2228799Y4631994D01*
X2225954Y4630420D01*
X2223363Y4628540D01*
X2221026Y4626356D01*
X2218944Y4623816D01*
X2217064Y4620920D01*
X2215388Y4617618D01*
X2213914Y4613960D01*
X2212644Y4609947D01*
X2210562Y4600498D01*
X2209139Y4589272D01*
X2208174Y4576064D01*
X2207564Y4560773D01*
X2207260Y4523384D01*
X2207615Y4504131D01*
X2208733Y4485843D01*
X2210511Y4468825D01*
X2212898Y4453178D01*
X2215845Y4439310D01*
X2219248Y4427372D01*
X2221128Y4422241D01*
X2223109Y4417669D01*
X2225141Y4413758D01*
X2227275Y4410456D01*
X2229510Y4407814D01*
X2231796Y4405884D01*
X2234133Y4404715D01*
X2236520Y4404360D01*
X2240483Y4404817D01*
X2244293Y4406188D01*
X2247950Y4408373D01*
X2251405Y4411370D01*
X2254554Y4415028D01*
X2257450Y4419396D01*
X2260041Y4424324D01*
X2262225Y4429760D01*
X2264054Y4435703D01*
X2265426Y4442002D01*
X2266289Y4448657D01*
X2266696Y4455566D01*
X2267102Y4471568D01*
X2267864Y4482998D01*
X2268474Y4487011D01*
X2269286Y4489907D01*
X2270353Y4491583D01*
X2271725Y4492193D01*
X2273401Y4491583D01*
X2275433Y4489907D01*
X2277872Y4487011D01*
X2284120Y4477867D01*
X2300986Y4449572D01*
X2307894Y4438802D01*
X2314549Y4429556D01*
X2320848Y4421886D01*
X2326843Y4415790D01*
X2332532Y4411218D01*
X2335225Y4409541D01*
X2337866Y4408220D01*
X2340356Y4407306D01*
X2342845Y4406747D01*
X2345182Y4406544D01*
X2347417Y4406798D01*
X2349601Y4407357D01*
X2351684Y4408322D01*
X2353665Y4409694D01*
X2355545Y4411421D01*
X2357323Y4413504D01*
X2359050Y4415942D01*
X2362098Y4421987D01*
X2363520Y4425594D01*
X2365959Y4433874D01*
X2367991Y4443628D01*
X2369566Y4454804D01*
X2370734Y4467504D01*
X2371394Y4481576D01*
X2371648Y4497171D01*
X2371394Y4514138D01*
X2370683Y4533696D01*
X2369616Y4550867D01*
X2368143Y4565853D01*
X2366060Y4578756D01*
X2364790Y4584496D01*
X2363317Y4589830D01*
X2361641Y4594707D01*
X2359710Y4599178D01*
X2357628Y4603242D01*
X2355240Y4607001D01*
X2352598Y4610404D01*
X2349703Y4613452D01*
X2346502Y4616246D01*
X2342997Y4618736D01*
X2339136Y4620971D01*
X2334971Y4623003D01*
X2330450Y4624781D01*
X2320340Y4627829D01*
X2308606Y4630267D01*
X2295144Y4632299D01*
X2280818Y4633976D01*
X2268169Y4635195D01*
X2257044Y4635855D01*
G37*
G36*
X3896766Y4634026D02*
G01*
X3894226Y4633671D01*
X3891737Y4633010D01*
X3889248Y4631994D01*
X3886758Y4630572D01*
X3884218Y4628794D01*
X3881678Y4626610D01*
X3876649Y4621225D01*
X3871518Y4614367D01*
X3866387Y4606036D01*
X3861155Y4596231D01*
X3855923Y4584954D01*
X3850589Y4572203D01*
X3840226Y4544568D01*
X3802887Y4440936D01*
X3800906Y4433570D01*
X3800144Y4426712D01*
X3800601Y4420514D01*
X3802126Y4415078D01*
X3804767Y4410608D01*
X3808374Y4407204D01*
X3812946Y4405071D01*
X3818382Y4404360D01*
X3824071Y4404918D01*
X3829405Y4406646D01*
X3834231Y4409338D01*
X3838448Y4412945D01*
X3841902Y4417263D01*
X3844544Y4422241D01*
X3846169Y4427728D01*
X3847033Y4437938D01*
X3847947Y4441952D01*
X3849370Y4445558D01*
X3851249Y4448810D01*
X3853637Y4451654D01*
X3856431Y4454194D01*
X3859580Y4456379D01*
X3863086Y4458208D01*
X3866896Y4459732D01*
X3870960Y4460849D01*
X3875227Y4461662D01*
X3879646Y4462119D01*
X3884269Y4462272D01*
X3888943Y4462068D01*
X3893718Y4461560D01*
X3898493Y4460697D01*
X3903218Y4459528D01*
X3907891Y4458055D01*
X3912514Y4456226D01*
X3916984Y4454144D01*
X3921251Y4451705D01*
X3925265Y4448962D01*
X3929075Y4445914D01*
X3932580Y4442612D01*
X3935729Y4438954D01*
X3938524Y4435043D01*
X3940860Y4430826D01*
X3942791Y4426305D01*
X3946956Y4415434D01*
X3950868Y4406696D01*
X3954576Y4400042D01*
X3957980Y4395317D01*
X3961129Y4392472D01*
X3962603Y4391710D01*
X3964025Y4391355D01*
X3965346Y4391456D01*
X3966565Y4391914D01*
X3967734Y4392777D01*
X3968800Y4394047D01*
X3970680Y4397603D01*
X3972204Y4402531D01*
X3973423Y4408678D01*
X3974185Y4415993D01*
X3974592Y4424375D01*
X3974592Y4433671D01*
X3974185Y4443831D01*
X3973271Y4454753D01*
X3971950Y4466285D01*
X3970172Y4478375D01*
X3967886Y4490923D01*
X3965092Y4503826D01*
X3961841Y4516983D01*
X3957980Y4530242D01*
X3952646Y4547108D01*
X3947363Y4562449D01*
X3942130Y4576267D01*
X3936949Y4588611D01*
X3931818Y4599482D01*
X3926738Y4608880D01*
X3921709Y4616754D01*
X3919220Y4620158D01*
X3914190Y4625848D01*
X3909212Y4630013D01*
X3906723Y4631537D01*
X3904234Y4632706D01*
X3901744Y4633518D01*
X3899255Y4633925D01*
G37*
G36*
X4026306Y4629810D02*
G01*
X4023969Y4629454D01*
X4022090Y4628388D01*
X4020820Y4626559D01*
X4020058Y4623917D01*
X4018686Y4612843D01*
X4017568Y4600600D01*
X4016756Y4587392D01*
X4016197Y4573422D01*
X4015892Y4558842D01*
X4015994Y4528515D01*
X4017010Y4497730D01*
X4018838Y4467961D01*
X4020007Y4453839D01*
X4021378Y4440428D01*
X4022902Y4427982D01*
X4024579Y4416653D01*
X4026357Y4406544D01*
X4028338Y4397857D01*
X4030370Y4390796D01*
X4032554Y4385513D01*
X4033672Y4383582D01*
X4034840Y4382160D01*
X4036568Y4380890D01*
X4038244Y4380534D01*
X4039870Y4381042D01*
X4041444Y4382363D01*
X4042968Y4384497D01*
X4044442Y4387392D01*
X4045813Y4390999D01*
X4047083Y4395317D01*
X4049318Y4405934D01*
X4051096Y4418888D01*
X4052265Y4433874D01*
X4052874Y4450689D01*
X4054043Y4536084D01*
X4098188Y4454702D01*
X4102811Y4446524D01*
X4107586Y4438700D01*
X4112514Y4431334D01*
X4117492Y4424476D01*
X4122521Y4418076D01*
X4127601Y4412234D01*
X4132579Y4406950D01*
X4137507Y4402277D01*
X4142384Y4398264D01*
X4147058Y4394911D01*
X4151579Y4392218D01*
X4155897Y4390288D01*
X4159910Y4389120D01*
X4163669Y4388764D01*
X4167124Y4389221D01*
X4170172Y4390542D01*
X4172661Y4392371D01*
X4174998Y4394657D01*
X4177233Y4397451D01*
X4179366Y4400651D01*
X4181348Y4404258D01*
X4183227Y4408271D01*
X4186631Y4417364D01*
X4189526Y4427778D01*
X4192015Y4439310D01*
X4193997Y4451756D01*
X4195521Y4464964D01*
X4196588Y4478731D01*
X4197197Y4492853D01*
X4197350Y4507179D01*
X4197045Y4521504D01*
X4196283Y4535627D01*
X4195013Y4549394D01*
X4193336Y4562602D01*
X4191203Y4575048D01*
X4188612Y4586579D01*
X4185564Y4597044D01*
X4182008Y4606137D01*
X4180128Y4610150D01*
X4178096Y4613808D01*
X4175912Y4617008D01*
X4173677Y4619802D01*
X4171289Y4622088D01*
X4168800Y4623917D01*
X4164837Y4625797D01*
X4161028Y4626406D01*
X4157421Y4625949D01*
X4154068Y4624324D01*
X4150918Y4621682D01*
X4148124Y4618024D01*
X4145635Y4613452D01*
X4143552Y4608017D01*
X4141825Y4601718D01*
X4140555Y4594656D01*
X4139793Y4586884D01*
X4139387Y4557725D01*
X4138980Y4547209D01*
X4138066Y4539386D01*
X4137355Y4536490D01*
X4136440Y4534306D01*
X4135272Y4532731D01*
X4133900Y4531918D01*
X4132224Y4531715D01*
X4130294Y4532223D01*
X4128008Y4533442D01*
X4125366Y4535373D01*
X4118965Y4541266D01*
X4110888Y4549952D01*
X4100880Y4561484D01*
X4076039Y4590948D01*
X4070299Y4597349D01*
X4059224Y4608626D01*
X4054043Y4613402D01*
X4044391Y4621276D01*
X4040022Y4624273D01*
X4036009Y4626660D01*
X4032351Y4628388D01*
X4029100Y4629454D01*
G37*
G36*
X2091842Y4550714D02*
G01*
X2084019Y4550460D01*
X2076145Y4549648D01*
X2068372Y4548428D01*
X2060752Y4546701D01*
X2053437Y4544618D01*
X2046427Y4542129D01*
X2039874Y4539284D01*
X2033828Y4536186D01*
X2028443Y4532833D01*
X2023770Y4529226D01*
X2019909Y4525416D01*
X2016963Y4521454D01*
X2015439Y4518406D01*
X2014677Y4515408D01*
X2014728Y4512564D01*
X2015540Y4509871D01*
X2017014Y4507280D01*
X2019198Y4504893D01*
X2022093Y4502658D01*
X2025599Y4500575D01*
X2029714Y4498695D01*
X2034438Y4497070D01*
X2039721Y4495596D01*
X2045512Y4494428D01*
X2051862Y4493463D01*
X2058720Y4492752D01*
X2066036Y4492294D01*
X2073757Y4492193D01*
X2081428Y4492345D01*
X2088845Y4492752D01*
X2102866Y4494479D01*
X2109419Y4495698D01*
X2115566Y4497171D01*
X2121357Y4498898D01*
X2126691Y4500778D01*
X2131517Y4502861D01*
X2135835Y4505096D01*
X2139594Y4507534D01*
X2142794Y4510074D01*
X2145334Y4512767D01*
X2147163Y4515561D01*
X2148281Y4518456D01*
X2148687Y4521454D01*
X2148179Y4525416D01*
X2146655Y4529226D01*
X2144217Y4532833D01*
X2140915Y4536186D01*
X2136800Y4539284D01*
X2131974Y4542129D01*
X2126538Y4544618D01*
X2120493Y4546701D01*
X2113940Y4548428D01*
X2106930Y4549648D01*
X2099564Y4550460D01*
G37*
G36*
X6774434Y4550714D02*
G01*
X6766509Y4550460D01*
X6758940Y4549648D01*
X6751726Y4548428D01*
X6744970Y4546701D01*
X6738721Y4544618D01*
X6733082Y4542129D01*
X6728155Y4539284D01*
X6723938Y4536186D01*
X6720535Y4532833D01*
X6717995Y4529226D01*
X6716420Y4525416D01*
X6715912Y4521454D01*
X6716420Y4517491D01*
X6717995Y4513681D01*
X6720535Y4510074D01*
X6723938Y4506722D01*
X6728155Y4503572D01*
X6733082Y4500778D01*
X6738721Y4498289D01*
X6744970Y4496206D01*
X6751726Y4494479D01*
X6758940Y4493209D01*
X6766509Y4492447D01*
X6774434Y4492193D01*
X6782358Y4492447D01*
X6789978Y4493209D01*
X6797192Y4494479D01*
X6803948Y4496206D01*
X6810197Y4498289D01*
X6815785Y4500778D01*
X6820763Y4503572D01*
X6824980Y4506722D01*
X6828383Y4510074D01*
X6830923Y4513681D01*
X6832447Y4517491D01*
X6833006Y4521454D01*
X6832447Y4525416D01*
X6830923Y4529226D01*
X6828383Y4532833D01*
X6824980Y4536186D01*
X6820763Y4539284D01*
X6815785Y4542129D01*
X6810197Y4544618D01*
X6803948Y4546701D01*
X6797192Y4548428D01*
X6789978Y4549648D01*
X6782358Y4550460D01*
G37*
G36*
X7086600Y9956800D02*
G01*
X6866178Y9736378D01*
X7086600Y9736378D01*
G37*
G36*
X1600200Y9525000D02*
G01*
X1714500Y9410700D01*
X1714500Y9385300D01*
X1795221Y9466021D01*
X1917700Y9466021D01*
X1858721Y9525000D01*
G37*
G36*
X1565503Y9626600D02*
G01*
X1565503Y9320682D01*
X1562100Y9317278D01*
X1768856Y9317228D01*
X1917700Y9466021D01*
X1726082Y9466021D01*
G37*
G36*
X5302250Y7321550D02*
G01*
X5359400Y7264400D01*
X5359400Y6819900D01*
X5842000Y7302500D01*
X5867400Y7302500D01*
X5848350Y7321550D01*
G37*
G36*
X5702300Y7137400D02*
G01*
X5664200Y7086600D01*
X5702300Y7124700D01*
G37*
D10*
X3911600Y5016500D02*
G01*
X3975100Y4953000D01*
X3975100Y4737100D01*
X3818127Y4580128D01*
X3818127Y4419600D01*
X3522421Y4419600D02*
G01*
X3522421Y4576521D01*
X3644900Y4699000D01*
X4389627Y4419600D02*
G01*
X4389627Y4275328D01*
X4216400Y4102100D01*
X3403600Y4102100D01*
X3246627Y4259071D01*
X3246627Y4419600D01*
X4093921Y4419600D02*
G01*
X3818178Y4419600D01*
X6350000Y8737600D02*
G01*
X6350000Y9080500D01*
X6710172Y9440671D01*
X7086600Y9440671D01*
X1752600Y8018221D02*
G01*
X1757121Y8013700D01*
X4483100Y8013700D01*
X6362700Y6654800D02*
G01*
X7137400Y7429500D01*
X7137400Y8788400D01*
X5346700Y9105900D02*
G01*
X5977178Y9736378D01*
X7086600Y9736378D01*
X5359400Y6680200D02*
G01*
X5359400Y7264400D01*
X5054600Y7569200D01*
X4292600Y7569200D01*
X4076700Y7785100D01*
X5359400Y6680200D02*
G01*
X5359400Y6794500D01*
X6362700Y7797800D01*
X7086600Y9736378D02*
G01*
X7086600Y10185400D01*
X4711700Y10198100D02*
G01*
X3822700Y9309100D01*
X3822700Y9055100D01*
D11*
X1092200Y10439400D02*
G01*
X1003300Y10350500D01*
X1003300Y9893300D01*
X1117600Y9779000D01*
X1355597Y9779000D01*
D10*
X1562100Y9021571D02*
G01*
X1566671Y9017000D01*
X1832102Y9017000D01*
X1955800Y9017000D01*
D11*
X1562100Y9317278D02*
G01*
X1565516Y9320695D01*
X1565516Y9684004D01*
D10*
X952500Y8470900D02*
G01*
X1104900Y8623300D01*
X1587500Y8623300D01*
X1752600Y8458200D01*
X1752600Y8313928D01*
X1811578Y7569200D02*
G01*
X2832100Y7569200D01*
X1066800Y7454900D02*
G01*
X1181100Y7569200D01*
X1515821Y7569200D01*
X1943100Y5410200D02*
G01*
X2222500Y5410200D01*
X2362200Y5270500D01*
X2362200Y5023357D01*
X1917700Y9466071D02*
G01*
X1768855Y9317228D01*
X1562100Y9317228D01*
D12*
G01*
X1355496Y9779000D03*
G01*
X1565503Y9684004D03*
G01*
X1565503Y9873995D03*
D13*
G01*
X1562100Y9317276D03*
D14*
G01*
X1562100Y9021521D03*
D13*
G01*
X1917700Y9466023D03*
D14*
G01*
X1917700Y9761778D03*
D13*
G01*
X1752600Y8018223D03*
D14*
G01*
X1752600Y8313978D03*
D13*
G01*
X7086600Y9440623D03*
D14*
G01*
X7086600Y9736378D03*
D15*
G01*
X1811576Y7569200D03*
G01*
X1515823Y7569200D03*
D16*
G01*
X2362200Y5023350D03*
D17*
G01*
X2362200Y4704842D03*
D18*
G01*
X4093923Y4419600D03*
G01*
X4389676Y4419600D03*
G01*
X3522423Y4419600D03*
G01*
X3818176Y4419600D03*
D15*
G01*
X3246676Y4419600D03*
G01*
X2950923Y4419600D03*
D19*
G01*
X1485925Y4555388D03*
D20*
G01*
X1185900Y5020386D03*
G01*
X1785924Y5020386D03*
D21*
G01*
X4041775Y10438129D03*
D22*
G01*
X3787775Y10438129D03*
G01*
X3533775Y10438129D03*
D21*
G01*
X6578600Y10435589D03*
D22*
G01*
X6832600Y10435589D03*
G01*
X7086600Y10435589D03*
D21*
G01*
X5648325Y10435589D03*
D22*
G01*
X5902325Y10435589D03*
G01*
X6156325Y10435589D03*
D21*
G01*
X7416800Y7810500D03*
D22*
G01*
X7416800Y7556500D03*
G01*
X7416800Y7302500D03*
G01*
X7416800Y7048500D03*
D21*
G01*
X3111500Y10436860D03*
D22*
G01*
X2857500Y10436860D03*
G01*
X2603500Y10436860D03*
G01*
X2349500Y10436860D03*
D21*
G01*
X5226050Y10435589D03*
D22*
G01*
X4972050Y10435589D03*
G01*
X4718050Y10435589D03*
G01*
X4464050Y10435589D03*
D21*
G01*
X1346200Y10436860D03*
D22*
G01*
X1600200Y10436860D03*
D23*
G01*
X952500Y8267700D03*
G01*
X952500Y8013700D03*
D24*
G01*
X1066800Y6456679D03*
G01*
X1066800Y7106920D03*
D25*
G01*
X2806700Y6184900D03*
G01*
X3060700Y6184900D03*
G01*
X3314700Y6184900D03*
G01*
X3568700Y6184900D03*
G01*
X3822700Y6184900D03*
G01*
X4076700Y6184900D03*
G01*
X4330700Y6184900D03*
G01*
X4584700Y6184900D03*
G01*
X4838700Y6184900D03*
G01*
X5092700Y6184900D03*
G01*
X5346700Y6184900D03*
G01*
X5600700Y6184900D03*
G01*
X5854700Y6184900D03*
G01*
X6108700Y6184900D03*
G01*
X6362700Y6184900D03*
G01*
X2806700Y8470900D03*
G01*
X3060700Y8470900D03*
G01*
X3314700Y8470900D03*
G01*
X3568700Y8470900D03*
G01*
X3822700Y8470900D03*
G01*
X4076700Y8470900D03*
G01*
X4330700Y8470900D03*
G01*
X4584700Y8470900D03*
G01*
X4838700Y8470900D03*
G01*
X5092700Y8470900D03*
G01*
X5346700Y8470900D03*
G01*
X5600700Y8470900D03*
G01*
X5854700Y8470900D03*
G01*
X6108700Y8470900D03*
G01*
X6362700Y8470900D03*
D10*
G01*
X4724400Y4877943D03*
G01*
X4724400Y5028056D03*
D26*
G01*
X3390900Y5016500D03*
G01*
X3136900Y5016500D03*
D27*
G01*
X3644900Y5016505D03*
D10*
G01*
X1066800Y7454900D03*
G01*
X2832100Y7569200D03*
G01*
X952500Y8470900D03*
G01*
X1955800Y9017000D03*
G01*
X1092200Y10439400D03*
G01*
X3111500Y10172700D03*
G01*
X4711700Y10198100D03*
G01*
X3822700Y9055100D03*
G01*
X7086600Y10185400D03*
G01*
X6350000Y8737600D03*
G01*
X5359400Y6680200D03*
G01*
X6362700Y7797800D03*
G01*
X4076700Y7785100D03*
G01*
X5346700Y9105900D03*
G01*
X6362700Y6654800D03*
G01*
X7137400Y8788400D03*
G01*
X4483100Y8013700D03*
G01*
X1943100Y5410200D03*
G01*
X3644900Y4699000D03*
G01*
X3911600Y5016500D03*
M02*
